<svg width="293" height="56" viewBox="0 0 293 56" fill="none" xmlns="http://www.w3.org/2000/svg">
<path d="M130.732 53.6526L130.724 25.2424H115.96C115.96 25.2424 116.461 35.4938 115.683 37.4861C114.364 41.8179 103.725 41.2022 103.725 36.1535C103.725 30.2868 114.561 31.2939 114.561 31.2939L113.48 25.2336C113.48 25.2336 88.4382 22.9028 87.2376 36.2898C86.9693 45.6177 103.589 49.5098 115.881 44.9184V55.9966L130.732 53.657V53.6526Z" fill="white"/>
<path d="M183.755 40.9983C183.61 40.8487 180.905 41.5216 178.943 41.0422C176.78 40.5145 176.639 38.8961 176.639 36.7411V25.2188H160.415V36.0947C160.415 37.3788 160.521 40.5013 155.969 40.5013C153.924 40.5013 151.589 40.3298 151.589 37.3788V25.2188H135.453L135.466 39.0764C135.466 46.975 148.717 49.3894 162.328 44.2351C162.328 44.2351 168.701 49.2706 184.634 45.5676C184.634 45.5676 183.939 41.2006 183.75 41.0027" fill="white"/>
<path d="M212.491 27.435C212.596 25.7331 216.827 25.2933 217.086 27.2635C217.086 27.2635 212.381 29.2733 212.491 27.435ZM248.483 39.7578C248.074 39.6215 245.092 40.29 241.758 39.1377C236.424 37.2906 235.606 30.1353 241.939 26.0453L236.01 21.0273C225.552 25.0558 223.402 25.3416 222.425 25.5659C221.937 24.1454 219.668 21.7574 214.857 22.0432C212.24 22.1972 208.348 23.6705 207.222 26.3444C206.466 28.1475 206.923 30.1749 208.682 31.5558C211.215 33.5524 216.053 33.0555 216.053 33.0555C214.531 39.4368 201.263 43.8039 201.263 36.9608V25.2273H185.51V38.8563C185.51 45.6641 193.866 47.4277 202.068 46.8868C213.546 46.1303 220.006 39.5423 222.359 32.431L227.958 31.138C227.958 31.138 220.292 41.13 229.858 45.6685C235.315 48.2589 245.347 46.2623 249.38 44.1117C249.38 44.1117 248.711 39.8326 248.478 39.7578" fill="white"/>
<path d="M52.5033 39.2626C52.5033 39.2626 56.5713 36.6854 60.758 33.0176C60.758 33.0176 64.3599 35.1242 66.0091 37.6266C66.0091 37.6266 60.2655 36.5359 52.5033 39.2626ZM65.5297 41.5407C63.8014 43.6692 57.0331 43.6516 57.508 42.2575C58.0182 40.7578 64.7337 41.1317 65.5297 41.5407ZM82.6901 39.7551C84.1766 38.2467 84.0842 36.4128 82.8265 34.4117C80.9662 31.4608 75.8295 29.7324 74.5981 27.3928C74.0571 26.3637 74.0791 25.1411 74.8795 23.637L74.6025 22.4012L57.2662 24.3187C56.2415 26.6319 57.2881 28.435 57.3629 28.6461C44.8378 42.0596 24.5286 42.1784 23.9876 37.4507C23.4819 33.0176 37.3659 32.0369 37.3659 32.0369L37.0932 27.617C37.0932 27.617 27.739 28.3515 27.5983 25.4753C27.4531 22.5067 36.2049 21.548 41.2756 21.4864L39.9826 14.3619C23.5566 14.1816 8.20375 17.801 6.79205 24.0064C6.36985 25.8667 7.61005 29.1431 14.3871 30.5064V30.7439C14.3871 30.7439 0.155692 32.9956 0.252444 39.1702C0.340401 44.6631 12.6148 47.104 21.2874 47.1655C38.8568 47.2887 48.1142 41.4659 48.1142 41.4659C45.6602 48.1814 64.892 48.995 78.2483 44.175C78.886 43.9463 84.0139 46.132 87.132 47.5086C87.132 47.5086 89.1242 42.7325 88.8603 42.086C88.6184 41.4967 82.6945 39.7595 82.6945 39.7595" fill="white"/>
<path d="M270.687 38.5393C270.687 35.4256 281.436 34.379 281.436 34.379L281.286 31.2609C279.721 31.2169 273.603 31.4412 273.603 29.8052C273.603 27.6678 282.962 27.1489 286.243 27.0301L285.57 22.043C279.914 22.0606 254.512 22.1265 253.474 29.0004C252.911 32.7122 260.225 33.5873 260.225 33.5873V33.7633C260.225 33.7633 250.646 35.5356 250.646 40.1709C250.646 49.6307 283.679 46.9788 292.228 44.626C292.228 44.626 291.401 40.426 291.023 40.2281C290.68 40.0522 283.749 41.0769 278.243 40.9274C273.766 40.8086 270.687 40.0962 270.687 38.5305" fill="white"/>
<path d="M193.511 22.8419C197.451 22.8419 200.648 19.6446 200.648 15.7041C200.648 11.7636 197.451 8.56641 193.511 8.56641C189.57 8.56641 186.373 11.7636 186.373 15.7041C186.373 19.6446 189.57 22.8419 193.511 22.8419Z" fill="white"/>
</svg>
