<svg width="218" height="56" viewBox="0 0 218 56" fill="none" xmlns="http://www.w3.org/2000/svg">
<g clip-path="url(#clip0_2275_12046)">
<path d="M135.122 6.63697C135.122 6.65539 135.141 6.6646 135.177 6.6646H135.923V6.78432H133.379V6.6646H134.042C134.078 6.6646 134.097 6.65539 134.097 6.63697V4.06138H131.666V6.63697C131.666 6.65539 131.681 6.6646 131.718 6.6646H132.381V6.78432H129.836V6.6646H130.582C130.619 6.6646 130.637 6.65539 130.637 6.63697V1.58095C130.637 1.56253 130.619 1.55332 130.582 1.55332H129.836V1.43359H132.381V1.55332H131.718C131.681 1.55332 131.666 1.56253 131.666 1.58095V3.94165H134.097V1.58095C134.097 1.56253 134.078 1.55332 134.042 1.55332H133.379V1.43359H135.923V1.55332H135.177C135.141 1.55332 135.122 1.56253 135.122 1.58095V6.63697Z" fill="white"/>
<path d="M142.189 4.44021C141.956 4.44021 141.796 4.32969 141.796 4.14857C141.796 3.9828 141.897 3.99201 141.897 3.86922C141.897 3.74642 141.817 3.6881 141.692 3.6881C141.566 3.6881 141.329 3.73107 141.154 4.2683V6.63514C141.154 6.65356 141.173 6.66277 141.206 6.66277H141.661V6.78249H139.871V6.66277H140.325C140.362 6.66277 140.381 6.65356 140.381 6.63514V3.71266C140.381 3.69424 140.362 3.68503 140.325 3.68503H139.871V3.56837H141.13L141.151 3.58986V4.09025C141.286 3.67582 141.575 3.50391 141.919 3.50391C142.33 3.50391 142.603 3.72186 142.603 4.05955C142.603 4.27137 142.437 4.44328 142.189 4.44328" fill="white"/>
<path d="M148.905 6.84836C149.486 6.84836 149.955 6.56593 150.268 6.13308L150.179 6.05941C149.888 6.47384 149.495 6.72863 148.905 6.72863C148.688 6.72863 148.516 6.68873 148.365 6.55365C148.12 6.33569 148.046 6.07783 148.046 5.17223C148.046 5.10469 148.046 5.08627 148.046 5.02487H150.336L150.361 5.00338C150.361 4.39249 149.94 3.49609 148.905 3.49609C147.948 3.49609 147.232 4.24513 147.232 5.16916C147.232 6.09318 147.951 6.84222 148.905 6.84222M149.329 3.78773C149.504 3.98727 149.562 4.29118 149.575 4.90515H148.046C148.064 4.29425 148.141 3.98727 148.365 3.78773C148.516 3.65573 148.688 3.61275 148.905 3.61275C149.09 3.61275 149.209 3.65266 149.329 3.78773Z" fill="white"/>
<path d="M137.506 6.69877C137.915 6.69877 138.182 6.40714 138.182 6.12778V5.01343C137.991 5.12701 137.715 5.12701 137.473 5.16999C137.199 5.21911 136.905 5.36339 136.905 6.05718C136.905 6.58519 137.252 6.69877 137.509 6.69877M136.546 4.15388C136.546 3.8868 136.88 3.5 137.531 3.5C138.486 3.5 138.955 3.9175 138.955 4.86301V6.39486C138.955 6.57291 139.044 6.64966 139.167 6.64966C139.315 6.64966 139.434 6.52993 139.465 6.45319L139.545 6.52993C139.496 6.665 139.25 6.84305 138.943 6.84305C138.59 6.84305 138.28 6.64045 138.225 6.35495C138.111 6.67728 137.801 6.84305 137.359 6.84305C136.622 6.84305 136.146 6.58519 136.146 6.05411C136.146 5.26209 136.991 5.08097 137.313 5.05334C137.77 5.0165 138.179 4.9858 138.179 4.82617V4.38411C138.179 3.84689 137.942 3.61665 137.528 3.61665C137.319 3.61665 137.19 3.71489 137.19 3.93592C137.19 4.06178 137.258 4.10169 137.258 4.22448C137.258 4.35956 137.147 4.49463 136.886 4.49463C136.625 4.49463 136.539 4.32272 136.539 4.15081" fill="white"/>
<path d="M145.507 3.78857C145.369 3.65963 145.182 3.61665 144.979 3.61665C144.703 3.61665 144.448 3.80084 144.273 4.00652V6.25365C144.378 6.52072 144.688 6.7264 144.979 6.7264C145.179 6.7264 145.366 6.68649 145.507 6.55449C145.738 6.3396 145.891 5.96201 145.891 5.18841C145.891 4.41481 145.738 4.00038 145.507 3.7855M146.674 5.18841C146.674 6.02341 145.965 6.84305 144.979 6.84305C144.679 6.84305 144.448 6.65272 144.273 6.4716V8.96431C144.273 8.98273 144.292 8.99194 144.326 8.99194H144.783V9.11167H142.993V8.99194H143.448C143.484 8.99194 143.5 8.98273 143.5 8.96431V3.71182C143.5 3.6934 143.484 3.68419 143.448 3.68419H142.99V3.56754H144.249L144.27 3.58903V3.87452C144.445 3.69033 144.676 3.5 144.976 3.5C145.962 3.5 146.671 4.35649 146.671 5.19148" fill="white"/>
<path d="M156.448 3.59767C156.534 3.59767 156.58 3.56084 156.589 3.53014H156.718V4.3283H156.589C156.589 3.86475 156.174 3.62837 155.782 3.62837C155.389 3.62837 155.177 3.80949 155.177 4.10113C155.177 4.47258 155.444 4.65984 156.049 4.83175C156.681 5.0098 157.098 5.31985 157.098 5.80489C157.098 6.41579 156.604 6.85784 155.815 6.85784C155.346 6.85784 155.143 6.63988 154.897 6.63988C154.744 6.63988 154.661 6.74426 154.643 6.80259H154.514L154.56 5.74042H154.689C154.667 6.29606 155.186 6.73812 155.815 6.73812C156.291 6.73812 156.561 6.52016 156.561 6.11801C156.561 5.71586 156.242 5.55316 155.662 5.37511C155.094 5.2032 154.698 4.96989 154.698 4.47258C154.698 3.8801 155.272 3.51172 155.782 3.51172C156.113 3.51172 156.144 3.60074 156.448 3.60074" fill="white"/>
<path d="M154.084 2.47497C154.084 2.25701 154.268 2.08203 154.492 2.08203C154.735 2.08203 154.919 2.26008 154.919 2.52102C154.919 2.90475 154.572 3.35601 154.096 3.64151L154.02 3.55862C154.363 3.35908 154.612 3.1135 154.759 2.76354C154.695 2.83414 154.609 2.86484 154.495 2.86484C154.268 2.86484 154.087 2.68986 154.087 2.4719" fill="white"/>
<path d="M153.051 4.44021C152.818 4.44021 152.658 4.32969 152.658 4.14857C152.658 3.9828 152.759 3.99201 152.759 3.86922C152.759 3.74642 152.68 3.6881 152.554 3.6881C152.428 3.6881 152.191 3.73107 152.016 4.2683V6.63514C152.016 6.65356 152.032 6.66277 152.069 6.66277H152.526V6.78249H150.736V6.66277H151.194C151.231 6.66277 151.246 6.65356 151.246 6.63514V3.71266C151.246 3.69424 151.227 3.68503 151.194 3.68503H150.736V3.56837H151.995L152.02 3.58986V4.09025C152.155 3.67582 152.443 3.50391 152.787 3.50391C153.198 3.50391 153.472 3.72186 153.472 4.05955C153.472 4.27137 153.306 4.44328 153.057 4.44328" fill="white"/>
<path d="M39.5537 52.264C39.13 54.02 39.0717 54.198 38.6388 54.198H33.8008V54.5418H44.7601V54.198H39.744C39.4186 54.198 39.4738 53.9616 39.8668 52.3561L43.2375 38.8304H56.582L60.6557 54.198H55.2344V54.5418H73.4723V54.198H67.8023L52.6834 0H52.5913L39.5567 52.264H39.5537ZM49.6933 12.924L56.4807 38.4866H43.3357L49.6933 12.924Z" fill="white"/>
<path d="M15.0661 1.82736C22.0039 1.82736 24.8281 7.27939 24.8281 14.4904C24.8281 21.2441 22.0039 26.6409 15.0661 26.6409H11.9103V1.82736H15.0661ZM0.699219 1.48047V1.82429H5.08602C5.40528 1.82429 5.55263 1.91639 5.55263 2.10365V53.9194C5.55263 54.1036 5.40528 54.1988 5.08602 54.1988H0.699219V54.5426H17.0584C27.5971 54.5457 33.218 50.0115 33.218 40.8511C33.218 34.5119 29.8934 28.0591 19.4068 26.7729C28.3186 25.9102 31.3915 20.1297 31.3915 14.4935C31.3915 6.251 26.5994 1.48661 16.0638 1.48661H0.699219V1.48047ZM15.0661 26.9847C22.8911 26.9847 25.9916 32.495 25.9916 40.8511C25.9916 48.0622 23.2226 54.2019 16.7268 54.2019H12.3738C12.0545 54.1988 11.9072 54.1067 11.9072 53.9194V26.9816H15.063L15.0661 26.9847Z" fill="white"/>
<path d="M192.34 27.499H196.512C200.208 27.499 205.66 29.1445 205.66 35.8275V47.9288C205.66 52.8805 208.306 55.9994 212.972 55.9994C217.875 55.9994 217.798 50.882 217.798 47.192V43.3026H217.466V47.192C217.466 51.3916 216.984 55.0355 214.593 55.0355C212.475 55.0355 212.017 53.6786 212.017 47.9841V35.8306C212.017 30.2066 207.606 28.1468 200.794 27.3302C209.279 26.2864 212.475 20.6871 212.475 14.4952C212.475 5.33786 208.383 1.48828 197.844 1.48828H181.135V1.82903H185.522C185.838 1.82903 185.988 1.92113 185.988 2.10839V53.9242C185.988 54.1084 185.841 54.2036 185.522 54.2036H181.135V54.5474H196.499V54.2036H192.809C192.493 54.2036 192.343 54.1115 192.343 53.9242V27.5052L192.34 27.499ZM192.34 1.82903H196.843C203.781 1.82903 205.74 7.28107 205.74 14.4921C205.74 21.2458 203.781 27.1552 196.843 27.1552H192.34V1.82903Z" fill="white"/>
<path d="M112.836 52.2587C112.412 54.0146 112.354 54.1896 111.924 54.1896H107.086V54.5334H118.042V54.1896H113.026C112.701 54.1896 112.756 53.9532 113.152 52.3477L116.523 38.822H129.864L133.938 54.1866H128.516V54.5304H146.751V54.1866H141.081L125.962 0.00390625H125.87L112.836 52.2587ZM122.972 12.9279L129.76 38.4843H116.615L122.969 12.9279H122.972Z" fill="white"/>
<path d="M83.8699 53.9211C83.8177 54.0439 83.8791 54.1913 84.1339 54.1913H96.1032C99.787 54.1943 104.545 48.5643 104.545 30.4184V28.5305H104.877V54.5382H76.3027L97.9482 2.09611C98.0034 1.97332 97.9389 1.82596 97.6842 1.82596H84.9781C81.6443 1.82903 76.8 8.1222 76.8 25.608V27.496H76.4685V1.48828H105.543L83.873 53.9211H83.8699Z" fill="white"/>
<path d="M148.863 52.264C148.439 54.02 148.381 54.198 147.951 54.198H143.113V54.5418H154.073V54.198H149.056C148.731 54.198 148.786 53.9616 149.179 52.3561L152.55 38.8304H165.895L169.968 54.198H164.547V54.5418H182.785V54.198H177.115L161.99 0H161.898L148.86 52.264H148.863ZM159.003 12.924L165.793 38.4866H152.645L159.003 12.924Z" fill="white"/>
</g>
<defs>
<clipPath id="clip0_2275_12046">
<rect width="218" height="56" fill="white"/>
</clipPath>
</defs>
</svg>
