<svg width="281" height="56" viewBox="0 0 281 56" fill="none" xmlns="http://www.w3.org/2000/svg">
<g clip-path="url(#clip0_2275_12011)">
<path d="M16.5481 20.6307C16.5481 11.7568 15.5097 8.44613 13.3023 8.44613C11.4369 8.44613 9.57149 9.80274 9.57149 27.9987C9.57149 46.1947 10.5415 47.5513 13.3023 47.5513C16.2745 47.5513 16.9647 42.5854 17.1015 34.844L24.6998 35.2174C24.6998 44.5457 23.4562 55.8217 12.9541 55.8217C3.3473 55.8279 0.169922 45.6036 0.169922 28.005C0.169922 7.54379 5.83449 0.175781 12.9541 0.175781C23.3194 0.175781 24.563 10.5557 24.563 20.332L16.5481 20.6307Z" fill="white"/>
<path d="M33.7417 33.643C33.7417 45.2239 34.9852 47.5576 37.0558 47.5576C39.1264 47.5576 40.37 45.2239 40.37 33.643L40.37 22.3607C40.37 10.7797 39.1264 8.44613 37.0558 8.44613C34.9852 8.44613 33.7417 10.7797 33.7417 22.3607L33.7417 33.643ZM37.0558 0.175781C45.0024 0.175781 50.182 6.87171 50.182 28.005C50.182 49.1382 45.0024 55.8341 37.0558 55.8341C29.1093 55.8341 23.9297 49.1382 23.9297 28.005C23.9297 6.87171 29.1093 0.175781 37.0558 0.175781Z" fill="white"/>
<path d="M57.6933 39.281C57.6933 42.2867 57.6933 47.5513 61.5609 47.5513C64.5331 47.5513 65.5652 44.5456 65.5652 42.3614C65.5652 32.8091 49.2617 30.6311 49.2617 14.7625C49.2679 6.72236 53.2723 0.175781 60.8707 0.175781C68.954 0.175781 72.063 6.87171 72.2744 16.4987H64.2595C64.2595 13.493 64.2595 8.45235 60.6655 8.45235C58.5265 8.45235 57.2767 10.4064 57.2767 13.3436C57.2767 22.4416 73.5802 25.5282 73.5802 41.0919C73.5802 49.2876 69.296 55.8341 61.2127 55.8341C51.6059 55.8341 49.6721 46.6615 49.6721 39.2872H57.6871L57.6933 39.281Z" fill="white"/>
<path d="M72.5078 1.23828L84.465 1.23828L88.4693 28.6879H88.6061L92.8219 1.23828L104.499 1.23828L104.499 54.7871H96.4843L96.4843 15.5263H96.3475L90.2663 54.7871H85.292L79.2792 15.5263H79.1424L79.1424 54.7871H72.5078L72.5078 1.23828Z" fill="white"/>
<path d="M114.314 33.643C114.314 45.2239 115.557 47.5576 117.628 47.5576C119.698 47.5576 120.942 45.2239 120.942 33.643L120.942 22.3607C120.942 10.7797 119.698 8.44613 117.628 8.44613C115.557 8.44613 114.314 10.7797 114.314 22.3607L114.314 33.643ZM117.628 0.175781C125.574 0.175781 130.76 6.87171 130.76 28.005C130.76 49.1382 125.581 55.8341 117.634 55.8341C109.687 55.8341 104.508 49.1382 104.508 28.005C104.508 6.87171 109.681 0.175781 117.628 0.175781Z" fill="white"/>
<path d="M139.809 25.5328H140.568C144.23 25.5328 146.232 23.9522 146.232 17.4865C146.232 9.73888 143.472 9.51485 140.499 9.51485H139.809L139.809 25.5328ZM130.756 1.23828L139.741 1.23828C149.895 1.23828 155.217 5.67527 155.217 17.2562C155.217 26.8832 151.76 33.3489 143.335 33.3489H139.741L139.741 54.7808H130.756L130.756 1.23828Z" fill="white"/>
<path d="M164.378 33.643C164.378 45.2239 165.622 47.5576 167.693 47.5576C169.763 47.5576 171.007 45.2239 171.007 33.643L171.007 22.3607C171.007 10.7797 169.763 8.44613 167.693 8.44613C165.622 8.44613 164.378 10.7797 164.378 22.3607L164.378 33.643ZM167.693 0.175781C175.639 0.175781 180.819 6.87171 180.819 28.005C180.819 49.1382 175.639 55.8341 167.693 55.8341C159.746 55.8341 154.567 49.1382 154.567 28.005C154.567 6.87171 159.752 0.175781 167.693 0.175781Z" fill="white"/>
<path d="M180.814 1.23828L189.793 1.23828L189.793 46.5167H201.265L201.265 54.7871H180.814L180.814 1.23828Z" fill="white"/>
<path d="M210.645 1.23828L201.66 1.23828L201.66 54.7871H210.645L210.645 1.23828Z" fill="white"/>
<path d="M218.827 9.51485L211.086 9.51485L211.086 1.23828L235.547 1.23828L235.547 9.51485H227.806L227.806 54.7871H218.827L218.827 9.51485Z" fill="white"/>
<path d="M242.594 9.51485H242.457L239.622 35.0851H245.218L242.594 9.51485ZM236.861 1.2445L249.851 1.2445L255.932 54.7933L247.295 54.7933L245.983 42.9074H238.727L237.483 54.7933H229.953L236.861 1.23828V1.2445Z" fill="white"/>
<path d="M273.029 1.23828L273.029 29.5155H272.893L264.672 1.23828L255.893 1.23828L255.893 54.7871H263.497L263.497 22.3715H263.634L273.234 54.7871L280.143 54.7871L280.143 1.23828L273.029 1.23828Z" fill="white"/>
</g>
<defs>
<clipPath id="clip0_2275_12011">
<rect width="281" height="56" fill="white"/>
</clipPath>
</defs>
</svg>
