<svg width="167" height="56" viewBox="0 0 167 56" fill="none" xmlns="http://www.w3.org/2000/svg">
<g clip-path="url(#clip0_2275_11991)">
<path d="M166.426 40.9589C166.426 53.7109 160.982 55.0688 154.752 55.0688V27.4266C160.624 27.4266 161.219 31.5092 161.219 37.523H161.723V16.6103H161.219C161.219 22.6457 160.645 26.9266 154.752 26.9266V0.926864C160.982 0.926864 165.995 1.93133 165.995 14.9635H166.495V0H144.156V0.500078H148.152V55.4956H144.143V56H166.914V40.9589H166.426ZM106.702 21.624V0.500078H110.711V0H96.1053V0.500078H100.115V55.4956H96.1053V56H118.876V40.9589H118.372C118.372 53.7109 112.931 55.4956 106.702 55.4956V21.624ZM58.6513 21.624V0.500078H62.6605V0H48.0505V0.500078H52.0597V55.4956H48.0505V56H70.8212V40.9589H70.3211C70.3211 53.7109 64.8807 55.4956 58.6513 55.4956V21.624ZM22.2707 40.9589C22.2707 53.7109 16.8302 55.0688 10.6008 55.0688V27.4266C16.468 27.4266 17.0457 31.5092 17.0457 37.523H17.5286V16.6103H17.0285C17.0285 22.6457 16.4508 26.9266 10.5835 26.9266V0.926864C16.8129 0.926864 21.8223 1.93133 21.8223 14.9635H22.3224V0H0V0.500078H4.00924V55.4956H0V56H22.7707V40.9589H22.2707Z" fill="#111111"/>
</g>
<defs>
<clipPath id="clip0_2275_11991">
<rect width="167" height="56" fill="white"/>
</clipPath>
</defs>
</svg>
