<svg width="48" height="48" viewBox="0 0 48 48" fill="none" xmlns="http://www.w3.org/2000/svg">
<rect width="48" height="48" rx="24" fill="#F7F7F7"/>
<path d="M25.7 25.65H28.45L29.55 21.25H25.7V19.05C25.7 17.917 25.7 16.85 27.9 16.85H29.55V13.154C29.1914 13.1067 27.8373 13 26.4073 13C23.4208 13 21.3 14.8227 21.3 18.17V21.25H18V25.65H21.3V35H25.7V25.65Z" fill="#111111"/>
<rect width="48" height="48" rx="24" fill="#00A05E"/>
<path d="M27 14H15V28" stroke="white" stroke-width="2" stroke-linecap="round" stroke-linejoin="round"/>
<path d="M19 18H33V31.7143C33 32.3205 32.7542 32.9019 32.3166 33.3305C31.879 33.7592 31.2855 34 30.6667 34H21.3333C20.7145 34 20.121 33.7592 19.6834 33.3305C19.2458 32.9019 19 32.3205 19 31.7143V18Z" stroke="white" stroke-width="2" stroke-linecap="round" stroke-linejoin="round"/>
</svg>
