<svg width="28" height="28" viewBox="0 0 28 28" fill="none" xmlns="http://www.w3.org/2000/svg">
<path d="M4 7H14H24C24.5523 7 25 7.44772 25 8V19.0188C25 19.2873 24.892 19.5445 24.7004 19.7326L22.6811 21.7138C22.4942 21.8972 22.2427 22 21.9808 22H6.01923C5.75731 22 5.50584 21.8972 5.31888 21.7138L3.29965 19.7326C3.10798 19.5445 3 19.2873 3 19.0188V8C3 7.44772 3.44772 7 4 7Z" stroke="#111111" stroke-width="2"/>
<path d="M3 8C3 7.44772 3.44772 7 4 7H24C24.5523 7 25 7.44771 25 8V10.1092L14.464 15.6281C14.1734 15.7803 13.8266 15.7803 13.536 15.6281L3 10.1092V8Z" stroke="#111111" stroke-width="2"/>
</svg>
