<svg width="20" height="20" viewBox="0 0 20 20" fill="none" xmlns="http://www.w3.org/2000/svg">
<path d="M15.2815 15.2796V13.5277L16.899 12.8581L16.2294 11.2389L17.4672 10.0012L16.2294 8.76181L16.899 7.14424L15.2815 6.47461V4.72279H13.5297L12.86 3.10522L11.2425 3.77484L10.0031 2.53711L8.76538 3.77484L7.14782 3.10522L6.47656 4.72279H4.72638V6.47461L3.10718 7.14424L3.77843 8.76181L2.53906 10.0012L3.77843 11.2389L3.10718 12.8581L4.72638 13.5277V15.2796H6.47656L7.14782 16.8971L8.76538 16.2259L10.0031 17.4652L11.2425 16.2259L12.86 16.8971L13.5297 15.2796H15.2815Z" fill="#E5B65A"/>
</svg>
