<svg width="20" height="20" viewBox="0 0 20 20" fill="none" xmlns="http://www.w3.org/2000/svg">
<path d="M8.41577 4.5323C7.95244 3.9953 7.41379 3.6875 6.83913 3.6875C5.09878 3.6875 3.6875 6.50842 3.6875 9.99078C3.6875 13.4731 5.09878 16.2941 6.83913 16.2941C7.41379 16.2941 7.9508 15.9846 8.41577 15.4493C8.8791 15.9863 9.41774 16.2941 9.9924 16.2941C10.5671 16.2941 11.1041 15.9846 11.569 15.4493C12.0324 15.9863 12.571 16.2941 13.1457 16.2941C14.886 16.2941 16.2973 13.4715 16.2973 9.99078C16.2973 6.51006 14.8844 3.6875 13.144 3.6875C12.5694 3.6875 12.0324 3.99693 11.5674 4.5323C11.1041 3.9953 10.5654 3.6875 9.99077 3.6875C9.4161 3.6875 8.8791 3.99693 8.41413 4.5323" fill="#00A05E"/>
</svg>
