<svg width="28" height="28" viewBox="0 0 28 28" fill="none" xmlns="http://www.w3.org/2000/svg">
<path d="M13.5768 19.6978L3 14.7469V9.88911C3 9.50101 3.22456 9.14795 3.57606 8.98342L13.5761 4.30257L13.1576 3.40859L13.5761 4.30257C13.8447 4.17682 14.1553 4.17682 14.4239 4.30257L24.4239 8.98342C24.7754 9.14795 25 9.50101 25 9.88911V14.7562L14.4241 19.6981C14.1556 19.8235 13.8452 19.8234 13.5768 19.6978Z" fill="#F7F1E5" stroke="#00A05E" stroke-width="2"/>
<path d="M6.00111 15.166C6.0005 15.166 6 15.1665 6 15.1672C6.00055 20.0444 9.58087 24 14 24C18.4195 24 22 20.0462 22 15.166L22 5C22 3.89543 21.1046 3 20 3L8.00223 3C6.89766 3 6.00223 3.89543 6.00223 5L6.00223 15.1649C6.00223 15.1655 6.00173 15.166 6.00111 15.166Z" fill="#F2CC69"/>
<path d="M12.7513 19.0217C13.5442 19.3847 14.4558 19.3847 15.2487 19.0217L25 14.5576V20.0188C25 20.2873 24.892 20.5445 24.7004 20.7326L22.6811 22.7138C22.4942 22.8972 22.2427 23 21.9808 23H6.01923C5.75731 23 5.50584 22.8972 5.31888 22.7138L3.29965 20.7326C3.10798 20.5445 3 20.2873 3 20.0188V14.5576L12.7513 19.0217Z" fill="#F7F1E5" stroke="#00A05E" stroke-width="2"/>
</svg>
