<svg width="20" height="20" viewBox="0 0 20 20" fill="none" xmlns="http://www.w3.org/2000/svg">
<path d="M2.85826 5.28613H10.0011H17.144C17.3807 5.28613 17.5725 5.47801 17.5725 5.7147V13.5853C17.5725 13.7003 17.5263 13.8106 17.4441 13.8912L16.0018 15.3063C15.9217 15.3849 15.8139 15.429 15.7017 15.429H4.30057C4.18831 15.429 4.08054 15.3849 4.00042 15.3063L2.55811 13.8912C2.47597 13.8106 2.42969 13.7003 2.42969 13.5853V5.7147C2.42969 5.47801 2.62157 5.28613 2.85826 5.28613Z" stroke="#111111" stroke-width="2"/>
<path d="M2.42969 5.7147C2.42969 5.47801 2.62157 5.28613 2.85826 5.28613H17.144C17.3807 5.28613 17.5725 5.47801 17.5725 5.7147V7.04841L10.2 10.9102C10.0754 10.9755 9.9268 10.9755 9.80226 10.9102L2.42969 7.04841V5.7147Z" stroke="#111111" stroke-width="2"/>
</svg>
