<svg width="20" height="20" viewBox="0 0 20 20" fill="none" xmlns="http://www.w3.org/2000/svg">
<path d="M16.6331 6.78688C16.6331 4.69616 14.9369 3 12.8462 3C11.6052 3 10.5066 3.59922 9.81735 4.52261C9.12645 3.60086 8.02788 3 6.78687 3C4.69615 3 3 4.69616 3 6.78688C3 8.02789 3.59922 9.12646 4.52261 9.81737C3.59922 10.5066 3 11.6052 3 12.8462C3 14.9369 4.69615 16.6331 6.78687 16.6331C8.02788 16.6331 9.12481 16.0339 9.81572 15.1121C10.5066 16.0339 11.6052 16.6331 12.8446 16.6331C14.9353 16.6331 16.6314 14.9369 16.6314 12.8462C16.6314 11.6052 16.0322 10.5083 15.1105 9.81737C16.0322 9.12646 16.6314 8.02953 16.6314 6.78852" fill="#008C80"/>
</svg>
