<svg width="164" height="32" viewBox="0 0 164 32" fill="none" xmlns="http://www.w3.org/2000/svg">
<g clip-path="url(#clip0_624_1031)">
<path d="M59.8245 18.1903H41.735V11.7572H59.2569V10.2665H55.1414C56.859 9.67898 59.2945 8.39017 59.2945 5.63997V2.8457H36.7852V4.33647H54.1492C54.1492 4.33647 54.1567 6.12098 54.1492 6.57261C54.1154 8.63618 53.2998 9.63492 51.2326 9.98741C50.2517 10.1563 49.5413 10.2665 48.2522 10.2665H36.7889V19.6774H59.8282V18.1866L59.8245 18.1903Z" fill="#00A05E"/>
<path d="M63.8016 25.1006H31.8359V26.5913H63.8016V25.1006Z" fill="#00A05E"/>
<path d="M11.806 26.39H28.4748V25.0021H26.137C27.4412 24.4329 28.4748 22.9605 28.4748 19.6963H7.17188V21.0842H23.6414C23.6414 22.1381 23.5662 23.1037 23.0588 23.8638C22.792 24.264 22.1418 24.9984 20.8977 24.9984H7.17188V31.9969H29.1964V30.609H11.806V26.39Z" fill="#00A05E"/>
<path d="M28.4786 0.951172H24.6562V17.5148H28.4786V0.951172Z" fill="#00A05E"/>
<path d="M15.2518 9.9395H18.2285V17.43H21.9418V1.25195H18.2285V8.44874H15.2255C14.7594 4.75855 11.358 2.44163 7.64093 2.44163C3.63818 2.44163 0 5.12941 0 9.32631C0 13.5232 3.63818 16.211 7.64093 16.211C11.6437 16.211 14.9173 13.7839 15.2518 9.9395ZM3.75093 9.32631C3.75093 5.57003 5.2919 3.31552 7.63717 3.31552C9.98245 3.31552 11.5197 5.56635 11.5197 9.32631C11.5197 13.0863 9.9862 15.3371 7.63717 15.3371C5.28814 15.3371 3.75093 13.0863 3.75093 9.32631Z" fill="#00A05E"/>
<path d="M73.2303 10.5159H84.4531L78.5636 15.9466C77.0564 15.8474 74.3278 15.102 74.3278 15.102L74.3052 17.9477C74.3052 17.9477 76.7821 18.7188 80.0519 18.7188C87.4523 18.7188 89.8878 13.6003 89.8878 13.6003V18.3149H93.2967V2.30937H89.8878V12.4803C89.8878 12.4803 89.1098 13.9013 86.2421 15.047C84.4643 15.7593 82.5212 15.9612 80.3376 15.9612H79.9767L85.8775 10.5159L88.4333 8.16962H73.2266V2.29102H69.75V18.3112H73.2266V10.5159H73.2303Z" fill="#00A05E"/>
<path d="M109.126 3.99902C104.079 3.99902 99.3203 7.90585 99.3203 14.5041C99.3466 21.0216 104.105 24.9138 109.126 24.9138C114.147 24.9138 118.932 21.051 118.932 14.4527C118.932 7.85445 114.177 3.99902 109.126 3.99902ZM109.126 23.6653C106.499 23.6653 103.849 21.6458 103.83 14.4968C103.83 7.28531 106.484 5.2401 109.126 5.2401C111.768 5.2401 114.422 7.24125 114.422 14.4527C114.422 21.6642 111.768 23.6653 109.126 23.6653Z" fill="#00A05E"/>
<path d="M127.406 0.951172H123.625V30.8839H127.406V0.951172Z" fill="#00A05E"/>
<path d="M163.999 25.1006H131.492V26.5913H163.999V25.1006Z" fill="#00A05E"/>
<path d="M83.3215 20.1436H79.736V25.1005H65.2734V26.6023H79.736H83.3215H97.784V25.1005H83.3215V20.1436Z" fill="#00A05E"/>
<path d="M140.307 14.4411C142.097 10.6003 144.814 8.43396 148.681 8.43396C152.019 8.43396 153.966 10.358 155.244 13.5929C156.435 16.255 156.803 19.846 156.803 19.846H160.671C160.671 19.846 160.269 16.2256 158.468 12.5427C157.247 10.0422 155.743 7.48663 152.556 5.96649C152.62 5.96649 154.24 5.07791 154.24 3.07676C154.24 1.44647 152.91 -0.00390625 150.373 -0.00390625C145.847 -0.00390625 142.762 2.78668 140.533 6.00321C135.756 12.9099 134.816 19.8423 134.816 19.8423H138.695C138.695 19.8423 139.225 16.7507 140.304 14.4374L140.307 14.4411ZM141.755 8.937C141.755 8.937 142.288 6.11703 145.411 3.28605C147.046 1.80263 148.595 1.10866 150.485 1.10866C151.812 1.10866 153.466 1.43545 153.466 3.13184C153.466 4.97877 151.158 5.59931 151.158 5.59931C151.158 5.59931 149.373 5.38634 147.279 5.90774C143.668 6.80367 141.627 9.15731 141.758 8.94067L141.755 8.937Z" fill="#00A05E"/>
</g>
<defs>
<clipPath id="clip0_624_1031">
<rect width="164" height="32" fill="white"/>
</clipPath>
</defs>
</svg>
