<svg width="807" height="61" viewBox="0 0 807 61" fill="none" xmlns="http://www.w3.org/2000/svg">
<path d="M0.0800004 59L0.0800004 1.88L10.08 1.88L10.08 50.36L39.12 50.36L39.12 59L0.0800004 59ZM44.5775 38.44L44.5775 1.88L54.5775 1.88L54.5775 35.16C54.5775 42.84 55.0575 51.72 68.0175 51.72C80.9775 51.72 81.4575 42.84 81.4575 35.16L81.4575 1.88L91.4575 1.88L91.4575 38.44C91.4575 53.08 82.0975 60.36 68.0175 60.36C53.9375 60.36 44.5775 53.08 44.5775 38.44ZM116.072 29.4L97.1919 1.88L109.112 1.88L122.072 22.04L135.592 1.88L146.792 1.88L127.912 29.4L148.152 59L135.992 59L121.752 37.16L107.272 59L95.8319 59L116.072 29.4ZM152.587 38.44L152.587 1.88L162.587 1.88L162.587 35.16C162.587 42.84 163.067 51.72 176.027 51.72C188.987 51.72 189.467 42.84 189.467 35.16L189.467 1.88L199.467 1.88L199.467 38.44C199.467 53.08 190.107 60.36 176.027 60.36C161.947 60.36 152.587 53.08 152.587 38.44ZM220.161 10.04L220.161 27.88L236.561 27.88C242.881 27.88 246.321 24.76 246.321 18.76C246.321 11.48 241.601 10.04 236.401 10.04L220.161 10.04ZM210.161 59L210.161 1.88L237.441 1.88C249.921 1.88 256.321 7.64 256.321 17.32C256.321 28.28 248.721 31.08 246.881 31.72V31.88C250.321 32.36 255.361 34.92 255.361 43.96C255.361 50.6 256.321 56.68 258.481 59L247.761 59C246.241 56.52 246.241 53.4 246.241 50.6C246.241 40.12 244.081 35.48 234.881 35.48L220.161 35.48L220.161 59L210.161 59ZM277.601 59L277.601 36.6L256.161 1.88L267.761 1.88L282.881 27.48L297.761 1.88L308.961 1.88L287.601 36.6L287.601 59L277.601 59ZM353.341 7.32C349.981 7.32 347.261 9.8 347.261 13.64C347.261 17.4 350.381 20.28 352.461 23.16C355.901 20.84 359.181 18.44 359.181 13.88C359.181 10.12 356.861 7.32 353.341 7.32ZM360.861 46.52L349.661 32.6C346.301 34.68 340.861 36.52 340.861 43.32C340.861 49.48 344.781 52.92 350.061 52.92C356.701 52.92 359.101 48.84 360.861 46.52ZM370.941 59L365.741 52.6C361.501 57.8 356.381 60.12 349.741 60.12C339.261 60.12 331.741 53.88 331.741 43.16C331.741 35.08 338.301 29.96 344.861 26.6C341.901 22.84 339.101 19.08 339.101 14.12C339.101 5.88 345.341 0.52 353.101 0.52C360.461 0.52 367.341 5.08 367.341 14.2C367.341 20.92 362.541 25.72 357.021 28.68L365.901 39.4C366.541 37.64 367.261 35.4 367.661 31.72L375.661 31.72C375.101 36.68 373.741 41.72 371.181 45.72L382.141 59L370.941 59ZM407.802 59L407.802 1.88L417.802 1.88L417.802 50.36L446.842 50.36V59L407.802 59ZM452.939 59L452.939 1.88L462.939 1.88L462.939 59L452.939 59ZM474.405 59L474.405 1.88L513.845 1.88V10.52L484.405 10.52L484.405 25.48L510.245 25.48L510.245 33.64L484.405 33.64L484.405 59L474.405 59ZM521.027 59L521.027 1.88L562.147 1.88V10.52L531.027 10.52V25.48L559.827 25.48L559.827 33.64L531.027 33.64V50.36L562.707 50.36V59L521.027 59ZM567.177 39.96L577.177 39.96C577.177 48.76 583.657 52.2 591.657 52.2C600.457 52.2 603.737 47.88 603.737 43.56C603.737 39.16 601.337 37.4 599.017 36.52C595.017 35 589.817 33.96 581.977 31.8C572.217 29.16 569.337 23.24 569.337 17.32C569.337 5.88 579.897 0.52 590.217 0.52C602.137 0.52 612.137 6.84 612.137 18.76L602.137 18.76C601.657 11.4 596.697 8.68 589.817 8.68C585.177 8.68 579.337 10.36 579.337 16.12C579.337 20.12 582.057 22.36 586.137 23.48C587.017 23.72 599.657 27 602.617 27.88C610.137 30.12 613.737 36.52 613.737 42.44C613.737 55.24 602.377 60.36 591.017 60.36C577.977 60.36 567.417 54.12 567.177 39.96ZM616.252 10.52V1.88L662.492 1.88V10.52L644.332 10.52L644.332 59L634.332 59L634.332 10.52L616.252 10.52ZM683.194 59V36.6L661.754 1.88L673.354 1.88L688.474 27.48L703.354 1.88L714.554 1.88L693.194 36.6V59L683.194 59ZM719.389 59L719.389 1.88L729.389 1.88L729.389 50.36L758.429 50.36V59L719.389 59ZM764.527 59L764.527 1.88L805.647 1.88V10.52L774.527 10.52V25.48L803.327 25.48L803.327 33.64L774.527 33.64V50.36L806.207 50.36V59L764.527 59Z" fill="white"/>
</svg>
