<svg width="283" height="22" viewBox="0 0 283 22" fill="none" xmlns="http://www.w3.org/2000/svg">
<path d="M0.128 21L0.128 1.008L3.628 1.008L3.628 17.976L13.792 17.976L13.792 21L0.128 21ZM15.7021 13.804L15.7021 1.008L19.2021 1.008L19.2021 12.656C19.2021 15.344 19.3701 18.452 23.9061 18.452C28.4421 18.452 28.6101 15.344 28.6101 12.656L28.6101 1.008L32.1101 1.008L32.1101 13.804C32.1101 18.928 28.8341 21.476 23.9061 21.476C18.9781 21.476 15.7021 18.928 15.7021 13.804ZM40.7252 10.64L34.1172 1.008L38.2892 1.008L42.8252 8.064L47.5572 1.008L51.4772 1.008L44.8692 10.64L51.9532 21L47.6972 21L42.7132 13.356L37.6452 21L33.6412 21L40.7252 10.64ZM53.5054 13.804L53.5054 1.008L57.0054 1.008L57.0054 12.656C57.0054 15.344 57.1734 18.452 61.7094 18.452C66.2454 18.452 66.4134 15.344 66.4134 12.656L66.4134 1.008L69.9134 1.008L69.9134 13.804C69.9134 18.928 66.6374 21.476 61.7094 21.476C56.7814 21.476 53.5054 18.928 53.5054 13.804ZM77.1564 3.864L77.1564 10.108L82.8964 10.108C85.1084 10.108 86.3124 9.016 86.3124 6.916C86.3124 4.368 84.6604 3.864 82.8404 3.864L77.1564 3.864ZM73.6564 21L73.6564 1.008L83.2044 1.008C87.5724 1.008 89.8124 3.024 89.8124 6.412C89.8124 10.248 87.1524 11.228 86.5084 11.452V11.508C87.7124 11.676 89.4764 12.572 89.4764 15.736C89.4764 18.06 89.8124 20.188 90.5684 21L86.8164 21C86.2844 20.132 86.2844 19.04 86.2844 18.06C86.2844 14.392 85.5284 12.768 82.3084 12.768L77.1564 12.768L77.1564 21L73.6564 21ZM97.2602 21L97.2602 13.16L89.7562 1.008L93.8162 1.008L99.1082 9.968L104.316 1.008L108.236 1.008L100.76 13.16L100.76 21L97.2602 21ZM123.769 2.912C122.593 2.912 121.641 3.78 121.641 5.124C121.641 6.44 122.733 7.448 123.461 8.456C124.665 7.644 125.813 6.804 125.813 5.208C125.813 3.892 125.001 2.912 123.769 2.912ZM126.401 16.632L122.481 11.76C121.305 12.488 119.401 13.132 119.401 15.512C119.401 17.668 120.773 18.872 122.621 18.872C124.945 18.872 125.785 17.444 126.401 16.632ZM129.929 21L128.109 18.76C126.625 20.58 124.833 21.392 122.509 21.392C118.841 21.392 116.209 19.208 116.209 15.456C116.209 12.628 118.505 10.836 120.801 9.66C119.765 8.344 118.785 7.028 118.785 5.292C118.785 2.408 120.969 0.532 123.685 0.532C126.261 0.532 128.669 2.128 128.669 5.32C128.669 7.672 126.989 9.352 125.057 10.388L128.165 14.14C128.389 13.524 128.641 12.74 128.781 11.452L131.581 11.452C131.385 13.188 130.909 14.952 130.013 16.352L133.849 21L129.929 21ZM142.831 21L142.831 1.008L146.331 1.008L146.331 17.976L156.495 17.976V21L142.831 21ZM158.629 21L158.629 1.008L162.129 1.008L162.129 21L158.629 21ZM166.142 21L166.142 1.008L179.946 1.008V4.032L169.642 4.032L169.642 9.268L178.686 9.268V12.124L169.642 12.124V21L166.142 21ZM182.459 21L182.459 1.008L196.851 1.008V4.032L185.959 4.032L185.959 9.268L196.039 9.268V12.124L185.959 12.124V17.976L197.047 17.976V21L182.459 21ZM198.612 14.336L202.112 14.336C202.112 17.416 204.38 18.62 207.18 18.62C210.26 18.62 211.408 17.108 211.408 15.596C211.408 14.056 210.568 13.44 209.756 13.132C208.356 12.6 206.536 12.236 203.792 11.48C200.376 10.556 199.368 8.484 199.368 6.412C199.368 2.408 203.064 0.532 206.676 0.532C210.848 0.532 214.348 2.744 214.348 6.916L210.848 6.916C210.68 4.34 208.944 3.388 206.536 3.388C204.912 3.388 202.868 3.976 202.868 5.992C202.868 7.392 203.82 8.176 205.248 8.568C205.556 8.652 209.98 9.8 211.016 10.108C213.648 10.892 214.908 13.132 214.908 15.204C214.908 19.684 210.932 21.476 206.956 21.476C202.392 21.476 198.696 19.292 198.612 14.336ZM215.788 4.032V1.008L231.972 1.008V4.032L225.616 4.032L225.616 21L222.116 21L222.116 4.032L215.788 4.032ZM239.218 21V13.16L231.714 1.008L235.774 1.008L241.066 9.968L246.274 1.008L250.194 1.008L242.718 13.16V21L239.218 21ZM251.886 21L251.886 1.008L255.386 1.008L255.386 17.976L265.55 17.976V21L251.886 21ZM267.684 21L267.684 1.008L282.076 1.008V4.032L271.184 4.032V9.268L281.264 9.268V12.124L271.184 12.124L271.184 17.976L282.272 17.976V21L267.684 21Z" fill="white"/>
</svg>
