<svg width="139" height="22" viewBox="0 0 139 22" fill="none" xmlns="http://www.w3.org/2000/svg">
<path d="M0.0440002 21L0.0440002 1.008L3.544 1.008L3.544 8.96L12.644 8.96L12.644 1.008L16.144 1.008L16.144 21L12.644 21L12.644 11.984L3.544 11.984L3.544 21L0.0440002 21ZM28.567 0.532C34.559 0.532 38.143 5.292 38.143 11.004C38.143 16.716 34.559 21.476 28.567 21.476C22.575 21.476 18.991 16.716 18.991 11.004C18.991 5.292 22.575 0.532 28.567 0.532ZM28.567 3.388C24.283 3.388 22.491 7.168 22.491 11.004C22.491 14.84 24.283 18.62 28.567 18.62C32.851 18.62 34.643 14.84 34.643 11.004C34.643 7.168 32.851 3.388 28.567 3.388ZM40.8245 13.804L40.8245 1.008L44.3245 1.008L44.3245 12.656C44.3245 15.344 44.4925 18.452 49.0285 18.452C53.5645 18.452 53.7325 15.344 53.7325 12.656L53.7325 1.008L57.2325 1.008L57.2325 13.804C57.2325 18.928 53.9565 21.476 49.0285 21.476C44.1005 21.476 40.8245 18.928 40.8245 13.804ZM59.7715 14.336L63.2715 14.336C63.2715 17.416 65.5395 18.62 68.3395 18.62C71.4195 18.62 72.5675 17.108 72.5675 15.596C72.5675 14.056 71.7275 13.44 70.9155 13.132C69.5155 12.6 67.6955 12.236 64.9515 11.48C61.5355 10.556 60.5275 8.484 60.5275 6.412C60.5275 2.408 64.2235 0.532 67.8355 0.532C72.0075 0.532 75.5075 2.744 75.5075 6.916L72.0075 6.916C71.8395 4.34 70.1035 3.388 67.6955 3.388C66.0715 3.388 64.0275 3.976 64.0275 5.992C64.0275 7.392 64.9795 8.176 66.4075 8.568C66.7155 8.652 71.1395 9.8 72.1755 10.108C74.8075 10.892 76.0675 13.132 76.0675 15.204C76.0675 19.684 72.0915 21.476 68.1155 21.476C63.5515 21.476 59.8555 19.292 59.7715 14.336ZM78.8517 21L78.8517 1.008L93.2437 1.008V4.032L82.3517 4.032L82.3517 9.268L92.4317 9.268V12.124L82.3517 12.124L82.3517 17.976L93.4397 17.976L93.4397 21L78.8517 21ZM112.233 0.532C118.225 0.532 121.809 5.292 121.809 11.004C121.809 16.716 118.225 21.476 112.233 21.476C106.241 21.476 102.657 16.716 102.657 11.004C102.657 5.292 106.241 0.532 112.233 0.532ZM112.233 3.388C107.949 3.388 106.157 7.168 106.157 11.004C106.157 14.84 107.949 18.62 112.233 18.62C116.517 18.62 118.309 14.84 118.309 11.004C118.309 7.168 116.517 3.388 112.233 3.388ZM124.715 21L124.715 1.008L138.519 1.008V4.032L128.215 4.032L128.215 9.268L137.259 9.268V12.124L128.215 12.124V21L124.715 21Z" fill="white"/>
</svg>
