<svg width="150" height="14" viewBox="0 0 150 14" fill="none" xmlns="http://www.w3.org/2000/svg">
<path d="M9.562 4.182L7.812 4.182C7.518 3.034 6.776 2.194 5.32 2.194C3.178 2.194 2.282 4.084 2.282 6.002C2.282 7.92 3.178 9.81 5.32 9.81C6.874 9.81 7.728 8.648 7.868 7.192L9.576 7.192C9.436 9.586 7.742 11.238 5.32 11.238C2.324 11.238 0.532 8.858 0.532 6.002C0.532 3.146 2.324 0.766 5.32 0.766C7.574 0.78 9.352 2.026 9.562 4.182ZM14.1215 9.936C15.5495 9.936 16.1795 8.634 16.1795 7.374C16.1795 6.128 15.5495 4.826 14.1215 4.826C12.6935 4.826 12.0635 6.128 12.0635 7.374C12.0635 8.634 12.6935 9.936 14.1215 9.936ZM14.1215 11.196C11.7975 11.196 10.4675 9.6 10.4675 7.374C10.4675 5.162 11.7975 3.566 14.1215 3.566C16.4455 3.566 17.7755 5.162 17.7755 7.374C17.7755 9.6 16.4455 11.196 14.1215 11.196ZM18.9623 11L18.9623 3.762L20.4743 3.762V4.826L20.5023 4.854C20.9783 4.056 21.8043 3.566 22.7563 3.566C24.3243 3.566 25.3183 4.406 25.3183 6.03L25.3183 11L23.7223 11L23.7223 6.45C23.6943 5.316 23.2463 4.826 22.3083 4.826C21.2443 4.826 20.5583 5.666 20.5583 6.73L20.5583 11L18.9623 11ZM26.1334 4.952V3.762L27.3374 3.762L27.3374 1.592L28.9334 1.592L28.9334 3.762L30.3754 3.762V4.952L28.9334 4.952L28.9334 8.816C28.9334 9.474 28.9894 9.81 29.7034 9.81C29.9274 9.81 30.1514 9.81 30.3754 9.754V10.986C30.0254 11.014 29.6894 11.07 29.3394 11.07C27.6734 11.07 27.3654 10.426 27.3374 9.222L27.3374 4.952L26.1334 4.952ZM37.9495 7.794L32.6295 7.794C32.6295 8.928 33.2455 9.936 34.5755 9.936C35.4995 9.936 36.0595 9.53 36.3395 8.732L37.8515 8.732C37.5015 10.314 36.1575 11.196 34.5755 11.196C32.3075 11.196 31.0335 9.614 31.0335 7.388C31.0335 5.33 32.3775 3.566 34.5335 3.566C36.8155 3.566 38.2155 5.624 37.9495 7.794ZM32.6295 6.744L36.3535 6.744C36.2975 5.736 35.6115 4.826 34.5335 4.826C33.4275 4.826 32.6715 5.666 32.6295 6.744ZM39.0228 11L39.0228 3.762L40.5348 3.762V4.826L40.5628 4.854C41.0388 4.056 41.8648 3.566 42.8168 3.566C44.3848 3.566 45.3788 4.406 45.3788 6.03L45.3788 11L43.7828 11L43.7828 6.45C43.7548 5.316 43.3068 4.826 42.3688 4.826C41.3048 4.826 40.6188 5.666 40.6188 6.73L40.6188 11L39.0228 11ZM46.1939 4.952V3.762L47.3979 3.762L47.3979 1.592L48.9939 1.592L48.9939 3.762L50.4359 3.762V4.952L48.9939 4.952L48.9939 8.816C48.9939 9.474 49.0499 9.81 49.7639 9.81C49.9879 9.81 50.2119 9.81 50.4359 9.754L50.4359 10.986C50.0859 11.014 49.7499 11.07 49.3999 11.07C47.7339 11.07 47.4259 10.426 47.3979 9.222L47.3979 4.952L46.1939 4.952ZM63.9225 4.182L62.1725 4.182C61.8785 3.034 61.1365 2.194 59.6805 2.194C57.5385 2.194 56.6425 4.084 56.6425 6.002C56.6425 7.92 57.5385 9.81 59.6805 9.81C61.2345 9.81 62.0885 8.648 62.2285 7.192L63.9365 7.192C63.7965 9.586 62.1025 11.238 59.6805 11.238C56.6845 11.238 54.8925 8.858 54.8925 6.002C54.8925 3.146 56.6845 0.766 59.6805 0.766C61.9345 0.78 63.7125 2.026 63.9225 4.182ZM65.164 11L65.164 3.762L66.662 3.762L66.662 5.162H66.69C66.872 4.392 67.824 3.566 68.804 3.566C69.168 3.566 69.266 3.594 69.406 3.608L69.406 5.148C69.182 5.12 68.944 5.078 68.72 5.078C67.628 5.078 66.76 5.96 66.76 7.556V11L65.164 11ZM76.2658 7.794L70.9458 7.794C70.9458 8.928 71.5618 9.936 72.8918 9.936C73.8158 9.936 74.3758 9.53 74.6558 8.732L76.1678 8.732C75.8178 10.314 74.4738 11.196 72.8918 11.196C70.6238 11.196 69.3498 9.614 69.3498 7.388C69.3498 5.33 70.6938 3.566 72.8498 3.566C75.1318 3.566 76.5318 5.624 76.2658 7.794ZM70.9458 6.744L74.6698 6.744C74.6138 5.736 73.9278 4.826 72.8498 4.826C71.7438 4.826 70.9878 5.666 70.9458 6.744ZM81.8051 8.564V7.374C81.3151 7.696 80.5451 7.682 79.8451 7.808C79.1591 7.92 78.5431 8.172 78.5431 9.012C78.5431 9.726 79.4531 9.936 80.0131 9.936C80.7131 9.936 81.8051 9.572 81.8051 8.564ZM83.4011 5.666V9.39C83.4011 9.782 83.4851 9.936 83.7791 9.936C83.8771 9.936 84.0031 9.936 84.1711 9.908V11.014C83.9331 11.098 83.4291 11.196 83.1631 11.196C82.5191 11.196 82.0571 10.972 81.9311 10.314C81.3011 10.93 80.2791 11.196 79.4251 11.196C78.1231 11.196 76.9471 10.496 76.9471 9.082C76.9471 7.276 78.3891 6.982 79.7331 6.828C80.8811 6.618 81.9031 6.744 81.9031 5.806C81.9031 4.98 81.0491 4.826 80.4051 4.826C79.5091 4.826 78.8791 5.19 78.8091 5.974L77.2131 5.974C77.3251 4.112 78.9071 3.566 80.5031 3.566C81.9171 3.566 83.4011 4.14 83.4011 5.666ZM84.2504 4.952L84.2504 3.762L85.4544 3.762V1.592L87.0504 1.592V3.762L88.4924 3.762L88.4924 4.952L87.0504 4.952V8.816C87.0504 9.474 87.1064 9.81 87.8204 9.81C88.0444 9.81 88.2684 9.81 88.4924 9.754V10.986C88.1424 11.014 87.8064 11.07 87.4564 11.07C85.7904 11.07 85.4824 10.426 85.4544 9.222V4.952L84.2504 4.952ZM89.5425 11L89.5425 3.762L91.1385 3.762L91.1385 11L89.5425 11ZM89.5425 2.516V1.004L91.1385 1.004V2.516L89.5425 2.516ZM94.6554 11L92.0234 3.762L93.7594 3.762L95.5934 9.32H95.6214L97.3854 3.762L99.0374 3.762L96.4474 11L94.6554 11ZM106.423 7.794L101.103 7.794C101.103 8.928 101.719 9.936 103.049 9.936C103.973 9.936 104.533 9.53 104.813 8.732L106.325 8.732C105.975 10.314 104.631 11.196 103.049 11.196C100.781 11.196 99.5072 9.614 99.5072 7.388C99.5072 5.33 100.851 3.566 103.007 3.566C105.289 3.566 106.689 5.624 106.423 7.794ZM101.103 6.744L104.827 6.744C104.771 5.736 104.085 4.826 103.007 4.826C101.901 4.826 101.145 5.666 101.103 6.744ZM120.199 5.736V11L119.079 11L118.813 9.824C117.875 10.888 117.021 11.238 115.803 11.238C112.807 11.238 111.015 8.858 111.015 6.002C111.015 3.146 112.807 0.766 115.803 0.766C117.987 0.766 119.821 1.928 120.087 4.182L118.379 4.182C118.211 2.866 117.063 2.194 115.803 2.194C113.661 2.194 112.765 4.084 112.765 6.002C112.765 7.92 113.661 9.81 115.803 9.81C117.595 9.838 118.575 8.76 118.603 7.066L115.943 7.066V5.736L120.199 5.736ZM121.736 11L121.736 3.762L123.234 3.762L123.234 5.162H123.262C123.444 4.392 124.396 3.566 125.376 3.566C125.74 3.566 125.838 3.594 125.978 3.608L125.978 5.148C125.754 5.12 125.516 5.078 125.292 5.078C124.2 5.078 123.332 5.96 123.332 7.556V11L121.736 11ZM129.59 9.936C131.018 9.936 131.648 8.634 131.648 7.374C131.648 6.128 131.018 4.826 129.59 4.826C128.162 4.826 127.532 6.128 127.532 7.374C127.532 8.634 128.162 9.936 129.59 9.936ZM129.59 11.196C127.266 11.196 125.936 9.6 125.936 7.374C125.936 5.162 127.266 3.566 129.59 3.566C131.914 3.566 133.244 5.162 133.244 7.374C133.244 9.6 131.914 11.196 129.59 11.196ZM140.787 3.762L140.787 11L139.219 11V9.992H139.191C138.799 10.72 137.931 11.196 137.133 11.196C135.243 11.196 134.431 10.244 134.431 8.354L134.431 3.762L136.027 3.762V8.2C136.027 9.474 136.545 9.936 137.413 9.936C138.743 9.936 139.191 9.082 139.191 7.962V3.762L140.787 3.762ZM147.944 7.388C147.944 6.072 147.258 4.826 145.942 4.826C144.598 4.826 143.912 5.848 143.912 7.388C143.912 8.844 144.654 9.936 145.942 9.936C147.398 9.936 147.944 8.648 147.944 7.388ZM142.372 13.674L142.372 3.762L143.884 3.762V4.742H143.912C144.36 3.916 145.228 3.566 146.152 3.566C148.434 3.566 149.54 5.302 149.54 7.416C149.54 9.362 148.56 11.196 146.418 11.196C145.494 11.196 144.5 10.86 143.996 10.062H143.968V13.674L142.372 13.674Z" fill="white"/>
</svg>
