<svg width="415" height="61" viewBox="0 0 415 61" fill="none" xmlns="http://www.w3.org/2000/svg">
<path d="M5.84 59L5.84 1.88L15.84 1.88L15.84 24.6L41.84 24.6L41.84 1.88L51.84 1.88L51.84 59L41.84 59L41.84 33.24L15.84 33.24L15.84 59L5.84 59ZM87.3344 0.52C104.454 0.52 114.694 14.12 114.694 30.44C114.694 46.76 104.454 60.36 87.3344 60.36C70.2144 60.36 59.9744 46.76 59.9744 30.44C59.9744 14.12 70.2144 0.52 87.3344 0.52ZM87.3344 8.68C75.0944 8.68 69.9744 19.48 69.9744 30.44C69.9744 41.4 75.0944 52.2 87.3344 52.2C99.5744 52.2 104.694 41.4 104.694 30.44C104.694 19.48 99.5744 8.68 87.3344 8.68ZM122.356 38.44L122.356 1.88L132.356 1.88L132.356 35.16C132.356 42.84 132.836 51.72 145.796 51.72C158.756 51.72 159.236 42.84 159.236 35.16L159.236 1.88L169.236 1.88L169.236 38.44C169.236 53.08 159.876 60.36 145.796 60.36C131.716 60.36 122.356 53.08 122.356 38.44ZM176.49 39.96L186.49 39.96C186.49 48.76 192.97 52.2 200.97 52.2C209.77 52.2 213.05 47.88 213.05 43.56C213.05 39.16 210.65 37.4 208.33 36.52C204.33 35 199.13 33.96 191.29 31.8C181.53 29.16 178.65 23.24 178.65 17.32C178.65 5.88 189.21 0.52 199.53 0.52C211.45 0.52 221.45 6.84 221.45 18.76L211.45 18.76C210.97 11.4 206.01 8.68 199.13 8.68C194.49 8.68 188.65 10.36 188.65 16.12C188.65 20.12 191.37 22.36 195.45 23.48C196.33 23.72 208.97 27 211.93 27.88C219.45 30.12 223.05 36.52 223.05 42.44C223.05 55.24 211.69 60.36 200.33 60.36C187.29 60.36 176.73 54.12 176.49 39.96ZM231.005 59L231.005 1.88L272.125 1.88V10.52L241.005 10.52L241.005 25.48L269.805 25.48V33.64L241.005 33.64L241.005 50.36L272.685 50.36V59L231.005 59Z" fill="white"/>
<path d="M338.4 0.52C355.52 0.52 365.76 14.12 365.76 30.44C365.76 46.76 355.52 60.36 338.4 60.36C321.28 60.36 311.04 46.76 311.04 30.44C311.04 14.12 321.28 0.52 338.4 0.52ZM338.4 8.68C326.16 8.68 321.04 19.48 321.04 30.44C321.04 41.4 326.16 52.2 338.4 52.2C350.64 52.2 355.76 41.4 355.76 30.44C355.76 19.48 350.64 8.68 338.4 8.68ZM374.061 59L374.061 1.88L413.501 1.88V10.52L384.061 10.52L384.061 25.48L409.901 25.48V33.64L384.061 33.64L384.061 59L374.061 59Z" fill="white"/>
</svg>
