<svg width="1205" height="162" viewBox="0 0 1205 162" fill="none" xmlns="http://www.w3.org/2000/svg">
<path d="M1003.66 8.26L1001.16 8.26C1000.74 6.62 999.68 5.42 997.6 5.42C994.54 5.42 993.26 8.12 993.26 10.86C993.26 13.6 994.54 16.3 997.6 16.3C999.82 16.3 1001.04 14.64 1001.24 12.56L1003.68 12.56C1003.48 15.98 1001.06 18.34 997.6 18.34C993.32 18.34 990.76 14.94 990.76 10.86C990.76 6.78 993.32 3.38 997.6 3.38C1000.82 3.4 1003.36 5.18 1003.66 8.26ZM1010.17 16.48C1012.21 16.48 1013.11 14.62 1013.11 12.82C1013.11 11.04 1012.21 9.18 1010.17 9.18C1008.13 9.18 1007.23 11.04 1007.23 12.82C1007.23 14.62 1008.13 16.48 1010.17 16.48ZM1010.17 18.28C1006.85 18.28 1004.95 16 1004.95 12.82C1004.95 9.66 1006.85 7.38 1010.17 7.38C1013.49 7.38 1015.39 9.66 1015.39 12.82C1015.39 16 1013.49 18.28 1010.17 18.28ZM1017.09 18L1017.09 7.65999L1019.25 7.65999L1019.25 9.17999L1019.29 9.21999C1019.97 8.07999 1021.15 7.37999 1022.51 7.37999C1024.75 7.37999 1026.17 8.57999 1026.17 10.9L1026.17 18L1023.89 18L1023.89 11.5C1023.85 9.87999 1023.21 9.17999 1021.87 9.17999C1020.35 9.17999 1019.37 10.38 1019.37 11.9L1019.37 18L1017.09 18ZM1027.33 9.35999L1027.33 7.65999L1029.05 7.65999L1029.05 4.55999L1031.33 4.55999L1031.33 7.65999L1033.39 7.65999L1033.39 9.35999L1031.33 9.35999L1031.33 14.88C1031.33 15.82 1031.41 16.3 1032.43 16.3C1032.75 16.3 1033.07 16.3 1033.39 16.22L1033.39 17.98C1032.89 18.02 1032.41 18.1 1031.91 18.1C1029.53 18.1 1029.09 17.18 1029.05 15.46L1029.05 9.35999L1027.33 9.35999ZM1044.21 13.42L1036.61 13.42C1036.61 15.04 1037.49 16.48 1039.39 16.48C1040.71 16.48 1041.51 15.9 1041.91 14.76L1044.07 14.76C1043.57 17.02 1041.65 18.28 1039.39 18.28C1036.15 18.28 1034.33 16.02 1034.33 12.84C1034.33 9.89999 1036.25 7.37999 1039.33 7.37999C1042.59 7.37999 1044.59 10.32 1044.21 13.42ZM1036.61 11.92L1041.93 11.92C1041.85 10.48 1040.87 9.17999 1039.33 9.17999C1037.75 9.17999 1036.67 10.38 1036.61 11.92ZM1045.75 18L1045.75 7.65999L1047.91 7.65999L1047.91 9.17999L1047.95 9.21999C1048.63 8.07999 1049.81 7.37999 1051.17 7.37999C1053.41 7.37999 1054.83 8.57999 1054.83 10.9L1054.83 18L1052.55 18L1052.55 11.5C1052.51 9.87999 1051.87 9.17999 1050.53 9.17999C1049.01 9.17999 1048.03 10.38 1048.03 11.9L1048.03 18L1045.75 18ZM1055.99 9.35999L1055.99 7.65999L1057.71 7.65999L1057.71 4.55999L1059.99 4.55999L1059.99 7.65999L1062.05 7.65999L1062.05 9.35999L1059.99 9.35999L1059.99 14.88C1059.99 15.82 1060.07 16.3 1061.09 16.3C1061.41 16.3 1061.73 16.3 1062.05 16.22L1062.05 17.98C1061.55 18.02 1061.07 18.1 1060.57 18.1C1058.19 18.1 1057.75 17.18 1057.71 15.46L1057.71 9.35999L1055.99 9.35999ZM1081.32 8.25998L1078.82 8.25998C1078.4 6.61998 1077.34 5.41998 1075.26 5.41998C1072.2 5.41999 1070.92 8.11999 1070.92 10.86C1070.92 13.6 1072.2 16.3 1075.26 16.3C1077.48 16.3 1078.7 14.64 1078.9 12.56L1081.34 12.56C1081.14 15.98 1078.72 18.34 1075.26 18.34C1070.98 18.34 1068.42 14.94 1068.42 10.86C1068.42 6.77999 1070.98 3.37999 1075.26 3.37998C1078.48 3.39998 1081.02 5.17998 1081.32 8.25998ZM1083.09 18L1083.09 7.65998L1085.23 7.65998L1085.23 9.65998L1085.27 9.65998C1085.53 8.55998 1086.89 7.37998 1088.29 7.37998C1088.81 7.37998 1088.95 7.41998 1089.15 7.43998L1089.15 9.63998C1088.83 9.59998 1088.49 9.53998 1088.17 9.53998C1086.61 9.53998 1085.37 10.8 1085.37 13.08L1085.37 18L1083.09 18ZM1098.95 13.42L1091.35 13.42C1091.35 15.04 1092.23 16.48 1094.13 16.48C1095.45 16.48 1096.25 15.9 1096.65 14.76L1098.81 14.76C1098.31 17.02 1096.39 18.28 1094.13 18.28C1090.89 18.28 1089.07 16.02 1089.07 12.84C1089.07 9.89998 1090.99 7.37998 1094.07 7.37998C1097.33 7.37998 1099.33 10.32 1098.95 13.42ZM1091.35 11.92L1096.67 11.92C1096.59 10.48 1095.61 9.17998 1094.07 9.17998C1092.49 9.17998 1091.41 10.38 1091.35 11.92ZM1106.86 14.52L1106.86 12.82C1106.16 13.28 1105.06 13.26 1104.06 13.44C1103.08 13.6 1102.2 13.96 1102.2 15.16C1102.2 16.18 1103.5 16.48 1104.3 16.48C1105.3 16.48 1106.86 15.96 1106.86 14.52ZM1109.14 10.38L1109.14 15.7C1109.14 16.26 1109.26 16.48 1109.68 16.48C1109.82 16.48 1110 16.48 1110.24 16.44L1110.24 18.02C1109.9 18.14 1109.18 18.28 1108.8 18.28C1107.88 18.28 1107.22 17.96 1107.04 17.02C1106.14 17.9 1104.68 18.28 1103.46 18.28C1101.6 18.28 1099.92 17.28 1099.92 15.26C1099.92 12.68 1101.98 12.26 1103.9 12.04C1105.54 11.74 1107 11.92 1107 10.58C1107 9.39998 1105.78 9.17998 1104.86 9.17998C1103.58 9.17998 1102.68 9.69998 1102.58 10.82L1100.3 10.82C1100.46 8.15998 1102.72 7.37998 1105 7.37998C1107.02 7.37998 1109.14 8.19998 1109.14 10.38ZM1110.36 9.35998L1110.36 7.65998L1112.08 7.65998L1112.08 4.55998L1114.36 4.55998L1114.36 7.65998L1116.42 7.65998L1116.42 9.35998L1114.36 9.35998L1114.36 14.88C1114.36 15.82 1114.44 16.3 1115.46 16.3C1115.78 16.3 1116.1 16.3 1116.42 16.22L1116.42 17.98C1115.92 18.02 1115.44 18.1 1114.94 18.1C1112.56 18.1 1112.12 17.18 1112.08 15.46L1112.08 9.35998L1110.36 9.35998ZM1117.92 18L1117.92 7.65998L1120.2 7.65998L1120.2 18L1117.92 18ZM1117.92 5.87998L1117.92 3.71998L1120.2 3.71998L1120.2 5.87998L1117.92 5.87998ZM1125.22 18L1121.46 7.65998L1123.94 7.65998L1126.56 15.6L1126.6 15.6L1129.12 7.65998L1131.48 7.65997L1127.78 18L1125.22 18ZM1142.03 13.42L1134.43 13.42C1134.43 15.04 1135.31 16.48 1137.21 16.48C1138.53 16.48 1139.33 15.9 1139.73 14.76L1141.89 14.76C1141.39 17.02 1139.47 18.28 1137.21 18.28C1133.97 18.28 1132.15 16.02 1132.15 12.84C1132.15 9.89997 1134.07 7.37997 1137.15 7.37997C1140.41 7.37997 1142.41 10.32 1142.03 13.42ZM1134.43 11.92L1139.75 11.92C1139.67 10.48 1138.69 9.17997 1137.15 9.17997C1135.57 9.17997 1134.49 10.38 1134.43 11.92ZM1161.71 10.48L1161.71 18L1160.11 18L1159.73 16.32C1158.39 17.84 1157.17 18.34 1155.43 18.34C1151.15 18.34 1148.59 14.94 1148.59 10.86C1148.59 6.77997 1151.15 3.37997 1155.43 3.37997C1158.55 3.37997 1161.17 5.03997 1161.55 8.25997L1159.11 8.25997C1158.87 6.37997 1157.23 5.41997 1155.43 5.41997C1152.37 5.41997 1151.09 8.11997 1151.09 10.86C1151.09 13.6 1152.37 16.3 1155.43 16.3C1157.99 16.34 1159.39 14.8 1159.43 12.38L1155.63 12.38L1155.63 10.48L1161.71 10.48ZM1163.91 18L1163.91 7.65997L1166.05 7.65997L1166.05 9.65997L1166.09 9.65997C1166.35 8.55997 1167.71 7.37997 1169.11 7.37997C1169.63 7.37997 1169.77 7.41997 1169.97 7.43997L1169.97 9.63997C1169.65 9.59997 1169.31 9.53997 1168.99 9.53997C1167.43 9.53997 1166.19 10.8 1166.19 13.08L1166.19 18L1163.91 18ZM1175.13 16.48C1177.17 16.48 1178.07 14.62 1178.07 12.82C1178.07 11.04 1177.17 9.17997 1175.13 9.17997C1173.09 9.17997 1172.19 11.04 1172.19 12.82C1172.19 14.62 1173.09 16.48 1175.13 16.48ZM1175.13 18.28C1171.81 18.28 1169.91 16 1169.91 12.82C1169.91 9.65997 1171.81 7.37997 1175.13 7.37997C1178.45 7.37997 1180.35 9.65997 1180.35 12.82C1180.35 16 1178.45 18.28 1175.13 18.28ZM1191.12 7.65996L1191.12 18L1188.88 18L1188.88 16.56L1188.84 16.56C1188.28 17.6 1187.04 18.28 1185.9 18.28C1183.2 18.28 1182.04 16.92 1182.04 14.22L1182.04 7.65997L1184.32 7.65997L1184.32 14C1184.32 15.82 1185.06 16.48 1186.3 16.48C1188.2 16.48 1188.84 15.26 1188.84 13.66L1188.84 7.65996L1191.12 7.65996ZM1201.35 12.84C1201.35 10.96 1200.37 9.17996 1198.49 9.17996C1196.57 9.17996 1195.59 10.64 1195.59 12.84C1195.59 14.92 1196.65 16.48 1198.49 16.48C1200.57 16.48 1201.35 14.64 1201.35 12.84ZM1193.39 21.82L1193.39 7.65996L1195.55 7.65996L1195.55 9.05996L1195.59 9.05996C1196.23 7.87996 1197.47 7.37996 1198.79 7.37996C1202.05 7.37996 1203.63 9.85996 1203.63 12.88C1203.63 15.66 1202.23 18.28 1199.17 18.28C1197.85 18.28 1196.43 17.8 1195.71 16.66L1195.67 16.66L1195.67 21.82L1193.39 21.82Z" fill="black"/>
<path d="M5.84 59L5.84 1.88L15.84 1.88L15.84 24.6L41.84 24.6L41.84 1.88L51.84 1.88L51.84 59L41.84 59L41.84 33.24L15.84 33.24L15.84 59L5.84 59ZM87.3344 0.52C104.454 0.52 114.694 14.12 114.694 30.44C114.694 46.76 104.454 60.36 87.3344 60.36C70.2144 60.36 59.9744 46.76 59.9744 30.44C59.9744 14.12 70.2144 0.52 87.3344 0.52ZM87.3344 8.68C75.0944 8.68 69.9744 19.48 69.9744 30.44C69.9744 41.4 75.0944 52.2 87.3344 52.2C99.5744 52.2 104.694 41.4 104.694 30.44C104.694 19.48 99.5744 8.68 87.3344 8.68ZM122.356 38.44L122.356 1.88L132.356 1.88L132.356 35.16C132.356 42.84 132.836 51.72 145.796 51.72C158.756 51.72 159.236 42.84 159.236 35.16L159.236 1.88L169.236 1.88L169.236 38.44C169.236 53.08 159.876 60.36 145.796 60.36C131.716 60.36 122.356 53.08 122.356 38.44ZM176.49 39.96L186.49 39.96C186.49 48.76 192.97 52.2 200.97 52.2C209.77 52.2 213.05 47.88 213.05 43.56C213.05 39.16 210.65 37.4 208.33 36.52C204.33 35 199.13 33.96 191.29 31.8C181.53 29.16 178.65 23.24 178.65 17.32C178.65 5.88 189.21 0.52 199.53 0.52C211.45 0.52 221.45 6.84 221.45 18.76L211.45 18.76C210.97 11.4 206.01 8.68 199.13 8.68C194.49 8.68 188.65 10.36 188.65 16.12C188.65 20.12 191.37 22.36 195.45 23.48C196.33 23.72 208.97 27 211.93 27.88C219.45 30.12 223.05 36.52 223.05 42.44C223.05 55.24 211.69 60.36 200.33 60.36C187.29 60.36 176.73 54.12 176.49 39.96ZM231.005 59L231.005 1.88L272.125 1.88V10.52L241.005 10.52L241.005 25.48L269.805 25.48V33.64L241.005 33.64L241.005 50.36L272.685 50.36V59L231.005 59Z" fill="black"/>
<path d="M6.08 160L6.08 102.88L16.08 102.88L16.08 151.36L45.12 151.36L45.12 160L6.08 160ZM50.5775 139.44L50.5775 102.88L60.5775 102.88L60.5775 136.16C60.5775 143.84 61.0575 152.72 74.0175 152.72C86.9775 152.72 87.4575 143.84 87.4575 136.16L87.4575 102.88L97.4575 102.88L97.4575 139.44C97.4575 154.08 88.0975 161.36 74.0175 161.36C59.9375 161.36 50.5775 154.08 50.5775 139.44ZM122.072 130.4L103.192 102.88L115.112 102.88L128.072 123.04L141.592 102.88L152.792 102.88L133.912 130.4L154.152 160L141.992 160L127.752 138.16L113.272 160L101.832 160L122.072 130.4ZM158.587 139.44L158.587 102.88L168.587 102.88L168.587 136.16C168.587 143.84 169.067 152.72 182.027 152.72C194.987 152.72 195.467 143.84 195.467 136.16L195.467 102.88L205.467 102.88L205.467 139.44C205.467 154.08 196.107 161.36 182.027 161.36C167.947 161.36 158.587 154.08 158.587 139.44ZM226.161 111.04L226.161 128.88L242.561 128.88C248.881 128.88 252.321 125.76 252.321 119.76C252.321 112.48 247.601 111.04 242.401 111.04L226.161 111.04ZM216.161 160L216.161 102.88L243.441 102.88C255.921 102.88 262.321 108.64 262.321 118.32C262.321 129.28 254.721 132.08 252.881 132.72V132.88C256.321 133.36 261.361 135.92 261.361 144.96C261.361 151.6 262.321 157.68 264.481 160L253.761 160C252.241 157.52 252.241 154.4 252.241 151.6C252.241 141.12 250.081 136.48 240.881 136.48L226.161 136.48L226.161 160H216.161ZM283.601 160L283.601 137.6L262.161 102.88L273.761 102.88L288.881 128.48L303.761 102.88L314.961 102.88L293.601 137.6L293.601 160L283.601 160ZM359.341 108.32C355.981 108.32 353.261 110.8 353.261 114.64C353.261 118.4 356.381 121.28 358.461 124.16C361.901 121.84 365.181 119.44 365.181 114.88C365.181 111.12 362.861 108.32 359.341 108.32ZM366.861 147.52L355.661 133.6C352.301 135.68 346.861 137.52 346.861 144.32C346.861 150.48 350.781 153.92 356.061 153.92C362.701 153.92 365.101 149.84 366.861 147.52ZM376.941 160L371.741 153.6C367.501 158.8 362.381 161.12 355.741 161.12C345.261 161.12 337.741 154.88 337.741 144.16C337.741 136.08 344.301 130.96 350.861 127.6C347.901 123.84 345.101 120.08 345.101 115.12C345.101 106.88 351.341 101.52 359.101 101.52C366.461 101.52 373.341 106.08 373.341 115.2C373.341 121.92 368.541 126.72 363.021 129.68L371.901 140.4C372.541 138.64 373.261 136.4 373.661 132.72L381.661 132.72C381.101 137.68 379.741 142.72 377.181 146.72L388.141 160L376.941 160ZM413.802 160L413.802 102.88L423.802 102.88L423.802 151.36L452.842 151.36V160L413.802 160ZM458.939 160L458.939 102.88L468.939 102.88L468.939 160H458.939ZM480.405 160L480.405 102.88L519.845 102.88V111.52L490.405 111.52L490.405 126.48L516.245 126.48L516.245 134.64L490.405 134.64L490.405 160L480.405 160ZM527.027 160L527.027 102.88L568.147 102.88V111.52L537.027 111.52V126.48L565.827 126.48L565.827 134.64L537.027 134.64V151.36L568.707 151.36V160L527.027 160ZM573.177 140.96L583.177 140.96C583.177 149.76 589.657 153.2 597.657 153.2C606.457 153.2 609.737 148.88 609.737 144.56C609.737 140.16 607.337 138.4 605.017 137.52C601.017 136 595.817 134.96 587.977 132.8C578.217 130.16 575.337 124.24 575.337 118.32C575.337 106.88 585.897 101.52 596.217 101.52C608.137 101.52 618.137 107.84 618.137 119.76L608.137 119.76C607.657 112.4 602.697 109.68 595.817 109.68C591.177 109.68 585.337 111.36 585.337 117.12C585.337 121.12 588.057 123.36 592.137 124.48C593.017 124.72 605.657 128 608.617 128.88C616.137 131.12 619.737 137.52 619.737 143.44C619.737 156.24 608.377 161.36 597.017 161.36C583.977 161.36 573.417 155.12 573.177 140.96ZM622.252 111.52V102.88L668.492 102.88V111.52L650.332 111.52L650.332 160H640.332L640.332 111.52L622.252 111.52ZM689.194 160V137.6L667.754 102.88L679.354 102.88L694.474 128.48L709.354 102.88L720.554 102.88L699.194 137.6V160L689.194 160ZM725.389 160L725.389 102.88L735.389 102.88L735.389 151.36L764.429 151.36V160L725.389 160ZM770.527 160L770.527 102.88L811.647 102.88V111.52L780.527 111.52V126.48L809.327 126.48L809.327 134.64L780.527 134.64V151.36L812.207 151.36V160L770.527 160Z" fill="black"/>
<path d="M338.4 0.52C355.52 0.52 365.76 14.12 365.76 30.44C365.76 46.76 355.52 60.36 338.4 60.36C321.28 60.36 311.04 46.76 311.04 30.44C311.04 14.12 321.28 0.52 338.4 0.52ZM338.4 8.68C326.16 8.68 321.04 19.48 321.04 30.44C321.04 41.4 326.16 52.2 338.4 52.2C350.64 52.2 355.76 41.4 355.76 30.44C355.76 19.48 350.64 8.68 338.4 8.68ZM374.061 59L374.061 1.88L413.501 1.88V10.52L384.061 10.52L384.061 25.48L409.901 25.48V33.64L384.061 33.64L384.061 59L374.061 59Z" fill="black"/>
</svg>
