<svg width="335" height="319" viewBox="0 0 335 319" fill="none" xmlns="http://www.w3.org/2000/svg">
<path d="M193.562 4.182L191.812 4.182C191.518 3.034 190.776 2.194 189.32 2.194C187.178 2.194 186.282 4.084 186.282 6.002C186.282 7.92 187.178 9.81 189.32 9.81C190.874 9.81 191.728 8.648 191.868 7.192L193.576 7.192C193.436 9.586 191.742 11.238 189.32 11.238C186.324 11.238 184.532 8.858 184.532 6.002C184.532 3.146 186.324 0.766 189.32 0.766C191.574 0.78 193.352 2.026 193.562 4.182ZM198.122 9.936C199.55 9.936 200.18 8.634 200.18 7.374C200.18 6.128 199.55 4.826 198.122 4.826C196.694 4.826 196.064 6.128 196.064 7.374C196.064 8.634 196.694 9.936 198.122 9.936ZM198.122 11.196C195.798 11.196 194.468 9.6 194.468 7.374C194.468 5.162 195.798 3.566 198.122 3.566C200.446 3.566 201.776 5.162 201.776 7.374C201.776 9.6 200.446 11.196 198.122 11.196ZM202.962 11L202.962 3.762L204.474 3.762V4.826L204.502 4.854C204.978 4.056 205.804 3.566 206.756 3.566C208.324 3.566 209.318 4.406 209.318 6.03L209.318 11L207.722 11L207.722 6.45C207.694 5.316 207.246 4.826 206.308 4.826C205.244 4.826 204.558 5.666 204.558 6.73L204.558 11L202.962 11ZM210.133 4.952V3.762L211.337 3.762V1.592L212.933 1.592V3.762L214.375 3.762V4.952L212.933 4.952V8.816C212.933 9.474 212.989 9.81 213.703 9.81C213.927 9.81 214.151 9.81 214.375 9.754V10.986C214.025 11.014 213.689 11.07 213.339 11.07C211.673 11.07 211.365 10.426 211.337 9.222V4.952L210.133 4.952ZM221.95 7.794L216.63 7.794C216.63 8.928 217.246 9.936 218.576 9.936C219.5 9.936 220.06 9.53 220.34 8.732L221.852 8.732C221.502 10.314 220.158 11.196 218.576 11.196C216.308 11.196 215.034 9.614 215.034 7.388C215.034 5.33 216.378 3.566 218.534 3.566C220.816 3.566 222.216 5.624 221.95 7.794ZM216.63 6.744L220.354 6.744C220.298 5.736 219.612 4.826 218.534 4.826C217.428 4.826 216.672 5.666 216.63 6.744ZM223.023 11L223.023 3.762L224.535 3.762V4.826L224.563 4.854C225.039 4.056 225.865 3.566 226.817 3.566C228.385 3.566 229.379 4.406 229.379 6.03L229.379 11L227.783 11L227.783 6.45C227.755 5.316 227.307 4.826 226.369 4.826C225.305 4.826 224.619 5.666 224.619 6.73L224.619 11L223.023 11ZM230.194 4.952V3.762L231.398 3.762V1.592L232.994 1.592V3.762L234.436 3.762V4.952L232.994 4.952V8.816C232.994 9.474 233.05 9.81 233.764 9.81C233.988 9.81 234.212 9.81 234.436 9.754L234.436 10.986C234.086 11.014 233.75 11.07 233.4 11.07C231.734 11.07 231.426 10.426 231.398 9.222V4.952L230.194 4.952ZM247.922 4.182L246.172 4.182C245.878 3.034 245.136 2.194 243.68 2.194C241.538 2.194 240.642 4.084 240.642 6.002C240.642 7.92 241.538 9.81 243.68 9.81C245.234 9.81 246.088 8.648 246.228 7.192L247.936 7.192C247.796 9.586 246.102 11.238 243.68 11.238C240.684 11.238 238.892 8.858 238.892 6.002C238.892 3.146 240.684 0.766 243.68 0.766C245.934 0.78 247.712 2.026 247.922 4.182ZM249.164 11V3.762L250.662 3.762V5.162H250.69C250.872 4.392 251.824 3.566 252.804 3.566C253.168 3.566 253.266 3.594 253.406 3.608V5.148C253.182 5.12 252.944 5.078 252.72 5.078C251.628 5.078 250.76 5.96 250.76 7.556V11L249.164 11ZM260.266 7.794L254.946 7.794C254.946 8.928 255.562 9.936 256.892 9.936C257.816 9.936 258.376 9.53 258.656 8.732L260.168 8.732C259.818 10.314 258.474 11.196 256.892 11.196C254.624 11.196 253.35 9.614 253.35 7.388C253.35 5.33 254.694 3.566 256.85 3.566C259.132 3.566 260.532 5.624 260.266 7.794ZM254.946 6.744L258.67 6.744C258.614 5.736 257.928 4.826 256.85 4.826C255.744 4.826 254.988 5.666 254.946 6.744ZM265.805 8.564V7.374C265.315 7.696 264.545 7.682 263.845 7.808C263.159 7.92 262.543 8.172 262.543 9.012C262.543 9.726 263.453 9.936 264.013 9.936C264.713 9.936 265.805 9.572 265.805 8.564ZM267.401 5.666V9.39C267.401 9.782 267.485 9.936 267.779 9.936C267.877 9.936 268.003 9.936 268.171 9.908V11.014C267.933 11.098 267.429 11.196 267.163 11.196C266.519 11.196 266.057 10.972 265.931 10.314C265.301 10.93 264.279 11.196 263.425 11.196C262.123 11.196 260.947 10.496 260.947 9.082C260.947 7.276 262.389 6.982 263.733 6.828C264.881 6.618 265.903 6.744 265.903 5.806C265.903 4.98 265.049 4.826 264.405 4.826C263.509 4.826 262.879 5.19 262.809 5.974L261.213 5.974C261.325 4.112 262.907 3.566 264.503 3.566C265.917 3.566 267.401 4.14 267.401 5.666ZM268.25 4.952V3.762L269.454 3.762V1.592L271.05 1.592V3.762L272.492 3.762V4.952L271.05 4.952V8.816C271.05 9.474 271.106 9.81 271.82 9.81C272.044 9.81 272.268 9.81 272.492 9.754V10.986C272.142 11.014 271.806 11.07 271.456 11.07C269.79 11.07 269.482 10.426 269.454 9.222V4.952L268.25 4.952ZM273.542 11V3.762L275.138 3.762V11L273.542 11ZM273.542 2.516V1.004L275.138 1.004V2.516L273.542 2.516ZM278.655 11L276.023 3.762L277.759 3.762L279.593 9.32H279.621L281.385 3.762L283.037 3.762L280.447 11L278.655 11ZM290.423 7.794L285.103 7.794C285.103 8.928 285.719 9.936 287.049 9.936C287.973 9.936 288.533 9.53 288.813 8.732L290.325 8.732C289.975 10.314 288.631 11.196 287.049 11.196C284.781 11.196 283.507 9.614 283.507 7.388C283.507 5.33 284.851 3.566 287.007 3.566C289.289 3.566 290.689 5.624 290.423 7.794ZM285.103 6.744L288.827 6.744C288.771 5.736 288.085 4.826 287.007 4.826C285.901 4.826 285.145 5.666 285.103 6.744ZM304.199 5.736V11L303.079 11L302.813 9.824C301.875 10.888 301.021 11.238 299.803 11.238C296.807 11.238 295.015 8.858 295.015 6.002C295.015 3.146 296.807 0.766 299.803 0.766C301.987 0.766 303.821 1.928 304.087 4.182L302.379 4.182C302.211 2.866 301.063 2.194 299.803 2.194C297.661 2.194 296.765 4.084 296.765 6.002C296.765 7.92 297.661 9.81 299.803 9.81C301.595 9.838 302.575 8.76 302.603 7.066L299.943 7.066V5.736L304.199 5.736ZM305.736 11V3.762L307.234 3.762V5.162H307.262C307.444 4.392 308.396 3.566 309.376 3.566C309.74 3.566 309.838 3.594 309.978 3.608V5.148C309.754 5.12 309.516 5.078 309.292 5.078C308.2 5.078 307.332 5.96 307.332 7.556V11L305.736 11ZM313.59 9.936C315.018 9.936 315.648 8.634 315.648 7.374C315.648 6.128 315.018 4.826 313.59 4.826C312.162 4.826 311.532 6.128 311.532 7.374C311.532 8.634 312.162 9.936 313.59 9.936ZM313.59 11.196C311.266 11.196 309.936 9.6 309.936 7.374C309.936 5.162 311.266 3.566 313.59 3.566C315.914 3.566 317.244 5.162 317.244 7.374C317.244 9.6 315.914 11.196 313.59 11.196ZM324.787 3.762V11L323.219 11V9.992H323.191C322.799 10.72 321.931 11.196 321.133 11.196C319.243 11.196 318.431 10.244 318.431 8.354V3.762L320.027 3.762V8.2C320.027 9.474 320.545 9.936 321.413 9.936C322.743 9.936 323.191 9.082 323.191 7.962V3.762L324.787 3.762ZM331.944 7.388C331.944 6.072 331.258 4.826 329.942 4.826C328.598 4.826 327.912 5.848 327.912 7.388C327.912 8.844 328.654 9.936 329.942 9.936C331.398 9.936 331.944 8.648 331.944 7.388ZM326.372 13.674V3.762L327.884 3.762V4.742H327.912C328.36 3.916 329.228 3.566 330.152 3.566C332.434 3.566 333.54 5.302 333.54 7.416C333.54 9.362 332.56 11.196 330.418 11.196C329.494 11.196 328.5 10.86 327.996 10.062H327.968V13.674L326.372 13.674Z" fill="#111111"/>
<path d="M2.044 97L2.044 77.008L5.544 77.008L5.544 84.96L14.644 84.96L14.644 77.008H18.144L18.144 97H14.644L14.644 87.984L5.544 87.984L5.544 97L2.044 97ZM30.567 76.532C36.559 76.532 40.143 81.292 40.143 87.004C40.143 92.716 36.559 97.476 30.567 97.476C24.575 97.476 20.991 92.716 20.991 87.004C20.991 81.292 24.575 76.532 30.567 76.532ZM30.567 79.388C26.283 79.388 24.491 83.168 24.491 87.004C24.491 90.84 26.283 94.62 30.567 94.62C34.851 94.62 36.643 90.84 36.643 87.004C36.643 83.168 34.851 79.388 30.567 79.388ZM42.8245 89.804L42.8245 77.008H46.3245L46.3245 88.656C46.3245 91.344 46.4925 94.452 51.0285 94.452C55.5645 94.452 55.7325 91.344 55.7325 88.656L55.7325 77.008L59.2325 77.008L59.2325 89.804C59.2325 94.928 55.9565 97.476 51.0285 97.476C46.1005 97.476 42.8245 94.928 42.8245 89.804ZM61.7715 90.336H65.2715C65.2715 93.416 67.5395 94.62 70.3395 94.62C73.4195 94.62 74.5675 93.108 74.5675 91.596C74.5675 90.056 73.7275 89.44 72.9155 89.132C71.5155 88.6 69.6955 88.236 66.9515 87.48C63.5355 86.556 62.5275 84.484 62.5275 82.412C62.5275 78.408 66.2235 76.532 69.8355 76.532C74.0075 76.532 77.5075 78.744 77.5075 82.916H74.0075C73.8395 80.34 72.1035 79.388 69.6955 79.388C68.0715 79.388 66.0275 79.976 66.0275 81.992C66.0275 83.392 66.9795 84.176 68.4075 84.568C68.7155 84.652 73.1395 85.8 74.1755 86.108C76.8075 86.892 78.0675 89.132 78.0675 91.204C78.0675 95.684 74.0915 97.476 70.1155 97.476C65.5515 97.476 61.8555 95.292 61.7715 90.336ZM80.8517 97L80.8517 77.008L95.2437 77.008V80.032L84.3517 80.032L84.3517 85.268L94.4317 85.268V88.124L84.3517 88.124L84.3517 93.976L95.4397 93.976L95.4397 97L80.8517 97ZM114.233 76.532C120.225 76.532 123.809 81.292 123.809 87.004C123.809 92.716 120.225 97.476 114.233 97.476C108.241 97.476 104.657 92.716 104.657 87.004C104.657 81.292 108.241 76.532 114.233 76.532ZM114.233 79.388C109.949 79.388 108.157 83.168 108.157 87.004C108.157 90.84 109.949 94.62 114.233 94.62C118.517 94.62 120.309 90.84 120.309 87.004C120.309 83.168 118.517 79.388 114.233 79.388ZM126.715 97L126.715 77.008L140.519 77.008V80.032L130.215 80.032L130.215 85.268L139.259 85.268V88.124L130.215 88.124V97L126.715 97Z" fill="#111111"/>
<path d="M2.128 129L2.128 109.008L5.628 109.008L5.628 125.976L15.792 125.976L15.792 129L2.128 129ZM17.7021 121.804L17.7021 109.008L21.2021 109.008L21.2021 120.656C21.2021 123.344 21.3701 126.452 25.9061 126.452C30.4421 126.452 30.6101 123.344 30.6101 120.656L30.6101 109.008H34.1101L34.1101 121.804C34.1101 126.928 30.8341 129.476 25.9061 129.476C20.9781 129.476 17.7021 126.928 17.7021 121.804ZM42.7252 118.64L36.1172 109.008H40.2892L44.8252 116.064L49.5572 109.008L53.4772 109.008L46.8692 118.64L53.9532 129L49.6972 129L44.7132 121.356L39.6452 129L35.6412 129L42.7252 118.64ZM55.5054 121.804L55.5054 109.008L59.0054 109.008L59.0054 120.656C59.0054 123.344 59.1734 126.452 63.7094 126.452C68.2454 126.452 68.4134 123.344 68.4134 120.656L68.4134 109.008H71.9134L71.9134 121.804C71.9134 126.928 68.6374 129.476 63.7094 129.476C58.7814 129.476 55.5054 126.928 55.5054 121.804ZM79.1564 111.864L79.1564 118.108L84.8964 118.108C87.1084 118.108 88.3124 117.016 88.3124 114.916C88.3124 112.368 86.6604 111.864 84.8404 111.864L79.1564 111.864ZM75.6564 129L75.6564 109.008L85.2044 109.008C89.5724 109.008 91.8124 111.024 91.8124 114.412C91.8124 118.248 89.1524 119.228 88.5084 119.452V119.508C89.7124 119.676 91.4764 120.572 91.4764 123.736C91.4764 126.06 91.8124 128.188 92.5684 129H88.8164C88.2844 128.132 88.2844 127.04 88.2844 126.06C88.2844 122.392 87.5284 120.768 84.3084 120.768L79.1564 120.768L79.1564 129H75.6564ZM99.2602 129L99.2602 121.16L91.7562 109.008H95.8162L101.108 117.968L106.316 109.008H110.236L102.76 121.16L102.76 129L99.2602 129ZM125.769 110.912C124.593 110.912 123.641 111.78 123.641 113.124C123.641 114.44 124.733 115.448 125.461 116.456C126.665 115.644 127.813 114.804 127.813 113.208C127.813 111.892 127.001 110.912 125.769 110.912ZM128.401 124.632L124.481 119.76C123.305 120.488 121.401 121.132 121.401 123.512C121.401 125.668 122.773 126.872 124.621 126.872C126.945 126.872 127.785 125.444 128.401 124.632ZM131.929 129L130.109 126.76C128.625 128.58 126.833 129.392 124.509 129.392C120.841 129.392 118.209 127.208 118.209 123.456C118.209 120.628 120.505 118.836 122.801 117.66C121.765 116.344 120.785 115.028 120.785 113.292C120.785 110.408 122.969 108.532 125.685 108.532C128.261 108.532 130.669 110.128 130.669 113.32C130.669 115.672 128.989 117.352 127.057 118.388L130.165 122.14C130.389 121.524 130.641 120.74 130.781 119.452H133.581C133.385 121.188 132.909 122.952 132.013 124.352L135.849 129L131.929 129ZM144.831 129L144.831 109.008H148.331L148.331 125.976L158.495 125.976V129L144.831 129ZM160.629 129L160.629 109.008H164.129L164.129 129L160.629 129ZM168.142 129L168.142 109.008L181.946 109.008V112.032L171.642 112.032L171.642 117.268L180.686 117.268V120.124L171.642 120.124V129H168.142ZM184.459 129L184.459 109.008L198.851 109.008V112.032L187.959 112.032L187.959 117.268L198.039 117.268V120.124L187.959 120.124V125.976L199.047 125.976V129L184.459 129ZM200.612 122.336H204.112C204.112 125.416 206.38 126.62 209.18 126.62C212.26 126.62 213.408 125.108 213.408 123.596C213.408 122.056 212.568 121.44 211.756 121.132C210.356 120.6 208.536 120.236 205.792 119.48C202.376 118.556 201.368 116.484 201.368 114.412C201.368 110.408 205.064 108.532 208.676 108.532C212.848 108.532 216.348 110.744 216.348 114.916H212.848C212.68 112.34 210.944 111.388 208.536 111.388C206.912 111.388 204.868 111.976 204.868 113.992C204.868 115.392 205.82 116.176 207.248 116.568C207.556 116.652 211.98 117.8 213.016 118.108C215.648 118.892 216.908 121.132 216.908 123.204C216.908 127.684 212.932 129.476 208.956 129.476C204.392 129.476 200.696 127.292 200.612 122.336ZM217.788 112.032V109.008L233.972 109.008V112.032L227.616 112.032L227.616 129L224.116 129L224.116 112.032L217.788 112.032ZM241.218 129V121.16L233.714 109.008L237.774 109.008L243.066 117.968L248.274 109.008L252.194 109.008L244.718 121.16V129H241.218ZM253.886 129L253.886 109.008H257.386L257.386 125.976L267.55 125.976V129L253.886 129ZM269.684 129L269.684 109.008L284.076 109.008V112.032L273.184 112.032V117.268L283.264 117.268V120.124L273.184 120.124L273.184 125.976L284.272 125.976V129L269.684 129Z" fill="#111111"/>
<g clip-path="url(#clip0_7682_3201)" filter="url(#filter0_b_7682_3201)">
<path d="M85.8622 252.725H21.0177V209.09H0.195312V318.211H21.0177V272.95H85.6192V318.211H106.442V209.09H85.8622V252.725Z" fill="#111111"/>
<path d="M148.74 298.147V209.09H127.258V318.211H220.638V298.147H148.74Z" fill="#111111"/>
<path d="M258.782 298.147V209.09H237.543V318.211H334.914V298.147H258.782Z" fill="#111111"/>
</g>
<defs>
<filter id="filter0_b_7682_3201" x="-11.171" y="197.829" width="357.342" height="132.342" filterUnits="userSpaceOnUse" color-interpolation-filters="sRGB">
<feFlood flood-opacity="0" result="BackgroundImageFix"/>
<feGaussianBlur in="BackgroundImageFix" stdDeviation="5.58549"/>
<feComposite in2="SourceAlpha" operator="in" result="effect1_backgroundBlur_7682_3201"/>
<feBlend mode="normal" in="SourceGraphic" in2="effect1_backgroundBlur_7682_3201" result="shape"/>
</filter>
<clipPath id="clip0_7682_3201">
<rect width="335" height="110" fill="white" transform="translate(0 209)"/>
</clipPath>
</defs>
</svg>
