<svg width="417" height="82" viewBox="0 0 417 82" fill="none" xmlns="http://www.w3.org/2000/svg">
<path d="M24.5608 30.2097C24.5608 17.2157 23.0198 12.368 19.7441 12.368C16.9759 12.368 14.2077 14.3544 14.2077 40.9986C14.2077 67.6427 15.6471 69.6292 19.7441 69.6292C24.1548 69.6292 25.179 62.3576 25.382 51.022L36.6579 51.5688C36.6579 65.228 34.8124 81.7393 19.2274 81.7393C4.97105 81.7484 0.255859 66.7771 0.255859 41.0077C0.255859 11.0467 8.662 0.257812 19.2274 0.257812C34.6094 0.257812 36.4549 15.457 36.4549 29.7723L24.5608 30.2097Z" fill="#EF88AB"/>
<path d="M50.0725 49.2634C50.0725 66.2212 51.918 69.6383 54.9907 69.6383C58.0635 69.6383 59.9089 66.2212 59.9089 49.2634L59.9089 32.7429C59.9089 15.785 58.0635 12.368 54.9907 12.368C51.918 12.368 50.0725 15.785 50.0725 32.7429L50.0725 49.2634ZM54.9907 0.257812C66.7833 0.257812 74.4697 10.0626 74.4697 41.0077C74.4697 71.9528 66.7833 81.7575 54.9907 81.7575C43.1981 81.7575 35.5117 71.9528 35.5117 41.0077C35.5117 10.0626 43.1981 0.257812 54.9907 0.257812Z" fill="#EF88AB"/>
<path d="M85.6217 57.519C85.6217 61.9202 85.6217 69.6292 91.3611 69.6292C95.7718 69.6292 97.3036 65.228 97.3036 62.0296C97.3036 48.0423 73.1094 44.853 73.1094 21.6169C73.1186 9.84387 79.061 0.257812 90.3369 0.257812C102.333 0.257812 106.946 10.0626 107.26 24.1592L95.3658 24.1592C95.3658 19.758 95.3658 12.3771 90.0324 12.3771C86.8582 12.3771 85.0035 15.2383 85.0035 19.5393C85.0035 32.8614 109.198 37.381 109.198 60.1707C109.198 72.1715 102.84 81.7575 90.8444 81.7575C76.5881 81.7575 73.7184 68.3261 73.7184 57.5281H85.6125L85.6217 57.519Z" fill="#EF88AB"/>
<path d="M107.602 1.8125L125.346 1.8125L131.288 42.0065H131.491L137.747 1.8125L155.076 1.8125L155.076 80.2232L143.182 80.2232L143.182 22.7342H142.979L133.955 80.2232H126.573L117.65 22.7342H117.447L117.447 80.2232H107.602L107.602 1.8125Z" fill="#EF88AB"/>
<path d="M169.638 49.2624C169.638 66.2202 171.483 69.6373 174.556 69.6373C177.628 69.6373 179.474 66.2202 179.474 49.2624L179.474 32.7419C179.474 15.7841 177.628 12.367 174.556 12.367C171.483 12.367 169.638 15.7841 169.638 32.7419L169.638 49.2624ZM174.556 0.256836C186.348 0.256836 194.044 10.0616 194.044 41.0067C194.044 71.9518 186.358 81.7566 174.565 81.7566C162.772 81.7566 155.086 71.9518 155.086 41.0067C155.086 10.0616 162.763 0.256836 174.556 0.256836Z" fill="#EF88AB"/>
<path d="M207.474 37.3857H208.6C214.035 37.3857 217.006 35.0711 217.006 25.6035C217.006 14.2588 212.909 13.9308 208.498 13.9308H207.474L207.474 37.3857ZM194.039 1.81152L207.373 1.81152C222.441 1.81152 230.34 8.30854 230.34 25.2664C230.34 39.363 225.209 48.8306 212.706 48.8306H207.373L207.373 80.2131H194.039L194.039 1.81152Z" fill="#EF88AB"/>
<path d="M243.932 49.2624C243.932 66.2202 245.777 69.6373 248.85 69.6373C251.923 69.6373 253.768 66.2202 253.768 49.2624L253.768 32.7419C253.768 15.7841 251.923 12.367 248.85 12.367C245.777 12.367 243.932 15.7841 243.932 32.7419L243.932 49.2624ZM248.85 0.256836C260.643 0.256836 268.329 10.0616 268.329 41.0067C268.329 71.9518 260.643 81.7566 248.85 81.7566C237.058 81.7566 229.371 71.9518 229.371 41.0067C229.371 10.0616 237.067 0.256836 248.85 0.256836Z" fill="#EF88AB"/>
<path d="M268.324 1.8125L281.649 1.8125L281.649 68.1131H298.673L298.673 80.2232H268.324L268.324 1.8125Z" fill="#EF88AB"/>
<path d="M312.595 1.8125L299.262 1.8125L299.262 80.2232H312.595L312.595 1.8125Z" fill="#EF88AB"/>
<path d="M324.736 13.9318L313.248 13.9318L313.248 1.8125L349.549 1.8125L349.549 13.9318L338.06 13.9318L338.06 80.2232H324.736L324.736 13.9318Z" fill="#EF88AB"/>
<path d="M360.005 13.9318H359.802L355.595 51.3739L363.899 51.3739L360.005 13.9318ZM351.498 1.82161L370.774 1.82161L379.798 80.2323H366.981L365.034 62.8279L354.266 62.8279L352.42 80.2323H341.246L351.498 1.8125V1.82161Z" fill="#EF88AB"/>
<path d="M405.171 1.8125L405.171 43.2185H404.968L392.769 1.8125L379.74 1.8125L379.74 80.2232H391.025L391.025 32.7576H391.228L405.475 80.2232H415.727L415.727 1.8125L405.171 1.8125Z" fill="#EF88AB"/>
</svg>
