<svg width="16" height="16" viewBox="0 0 16 16" fill="none" xmlns="http://www.w3.org/2000/svg">
<g clip-path="url(#clip0_2420_14719)">
<rect width="10" height="1" transform="matrix(1 0 0 -1 2 4)" fill="#111111"/>
<rect width="1" height="1" transform="matrix(1 0 0 -1 2 4)" fill="#111111"/>
<rect width="1" height="1" transform="matrix(1 0 0 -1 2 8)" fill="#111111"/>
<rect width="1" height="1" transform="matrix(1 0 0 -1 2 12)" fill="#111111"/>
<rect width="10" height="1" transform="matrix(1 0 0 -1 2 8)" fill="#111111"/>
<rect width="10" height="1" transform="matrix(1 0 0 -1 2 12)" fill="#111111"/>
<path d="M6.72894 6.81829C5.75702 7.90899 5.75702 9.67738 6.72894 10.7681L10.5 15L14.2711 10.7678C15.243 9.67711 15.243 7.90873 14.2711 6.81803C13.2991 5.72732 11.7233 5.72732 10.7514 6.81803L10.4999 7.10029L10.2486 6.81829C9.27667 5.72758 7.70087 5.72758 6.72894 6.81829Z" fill="black"/>
</g>
<defs>
<clipPath id="clip0_2420_14719">
<rect width="16" height="16" fill="white"/>
</clipPath>
</defs>
</svg>
