<svg width="46" height="46" viewBox="0 0 46 46" fill="none" xmlns="http://www.w3.org/2000/svg">
<path d="M43.8 21.4C43.8 23.304 43.576 25.04 43.128 26.608C42.68 28.176 42.176 29.464 41.672 30.528C41 31.816 40.328 32.992 39.6 34L45.2 39.6L39.32 45.48L33.44 39.6C32.488 40.216 31.424 40.72 30.248 41.168C29.24 41.616 28.008 41.952 26.664 42.232C25.32 42.568 23.808 42.68 22.24 42.68C19.216 42.68 16.36 42.12 13.784 41C11.152 39.88 8.856 38.368 6.952 36.464C4.992 34.56 3.48 32.264 2.36 29.688C1.24 27.112 0.68 24.368 0.68 21.4C0.68 18.488 1.24 15.688 2.36 13.112C3.48 10.536 4.992 8.296 6.952 6.392C8.856 4.488 11.152 2.92 13.784 1.8C16.36 0.679998 19.216 0.119999 22.24 0.119999C25.264 0.119999 28.064 0.679998 30.696 1.8C33.272 2.92 35.568 4.488 37.528 6.392C39.432 8.296 41 10.536 42.12 13.112C43.24 15.688 43.8 18.488 43.8 21.4ZM9.36 21.4C9.36 23.304 9.696 25.096 10.368 26.72C11.04 28.344 11.992 29.744 13.168 30.976C14.344 32.208 15.688 33.16 17.256 33.832C18.824 34.504 20.448 34.84 22.24 34.84C23.08 34.84 23.808 34.784 24.48 34.672C25.152 34.56 25.712 34.448 26.16 34.28C26.664 34.168 27.112 33.944 27.56 33.72L25.04 31.2L30.92 25.32L33.44 27.84C33.72 27.28 34 26.664 34.28 25.992C34.448 25.432 34.616 24.76 34.84 23.976C35.008 23.192 35.12 22.352 35.12 21.4C35.12 19.496 34.728 17.76 34.056 16.136C33.384 14.512 32.432 13.112 31.256 11.88C30.08 10.648 28.736 9.696 27.168 9.024C25.6 8.352 23.976 7.96 22.24 7.96C20.448 7.96 18.824 8.352 17.256 9.024C15.688 9.696 14.344 10.648 13.168 11.88C11.992 13.112 11.04 14.512 10.368 16.136C9.696 17.76 9.36 19.496 9.36 21.4Z" fill="#111111"/>
</svg>
