<svg width="16" height="16" viewBox="0 0 16 16" fill="none" xmlns="http://www.w3.org/2000/svg">
<path d="M7.99916 7.51769C7.03687 7.51769 6.25658 6.7193 6.25658 5.73468C6.25658 4.75005 7.03687 3.95166 7.99916 3.95166C8.96145 3.95166 9.74173 4.75005 9.74173 5.73468C9.74173 6.7193 8.96145 7.51769 7.99916 7.51769ZM8.19128 2.00483C5.98525 1.8962 4.11123 3.63265 4 5.88815C4 5.89505 4 5.90022 4 5.90712C4 6.0261 4.02865 7.22972 4.70276 8.42472L7.77839 13.8738C7.87445 14.0445 8.11713 14.0445 8.21319 13.8738L11.2871 8.42472C11.9343 7.278 11.9916 5.8985 11.9916 5.8985C12.1011 3.63783 10.399 2.11347 8.19128 2.00483Z" fill="#111111"/>
</svg>
