<svg width="40" height="40" viewBox="0 0 40 40" fill="none" xmlns="http://www.w3.org/2000/svg">
<path d="M32.8569 14.2859C32.8569 21.4001 19.9997 38.5716 19.9997 38.5716C19.9997 38.5716 7.14258 21.4001 7.14258 14.2859C7.14258 10.8759 8.49717 7.60566 10.9083 5.19448C13.3195 2.7833 16.5898 1.42871 19.9997 1.42871C23.4096 1.42871 26.6799 2.7833 29.0911 5.19448C31.5023 7.60566 32.8569 10.8759 32.8569 14.2859Z" fill="#111111"/>
<path d="M20.0006 18.5714C22.3675 18.5714 24.2863 16.6526 24.2863 14.2857C24.2863 11.9188 22.3675 10 20.0006 10C17.6336 10 15.7148 11.9188 15.7148 14.2857C15.7148 16.6526 17.6336 18.5714 20.0006 18.5714Z" fill="white"/>
</svg>
