<svg width="60" height="60" viewBox="0 0 60 60" fill="none" xmlns="http://www.w3.org/2000/svg">
<rect width="60" height="60" rx="30" fill="#F7F7F7"/>
<path d="M17 35.5972V24.1528C17 20.2024 20.2078 17 24.1649 17H35.6287C39.5858 17 42.7936 20.2024 42.7936 24.1528V35.5972C42.7936 39.5476 39.5858 42.75 35.6287 42.75H24.1649C20.2078 42.75 17 39.5476 17 35.5972Z" fill="black"/>
<path d="M29.896 35.5968C33.0616 35.5968 35.6279 33.0348 35.6279 29.8746C35.6279 26.7143 33.0616 24.1523 29.896 24.1523C26.7303 24.1523 24.1641 26.7143 24.1641 29.8746C24.1641 33.0348 26.7303 35.5968 29.896 35.5968Z" stroke="white" stroke-width="2.18749" stroke-linecap="round" stroke-linejoin="round"/>
<path d="M37.7773 22.0221L37.7919 22.0059" stroke="white" stroke-width="2.18749" stroke-linecap="round" stroke-linejoin="round"/>
</svg>
