<svg width="24" height="24" viewBox="0 0 24 24" fill="none" xmlns="http://www.w3.org/2000/svg">
<path d="M19.7137 8.57171C19.7137 11.9104 14.9945 18.9405 12.9383 21.8451C12.4756 22.4987 11.5233 22.4987 11.0606 21.8451C9.00439 18.9405 4.28516 11.9104 4.28516 8.57171C4.28516 6.52575 5.09791 4.56359 6.54462 3.11688C7.99133 1.67017 9.95349 0.857422 11.9994 0.857422C14.0454 0.857422 16.0076 1.67017 17.4543 3.11688C18.901 4.56359 19.7137 6.52575 19.7137 8.57171Z" fill="#999999"/>
<path d="M11.9992 11.1429C13.4193 11.1429 14.5706 9.99159 14.5706 8.57143C14.5706 7.15127 13.4193 6 11.9992 6C10.579 6 9.42773 7.15127 9.42773 8.57143C9.42773 9.99159 10.579 11.1429 11.9992 11.1429Z" fill="white"/>
</svg>
