<svg width="146" height="24" viewBox="0 0 146 24" fill="none" xmlns="http://www.w3.org/2000/svg">
<path d="M65.2557 22.6564L65.2513 9.08434H57.9009C57.9009 9.08434 58.1505 13.9816 57.7629 14.9333C57.1061 17.0028 51.8095 16.7086 51.8095 14.2968C51.8095 11.4941 57.2046 11.9752 57.2046 11.9752L56.666 9.08014C56.666 9.08014 44.1985 7.96665 43.6007 14.3619C43.4672 18.818 51.7416 20.6773 57.8615 18.4839V23.7762L65.2557 22.6585V22.6564Z" fill="black"/>
<path d="M91.6537 16.6075C91.5814 16.5361 90.2348 16.8575 89.2582 16.6285C88.181 16.3764 88.1109 15.6032 88.1109 14.5738V9.06934H80.0335V14.2649C80.0335 14.8784 80.0861 16.3701 77.8199 16.3701C76.8017 16.3701 75.639 16.2881 75.639 14.8784V9.06934H67.6055L67.612 15.6894C67.612 19.4627 74.2092 20.6161 80.986 18.1538C80.986 18.1538 84.1587 20.5594 92.0916 18.7904C92.0916 18.7904 91.7456 16.7041 91.6515 16.6096" fill="black"/>
<path d="M105.96 10.1304C106.013 9.31734 108.119 9.10724 108.249 10.0485C108.249 10.0485 105.906 11.0086 105.96 10.1304ZM123.88 16.0172C123.676 15.9521 122.192 16.2714 120.532 15.721C117.876 14.8386 117.469 11.4204 120.622 9.4665L117.67 7.06934C112.463 8.99379 111.393 9.13035 110.907 9.2375C110.664 8.5589 109.534 7.41809 107.138 7.55465C105.836 7.62818 103.898 8.332 103.337 9.60937C102.961 10.4708 103.188 11.4393 104.064 12.099C105.325 13.0528 107.734 12.8154 107.734 12.8154C106.976 15.8639 100.37 17.9501 100.37 14.681V9.07573H92.5273V15.5865C92.5273 18.8388 96.6876 19.6813 100.771 19.4228C106.486 19.0615 109.702 15.9143 110.874 12.5171L113.661 11.8994C113.661 11.8994 109.845 16.6727 114.607 18.8409C117.324 20.0783 122.319 19.1245 124.327 18.0971C124.327 18.0971 123.994 16.0529 123.878 16.0172" fill="black"/>
<path d="M26.3076 15.7775C26.3076 15.7775 28.333 14.5463 30.4175 12.7941C30.4175 12.7941 32.2108 13.8005 33.0319 14.9959C33.0319 14.9959 30.1723 14.4749 26.3076 15.7775ZM32.7932 16.8658C31.9327 17.8826 28.5629 17.8742 28.7994 17.2082C29.0534 16.4918 32.3969 16.6704 32.7932 16.8658ZM41.3369 16.0128C42.077 15.2922 42.031 14.4161 41.4048 13.4601C40.4786 12.0504 37.9212 11.2248 37.3081 10.1071C37.0388 9.61543 37.0497 9.03137 37.4482 8.31285L37.3103 7.72249L28.679 8.6385C28.1688 9.74359 28.6899 10.605 28.7271 10.7058C22.4912 17.1137 12.3797 17.1704 12.1104 14.9119C11.8586 12.7941 18.7711 12.3256 18.7711 12.3256L18.6353 10.2142C18.6353 10.2142 13.9781 10.5651 13.908 9.19104C13.8358 7.77291 18.1931 7.31491 20.7176 7.2855L20.0739 3.88198C11.8958 3.79584 4.25198 5.52491 3.54912 8.48933C3.33892 9.37803 3.95639 10.9432 7.33053 11.5945V11.708C7.33053 11.708 0.245042 12.7836 0.293213 15.7334C0.337005 18.3574 6.44813 19.5234 10.766 19.5529C19.5134 19.6117 24.1224 16.83 24.1224 16.83C22.9007 20.0382 32.4757 20.4268 39.1255 18.1242C39.443 18.015 41.996 19.0591 43.5484 19.7167C43.5484 19.7167 44.5403 17.4351 44.4089 17.1263C44.2885 16.8448 41.3391 16.0149 41.3391 16.0149" fill="black"/>
<path d="M134.935 15.4314C134.935 13.9439 140.286 13.4439 140.286 13.4439L140.212 11.9543C139.432 11.9333 136.387 12.0405 136.387 11.2589C136.387 10.2379 141.046 9.98997 142.68 9.93324L142.345 7.55078C139.529 7.55918 126.882 7.5907 126.365 10.8745C126.085 12.6477 129.726 13.0657 129.726 13.0657V13.1498C129.726 13.1498 124.957 13.9965 124.957 16.2108C124.957 20.7299 141.403 19.4631 145.66 18.3391C145.66 18.3391 145.248 16.3327 145.06 16.2381C144.889 16.1541 141.438 16.6436 138.697 16.5722C136.468 16.5155 134.935 16.1751 134.935 15.4272" fill="black"/>
<path d="M96.5117 7.93292C98.4736 7.93292 100.065 6.40554 100.065 4.5231C100.065 2.64066 98.4736 1.11328 96.5117 1.11328C94.5498 1.11328 92.958 2.64066 92.958 4.5231C92.958 6.40554 94.5498 7.93292 96.5117 7.93292Z" fill="black"/>
</svg>
