<svg width="182" height="92" viewBox="0 0 182 92" fill="none" xmlns="http://www.w3.org/2000/svg">
<g clip-path="url(#clip0_9794_7744)">
<g opacity="0.16">
<mask id="mask0_9794_7744" style="mask-type:luminance" maskUnits="userSpaceOnUse" x="14" y="-12" width="134" height="116">
<path d="M137.083 28.7921C137.717 40.0621 138.576 42.7152 139.279 42.839C139.388 42.8622 140.734 43.0478 140.734 43.0478C140.734 43.0478 144.315 46.7684 146.705 50.7287C146.883 51.0227 147.038 51.2934 147.061 51.6879C147.123 52.9255 145.336 54.0394 141.762 56.2206C137.431 58.866 136.611 59.3534 135.126 60.1655C133.935 60.8153 133.702 60.9158 133.184 61.1866C132.689 61.4418 132.326 61.6429 132.202 61.7203C131.807 61.9369 129.827 63.0275 127.87 63.9789C126.091 64.8453 125.905 64.8375 124.475 65.6033C123.647 66.0442 122.912 66.4619 122.494 66.7172C121.752 67.1735 120.653 67.8465 120.437 68.0012C118.395 69.4322 118.82 76.4092 118.82 76.4092C119.385 84.562 77.5071 116.825 42.4517 98.1061C26.4865 89.5743 13.0894 71.1107 14.0485 50.4812C15.1082 27.8561 32.9066 14.4357 44.1844 5.92716C47.9978 3.04971 77.0275 -18.1753 109.267 -10.2314C116.097 -8.55291 127.352 -5.77601 133.726 4.61993C139.728 14.4048 137.864 25.172 137.075 28.7921H137.083Z" fill="white"/>
</mask>
<g mask="url(#mask0_9794_7744)">
<path d="M132.186 61.7135C132.186 61.7135 139.341 57.1808 146.705 50.7297C146.705 50.7297 153.04 54.4348 155.941 58.8361C155.941 58.8361 145.839 56.9178 132.186 61.7135ZM155.098 65.7203C152.058 69.4641 140.154 69.4331 140.989 66.9811C141.886 64.3434 153.698 65.0009 155.098 65.7203ZM140.734 43.0333C118.704 66.6253 82.9837 66.8341 82.0322 58.5189C81.1427 50.722 105.562 48.997 105.562 48.997L105.083 41.2233C105.083 41.2233 88.6303 42.515 88.3827 37.4563C88.1275 32.2351 103.52 30.5489 112.439 30.4406L110.165 17.9098C81.2742 17.5926 54.271 23.9586 51.7881 34.8728C51.0455 38.1447 53.2268 43.9074 65.1466 46.3052V46.7229C65.1466 46.7229 40.1158 50.6756 40.286 61.5356C40.4407 71.1967 62.0293 75.4897 77.2829 75.598C108.185 75.8146 124.467 65.5733 124.467 65.5733C120.151 77.3848 153.976 78.8158 177.468 70.3381C178.589 69.9359 187.608 73.7802 193.093 76.2013C193.093 76.2013 196.596 67.801 196.132 66.664C195.707 65.6275 185.288 62.5721 185.288 62.5721M185.288 62.5721C187.902 59.919 187.74 56.6934 185.528 53.174C182.256 47.9837 173.221 44.9439 171.055 40.8288C170.104 39.0188 170.143 36.8684 171.55 34.223L171.063 32.0495L140.571 35.422C138.769 39.4906 140.61 42.662 140.741 43.0333" fill="white"/>
</g>
<path d="M134.538 60.1422C131.057 62.4627 127.986 64.1721 125.596 65.3865C120.839 67.7999 117.389 68.9756 116.484 69.2773C120.019 62.0527 120.685 61.5113 120.685 61.5113C120.685 61.5113 127.143 58.6802 133.61 59.9333C134.035 60.0184 134.376 60.1035 134.538 60.1422Z" fill="white"/>
</g>
<g clip-path="url(#clip1_9794_7744)">
<path d="M81.3123 59.2095L81.3068 41.5941H72.1123C72.1123 41.5941 72.4246 47.9503 71.9398 49.1856C71.1181 51.8715 64.4927 51.4898 64.4927 48.3594C64.4927 44.7217 71.2414 45.3462 71.2414 45.3462L70.5676 41.5886C70.5676 41.5886 54.9724 40.1434 54.2247 48.4439C54.0576 54.2275 64.4078 56.6408 72.063 53.794V60.6629L81.3123 59.2122V59.2095Z" fill="white"/>
<path d="M114.331 51.3581C114.241 51.2654 112.556 51.6826 111.335 51.3854C109.987 51.0582 109.9 50.0547 109.9 48.7186V41.5742H99.7959V48.3177C99.7959 49.1139 99.8617 51.05 97.0269 51.05C95.7533 51.05 94.299 50.9437 94.299 49.1139V41.5742H84.25L84.2582 50.1665C84.2582 55.0639 92.5105 56.561 100.987 53.3651C100.987 53.3651 104.956 56.4873 114.879 54.1913C114.879 54.1913 114.446 51.4836 114.328 51.3609" fill="white"/>
<path d="M132.229 42.9496C132.295 41.8943 134.929 41.6216 135.091 42.8432C135.091 42.8432 132.16 44.0894 132.229 42.9496ZM154.644 50.5902C154.389 50.5057 152.532 50.9201 150.456 50.2057C147.134 49.0604 146.624 44.6239 150.568 42.0879L146.876 38.9766C140.363 41.4744 139.024 41.6516 138.416 41.7907C138.112 40.9099 136.699 39.4292 133.702 39.6065C132.073 39.7019 129.649 40.6154 128.948 42.2733C128.477 43.3913 128.761 44.6484 129.857 45.5046C131.435 46.7426 134.447 46.4345 134.447 46.4345C133.5 50.3911 125.236 53.0989 125.236 48.8559V41.5807H115.426V50.0312C115.426 54.2524 120.63 55.3458 125.738 55.0104C132.886 54.5414 136.91 50.4566 138.375 46.0473L141.862 45.2456C141.862 45.2456 137.088 51.441 143.045 54.2551C146.444 55.8612 152.691 54.6232 155.203 53.2898C155.203 53.2898 154.786 50.6366 154.641 50.5902" fill="white"/>
<path d="M32.5918 50.2793C32.5918 50.2793 35.1253 48.6814 37.7327 46.4072C37.7327 46.4072 39.9759 47.7134 41.0029 49.2649C41.0029 49.2649 37.4259 48.5887 32.5918 50.2793ZM40.7044 51.6918C39.628 53.0116 35.4129 53.0007 35.7087 52.1363C36.0264 51.2065 40.2087 51.4382 40.7044 51.6918ZM51.3915 50.5847C52.3173 49.6494 52.2598 48.5123 51.4764 47.2716C50.3179 45.4419 47.1189 44.3703 46.352 42.9196C46.0151 42.2815 46.0288 41.5234 46.5273 40.5908L46.3547 39.8246L35.558 41.0135C34.9199 42.4478 35.5717 43.5658 35.6183 43.6967C27.8179 52.0136 15.1697 52.0872 14.8329 49.1559C14.5179 46.4072 23.1646 45.7991 23.1646 45.7991L22.9947 43.0586C22.9947 43.0586 17.1691 43.514 17.0815 41.7307C16.9911 39.89 22.4415 39.2956 25.5994 39.2574L24.7942 34.8399C14.5645 34.7281 5.003 36.9723 4.12381 40.8199C3.86088 41.9734 4.63325 44.0049 8.85387 44.8502V44.9974C8.85387 44.9974 -0.00916843 46.3936 0.0510871 50.2221C0.105865 53.6279 7.7501 55.1413 13.1512 55.1795C24.093 55.2558 29.8584 51.6455 29.8584 51.6455C28.3301 55.8094 40.3073 56.3138 48.6253 53.3252C49.0224 53.1834 52.2159 54.5387 54.1578 55.3922C54.1578 55.3922 55.3985 52.4308 55.2342 52.03C55.0836 51.6646 51.3943 50.5875 51.3943 50.5875" fill="white"/>
<path d="M168.473 49.83C168.473 47.8994 175.167 47.2504 175.167 47.2504L175.074 45.317C174.099 45.2898 170.289 45.4288 170.289 44.4144C170.289 43.0892 176.118 42.7674 178.161 42.6938L177.742 39.6016C174.219 39.6125 158.4 39.6534 157.753 43.9154C157.403 46.2169 161.957 46.7595 161.957 46.7595V46.8686C161.957 46.8686 155.992 47.9675 155.992 50.8416C155.992 56.7071 176.564 55.0628 181.888 53.6039C181.888 53.6039 181.373 50.9998 181.138 50.8771C180.924 50.768 176.608 51.4034 173.179 51.3106C170.391 51.237 168.473 50.7953 168.473 49.8245" fill="white"/>
<path d="M120.41 40.0974C122.864 40.0974 124.855 38.115 124.855 35.6718C124.855 33.2285 122.864 31.2461 120.41 31.2461C117.956 31.2461 115.965 33.2285 115.965 35.6718C115.965 38.115 117.956 40.0974 120.41 40.0974Z" fill="white"/>
</g>
</g>
<defs>
<clipPath id="clip0_9794_7744">
<rect width="182" height="92" fill="white"/>
</clipPath>
<clipPath id="clip1_9794_7744">
<rect width="182" height="30" fill="white" transform="translate(0 31)"/>
</clipPath>
</defs>
</svg>
