<svg width="481" height="107" viewBox="0 0 481 107" fill="none" xmlns="http://www.w3.org/2000/svg">
<path d="M215.436 100.945V41.841H191.149C191.149 41.841 191.971 63.1623 190.698 67.3003C188.524 76.3077 171.04 75.0252 171.04 64.5249C171.04 52.3213 188.855 54.4154 188.855 54.4154L187.071 41.8109C187.071 41.8109 145.901 36.9616 143.938 64.8055C143.497 84.213 170.82 92.3087 191.019 82.7502V105.795L215.436 100.925V100.945Z" fill="white"/>
<path d="M302.605 74.6043C302.364 74.2937 297.916 75.6964 294.699 74.6945C291.142 73.5923 290.912 70.2258 290.912 65.7472V41.7808H264.24V64.4046C264.24 67.0697 264.421 73.5723 256.936 73.5723C253.57 73.5723 249.732 73.2116 249.732 67.0797V41.7808H223.211L223.231 70.6065C223.231 87.0383 245.013 92.0681 267.396 81.3373C267.396 81.3373 277.867 91.8176 304.067 84.1127C304.067 84.1127 302.925 75.0251 302.615 74.6143" fill="white"/>
<path d="M349.836 46.3998C350.007 42.8629 356.96 41.9512 357.391 46.0491C357.391 46.0491 349.656 50.2272 349.836 46.3998ZM409.001 72.0294C408.33 71.7488 403.43 73.1415 397.95 70.7369C389.183 66.8894 387.83 52.0106 398.25 43.5042L388.501 33.064C371.308 41.4502 367.771 42.0413 366.168 42.5122C365.366 39.5565 361.639 34.5869 353.724 35.1881C349.416 35.5087 343.023 38.5746 341.18 44.1354C339.937 47.8826 340.689 52.1008 343.574 54.9764C347.742 59.1244 355.698 58.0924 355.698 58.0924C353.193 71.3681 331.381 80.4457 331.381 66.2181V41.8009H305.48V70.1558C305.48 84.3232 319.217 87.9903 332.703 86.8581C351.58 85.285 362.19 71.5785 366.058 56.7798L375.266 54.0947C375.266 54.0947 362.661 74.8749 378.392 84.3231C387.359 89.7136 403.861 85.5555 410.484 81.0869C410.484 81.0869 409.382 72.1897 409.001 72.0194" fill="white"/>
<path d="M86.8272 70.9874C86.8272 70.9874 93.5202 65.6271 100.393 57.9923C100.393 57.9923 106.315 62.3707 109.03 67.5808C109.03 67.5808 99.5819 65.3064 86.8272 70.9874ZM108.249 75.7366C105.413 80.1652 94.2816 80.1251 95.0531 77.2295C95.8948 74.1135 106.936 74.895 108.249 75.7366ZM136.463 72.0194C138.908 68.8834 138.758 65.0659 136.684 60.9079C133.628 54.766 125.181 51.1691 123.158 46.2996C122.266 44.1555 122.306 41.6206 123.618 38.4845L123.168 35.9095L94.6624 39.8973C92.9791 44.7066 94.6924 48.4538 94.8227 48.9047C74.2328 76.8087 40.8482 77.0592 39.9565 67.2201C39.1248 58.0023 61.949 55.9584 61.949 55.9584L61.4982 46.7605C61.4982 46.7605 46.1184 48.2935 45.8879 42.3019C45.6475 36.13 60.0353 34.1261 68.3715 34.0059L66.2474 19.1772C39.2451 18.8064 14.0062 26.331 11.6817 39.236C10.9904 43.1135 13.0243 49.9167 24.1659 52.7622V53.2531C24.1659 53.2531 0.770596 57.9322 0.920887 70.777C1.06116 82.2092 21.2502 87.2789 35.4978 87.4092C64.3737 87.6597 79.6032 75.5562 79.6032 75.5562C75.5654 89.5233 107.187 91.2165 129.139 81.1871C130.181 80.7062 138.617 85.2551 143.747 88.1206C143.747 88.1206 147.024 78.1914 146.583 76.8388C146.182 75.6064 136.453 71.9994 136.453 71.9994" fill="white"/>
<path d="M445.512 69.4751C445.512 62.9925 463.176 60.8284 463.176 60.8284L462.925 54.3458C460.35 54.2556 450.291 54.7266 450.291 51.32C450.291 46.8714 465.681 45.7893 471.071 45.5488L469.959 35.1787C460.661 35.2088 418.9 35.3591 417.197 49.6567C416.275 57.3817 428.298 59.2052 428.298 59.2052V59.5659C428.298 59.5659 412.558 63.2531 412.558 72.8917C412.558 92.5698 466.863 87.0591 480.92 82.1596C480.92 82.1596 479.558 73.4227 478.936 73.0119C478.375 72.6412 466.973 74.7754 457.926 74.4748C450.571 74.2243 445.502 72.7414 445.502 69.4851" fill="white"/>
<path d="M332.453 26.02C332.453 31.6008 327.614 35.5485 319.147 35.5485C310.681 35.5485 305.832 31.681 305.832 26.02C305.832 19.6978 313.156 16.3413 319.137 16.3413C325.119 16.3413 332.453 19.6076 332.453 26.02Z" fill="white"/>
<path d="M215.737 10.0901H210.507C209.956 9.2485 209.054 8.59722 207.801 8.1263C206.729 7.71551 205.607 7.51514 204.445 7.51514C203.022 7.51514 201.84 7.83575 200.908 8.47699C199.866 9.19839 199.335 10.2504 199.335 11.6131C199.335 12.9757 199.946 14.0578 201.168 14.8393C202.211 15.5106 203.453 15.8412 204.876 15.8412C205.076 15.8412 205.256 15.8312 205.397 15.8012V17.3241C205.397 18.9773 204.866 20.3299 203.804 21.3619C202.742 22.3939 201.379 22.9049 199.726 22.9049C198.383 22.9049 197.261 22.454 196.349 21.5523C195.437 20.6505 194.977 19.5184 194.977 18.1457V0.962446H182.021V20.8008C182.021 23.0452 183.564 24.8887 186.64 26.3415C189.195 27.5639 191.76 28.1751 194.315 28.1751C199.726 28.1751 203.643 27.4637 206.088 26.041C209.314 24.1473 210.917 20.7107 210.887 15.711H215.727V10.0901H215.737ZM178.555 23.0852C177.883 23.2355 177.332 23.3057 176.902 23.3057C175.91 23.3057 175.078 23.0251 174.397 22.4741C173.715 21.923 173.375 21.1615 173.375 20.2097L173.335 10.0901H160.339V20.0293C160.339 20.9611 159.989 21.6926 159.297 22.2336C158.596 22.7747 157.774 23.0452 156.813 23.0452C155.851 23.0452 155.049 22.7747 154.398 22.2336C153.747 21.6926 153.416 20.9611 153.416 20.0293L153.376 10.0901H140.471V21.6725C140.471 23.8568 141.924 25.5801 144.829 26.8325C147.094 27.7944 149.508 28.2753 152.063 28.2753C155.731 28.2753 158.867 27.5339 161.482 26.051C162.263 26.8025 163.636 27.3836 165.58 27.7944C167.123 28.115 168.656 28.2753 170.199 28.2753C174.737 28.2753 178.064 27.8445 180.188 26.9628V22.7346C180.068 22.7346 179.537 22.8548 178.575 23.0852M138.557 22.7346C137.335 23.1454 136.243 23.3458 135.291 23.3458C133.898 23.3458 132.816 22.9149 132.065 22.0332C131.303 21.1615 130.933 20.0294 130.933 18.6367V1.02256H118.248V22.5242C118.248 24.7084 119.48 26.2714 121.955 27.2333C123.668 27.9046 125.823 28.2352 128.408 28.2352C131.924 28.2352 135.311 27.8144 138.567 26.9728V22.7446L138.557 22.7346ZM116.164 22.8248C113.839 23.6363 111.064 24.0471 107.838 24.0471C104.261 24.0471 101.345 23.4359 99.0709 22.2136C96.1652 20.6706 94.7124 18.276 94.7124 15.0196C94.7124 9.69935 99.3213 6.79374 108.539 6.29277L108.579 0.842218C106.716 0.732005 105.002 0.671875 103.439 0.671875C87.278 0.671875 79.1924 5.86193 79.1924 16.242C79.1924 20.5504 81.4167 23.8267 85.8653 26.1011C89.3821 27.9046 93.5201 28.8063 98.2893 28.8063C106.024 28.8063 111.986 28.2052 116.164 27.0229V22.8348V22.8248Z" fill="white"/>
</svg>
