<svg width="24" height="24" viewBox="0 0 24 24" fill="none" xmlns="http://www.w3.org/2000/svg">
<path fill-rule="evenodd" clip-rule="evenodd" d="M16.2857 3H7.71429L6.42857 6H2V20H22V6H17.5714L16.2857 3ZM12 15.5714C13.4202 15.5714 14.5714 14.4202 14.5714 13C14.5714 11.5798 13.4202 10.4286 12 10.4286C10.5798 10.4286 9.42857 11.5798 9.42857 13C9.42857 14.4202 10.5798 15.5714 12 15.5714ZM12 17C14.2091 17 16 15.2091 16 13C16 10.7909 14.2091 9 12 9C9.79086 9 8 10.7909 8 13C8 15.2091 9.79086 17 12 17Z" fill="#CCCCCC"/>
</svg>
