<svg width="32" height="32" viewBox="0 0 32 32" fill="none" xmlns="http://www.w3.org/2000/svg">
<rect x="4" y="2" width="24" height="24" rx="12" fill="#E0E0E0"/>
<mask id="mask0_109_5293" style="mask-type:alpha" maskUnits="userSpaceOnUse" x="4" y="2" width="24" height="24">
<circle cx="16" cy="14" r="12" fill="#D9D9D9"/>
</mask>
<g mask="url(#mask0_109_5293)">
<path d="M19.182 8.11294C18.3381 7.27278 17.1935 6.80078 16 6.80078C14.8065 6.80078 13.6619 7.27278 12.818 8.11294C11.9741 8.95311 11.5 10.0926 11.5 11.2808C11.5 12.469 11.9741 13.6085 12.818 14.4486C13.6619 15.2888 14.8065 15.7608 16 15.7608C17.1935 15.7608 18.3381 15.2888 19.182 14.4486C20.0259 13.6085 20.5 12.469 20.5 11.2808C20.5 10.0926 20.0259 8.95311 19.182 8.11294Z" fill="white"/>
<path d="M25 22.5608C25 19.5704 21.4038 16.8808 16 16.8808C10.5962 16.8808 7 19.5704 7 22.5608V26.0008H25V22.5608Z" fill="white"/>
<circle cx="16" cy="14" r="11.7" stroke="#E0E0E0" stroke-width="0.6"/>
</g>
</svg>
