<?xml version="1.0" encoding="UTF-8"?>
<svg id="_레이어_1" data-name=" 레이어 1" xmlns="http://www.w3.org/2000/svg" version="1.1" viewBox="0 0 120 24">
  <defs>
    <style>
      .cls-1 {
        fill: #ff1493;
        stroke-width: 0px;
      }
    </style>
  </defs>
  <path class="cls-1" d="M7.9,8.7c0-3.8-.4-5.2-1.4-5.2s-1.6.6-1.6,8.3.4,8.3,1.6,8.3,1.5-2.1,1.6-5.4l3.2.2c0,3.9-.5,8.7-5,8.7S.9,19.3.9,11.8,3.3,0,6.3,0C10.7,0,11.2,4.4,11.2,8.5h-3.4v.2h.1Z"/>
  <path class="cls-1" d="M15.1,14.2c0,4.9.5,5.9,1.4,5.9s1.4-1,1.4-5.9v-4.8c0-4.9-.5-5.9-1.4-5.9s-1.4,1-1.4,5.9c0,0,0,4.8,0,4.8ZM16.5,0C19.9,0,22.1,2.8,22.1,11.8s-2.2,11.8-5.6,11.8-5.6-2.8-5.6-11.8S13.2,0,16.5,0Z"/>
  <path class="cls-1" d="M25.3,16.6c0,1.3,0,3.5,1.6,3.5s1.7-1.3,1.7-2.2c0-4-6.9-5-6.9-11.7S23.4,0,26.6,0s4.7,2.8,4.8,6.9h-3.4c0-1.3,0-3.4-1.5-3.4s-1.4.8-1.4,2.1c0,3.8,6.9,5.2,6.9,11.7s-1.8,6.2-5.2,6.2-4.9-3.9-4.9-7h3.4,0Z"/>
  <path class="cls-1" d="M31.5.5h5.1l1.7,11.6h0l1.8-11.6h4.9v22.6h-3.4V6.6h0l-2.6,16.6h-2.1l-2.5-16.6h0v16.6h-2.8V.5h-.1Z"/>
  <path class="cls-1" d="M49.2,14.2c0,4.9.5,5.9,1.4,5.9s1.4-1,1.4-5.9v-4.8c0-4.9-.5-5.9-1.4-5.9s-1.4,1-1.4,5.9c0,0,0,4.8,0,4.8ZM50.6,0C54,0,56.2,2.8,56.2,11.8s-2.2,11.8-5.6,11.8-5.6-2.8-5.6-11.8S47.3,0,50.6,0Z"/>
  <path class="cls-1" d="M60,10.8h.3c1.5,0,2.4-.7,2.4-3.4s-1.2-3.4-2.4-3.4h-.3v6.8ZM56.2.5h3.8c4.3,0,6.5,1.9,6.5,6.8s-1.5,6.8-5,6.8h-1.5v9.1h-3.8V.5Z"/>
  <path class="cls-1" d="M70.4,14.2c0,4.9.5,5.9,1.4,5.9s1.4-1,1.4-5.9v-4.8c0-4.9-.5-5.9-1.4-5.9s-1.4,1-1.4,5.9c0,0,0,4.8,0,4.8ZM71.8,0C75.2,0,77.4,2.8,77.4,11.8s-2.2,11.8-5.6,11.8-5.6-2.8-5.6-11.8S68.4,0,71.8,0Z"/>
  <path class="cls-1" d="M77.4.5h3.8v19.1h4.9v3.5h-8.7s0-22.6,0-22.6Z"/>
  <path class="cls-1" d="M90,.5h-3.8v22.6h3.8V.5Z"/>
  <path class="cls-1" d="M93.4,4h-3.3V.5h10.4v3.5h-3.3v19.1h-3.8s0-19.1,0-19.1Z"/>
  <path class="cls-1" d="M103.5,4h0l-1.2,10.8h2.4l-1.1-10.8h-.1ZM101.1.5h5.5l2.6,22.6h-3.7l-.6-5h-3.1l-.5,5h-3.2l2.9-22.6h0Z"/>
  <path class="cls-1" d="M116.4.5v12h0l-3.5-12h-3.7v22.6h3.2v-13.7h0l4.1,13.7h2.9V.5h-3Z"/>
</svg>