<svg width="120" height="24" viewBox="0 0 120 24" fill="none" xmlns="http://www.w3.org/2000/svg">
<g clip-path="url(#clip0_8954_44367)">
<path d="M7.8586 8.74402C7.8586 4.99215 7.41921 3.59244 6.48519 3.59244C5.69587 3.59244 4.90656 4.16601 4.90656 11.8592C4.90656 19.5523 5.317 20.1259 6.48519 20.1259C7.74283 20.1259 8.03488 18.0263 8.09276 14.7533L11.3079 14.9112C11.3079 18.8551 10.7817 23.6226 6.33785 23.6226C2.27287 23.6252 0.928406 19.3024 0.928406 11.8618C0.928406 3.21094 3.32529 0.0957832 6.33785 0.0957832C10.7238 0.0957832 11.25 4.48436 11.25 8.61773L7.8586 8.74402Z" fill="#EE7BAE"/>
<path d="M15.1335 14.2456C15.1335 19.1419 15.6597 20.1286 16.5358 20.1286C17.412 20.1286 17.9382 19.1419 17.9382 14.2456V9.47549C17.9382 4.57912 17.412 3.59248 16.5358 3.59248C15.6597 3.59248 15.1335 4.57912 15.1335 9.47549V14.2456ZM16.5358 0.0958252C19.8983 0.0958252 22.09 2.92683 22.09 11.8618C22.09 20.7969 19.8983 23.6279 16.5358 23.6279C13.1734 23.6279 10.9817 20.7969 10.9817 11.8618C10.9817 2.92683 13.1734 0.0958252 16.5358 0.0958252Z" fill="#EE7BAE"/>
<path d="M25.2683 16.6293C25.2683 17.9001 25.2683 20.1259 26.9048 20.1259C28.1625 20.1259 28.5992 18.8552 28.5992 17.9317C28.5992 13.893 21.7006 12.9721 21.7006 6.26299C21.7033 2.86368 23.3977 0.0958252 26.6128 0.0958252C30.0332 0.0958252 31.3487 2.92683 31.4381 6.99705H28.0467C28.0467 5.72626 28.0467 3.59511 26.526 3.59511C25.6209 3.59511 25.092 4.42126 25.092 5.66311C25.092 9.50969 31.9907 10.8147 31.9907 17.3949C31.9907 20.86 30.1779 23.6279 26.7575 23.6279C22.6925 23.6279 21.8743 19.7497 21.8743 16.6319H25.2657L25.2683 16.6293Z" fill="#EE7BAE"/>
<path d="M31.5353 0.541405H36.5949L38.2892 12.1469H38.3471L40.131 0.541405H45.0721V23.1815H41.6807V6.58228H41.6228L39.0496 23.1815H36.9448L34.4006 6.58228H34.3427V23.1815H31.5353V0.541405Z" fill="#EE7BAE"/>
<path d="M49.2242 14.2462C49.2242 19.1426 49.7504 20.1292 50.6265 20.1292C51.5027 20.1292 52.0289 19.1426 52.0289 14.2462V9.47615C52.0289 4.57978 51.5027 3.59314 50.6265 3.59314C49.7504 3.59314 49.2242 4.57978 49.2242 9.47615V14.2462ZM50.6265 0.0964851C53.989 0.0964851 56.1833 2.92749 56.1833 11.8625C56.1833 20.7975 53.9916 23.6285 50.6292 23.6285C47.2667 23.6285 45.075 20.7975 45.075 11.8625C45.075 2.92749 47.264 0.0964851 50.6265 0.0964851Z" fill="#EE7BAE"/>
<path d="M60.0115 10.8126H60.3325C61.8822 10.8126 62.7294 10.1443 62.7294 7.41067C62.7294 4.13502 61.5612 4.0403 60.3035 4.0403H60.0115V10.8126ZM56.1807 0.541016H59.9825C64.279 0.541016 66.5312 2.41695 66.5312 7.31332C66.5312 11.3835 65.0684 14.1172 61.5033 14.1172H59.9825V23.1785H56.1807V0.541016Z" fill="#EE7BAE"/>
<path d="M70.4068 14.2462C70.4068 19.1426 70.933 20.1292 71.8092 20.1292C72.6853 20.1292 73.2115 19.1426 73.2115 14.2462V9.47615C73.2115 4.57978 72.6853 3.59314 71.8092 3.59314C70.933 3.59314 70.4068 4.57978 70.4068 9.47615V14.2462ZM71.8092 0.0964851C75.1716 0.0964851 77.3633 2.92749 77.3633 11.8625C77.3633 20.7975 75.1716 23.6285 71.8092 23.6285C68.4467 23.6285 66.255 20.7975 66.255 11.8625C66.255 2.92749 68.4493 0.0964851 71.8092 0.0964851Z" fill="#EE7BAE"/>
<path d="M77.3656 0.541405H81.1648V19.6849H86.0191V23.1815H77.3656V0.541405Z" fill="#EE7BAE"/>
<path d="M89.9866 0.541405H86.1848V23.1815H89.9866V0.541405Z" fill="#EE7BAE"/>
<path d="M93.4491 4.04069H90.1735V0.541405H100.524V4.04069H97.2484V23.1815H93.4491V4.04069Z" fill="#EE7BAE"/>
<path d="M103.505 4.04069H103.447L102.247 14.8516H104.615L103.505 4.04069ZM101.079 0.544036H106.575L109.149 23.1842H105.494L104.939 18.1589H101.868L101.342 23.1842H98.1561L101.079 0.541405V0.544036Z" fill="#EE7BAE"/>
<path d="M116.384 0.541405V12.4969H116.326L112.848 0.541405H109.133V23.1815H112.351V9.47643H112.408L116.471 23.1815H119.394V0.541405H116.384Z" fill="#EE7BAE"/>
</g>
<defs>
<clipPath id="clip0_8954_44367">
<rect width="120" height="24" fill="white"/>
</clipPath>
</defs>
</svg>
