<svg width="117" height="92" viewBox="0 0 117 92" fill="none" xmlns="http://www.w3.org/2000/svg">
<g opacity="0.16">
<path d="M54.9095 0.601446C66.9384 0.601446 71.8351 10.0543 71.8351 22.5569C71.8351 34.2665 66.9384 43.6235 54.9095 43.6235H49.4379V0.601446H54.9095ZM30 0V0.596124H37.6059C38.1594 0.596124 38.4149 0.7558 38.4149 1.08047V90.9195C38.4149 91.2389 38.1594 91.4039 37.6059 91.4039H30V92H58.3638C76.636 92.0053 86.3816 84.1439 86.3816 68.2615C86.3816 57.2705 80.6173 46.0825 62.4355 43.8524C77.8868 42.3567 83.2147 32.3344 83.2147 22.5622C83.2147 8.27122 74.9062 0.0106451 56.6393 0.0106451H30V0ZM54.9095 44.2196C68.4766 44.2196 73.8524 53.7736 73.8524 68.2615C73.8524 80.7641 69.0514 91.4092 57.7889 91.4092H50.2416C49.6881 91.4039 49.4326 91.2442 49.4326 90.9195V44.2143H54.9041L54.9095 44.2196Z" fill="#111111"/>
</g>
<g clip-path="url(#clip0_979_1111)">
<path d="M72.3866 34.5531C72.3866 34.563 72.3965 34.5679 72.4162 34.5679H72.8158V34.6321H71.4525V34.5679H71.8077C71.8275 34.5679 71.8373 34.563 71.8373 34.5531V33.1734H70.5348V34.5531C70.5348 34.563 70.5431 34.5679 70.5628 34.5679H70.918V34.6321H69.5547V34.5679H69.9543C69.974 34.5679 69.9839 34.563 69.9839 34.5531V31.8446C69.9839 31.8347 69.974 31.8298 69.9543 31.8298H69.5547V31.7656H70.918V31.8298H70.5628C70.5431 31.8298 70.5348 31.8347 70.5348 31.8446V33.1092H71.8373V31.8446C71.8373 31.8347 71.8275 31.8298 71.8077 31.8298H71.4525V31.7656H72.8158V31.8298H72.4162C72.3965 31.8298 72.3866 31.8347 72.3866 31.8446V34.5531Z" fill="#111111"/>
<path d="M76.1723 33.3766C76.0473 33.3766 75.9618 33.3174 75.9618 33.2204C75.9618 33.1316 76.0161 33.1365 76.0161 33.0707C76.0161 33.0049 75.9733 32.9737 75.9059 32.9737C75.8385 32.9737 75.7118 32.9967 75.6181 33.2845V34.5524C75.6181 34.5623 75.628 34.5672 75.646 34.5672H75.8894V34.6314H74.9307V34.5672H75.1741C75.1938 34.5672 75.2037 34.5623 75.2037 34.5524V32.9868C75.2037 32.977 75.1938 32.972 75.1741 32.972H74.9307V32.9095H75.6049L75.6164 32.921V33.1891C75.6888 32.9671 75.8434 32.875 76.0276 32.875C76.248 32.875 76.3943 32.9918 76.3943 33.1727C76.3943 33.2861 76.3055 33.3782 76.1723 33.3782" fill="#111111"/>
<path d="M79.7708 34.6709C80.0816 34.6709 80.3332 34.5196 80.501 34.2877L80.4533 34.2482C80.297 34.4702 80.0865 34.6067 79.7708 34.6067C79.654 34.6067 79.5619 34.5853 79.4814 34.513C79.3498 34.3962 79.3103 34.2581 79.3103 33.7729C79.3103 33.7367 79.3103 33.7269 79.3103 33.694H80.5372L80.5503 33.6825C80.5503 33.3552 80.325 32.875 79.7708 32.875C79.2577 32.875 78.8745 33.2763 78.8745 33.7713C78.8745 34.2663 79.2593 34.6676 79.7708 34.6676M79.9977 33.0312C80.0915 33.1381 80.1227 33.3009 80.1293 33.6299H79.3103C79.3202 33.3026 79.3613 33.1381 79.4814 33.0312C79.5619 32.9605 79.654 32.9375 79.7708 32.9375C79.8695 32.9375 79.9336 32.9589 79.9977 33.0312Z" fill="#111111"/>
<path d="M73.6646 34.5886C73.8833 34.5886 74.0264 34.4324 74.0264 34.2827V33.6858C73.9244 33.7466 73.7764 33.7466 73.6465 33.7696C73.5001 33.796 73.3422 33.8732 73.3422 34.2449C73.3422 34.5278 73.5281 34.5886 73.6662 34.5886M73.1498 33.2253C73.1498 33.0822 73.3291 32.875 73.6777 32.875C74.1892 32.875 74.4408 33.0987 74.4408 33.6052V34.4258C74.4408 34.5212 74.4885 34.5623 74.5543 34.5623C74.6332 34.5623 74.6974 34.4982 74.7138 34.4571L74.7566 34.4982C74.7302 34.5705 74.5987 34.6659 74.4342 34.6659C74.2451 34.6659 74.079 34.5574 74.0494 34.4044C73.9885 34.5771 73.8225 34.6659 73.5856 34.6659C73.1909 34.6659 72.936 34.5278 72.936 34.2433C72.936 33.819 73.3883 33.7219 73.561 33.7071C73.806 33.6874 74.0247 33.671 74.0247 33.5854V33.3486C74.0247 33.0608 73.8981 32.9375 73.6761 32.9375C73.5643 32.9375 73.4952 32.9901 73.4952 33.1085C73.4952 33.176 73.5314 33.1973 73.5314 33.2631C73.5314 33.3355 73.4722 33.4078 73.3324 33.4078C73.1926 33.4078 73.1465 33.3157 73.1465 33.2236" fill="#111111"/>
<path d="M77.9501 33.0296C77.8761 32.9605 77.7758 32.9375 77.6672 32.9375C77.5192 32.9375 77.3827 33.0362 77.289 33.1464V34.3502C77.3449 34.4932 77.511 34.6034 77.6672 34.6034C77.7741 34.6034 77.8744 34.582 77.9501 34.5113C78.0734 34.3962 78.1557 34.1939 78.1557 33.7795C78.1557 33.3651 78.0734 33.1431 77.9501 33.0279M78.575 33.7795C78.575 34.2268 78.1951 34.6659 77.6672 34.6659C77.5061 34.6659 77.3827 34.564 77.289 34.4669V35.8023C77.289 35.8122 77.2988 35.8171 77.3169 35.8171H77.562V35.8812H76.6032V35.8171H76.8466C76.8663 35.8171 76.8746 35.8122 76.8746 35.8023V32.9885C76.8746 32.9786 76.8663 32.9737 76.8466 32.9737H76.6016V32.9112H77.2758L77.2873 32.9227V33.0756C77.3811 32.977 77.5044 32.875 77.6656 32.875C78.1935 32.875 78.5734 33.3338 78.5734 33.7812" fill="#111111"/>
<path d="M83.8115 32.921C83.8575 32.921 83.8822 32.9013 83.8871 32.8849H83.9562V33.3125H83.8871C83.8871 33.0641 83.6651 32.9375 83.4546 32.9375C83.2441 32.9375 83.1306 33.0345 83.1306 33.1908C83.1306 33.3897 83.2737 33.4901 83.5977 33.5822C83.9364 33.6775 84.1601 33.8436 84.1601 34.1035C84.1601 34.4308 83.8953 34.6676 83.4727 34.6676C83.2211 34.6676 83.1125 34.5508 82.981 34.5508C82.8987 34.5508 82.8543 34.6067 82.8445 34.638H82.7754L82.8001 34.0689H82.8691C82.8576 34.3666 83.1356 34.6034 83.4727 34.6034C83.7276 34.6034 83.8723 34.4867 83.8723 34.2712C83.8723 34.0558 83.7013 33.9686 83.3905 33.8732C83.0862 33.7812 82.8741 33.6562 82.8741 33.3897C82.8741 33.0723 83.1816 32.875 83.4546 32.875C83.6322 32.875 83.6487 32.9227 83.8115 32.9227" fill="#111111"/>
<path d="M82.5453 32.3277C82.5453 32.2109 82.644 32.1172 82.764 32.1172C82.8939 32.1172 82.9926 32.2126 82.9926 32.3524C82.9926 32.5579 82.8068 32.7997 82.5519 32.9526L82.5107 32.9082C82.6949 32.8013 82.8281 32.6698 82.9071 32.4823C82.8725 32.5201 82.8265 32.5365 82.7656 32.5365C82.6439 32.5365 82.5469 32.4428 82.5469 32.326" fill="#111111"/>
<path d="M81.9929 33.3766C81.8679 33.3766 81.7824 33.3174 81.7824 33.2204C81.7824 33.1316 81.8367 33.1365 81.8367 33.0707C81.8367 33.0049 81.7939 32.9737 81.7265 32.9737C81.6591 32.9737 81.5324 32.9967 81.4387 33.2845V34.5524C81.4387 34.5623 81.4469 34.5672 81.4667 34.5672H81.7117V34.6314H80.7529V34.5672H80.998C81.0177 34.5672 81.0259 34.5623 81.0259 34.5524V32.9868C81.0259 32.977 81.0161 32.972 80.998 32.972H80.7529V32.9095H81.4272L81.4404 32.921V33.1891C81.5127 32.9671 81.6673 32.875 81.8515 32.875C82.0719 32.875 82.2182 32.9918 82.2182 33.1727C82.2182 33.2861 82.1294 33.3782 81.9962 33.3782" fill="#111111"/>
<path d="M21.1903 58.9986C20.9633 59.9393 20.9321 60.0346 20.7002 60.0346H18.1084V60.2188H23.9795V60.0346H21.2923C21.1179 60.0346 21.1475 59.908 21.358 59.0479L23.1638 51.802H30.3126L32.495 60.0346H29.5907V60.2188H39.361V60.0346H36.3235L28.2241 31H28.1747L21.1919 58.9986H21.1903ZM26.6223 37.9236L30.2584 51.6178H23.2164L26.6223 37.9236Z" fill="#111111"/>
<path d="M8.07152 31.9827C11.7882 31.9827 13.3012 34.9034 13.3012 38.7665C13.3012 42.3845 11.7882 45.2757 8.07152 45.2757H6.38092V31.9827H8.07152ZM0.375 31.7969V31.9811H2.72507C2.8961 31.9811 2.97504 32.0304 2.97504 32.1307V59.8892C2.97504 59.9879 2.8961 60.0388 2.72507 60.0388H0.375V60.223H9.13884C14.7846 60.2247 17.7958 57.7957 17.7958 52.8883C17.7958 49.4923 16.0147 46.0354 10.3969 45.3464C15.1711 44.8843 16.8173 41.7876 16.8173 38.7681C16.8173 34.3525 14.2501 31.8002 8.606 31.8002H0.375V31.7969ZM8.07152 45.4599C12.2635 45.4599 13.9245 48.4118 13.9245 52.8883C13.9245 56.7514 12.4411 60.0405 8.96123 60.0405H6.62925C6.45821 60.0388 6.37927 59.9895 6.37927 59.8892V45.4582H8.06988L8.07152 45.4599Z" fill="#111111"/>
<path d="M103.04 45.7312H105.275C107.255 45.7312 110.175 46.6127 110.175 50.1929V56.6757C110.175 59.3284 111.593 60.9993 114.093 60.9993C116.719 60.9993 116.678 58.2578 116.678 56.281V54.1974H116.5V56.281C116.5 58.5308 116.242 60.4829 114.961 60.4829C113.826 60.4829 113.581 59.756 113.581 56.7053V50.1945C113.581 47.1817 111.218 46.0782 107.569 45.6408C112.114 45.0816 113.826 42.0819 113.826 38.7649C113.826 33.8591 111.634 31.7969 105.988 31.7969H97.0371V31.9794H99.3872C99.5566 31.9794 99.6372 32.0288 99.6372 32.1291V59.8875C99.6372 59.9862 99.5582 60.0372 99.3872 60.0372H97.0371V60.2214H105.268V60.0372H103.291C103.122 60.0372 103.041 59.9879 103.041 59.8875V45.7345L103.04 45.7312ZM103.04 31.9794H105.452C109.169 31.9794 110.218 34.9002 110.218 38.7632C110.218 42.3812 109.169 45.547 105.452 45.547H103.04V31.9794Z" fill="#111111"/>
<path d="M60.4489 58.9936C60.222 59.9343 60.1907 60.0281 59.9605 60.0281H57.3687V60.2123H63.2381V60.0281H60.5509C60.3765 60.0281 60.4061 59.9014 60.6183 59.0413L62.424 51.7954H69.5713L71.7536 60.0264H68.8493V60.2106H78.618V60.0264H75.5805L67.481 31H67.4317L60.4489 58.9936ZM65.8792 37.9236L69.5153 51.6145H62.4734L65.8776 37.9236H65.8792Z" fill="#111111"/>
<path d="M44.9308 59.8859C44.9028 59.9517 44.9357 60.0306 45.0722 60.0306H51.4843C53.4578 60.0323 56.0069 57.0162 56.0069 47.2952V46.2838H56.1845V60.2165H40.877L52.4727 32.1225C52.5023 32.0567 52.4678 31.9778 52.3313 31.9778H45.5245C43.7385 31.9794 41.1434 35.3508 41.1434 44.7182V45.7296H40.9658V31.7969H56.5413L44.9324 59.8859H44.9308Z" fill="#111111"/>
<path d="M79.7477 58.9986C79.5208 59.9393 79.4895 60.0346 79.2593 60.0346H76.6675V60.2188H82.5385V60.0346H79.8513C79.677 60.0346 79.7066 59.908 79.9171 59.0479L81.7228 51.802H88.8717L91.0541 60.0346H88.1498V60.2188H97.9201V60.0346H94.8826L86.7799 31H86.7305L79.7461 58.9986H79.7477ZM85.1797 37.9236L88.8175 51.6178H81.7738L85.1797 37.9236Z" fill="#111111"/>
</g>
<defs>
<clipPath id="clip0_979_1111">
<rect width="117" height="30" fill="white" transform="translate(0 31)"/>
</clipPath>
</defs>
</svg>
