<svg xmlns="http://www.w3.org/2000/svg" width="141px" height="24px">
  <g fill="#000" fill-rule="evenodd">
    <path d="M120.224,15.644 C120.224,13.384 124.805,12.520 124.805,12.520 L124.807,12.435 C124.807,12.435 121.309,12.008 121.577,10.197 C122.074,6.845 134.224,6.812 136.929,6.805 L137.251,9.236 C135.682,9.292 131.204,9.547 131.204,10.589 C131.204,11.387 134.132,11.278 134.881,11.298 L134.953,12.818 C134.953,12.818 129.813,13.327 129.813,14.846 C129.813,15.609 131.287,15.957 133.427,16.015 C136.059,16.087 139.376,15.588 139.540,15.673 C139.720,15.769 140.115,17.816 140.115,17.816 C136.025,18.964 120.224,20.256 120.224,15.644 ZM110.286,18.326 C105.711,16.111 109.377,11.240 109.377,11.240 L106.699,11.871 C105.572,15.339 102.484,18.551 96.993,18.920 C93.069,19.185 89.071,18.326 89.071,15.006 L89.071,8.360 L96.608,8.360 L96.608,14.082 C96.608,17.417 102.953,15.289 103.681,12.177 C103.681,12.177 101.367,12.419 100.156,11.447 C99.314,10.772 99.094,9.784 99.457,8.905 C99.996,7.600 101.856,6.883 103.109,6.807 C105.411,6.668 106.496,7.832 106.729,8.525 C107.197,8.416 108.226,8.276 113.228,6.311 L116.062,8.758 C113.034,10.751 113.426,14.240 115.977,15.142 C117.572,15.705 118.996,15.378 119.192,15.445 C119.304,15.482 119.624,17.568 119.624,17.568 C117.695,18.616 112.896,19.591 110.286,18.326 ZM101.976,9.437 C101.922,10.333 104.174,9.354 104.174,9.354 C104.050,8.394 102.025,8.607 101.976,9.437 ZM92.897,7.194 C91.012,7.194 89.483,5.636 89.483,3.713 C89.483,1.791 91.012,0.232 92.897,0.232 C94.784,0.232 96.313,1.791 96.313,3.713 C96.313,5.636 94.784,7.194 92.897,7.194 ZM77.985,17.623 C71.472,20.137 65.135,18.959 65.135,15.108 L65.128,8.352 L72.845,8.352 L72.845,14.282 C72.845,15.719 73.963,15.804 74.942,15.804 C77.119,15.804 77.068,14.282 77.068,13.656 L77.068,8.353 L84.829,8.352 L84.828,13.971 C84.828,15.021 84.896,15.810 85.930,16.068 C86.868,16.302 88.163,15.973 88.231,16.046 C88.320,16.143 88.653,18.273 88.653,18.273 C81.032,20.078 77.985,17.623 77.985,17.623 ZM55.765,17.960 C49.886,20.200 41.937,18.303 42.065,13.754 C42.639,7.227 54.616,8.363 54.616,8.363 L55.135,11.318 C55.135,11.318 49.955,10.826 49.952,13.688 C49.952,16.150 55.041,16.449 55.672,14.338 C56.043,13.367 55.803,8.370 55.803,8.370 L62.866,8.368 L62.868,22.222 L55.761,23.363 L55.765,17.960 ZM42.839,16.575 C42.968,16.893 42.013,19.220 42.013,19.220 C40.523,18.548 38.069,17.483 37.764,17.595 C31.377,19.946 22.176,19.549 23.351,16.275 C23.351,16.275 18.922,19.114 10.519,19.054 C6.372,19.025 0.499,17.834 0.458,15.156 C0.412,12.144 7.220,11.048 7.220,11.048 L7.220,10.932 C3.980,10.266 3.384,8.670 3.588,7.762 C4.262,4.736 11.606,2.972 19.464,3.059 L20.082,6.534 C17.656,6.563 13.471,7.031 13.539,8.479 C13.607,9.882 18.081,9.523 18.081,9.523 L18.211,11.678 C18.211,11.678 11.569,12.156 11.812,14.318 C12.070,16.622 21.784,16.563 27.776,10.024 C27.740,9.920 27.239,9.041 27.730,7.914 L36.023,6.979 L36.156,7.582 C35.773,8.316 35.762,8.912 36.021,9.414 C36.608,10.555 39.066,11.399 39.955,12.837 C40.557,13.811 40.601,14.706 39.890,15.441 C39.890,15.441 42.723,16.287 42.839,16.575 ZM31.681,16.312 C31.301,16.113 28.088,15.930 27.843,16.661 C27.617,17.341 30.855,17.351 31.681,16.312 ZM29.398,12.155 C27.397,13.944 25.450,15.200 25.450,15.200 C29.162,13.870 31.909,14.402 31.909,14.402 C31.121,13.182 29.398,12.155 29.398,12.155 Z"></path>
  </g>
</svg>