<svg width="42" height="28" viewBox="0 0 42 28" fill="none" xmlns="http://www.w3.org/2000/svg">
<g clip-path="url(#clip0_9062_67199)">
<path d="M40.4 19.1604C40.08 20.4404 39.5467 21.6138 38.8 22.6804C38.0533 23.6938 37.1733 24.5738 36.16 25.3204C35.1467 26.0671 34.0267 26.6538 32.8 27.0804C31.6267 27.4538 30.4533 27.6404 29.28 27.6404C26.5067 27.6404 24.48 26.9204 23.2 25.4804C21.9733 23.9871 21.36 22.1471 21.36 19.9604C21.36 17.9871 21.84 15.8538 22.8 13.5604C23.76 11.2671 25.12 9.16043 26.88 7.24043C28.64 5.26709 30.72 3.64043 33.12 2.36043C35.5733 1.08043 38.2667 0.44043 41.2 0.44043L40.96 1.32043C39.0933 1.32043 37.28 1.66709 35.52 2.36043C33.76 3.00043 32.16 3.85376 30.72 4.92043C29.3333 5.93376 28.2133 7.1071 27.36 8.44043C26.5067 9.77376 26.08 11.0804 26.08 12.3604C26.08 12.5204 26.1333 12.6004 26.24 12.6004C26.4 12.6004 26.64 12.5204 26.96 12.3604C27.3333 12.1471 27.7867 11.9338 28.32 11.7204C28.9067 11.4538 29.5733 11.2138 30.32 11.0004C31.12 10.7871 32.0267 10.6804 33.04 10.6804C35.28 10.6804 37.0933 11.3204 38.48 12.6004C39.8667 13.8804 40.56 15.5071 40.56 17.4804C40.56 17.7471 40.5333 18.0404 40.48 18.3604C40.48 18.6271 40.4533 18.8938 40.4 19.1604ZM19.04 19.1604C18.72 20.4404 18.1867 21.6138 17.44 22.6804C16.6933 23.6938 15.8133 24.5738 14.8 25.3204C13.7867 26.0671 12.6667 26.6538 11.44 27.0804C10.2667 27.4538 9.09333 27.6404 7.92 27.6404C5.14667 27.6404 3.12 26.9204 1.84 25.4804C0.613333 23.9871 0 22.1471 0 19.9604C0 17.9871 0.48 15.8538 1.44 13.5604C2.4 11.2671 3.76 9.16043 5.52 7.24043C7.28 5.26709 9.36 3.64043 11.76 2.36043C14.2133 1.08043 16.9067 0.44043 19.84 0.44043L19.6 1.32043C17.7333 1.32043 15.92 1.66709 14.16 2.36043C12.4 3.00043 10.8 3.85376 9.36 4.92043C7.97333 5.93376 6.85333 7.1071 6 8.44043C5.14667 9.77376 4.72 11.0804 4.72 12.3604C4.72 12.5204 4.77333 12.6004 4.88 12.6004C5.04 12.6004 5.28 12.5204 5.6 12.3604C5.97333 12.1471 6.42667 11.9338 6.96 11.7204C7.54667 11.4538 8.21333 11.2138 8.96 11.0004C9.76 10.7871 10.6667 10.6804 11.68 10.6804C12.6933 10.6804 13.6533 10.8671 14.56 11.2404C15.4667 11.5604 16.2667 12.0404 16.96 12.6804C17.6533 13.2671 18.1867 13.9871 18.56 14.8404C18.9867 15.6938 19.2 16.6271 19.2 17.6404C19.2 17.9071 19.1733 18.1738 19.12 18.4404C19.12 18.6538 19.0933 18.8938 19.04 19.1604Z" fill="#EF88AB"/>
</g>
<defs>
<clipPath id="clip0_9062_67199">
<rect width="42" height="28" fill="white"/>
</clipPath>
</defs>
</svg>
