<svg width="16" height="16" viewBox="0 0 16 16" fill="none" xmlns="http://www.w3.org/2000/svg">
<path d="M3.32801 10.6085L2.96565 10.264L2.8575 10.3668L2.82632 10.5092L3.32801 10.6085ZM10.9757 3.33733L11.3381 2.99281L10.9757 2.64829L10.6133 2.99281L10.9757 3.33733ZM13.2384 5.48868L13.6008 5.83321L13.9632 5.48868L13.6008 5.14416L13.2384 5.48868ZM5.59076 12.7599L5.69522 13.2369L5.84496 13.2072L5.95312 13.1044L5.59076 12.7599ZM2.73293 13.3257L2.23124 13.2264L2.8374 13.8027L2.73293 13.3257ZM10.6133 3.68185L12.8761 5.83321L13.6008 5.14416L11.3381 2.99281L10.6133 3.68185ZM5.48629 12.2829L2.62847 12.8487L2.8374 13.8027L5.69522 13.2369L5.48629 12.2829ZM3.23463 13.425L3.82971 10.7079L2.82632 10.5092L2.23124 13.2264L3.23463 13.425ZM3.69037 10.9531L9.31783 5.60263L8.59311 4.91358L2.96565 10.264L3.69037 10.9531ZM10.8559 7.06494L5.2284 12.4154L5.95312 13.1044L11.5806 7.75398L10.8559 7.06494ZM9.31783 5.60263L11.3381 3.68185L10.6133 2.99281L8.59311 4.91358L9.31783 5.60263ZM12.8761 5.14416L10.8559 7.06494L11.5806 7.75398L13.6008 5.83321L12.8761 5.14416ZM8.59311 5.60263L9.72448 6.6783L10.4492 5.98926L9.31783 4.91358L8.59311 5.60263ZM9.72448 6.6783L10.8559 7.75398L11.5806 7.06494L10.4492 5.98926L9.72448 6.6783Z" fill="#999999"/>
</svg>
