<svg width="117" height="92" viewBox="0 0 117 92" fill="none" xmlns="http://www.w3.org/2000/svg">
<g opacity="0.16">
<path d="M54.9095 0.601446C66.9384 0.601446 71.8351 10.0543 71.8351 22.5569C71.8351 34.2665 66.9384 43.6235 54.9095 43.6235H49.4379V0.601446H54.9095ZM30 0V0.596124H37.6059C38.1594 0.596124 38.4149 0.7558 38.4149 1.08047V90.9195C38.4149 91.2389 38.1594 91.4039 37.6059 91.4039H30V92H58.3638C76.636 92.0053 86.3816 84.1439 86.3816 68.2615C86.3816 57.2705 80.6173 46.0825 62.4355 43.8524C77.8868 42.3567 83.2147 32.3344 83.2147 22.5622C83.2147 8.27122 74.9062 0.0106451 56.6393 0.0106451H30V0ZM54.9095 44.2196C68.4766 44.2196 73.8524 53.7736 73.8524 68.2615C73.8524 80.7641 69.0514 91.4092 57.7889 91.4092H50.2416C49.6881 91.4039 49.4326 91.2442 49.4326 90.9195V44.2143H54.9041L54.9095 44.2196Z" fill="#111111"/>
</g>
<g clip-path="url(#clip0_11817_54210)">
<g clip-path="url(#clip1_11817_54210)">
<path d="M1.36409 33.3006V33.9296L0.437501 33.6132L1.36409 33.3006ZM2.08052 32.483C2.08052 32.483 2.03467 32.4773 2.03467 32.483V32.7193C2.03467 32.7308 2.02893 32.7403 2.02511 32.7403L0.00955242 33.4626C0.00955242 33.4626 0 33.5026 0.00955242 33.5045L1.91622 34.1602C2.02893 34.1945 2.03658 34.2002 2.03658 34.2269V34.4384C2.03658 34.4384 2.08243 34.4422 2.08243 34.4384V33.9029C2.08243 33.9029 2.03658 33.8972 2.03658 33.9029V34.1411C2.03658 34.1544 2.01938 34.1525 1.91622 34.1182L1.41185 33.9448V33.2911L2.02893 33.0795C2.02893 33.0795 2.03849 33.0834 2.03849 33.091V33.3368C2.03849 33.3368 2.08434 33.3425 2.08434 33.3368V32.4849L2.08052 32.483ZM2.07288 34.6176H1.48254C1.48254 34.6176 1.4768 34.6576 1.48254 34.6576C1.77866 34.6576 2.03658 34.8158 2.03658 35.2636V35.5762C2.03658 35.5895 2.03467 35.5953 2.02511 35.5953H1.06223V35.4904C1.06223 35.2732 1.19405 35.1493 1.38892 35.1493C1.39847 35.1493 1.39847 35.1112 1.38892 35.1112H0.689685C0.689685 35.1112 0.683954 35.1493 0.689685 35.1493C0.888375 35.1493 1.01638 35.2732 1.01638 35.4904V35.5953H0.106987C0.106987 35.5953 0.0955242 35.5895 0.0955242 35.5762V35.2732C0.0955242 34.932 0.324782 34.8005 0.59225 34.8005C0.601803 34.8005 0.601803 34.7567 0.59225 34.7567H0.0573145C0.0573145 34.7567 0.0477621 34.7605 0.0477621 34.7662V36.1613C0.0477621 36.1613 0.0936138 36.167 0.0936138 36.1613V35.9231C0.0936138 35.9116 0.0974347 35.9059 0.105077 35.9059H2.0232C2.0232 35.9059 2.03467 35.9116 2.03467 35.9231V36.1613C2.03467 36.1613 2.08052 36.167 2.08052 36.1613V34.6252C2.08052 34.6252 2.0767 34.6157 2.07097 34.6157M0.559772 37.0532C0.924675 37.0532 1.00109 37.139 1.00109 37.4058V37.6536H0.106987C0.106987 37.6536 0.0955242 37.6479 0.0955242 37.6345V37.4573C0.0955242 37.2057 0.202511 37.0532 0.559772 37.0532ZM2.02893 36.3157C2.02893 36.3157 1.99455 36.3366 1.99837 36.3424C2.04231 36.3786 2.06141 36.4224 2.06141 36.491C2.06141 36.5939 1.98499 36.6568 1.83789 36.6568H1.57997C1.25519 36.6568 1.02402 36.8684 1.02402 37.2972C1.02402 37.0018 0.815777 36.7388 0.548309 36.7388C0.267468 36.7388 0.0496726 36.9846 0.0496726 37.3906V38.2215C0.0496726 38.2215 0.0955242 38.2272 0.0955242 38.2215V37.9814C0.0955242 37.97 0.0993452 37.9642 0.106987 37.9642H2.02511C2.02511 37.9642 2.03658 37.97 2.03658 37.9814V38.2215C2.03658 38.2215 2.08243 38.2272 2.08243 38.2215V37.341H2.03658V37.6326C2.03658 37.646 2.03467 37.6517 2.02511 37.6517H1.04695V37.4039C1.04695 37.1581 1.13674 36.977 1.38892 36.977H1.57424C1.98499 36.977 2.13019 36.7902 2.13019 36.5653C2.13019 36.4472 2.08625 36.3709 2.03085 36.3138M1.06605 38.7704C1.62773 38.7704 1.84362 38.8447 1.97735 38.9839C2.06141 39.0753 2.08625 39.1878 2.08625 39.3212C2.08625 39.4546 2.0595 39.5632 1.97735 39.6528C1.84362 39.7919 1.62773 39.8701 1.06605 39.8701C0.576966 39.8701 0.286573 39.7919 0.150928 39.6528C0.0706879 39.5632 0.0458516 39.4565 0.0458516 39.3212C0.0458516 39.1859 0.0706879 39.0753 0.150928 38.9839C0.284662 38.8447 0.575056 38.7704 1.06605 38.7704ZM1.06605 38.4369C0.475711 38.4369 0 38.8314 0 39.3231C0 39.8148 0.496726 40.2055 1.06605 40.2055C1.63537 40.2055 2.12828 39.8091 2.12828 39.3231C2.12828 38.8371 1.65257 38.4369 1.06605 38.4369ZM2.08052 40.1159C2.08052 40.1159 2.03467 40.1102 2.03467 40.1159V40.3885C2.03467 40.3885 2.02893 40.4075 2.02511 40.4114L0.861629 41.2652L0.213974 40.7373C0.105077 40.6458 0.0936138 40.6362 0.0936138 40.6172V40.4037C0.0936138 40.4037 0.0477621 40.398 0.0477621 40.4037V40.9412C0.0477621 40.9412 0.0936138 40.9469 0.0936138 40.9412V40.722C0.0936138 40.7049 0.103166 40.6991 0.213974 40.7906L1.0565 41.4824H0.106987C0.106987 41.4824 0.0955242 41.4767 0.0955242 41.4634V41.2271C0.0955242 41.2271 0.0496726 41.2175 0.0496726 41.2271V42.0504C0.0496726 42.0504 0.0955242 42.0599 0.0955242 42.0504V41.8141C0.0955242 41.8026 0.0993452 41.7969 0.106987 41.7969H2.02511C2.02511 41.7969 2.03658 41.8026 2.03658 41.8141V42.0504C2.03658 42.0504 2.08243 42.0599 2.08243 42.0504V41.2271C2.08243 41.2271 2.03658 41.2175 2.03658 41.2271V41.4634C2.03658 41.4767 2.03467 41.4824 2.02511 41.4824H1.0756L2.02702 40.7982C2.02702 40.7982 2.03658 40.7963 2.03658 40.8078V41.0593C2.03658 41.0593 2.08243 41.0651 2.08243 41.0593V40.1198L2.08052 40.1159Z" fill="black"/>
<path d="M72.65 34.8916C72.65 34.9011 72.6595 34.9068 72.6786 34.9068H73.0684V34.9697H71.7368V34.9068H72.0845C72.1036 34.9068 72.1131 34.903 72.1131 34.8916V33.5441H70.8407V34.8916C70.8407 34.9011 70.8503 34.9068 70.8694 34.9068H71.2171V34.9697H69.8855V34.9068H70.2752C70.2943 34.9068 70.3039 34.903 70.3039 34.8916V32.2501C70.3039 32.2405 70.2943 32.2348 70.2752 32.2348H69.8855V32.1738H71.2171V32.2348H70.8694C70.8503 32.2348 70.8407 32.2386 70.8407 32.2501V33.4831H72.1131V32.2501C72.1131 32.2405 72.1036 32.2348 72.0845 32.2348H71.7368V32.1738H73.0684V32.2348H72.6786C72.6595 32.2348 72.65 32.2386 72.65 32.2501V34.8935V34.8916Z" fill="black"/>
<path d="M76.3526 33.7447C76.2303 33.7447 76.1463 33.6876 76.1463 33.5923C76.1463 33.5065 76.1978 33.5103 76.1978 33.4474C76.1978 33.3845 76.1558 33.354 76.089 33.354C76.0221 33.354 75.8998 33.3769 75.8062 33.6571V34.894C75.8062 34.9035 75.8158 34.9092 75.8349 34.9092H76.0737V34.9721H75.1356V34.9092H75.3744C75.3935 34.9092 75.4031 34.9054 75.4031 34.894V33.3674C75.4031 33.3578 75.3935 33.3521 75.3744 33.3521H75.1356V33.2911H75.7947L75.8062 33.3026V33.5637C75.8769 33.3464 76.0278 33.2568 76.2074 33.2568C76.4233 33.2568 76.5666 33.3712 76.5666 33.5465C76.5666 33.6571 76.4806 33.7466 76.3488 33.7466" fill="black"/>
<path d="M80.0932 33.4073C80.1849 33.5102 80.2155 33.6703 80.2231 33.9905H79.4226C79.4322 33.6703 79.4723 33.5102 79.5888 33.4073C79.6672 33.3387 79.757 33.3158 79.8716 33.3158C79.9671 33.3158 80.0321 33.3368 80.0932 33.4073ZM79.8716 35.0025C80.1754 35.0025 80.4218 34.8538 80.5861 34.629L80.5403 34.5908C80.3874 34.8062 80.1811 34.9415 79.8735 34.9415C79.7589 34.9415 79.6691 34.9205 79.5907 34.85C79.4627 34.7357 79.4226 34.6023 79.4226 34.1277C79.4226 34.0934 79.4226 34.0839 79.4226 34.0515H80.6224L80.6358 34.04C80.6358 33.7199 80.4161 33.2529 79.8735 33.2529C79.3729 33.2529 78.9966 33.6436 78.9966 34.1277C78.9966 34.6118 79.3729 35.0025 79.8735 35.0025" fill="black"/>
<path d="M73.3951 33.596C73.3951 33.4569 73.5709 33.2549 73.9109 33.2549C74.4115 33.2549 74.656 33.4741 74.656 33.9677V34.77C74.656 34.8634 74.7019 34.9034 74.7668 34.9034C74.8432 34.9034 74.9063 34.8406 74.9216 34.8024L74.9636 34.8425C74.9388 34.913 74.8108 35.0064 74.6484 35.0064C74.4631 35.0064 74.3007 34.8996 74.272 34.751C74.2128 34.9206 74.0504 35.0064 73.8192 35.0064C73.4333 35.0064 73.1849 34.873 73.1849 34.5928C73.1849 34.1792 73.6263 34.0839 73.7963 34.0706C74.0351 34.0515 74.251 34.0363 74.251 33.9524V33.7218C74.251 33.4417 74.1268 33.3197 73.909 33.3197C73.8001 33.3197 73.7332 33.3711 73.7332 33.4874C73.7332 33.5522 73.7676 33.5751 73.7676 33.638C73.7676 33.7085 73.7103 33.779 73.5747 33.779C73.439 33.779 73.3932 33.6894 73.3932 33.5998M73.8995 34.9263C74.1134 34.9263 74.2529 34.7738 74.2529 34.629V34.0458C74.1536 34.1049 74.0084 34.1049 73.8803 34.1278C73.7371 34.1525 73.5823 34.2288 73.5823 34.5909C73.5823 34.8672 73.7638 34.9263 73.8995 34.9263Z" fill="black"/>
<path d="M78.7025 34.1391C78.7025 34.5755 78.3318 35.0025 77.816 35.0025C77.6593 35.0025 77.5371 34.9033 77.4454 34.8081V36.1098C77.4454 36.1193 77.4549 36.125 77.474 36.125H77.7128V36.186H76.7748V36.125H77.0136C77.0327 36.125 77.0423 36.1212 77.0423 36.1098V33.3634C77.0423 33.3539 77.0327 33.3482 77.0136 33.3482H76.7748V33.2872H77.4339L77.4454 33.2986V33.4473C77.5371 33.352 77.6574 33.251 77.816 33.251C78.3318 33.251 78.7025 33.6989 78.7025 34.1353M78.0911 33.4054C78.0185 33.3367 77.9192 33.3158 77.816 33.3158C77.6708 33.3158 77.5371 33.4111 77.4454 33.5197V34.6937C77.5008 34.8328 77.6612 34.9415 77.816 34.9415C77.9211 34.9415 78.0185 34.9205 78.0911 34.8519C78.2115 34.7394 78.2917 34.5431 78.2917 34.1391C78.2917 33.7351 78.2115 33.5178 78.0911 33.4054Z" fill="black"/>
<path d="M83.8225 33.3025C83.8664 33.3025 83.8913 33.2835 83.8951 33.2663H83.9639V33.6837H83.8951C83.8951 33.4417 83.6773 33.3178 83.471 33.3178C83.2646 33.3178 83.1538 33.4131 83.1538 33.5636C83.1538 33.758 83.2933 33.8571 83.6104 33.9448C83.9409 34.0382 84.1606 34.2002 84.1606 34.4518C84.1606 34.77 83.9027 35.0025 83.4882 35.0025C83.2417 35.0025 83.1347 34.8882 83.0067 34.8882C82.9265 34.8882 82.8825 34.9416 82.873 34.974H82.8042L82.8271 34.4194H82.8959C82.8844 34.711 83.1557 34.9416 83.4862 34.9416C83.7346 34.9416 83.876 34.8272 83.876 34.6176C83.876 34.4079 83.7098 34.3222 83.4041 34.2288C83.108 34.1392 82.8997 34.0172 82.8997 33.758C82.8997 33.4474 83.2016 33.2549 83.4671 33.2549C83.641 33.2549 83.6563 33.3025 83.8168 33.3025" fill="black"/>
<path d="M82.5865 32.7166C82.5865 32.6041 82.682 32.5107 82.8005 32.5107C82.9285 32.5107 83.024 32.6041 83.024 32.7394C83.024 32.9415 82.8425 33.1759 82.5922 33.3264L82.5521 33.2826C82.7317 33.1778 82.8616 33.0501 82.94 32.8671C82.9056 32.9033 82.8616 32.9205 82.8005 32.9205C82.682 32.9205 82.5865 32.829 82.5865 32.7166Z" fill="black"/>
<path d="M82.0438 33.7447C81.9215 33.7447 81.8375 33.6876 81.8375 33.5923C81.8375 33.5065 81.8891 33.5103 81.8891 33.4474C81.8891 33.3845 81.847 33.354 81.7821 33.354C81.7171 33.354 81.5929 33.3769 81.4993 33.6571V34.894C81.4993 34.9035 81.5089 34.9092 81.528 34.9092H81.7668V34.9721H80.8287V34.9092H81.0675C81.0867 34.9092 81.0962 34.9054 81.0962 34.894V33.3674C81.0962 33.3578 81.0867 33.3521 81.0675 33.3521H80.8287V33.2911H81.4879L81.4993 33.3026V33.5637C81.57 33.3464 81.7209 33.2568 81.9005 33.2568C82.1164 33.2568 82.2597 33.3712 82.2597 33.5465C82.2597 33.6571 82.1737 33.7466 82.0419 33.7466" fill="black"/>
<path d="M7.73932 45.456C11.9405 45.456 13.6064 48.4082 13.6064 52.885C13.6064 56.7482 12.1201 60.0377 8.63151 60.0377H6.29308C6.12305 60.0358 6.04281 59.9862 6.04281 59.8871V45.456H7.73741H7.73932ZM0.0247803 31.793V31.9759H2.38041C2.55044 31.9759 2.63068 32.0255 2.63068 32.1246V59.8833C2.63068 59.9824 2.55235 60.032 2.38041 60.032H0.0247803V60.2168H8.8111C14.47 60.2187 17.4885 57.7888 17.4885 52.8831C17.4885 49.4869 15.7041 46.0297 10.072 45.3417C14.8578 44.8804 16.5084 41.7815 16.5084 38.7627C16.5084 34.3468 13.935 31.7949 8.27616 31.7949H0.0247803V31.793ZM7.73932 31.9797C11.4648 31.9797 12.9817 34.8995 12.9817 38.7646C12.9817 42.3819 11.4648 45.2731 7.73932 45.2731H6.04472V31.9797H7.73932Z" fill="black"/>
<path d="M65.7589 37.924L69.4041 51.6175H62.3448L65.7589 37.924ZM60.314 58.9989C60.0866 59.9384 60.0542 60.0337 59.823 60.0337H57.2247V60.2186H63.1109V60.0337H60.4172C60.2433 60.0337 60.272 59.906 60.484 59.0465L62.2952 51.8005H69.4614L71.6489 60.0337H68.7373V60.2186H78.5305V60.0337H75.4851L67.3637 31H67.314L60.314 58.9989Z" fill="black"/>
<path d="M26.3341 37.924L29.9793 51.6175H22.92L26.3341 37.924ZM20.8892 58.9989C20.6618 59.9384 20.6294 60.0337 20.3982 60.0337H17.7999V60.2186H23.6861V60.0337H20.9923C20.8185 60.0337 20.8472 59.906 21.0592 59.0465L22.8704 51.8005H30.0366L32.2241 60.0337H29.3125V60.2186H39.1057V60.0337H36.0603L27.9408 31H27.8911L20.8911 58.9989H20.8892Z" fill="black"/>
<path d="M103.33 31.9798H105.749C109.475 31.9798 110.527 34.9015 110.527 38.7647C110.527 42.382 109.475 45.5495 105.749 45.5495H103.33V31.9798ZM103.33 45.7325H105.571C107.556 45.7325 110.483 46.6149 110.483 50.1941V56.6778C110.483 59.3307 111.903 61.0002 114.409 61.0002C117.042 61.0002 117.002 58.2596 117.002 56.2813V54.1982H116.824V56.2813C116.824 58.5302 116.566 60.4837 115.281 60.4837C114.144 60.4837 113.897 59.7576 113.897 56.7064V50.1941C113.897 47.1809 111.528 46.0774 107.87 45.641C112.426 45.0826 114.142 42.0828 114.142 38.7647C114.142 33.859 111.945 31.7969 106.284 31.7969H97.3105V31.9779H99.6662C99.8362 31.9779 99.9164 32.0275 99.9164 32.1266V59.8853C99.9164 59.9844 99.8381 60.034 99.6662 60.034H97.3105V60.2188H105.56V60.034H103.579C103.409 60.034 103.329 59.9844 103.329 59.8853V45.7325H103.33Z" fill="black"/>
<path d="M85.0338 37.924L88.679 51.6175H81.6197L85.0338 37.924ZM79.5889 58.9989C79.3615 59.9384 79.3291 60.0337 79.0979 60.0337H76.4996V60.2186H82.3858V60.0337H79.6921C79.5182 60.0337 79.5469 59.906 79.7589 59.0465L81.5701 51.8005H88.7363L90.9238 60.0337H88.0122V60.2186H97.8054V60.0337H94.76L86.6386 31H86.5889L79.5889 58.9989Z" fill="black"/>
<path d="M44.6499 59.8891C44.6213 59.9539 44.6538 60.0339 44.7913 60.0339H51.2201C53.1994 60.0358 55.7537 57.0189 55.7537 47.2952V46.2832H55.9314V60.2188H40.5825L52.2116 32.1227C52.2403 32.0579 52.2078 31.9779 52.0703 31.9779H45.246C43.454 31.9779 40.8538 35.3512 40.8538 44.7204V45.7324H40.6761V31.7949H56.2924L44.6538 59.8891H44.6499Z" fill="black"/>
</g>
</g>
<defs>
<clipPath id="clip0_11817_54210">
<rect width="117" height="30" fill="white" transform="translate(0 31)"/>
</clipPath>
<clipPath id="clip1_11817_54210">
<rect width="117" height="30" fill="white" transform="translate(0 31)"/>
</clipPath>
</defs>
</svg>
