<svg width="195" height="50" viewBox="0 0 195 50" fill="none" xmlns="http://www.w3.org/2000/svg">
<g clip-path="url(#clip0_11806_14432)">
<path d="M2.27348 3.83396V4.88218L0.729168 4.35489L2.27348 3.83396ZM3.46753 2.47128C3.46753 2.47128 3.39111 2.46175 3.39111 2.47128V2.86515C3.39111 2.88421 3.38156 2.90009 3.37519 2.90009L0.0159207 4.10396C0.0159207 4.10396 0 4.17066 0.0159207 4.17384L3.19369 5.26652C3.38156 5.3237 3.39429 5.33323 3.39429 5.3777V5.73028C3.39429 5.73028 3.47071 5.73663 3.47071 5.73028V4.83771C3.47071 4.83771 3.39429 4.82818 3.39429 4.83771V5.23476C3.39429 5.257 3.36564 5.25382 3.19369 5.19664L2.35308 4.90759V3.81808L3.38156 3.4655C3.38156 3.4655 3.39748 3.47185 3.39748 3.48455V3.89431C3.39748 3.89431 3.4739 3.90384 3.4739 3.89431V2.47445L3.46753 2.47128ZM3.45479 6.02886H2.47089C2.47089 6.02886 2.46134 6.09557 2.47089 6.09557C2.96444 6.09557 3.39429 6.35921 3.39429 7.10567V7.6266C3.39429 7.64884 3.39111 7.65837 3.37519 7.65837H1.77038V7.48366C1.77038 7.12155 1.99009 6.91509 2.31487 6.91509C2.33079 6.91509 2.33079 6.85156 2.31487 6.85156H1.14947C1.14947 6.85156 1.13992 6.91509 1.14947 6.91509C1.48063 6.91509 1.69396 7.12155 1.69396 7.48366V7.65837H0.178312C0.178312 7.65837 0.159207 7.64884 0.159207 7.6266V7.12155C0.159207 6.55297 0.541304 6.3338 0.987084 6.3338C1.003 6.3338 1.003 6.26074 0.987084 6.26074H0.0955242C0.0955242 6.26074 0.0796035 6.2671 0.0796035 6.27663V8.60176C0.0796035 8.60176 0.156023 8.61129 0.156023 8.60176V8.20471C0.156023 8.18565 0.162391 8.17612 0.175128 8.17612H3.37201C3.37201 8.17612 3.39111 8.18565 3.39111 8.20471V8.60176C3.39111 8.60176 3.46753 8.61129 3.46753 8.60176V6.04157C3.46753 6.04157 3.46116 6.02569 3.45161 6.02569M0.932953 10.0883C1.54112 10.0883 1.66849 10.2313 1.66849 10.676V11.0889H0.178312C0.178312 11.0889 0.159207 11.0794 0.159207 11.0571V10.7617C0.159207 10.3424 0.337519 10.0883 0.932953 10.0883ZM3.38156 8.85905C3.38156 8.85905 3.32424 8.89399 3.33061 8.90352C3.40385 8.96388 3.43569 9.03693 3.43569 9.15128C3.43569 9.32281 3.30832 9.42763 3.06314 9.42763H2.63329C2.09198 9.42763 1.7067 9.78022 1.7067 10.4949C1.7067 10.0026 1.35963 9.56422 0.913849 9.56422C0.44578 9.56422 0.0827877 9.97398 0.0827877 10.6506V12.0355C0.0827877 12.0355 0.159207 12.045 0.159207 12.0355V11.6352C0.159207 11.6162 0.165575 11.6067 0.178312 11.6067H3.37519C3.37519 11.6067 3.39429 11.6162 3.39429 11.6352V12.0355C3.39429 12.0355 3.47071 12.045 3.47071 12.0355V10.568H3.39429V11.054C3.39429 11.0762 3.39111 11.0857 3.37519 11.0857H1.74491V10.6728C1.74491 10.263 1.89456 9.96127 2.31487 9.96127H2.62373C3.30832 9.96127 3.55032 9.64998 3.55032 9.27517C3.55032 9.07823 3.47708 8.95117 3.38474 8.85588M1.77675 12.9503C2.71289 12.9503 3.0727 13.0742 3.29559 13.306C3.43569 13.4585 3.47708 13.6459 3.47708 13.8683C3.47708 14.0906 3.4325 14.2717 3.29559 14.421C3.0727 14.6528 2.71289 14.7831 1.77675 14.7831C0.961611 14.7831 0.477621 14.6528 0.251547 14.421C0.117813 14.2717 0.0764194 14.0938 0.0764194 13.8683C0.0764194 13.6427 0.117813 13.4585 0.251547 13.306C0.474437 13.0742 0.958426 12.9503 1.77675 12.9503ZM1.77675 12.3944C0.792851 12.3944 0 13.0519 0 13.8714C0 14.691 0.827877 15.3421 1.77675 15.3421C2.72562 15.3421 3.54713 14.6814 3.54713 13.8714C3.54713 13.0615 2.75428 12.3944 1.77675 12.3944ZM3.46753 15.1928C3.46753 15.1928 3.39111 15.1833 3.39111 15.1928V15.6471C3.39111 15.6471 3.38156 15.6788 3.37519 15.6852L1.43605 17.1082L0.356624 16.2283C0.175128 16.0759 0.156023 16.06 0.156023 16.0282V15.6725C0.156023 15.6725 0.0796035 15.6629 0.0796035 15.6725V16.5682C0.0796035 16.5682 0.156023 16.5778 0.156023 16.5682V16.2029C0.156023 16.1743 0.171944 16.1648 0.356624 16.3173L1.76083 17.4703H0.178312C0.178312 17.4703 0.159207 17.4608 0.159207 17.4386V17.0447C0.159207 17.0447 0.0827877 17.0288 0.0827877 17.0447V18.4169C0.0827877 18.4169 0.159207 18.4328 0.159207 18.4169V18.023C0.159207 18.004 0.165575 17.9944 0.178312 17.9944H3.37519C3.37519 17.9944 3.39429 18.004 3.39429 18.023V18.4169C3.39429 18.4169 3.47071 18.4328 3.47071 18.4169V17.0447C3.47071 17.0447 3.39429 17.0288 3.39429 17.0447V17.4386C3.39429 17.4608 3.39111 17.4703 3.37519 17.4703H1.79267L3.37837 16.33C3.37837 16.33 3.39429 16.3268 3.39429 16.3459V16.7652C3.39429 16.7652 3.47071 16.7747 3.47071 16.7652V15.1992L3.46753 15.1928Z" fill="black"/>
<path d="M121.083 6.48624C121.083 6.50212 121.099 6.51165 121.131 6.51165H121.781V6.61647H119.561V6.51165H120.141C120.173 6.51165 120.189 6.5053 120.189 6.48624V4.24051H118.068V6.48624C118.068 6.50212 118.084 6.51165 118.116 6.51165H118.695V6.61647H116.476V6.51165H117.125C117.157 6.51165 117.173 6.5053 117.173 6.48624V2.08372C117.173 2.06784 117.157 2.05831 117.125 2.05831H116.476V1.95667H118.695V2.05831H118.116C118.084 2.05831 118.068 2.06466 118.068 2.08372V4.13886H120.189V2.08372C120.189 2.06784 120.173 2.05831 120.141 2.05831H119.561V1.95667H121.781V2.05831H121.131C121.099 2.05831 121.083 2.06466 121.083 2.08372V6.48941V6.48624Z" fill="black"/>
<path d="M127.254 4.57403C127.05 4.57403 126.91 4.47873 126.91 4.31991C126.91 4.17698 126.996 4.18333 126.996 4.07851C126.996 3.97368 126.926 3.92286 126.815 3.92286C126.703 3.92286 126.5 3.96098 126.344 4.42791V6.48941C126.344 6.50529 126.36 6.51482 126.391 6.51482H126.789V6.61964H125.226V6.51482H125.624C125.656 6.51482 125.672 6.50847 125.672 6.48941V3.9451C125.672 3.92921 125.656 3.91969 125.624 3.91969H125.226V3.81804H126.324L126.344 3.8371V4.27227C126.461 3.91016 126.713 3.76086 127.012 3.76086C127.372 3.76086 127.611 3.95145 127.611 4.24368C127.611 4.42791 127.468 4.5772 127.248 4.5772" fill="black"/>
<path d="M133.489 4.01181C133.642 4.18333 133.692 4.45015 133.705 4.98379H132.371C132.387 4.45015 132.454 4.18333 132.648 4.01181C132.779 3.89746 132.928 3.85934 133.119 3.85934C133.279 3.85934 133.387 3.89428 133.489 4.01181ZM133.119 6.67047C133.626 6.67047 134.036 6.42271 134.31 6.04789L134.234 5.98436C133.979 6.3433 133.635 6.56882 133.123 6.56882C132.931 6.56882 132.782 6.53388 132.651 6.41636C132.438 6.22577 132.371 6.00342 132.371 5.21249C132.371 5.15532 132.371 5.13944 132.371 5.08544H134.371L134.393 5.06638C134.393 4.53274 134.027 3.75452 133.123 3.75452C132.288 3.75452 131.661 4.40568 131.661 5.21249C131.661 6.0193 132.288 6.67047 133.123 6.67047" fill="black"/>
<path d="M122.325 4.32627C122.325 4.09439 122.618 3.75769 123.185 3.75769C124.019 3.75769 124.427 4.12298 124.427 4.94567V6.28294C124.427 6.43859 124.503 6.50529 124.611 6.50529C124.739 6.50529 124.844 6.40047 124.869 6.33694L124.939 6.40365C124.898 6.52117 124.685 6.67682 124.414 6.67682C124.105 6.67682 123.834 6.49894 123.787 6.25118C123.688 6.53388 123.417 6.67682 123.032 6.67682C122.389 6.67682 121.975 6.45447 121.975 5.98754C121.975 5.29825 122.71 5.13943 122.994 5.1172C123.392 5.08543 123.752 5.06002 123.752 4.92026V4.53591C123.752 4.06898 123.545 3.86569 123.182 3.86569C123 3.86569 122.889 3.95145 122.889 4.14521C122.889 4.25321 122.946 4.29133 122.946 4.39615C122.946 4.51368 122.85 4.63121 122.624 4.63121C122.398 4.63121 122.322 4.48191 122.322 4.33262M123.166 6.54341C123.522 6.54341 123.755 6.2893 123.755 6.04789V5.0759C123.589 5.17437 123.347 5.17437 123.134 5.21249C122.895 5.25378 122.637 5.38084 122.637 5.98436C122.637 6.44494 122.94 6.54341 123.166 6.54341Z" fill="black"/>
<path d="M131.171 5.23155C131.171 5.95895 130.553 6.67047 129.693 6.67047C129.432 6.67047 129.228 6.5053 129.076 6.34648V8.51597C129.076 8.53185 129.091 8.54138 129.123 8.54138H129.521V8.64303H127.958V8.54138H128.356C128.388 8.54138 128.404 8.53503 128.404 8.51597V3.93875C128.404 3.92287 128.388 3.91334 128.356 3.91334H127.958V3.81169H129.056L129.076 3.83075V4.07851C129.228 3.91969 129.429 3.75134 129.693 3.75134C130.553 3.75134 131.171 4.4978 131.171 5.2252M130.152 4.00863C130.031 3.89428 129.865 3.85934 129.693 3.85934C129.451 3.85934 129.228 4.01816 129.076 4.19922V6.15589C129.168 6.38777 129.435 6.56883 129.693 6.56883C129.868 6.56883 130.031 6.53388 130.152 6.41953C130.352 6.23213 130.486 5.90495 130.486 5.23155C130.486 4.55815 130.352 4.19604 130.152 4.00863Z" fill="black"/>
<path d="M139.704 3.8371C139.777 3.8371 139.819 3.80534 139.825 3.77675H139.94V4.47238H139.825C139.825 4.06898 139.462 3.86251 139.118 3.86251C138.774 3.86251 138.59 4.02133 138.59 4.27227C138.59 4.59626 138.822 4.76144 139.351 4.90755C139.902 5.0632 140.268 5.33319 140.268 5.75248C140.268 6.28294 139.838 6.67047 139.147 6.67047C138.736 6.67047 138.558 6.47988 138.345 6.47988C138.211 6.47988 138.138 6.56882 138.122 6.62282H138.007L138.045 5.69848H138.16C138.141 6.18447 138.593 6.56882 139.144 6.56882C139.558 6.56882 139.793 6.37824 139.793 6.02883C139.793 5.67942 139.516 5.53648 139.007 5.38084C138.513 5.23155 138.166 5.02826 138.166 4.59626C138.166 4.07851 138.669 3.75769 139.112 3.75769C139.402 3.75769 139.427 3.8371 139.695 3.8371" fill="black"/>
<path d="M137.644 2.86197C137.644 2.67457 137.803 2.51892 138.001 2.51892C138.214 2.51892 138.373 2.67457 138.373 2.90009C138.373 3.23679 138.071 3.62749 137.654 3.87843L137.587 3.80537C137.886 3.63067 138.103 3.41785 138.233 3.11291C138.176 3.17326 138.103 3.20185 138.001 3.20185C137.803 3.20185 137.644 3.04938 137.644 2.86197Z" fill="black"/>
<path d="M136.74 4.57403C136.536 4.57403 136.396 4.47873 136.396 4.31991C136.396 4.17698 136.482 4.18333 136.482 4.07851C136.482 3.97368 136.412 3.92286 136.303 3.92286C136.195 3.92286 135.988 3.96098 135.832 4.42791V6.48941C135.832 6.50529 135.848 6.51482 135.88 6.51482H136.278V6.61964H134.715V6.51482H135.113C135.144 6.51482 135.16 6.50847 135.16 6.48941V3.9451C135.16 3.92921 135.144 3.91969 135.113 3.91969H134.715V3.81804H135.813L135.832 3.8371V4.27227C135.95 3.91016 136.202 3.76086 136.501 3.76086C136.861 3.76086 137.1 3.95145 137.1 4.24368C137.1 4.42791 136.956 4.5772 136.737 4.5772" fill="black"/>
<path d="M12.8989 24.0932C19.9009 24.0932 22.6774 29.0134 22.6774 36.4748C22.6774 42.9134 20.2002 48.3959 14.3859 48.3959H10.4885C10.2052 48.3927 10.0714 48.3102 10.0714 48.145V24.0932H12.8958H12.8989ZM0.0413818 1.32141V1.62635H3.96743C4.25082 1.62635 4.38455 1.70893 4.38455 1.87411V48.1386C4.38455 48.3038 4.254 48.3864 3.96743 48.3864H0.0413818V48.6945H14.6852C24.1167 48.6977 29.1476 44.6478 29.1476 36.4717C29.1476 30.8113 26.1736 25.0493 16.7868 23.9026C24.7631 23.1339 27.5142 17.969 27.5142 12.9376C27.5142 5.57781 23.2251 1.32459 13.7937 1.32459H0.0413818V1.32141ZM12.8989 1.6327C19.108 1.6327 21.6362 6.49897 21.6362 12.9407C21.6362 18.9696 19.108 23.7882 12.8989 23.7882H10.0746V1.6327H12.8989Z" fill="black"/>
<path d="M109.598 11.5399L115.674 34.3625H103.908L109.598 11.5399ZM100.523 46.6648C100.144 48.2307 100.09 48.3896 99.7051 48.3896H95.3746V48.6977H105.185V48.3896H100.695C100.406 48.3896 100.453 48.1767 100.807 46.7442L103.825 34.6674H115.769L119.415 48.3896H114.562V48.6977H130.884V48.3896H125.809L112.273 0H112.19L100.523 46.6648Z" fill="black"/>
<path d="M43.8902 11.5399L49.9655 34.3625H38.2001L43.8902 11.5399ZM34.8154 46.6648C34.4365 48.2307 34.3823 48.3896 33.9971 48.3896H29.6666V48.6977H39.477V48.3896H34.9873C34.6976 48.3896 34.7453 48.1767 35.0988 46.7442L38.1173 34.6674H50.0611L53.7069 48.3896H48.8543V48.6977H65.1762V48.3896H60.1007L46.5681 0H46.4853L34.8186 46.6648H34.8154Z" fill="black"/>
<path d="M172.217 1.63269H176.249C182.458 1.63269 184.212 6.50214 184.212 12.9407C184.212 18.9696 182.458 24.2488 176.249 24.2488H172.217V1.63269ZM172.217 24.5537H175.952C179.261 24.5537 184.139 26.0244 184.139 31.9897V42.7959C184.139 47.2175 186.505 50 190.682 50C195.07 50 195.003 45.4323 195.003 42.1352V38.6634H194.707V42.1352C194.707 45.8834 194.277 49.1392 192.134 49.1392C190.24 49.1392 189.829 47.929 189.829 42.8435V31.9897C189.829 26.9678 185.881 25.1287 179.783 24.4013C187.377 23.4706 190.236 18.4709 190.236 12.9407C190.236 4.76464 186.575 1.32776 177.14 1.32776H162.184V1.62952H166.11C166.394 1.62952 166.527 1.71211 166.527 1.87728V48.1418C166.527 48.307 166.397 48.3896 166.11 48.3896H162.184V48.6977H175.933V48.3896H172.631C172.348 48.3896 172.214 48.307 172.214 48.1418V24.5537H172.217Z" fill="black"/>
<path d="M141.723 11.5399L147.798 34.3625H136.033L141.723 11.5399ZM132.648 46.6648C132.269 48.2307 132.215 48.3896 131.83 48.3896H127.499V48.6977H137.31V48.3896H132.82C132.53 48.3896 132.578 48.1767 132.932 46.7442L135.95 34.6674H147.894L151.54 48.3896H146.687V48.6977H163.009V48.3896H157.933L144.398 0H144.315L132.648 46.6648Z" fill="black"/>
<path d="M74.4166 48.1482C74.3689 48.2562 74.423 48.3896 74.6522 48.3896H85.3669C88.6656 48.3927 92.9228 43.3645 92.9228 27.1584V25.4717H93.219V48.6977H67.6376L87.0194 1.87093C87.0672 1.76293 87.0131 1.62952 86.7838 1.62952H75.4101C72.4233 1.62952 68.0897 7.25178 68.0897 22.8671V24.5537H67.7936V1.32458H93.8208L74.423 48.1482H74.4166Z" fill="black"/>
</g>
<defs>
<clipPath id="clip0_11806_14432">
<rect width="195" height="50" fill="white"/>
</clipPath>
</defs>
</svg>
