<svg width="24" height="24" viewBox="0 0 24 24" fill="none" xmlns="http://www.w3.org/2000/svg">
<path d="M12.0093 20.6L11.3092 21.3141L12.0093 22.0004L12.7093 21.3141L12.0093 20.6ZM3.68024 12.435L4.3803 11.7209L4.37396 11.7148L3.68024 12.435ZM12.0093 5.21357L11.2096 5.81402L12.8055 5.81848L12.0093 5.21357ZM19.6382 11.7209L11.3092 19.8859L12.7093 21.3141L21.0383 13.1491L19.6382 11.7209ZM12.7093 19.8859L4.38028 11.7209L2.9802 13.1491L11.3092 21.3141L12.7093 19.8859ZM4.37396 11.7148C3.92399 11.2814 3.57018 10.7611 3.33421 10.1869L1.48435 10.9472C1.82607 11.7787 2.33773 12.5304 2.98651 13.1553L4.37396 11.7148ZM3.33421 10.1869C3.09826 9.6128 2.9851 8.99693 3.00157 8.37796L1.00228 8.32476C0.978382 9.22275 1.14261 10.1157 1.48435 10.9472L3.33421 10.1869ZM3.00157 8.37796C3.01804 7.759 3.16381 7.14978 3.43005 6.58859L1.62308 5.73134C1.23767 6.54373 1.02618 7.42677 1.00228 8.32476L3.00157 8.37796ZM3.43005 6.58859C3.69629 6.02738 4.07742 5.52605 4.54999 5.11655L3.24023 3.60508C2.55929 4.19515 2.00849 4.91897 1.62308 5.73134L3.43005 6.58859ZM4.54999 5.11655C5.02259 4.70702 5.57635 4.39827 6.17662 4.2103L5.57894 2.30169C4.7175 2.57145 3.92115 3.01504 3.24023 3.60508L4.54999 5.11655ZM6.17662 4.2103C6.7769 4.02232 7.41026 3.95934 8.03666 4.02548L8.24667 2.03654C7.34861 1.94171 6.44035 2.03194 5.57894 2.30169L6.17662 4.2103ZM8.03666 4.02548C8.66306 4.09162 9.26838 4.28538 9.81452 4.59414L10.7988 2.85312C10.0137 2.40925 9.14474 2.13136 8.24667 2.03654L8.03666 4.02548ZM9.81452 4.59414C10.363 4.90422 10.8371 5.31792 11.2096 5.81402L12.8089 4.61312C12.2669 3.89129 11.5816 3.29567 10.7988 2.85312L9.81452 4.59414ZM12.8055 5.81848C13.1797 5.32598 13.6543 4.9159 14.2025 4.60909L13.2256 2.86389C12.4434 3.30172 11.7573 3.89207 11.213 4.60866L12.8055 5.81848ZM14.2025 4.60909C14.7482 4.3036 15.3524 4.11263 15.977 4.04856L15.7729 2.059C14.8774 2.15086 14.0102 2.42473 13.2256 2.86389L14.2025 4.60909ZM15.977 4.04856C16.6016 3.98449 17.2328 4.04875 17.8309 4.23717L18.4319 2.32959C17.5736 2.05921 16.6685 1.96714 15.7729 2.059L15.977 4.04856ZM17.8309 4.23717C18.429 4.42558 18.9806 4.73394 19.4516 5.1424L20.762 3.63152C20.0835 3.04301 19.2901 2.59998 18.4319 2.32959L17.8309 4.23717ZM19.4516 5.1424C19.9225 5.55083 20.3025 6.05049 20.5684 6.60974L22.3746 5.75098C21.9897 4.94147 21.4406 4.22005 20.762 3.63152L19.4516 5.1424ZM20.5684 6.60974C20.8342 7.16896 20.9804 7.77603 20.9982 8.39303L22.9973 8.33558C22.9716 7.44044 22.7595 6.56053 22.3746 5.75098L20.5684 6.60974ZM20.9982 8.39303C21.0159 9.01003 20.9048 9.62425 20.6715 10.1973L22.524 10.9513C22.8618 10.1212 23.0231 9.23071 22.9973 8.33558L20.9982 8.39303ZM20.6715 10.1973C20.4383 10.7705 20.0877 11.2905 19.6412 11.7246L21.0353 13.1586C21.6792 12.5327 22.1862 11.7813 22.524 10.9513L20.6715 10.1973Z" fill="#B30010"/>
<path d="M12.7174 5.93953C13.108 5.549 13.108 4.91584 12.7174 4.52532C12.3269 4.13479 11.6938 4.13479 11.3032 4.52532L12.7174 5.93953ZM11.0944 13.2008L10.3873 13.9079L11.0944 14.615L11.8015 13.9079L11.0944 13.2008ZM8.74669 10.853L9.45382 10.1459L8.74669 10.853ZM11.8015 13.9079L16.7991 8.9103L15.3849 7.49608L10.3873 12.4937L11.8015 13.9079ZM11.3032 4.52532C10.2153 5.61321 9.12736 6.70113 8.03946 7.78911L9.45373 9.20327C10.5416 8.11533 11.6295 7.02747 12.7174 5.93953L11.3032 4.52532ZM8.03955 11.5601C8.80545 12.3261 9.51457 13.0352 10.3873 13.9079L11.8015 12.4937C10.9288 11.6209 10.2197 10.9119 9.45382 10.1459L8.03955 11.5601ZM8.03946 7.78911C6.99813 8.83051 6.99836 10.5188 8.03955 11.5601L9.45382 10.1459C9.19347 9.88558 9.19352 9.4635 9.45373 9.20327L8.03946 7.78911Z" fill="#B30010"/>
</svg>
