<svg width="60" height="60" viewBox="0 0 60 60" fill="none" xmlns="http://www.w3.org/2000/svg">
<rect width="60" height="60" rx="30" fill="#F7F7F7"/>
<path d="M16 30.9788V28.9889C16 24.9176 16 22.8819 17.2755 21.5721C18.551 20.2623 20.5592 20.2056 24.5754 20.0922C26.4785 20.0385 28.4226 20 30.0865 20C31.7503 20 33.6944 20.0385 35.5975 20.0922C39.6137 20.2056 41.6219 20.2623 42.8974 21.5721C44.1729 22.8819 44.1729 24.9176 44.1729 28.9889V30.9788C44.1729 35.05 44.1729 37.0857 42.8974 38.3954C41.6219 39.7053 39.6138 39.7619 35.5976 39.8754C33.6944 39.9291 31.7503 39.9677 30.0865 39.9677C28.4226 39.9677 26.4784 39.9291 24.5753 39.8754C20.5591 39.7619 18.551 39.7053 17.2755 38.3954C16 37.0857 16 35.05 16 30.9788Z" fill="black"/>
<path d="M32.9029 29.9842L27.9727 32.7965V27.1719L32.9029 29.9842Z" fill="white" stroke="white" stroke-width="2.10916" stroke-linecap="round" stroke-linejoin="round"/>
</svg>
