<svg xmlns="http://www.w3.org/2000/svg" width="131px" height="24px">
  <g fill="#000" fill-rule="evenodd">
    <path d="M127.338,23.050 L122.917,9.369 L122.852,9.369 L122.852,23.050 L119.371,23.050 L119.355,23.050 L115.395,23.050 L114.790,18.035 L111.451,18.035 L110.879,23.050 L107.412,23.050 L110.592,0.449 L116.571,0.449 L119.355,22.919 L119.355,0.449 L123.394,0.449 L127.179,12.385 L127.242,12.385 L127.242,0.449 L130.550,0.449 L130.550,23.050 L127.338,23.050 ZM113.232,3.941 L113.168,3.941 L111.864,14.734 L114.441,14.734 L113.232,3.941 ZM106.371,23.050 L102.236,23.050 L102.236,3.941 L98.674,3.941 L98.674,0.449 L109.934,0.449 L109.934,3.941 L106.371,3.941 L106.371,23.050 ZM94.294,0.449 L98.428,0.449 L98.428,23.050 L94.294,23.050 L94.294,0.449 ZM84.684,0.449 L88.818,0.449 L88.818,19.559 L94.097,19.559 L94.097,23.050 L84.684,23.050 L84.684,0.449 ZM78.585,23.494 C74.928,23.494 72.542,20.669 72.542,11.750 C72.542,2.830 74.928,0.004 78.585,0.004 C82.244,0.004 84.628,2.830 84.628,11.750 C84.628,20.669 82.244,23.494 78.585,23.494 ZM80.112,9.369 C80.112,4.481 79.540,3.496 78.585,3.496 C77.630,3.496 77.059,4.481 77.059,9.369 L77.059,14.130 C77.059,19.019 77.630,20.003 78.585,20.003 C79.540,20.003 80.112,19.019 80.112,14.130 L80.112,9.369 ZM67.233,14.003 L65.580,14.003 L65.580,23.050 L61.446,23.050 L61.446,0.449 L65.580,0.449 C70.255,0.449 72.704,2.322 72.704,7.211 C72.704,11.274 71.115,14.003 67.233,14.003 ZM65.930,3.941 L65.611,3.941 L65.611,10.703 L65.962,10.703 C67.647,10.703 68.569,10.036 68.569,7.306 C68.569,4.036 67.298,3.941 65.930,3.941 ZM55.334,23.494 C51.676,23.494 49.290,20.669 49.290,11.750 C49.290,2.830 51.676,0.004 55.334,0.004 C58.992,0.004 61.377,2.830 61.377,11.750 C61.377,20.669 58.992,23.494 55.334,23.494 ZM56.860,9.369 C56.860,4.481 56.288,3.496 55.334,3.496 C54.379,3.496 53.807,4.481 53.807,9.369 L53.807,14.130 C53.807,19.019 54.379,20.003 55.334,20.003 C56.288,20.003 56.860,19.019 56.860,14.130 L56.860,9.369 ZM45.546,6.480 L45.482,6.480 L42.684,23.050 L40.394,23.050 L37.627,6.480 L37.563,6.480 L37.563,23.050 L34.509,23.050 L34.509,20.091 C33.704,22.116 31.953,23.494 29.328,23.494 C24.908,23.494 24.016,19.622 24.016,16.511 L27.705,16.511 C27.705,17.781 27.705,20.003 29.486,20.003 C30.854,20.003 31.331,18.734 31.331,17.813 C31.331,13.781 23.825,12.861 23.825,6.163 C23.825,2.767 25.669,0.004 29.169,0.004 C32.890,0.004 34.320,2.830 34.416,6.893 L30.727,6.893 C30.727,5.623 30.727,3.496 29.074,3.496 C28.087,3.496 27.515,4.322 27.515,5.560 C27.515,8.790 32.820,10.225 34.509,14.505 L34.509,0.449 L40.012,0.449 L41.857,12.036 L41.920,12.036 L43.860,0.449 L49.235,0.449 L49.235,23.050 L45.546,23.050 L45.546,6.480 ZM18.109,23.494 C15.018,23.494 12.837,21.478 12.234,15.475 C12.161,19.259 11.394,23.494 6.833,23.494 C2.413,23.494 0.950,19.178 0.950,11.750 C0.950,3.116 3.558,0.004 6.833,0.004 C11.604,0.004 12.178,4.385 12.178,8.512 L8.488,8.639 C8.488,4.893 8.011,3.496 6.993,3.496 C6.134,3.496 5.275,4.068 5.275,11.750 C5.275,19.178 5.720,20.003 6.993,20.003 C8.360,20.003 8.678,17.908 8.742,14.638 L12.174,14.794 C12.102,13.869 12.066,12.857 12.066,11.750 C12.066,2.830 14.450,0.004 18.109,0.004 C21.765,0.004 24.151,2.830 24.151,11.750 C24.151,20.669 21.765,23.494 18.109,23.494 ZM18.109,3.496 C17.154,3.496 16.581,4.481 16.581,9.369 L16.581,14.130 C16.581,19.019 17.154,20.003 18.109,20.003 C19.062,20.003 19.635,19.019 19.635,14.130 L19.635,9.369 C19.635,4.481 19.062,3.496 18.109,3.496 Z"></path>
  </g>
</svg>