<svg width="132" height="30" viewBox="0 0 132 30" fill="none" xmlns="http://www.w3.org/2000/svg">
<g clip-path="url(#clip0_13638_4200)">
<path d="M8 16C12.4201 16 16 12.4217 16 8.00365C16 3.58558 12.4201 0 8 0C3.57991 0 0 3.57827 0 7.99635C0 12.4144 3.57991 15.9927 8 15.9927" fill="#221E1F"/>
<path d="M55 15L47.1497 1L39 15H55Z" fill="#221E1F"/>
<path d="M94 15L86.1534 1L78 15H94Z" fill="#221E1F"/>
<path d="M132 16V2.84018H131.846H127.931V1H120.215V2.84018H116.154H116V16L124 8.46334L132 16Z" fill="#221E1F"/>
<path d="M92.8551 27.3867H99V29.9922H97.6509V28.3511H92.8551V27.3867ZM92.7736 23.5133H93.7446V23.0156H95.0714V23.5133H96.0276V24.47H95.1233C95.19 24.7189 95.316 24.9289 95.4939 25.0844C95.6718 25.2478 95.8645 25.3956 96.0721 25.5044V26.7022C95.9238 26.6633 95.7682 26.5933 95.6199 26.5078C95.4643 26.43 95.3012 26.3444 95.1604 26.2356C95.0121 26.1344 94.8713 26.0178 94.7453 25.8933C94.6119 25.7767 94.5007 25.66 94.4043 25.5278C94.3079 25.66 94.1968 25.7767 94.0708 25.8933C93.9373 26.0178 93.8039 26.1344 93.6557 26.2356C93.5074 26.3444 93.3517 26.4378 93.2035 26.5078C93.0478 26.5933 92.8848 26.6556 92.7439 26.7022V25.5044C92.9441 25.3956 93.1294 25.2556 93.3221 25.0844C93.5 24.9289 93.626 24.7189 93.6927 24.47H92.7736V23.5133ZM96.3093 23.0156H97.4731V24.3067H97.8288V23.0156H98.9926V26.71H97.8288V25.2789H97.4731V26.71H96.3093V23.0156ZM77.3039 23.0156H78.653V24.7189H79.3127V25.6833H78.653V27.5422H77.3039V23.0156ZM72.9084 25.7767C73.0344 25.73 73.1678 25.66 73.316 25.5744C73.4569 25.4889 73.5903 25.3878 73.7237 25.2633C73.8423 25.1467 73.9461 25.0144 74.035 24.8667C74.1166 24.7267 74.1536 24.5633 74.1536 24.3922V23.0156H75.4805V24.3922C75.4805 24.5633 75.5175 24.7267 75.6065 24.8667C75.688 25.0144 75.7918 25.1467 75.9178 25.2633C76.0364 25.3878 76.1698 25.4889 76.3181 25.5744C76.4589 25.66 76.5923 25.7222 76.7257 25.7767V26.9744C76.5775 26.9356 76.407 26.8656 76.2365 26.78C76.0512 26.7022 75.8807 26.6167 75.7028 26.5078C75.5249 26.4067 75.3619 26.29 75.2136 26.1656C75.0579 26.0489 74.9171 25.9322 74.8282 25.8C74.7244 25.9322 74.5984 26.0489 74.4501 26.1656C74.2945 26.29 74.1314 26.4067 73.9609 26.5078C73.783 26.6167 73.6051 26.71 73.4272 26.78C73.2419 26.8656 73.0788 26.9278 72.938 26.9744V25.7767H72.9084ZM78.8976 30H72.9084V27.4256H74.2574V29.0356H78.8976V30ZM55.9562 24.1044C55.593 24.4233 55.1482 24.6722 54.6294 24.8744C54.1031 25.0844 53.5768 25.2167 53.0209 25.2711V24.2289C53.2655 24.1978 53.5101 24.1278 53.7547 24.0422C53.9845 23.9644 54.2069 23.8789 54.4218 23.77C54.6294 23.6689 54.8221 23.56 54.9926 23.4278C55.1705 23.3033 55.3113 23.1711 55.4373 23.0233H56.7938C56.9124 23.1711 57.0606 23.3033 57.2385 23.4278C57.4164 23.56 57.6017 23.6689 57.8167 23.77C58.0243 23.8789 58.2466 23.9722 58.4838 24.0422C58.7136 24.1278 58.9508 24.19 59.2028 24.2289V25.2711C58.6469 25.2167 58.1058 25.0767 57.5943 24.8744C57.0681 24.6722 56.6307 24.4233 56.2675 24.1044H55.9562ZM59.2028 30H53.0209V27.9622H57.8538V27.6433H53.0209V26.7956H55.4447V26.4922H53.0209V25.5667H59.2028V26.4922H56.779V26.7956H59.2028V28.8178H54.3699V29.16H59.2028V30ZM35.9798 26.9511H36.4616V25.8233H35.9798V26.9511ZM34.7419 24.26C34.7419 24.1356 34.7197 24.0422 34.6826 23.9956C34.6381 23.9567 34.5714 23.9256 34.4899 23.9256C34.4009 23.9256 34.3416 23.9489 34.3046 23.9956C34.2601 24.0422 34.2379 24.1356 34.2379 24.26V28.5767C34.2379 28.7089 34.2527 28.7944 34.3046 28.8333C34.3342 28.88 34.4009 28.9111 34.4899 28.9111C34.5714 28.9111 34.6307 28.8878 34.6826 28.8333C34.7123 28.7944 34.7419 28.7089 34.7419 28.5767V24.26ZM37.9885 23.0156H39.1523V30H37.9885V23.0156ZM36.4616 23.0156H37.6253V30H36.4616V28.3278H35.9798C35.9798 28.5456 35.9575 28.7478 35.9131 28.9267C35.8686 29.1133 35.7871 29.2767 35.6759 29.4089C35.5647 29.5411 35.4164 29.6422 35.2237 29.7278C35.031 29.7978 34.7864 29.8367 34.4899 29.8367C34.1934 29.8367 33.9488 29.7978 33.7561 29.7278C33.5633 29.6422 33.4151 29.5411 33.3039 29.4089C33.1927 29.2767 33.1112 29.1056 33.0741 28.9267C33.0296 28.74 33 28.5456 33 28.3278V24.5089C33 24.2911 33.0222 24.0889 33.0741 23.9022C33.1112 23.7156 33.1927 23.56 33.3039 23.4278C33.4151 23.2956 33.5633 23.1944 33.7561 23.1089C33.9488 23.0389 34.186 23 34.4899 23C34.779 23 35.0162 23.0389 35.2015 23.1089C35.3942 23.1867 35.5425 23.28 35.6536 23.4122C35.7648 23.5444 35.8464 23.6922 35.8908 23.8711C35.9353 24.0578 35.965 24.2444 35.9724 24.4544H36.4542V23.0233L36.4616 23.0156Z" fill="#221E1F"/>
</g>
<defs>
<clipPath id="clip0_13638_4200">
<rect width="132" height="30" fill="white"/>
</clipPath>
</defs>
</svg>
