<svg width="164" height="32" viewBox="0 0 164 32" fill="none" xmlns="http://www.w3.org/2000/svg">
<g clip-path="url(#clip0_13638_4170)">
<path d="M59.8245 18.1883H41.735V11.7553H59.2569V10.2645H55.1414C56.859 9.67703 59.2945 8.38821 59.2945 5.63801V2.84375H36.7852V4.33451H54.1492C54.1492 4.33451 54.1567 6.11902 54.1492 6.57066C54.1154 8.63423 53.2998 9.63296 51.2326 9.98546C50.2517 10.1544 49.5413 10.2645 48.2522 10.2645H36.7889V19.6754H59.8282V18.1847L59.8245 18.1883Z" fill="#111111"/>
<path d="M63.8016 25.1016H31.8359V26.5923H63.8016V25.1016Z" fill="#111111"/>
<path d="M11.806 26.3891H28.4748V25.0011H26.137C27.4412 24.432 28.4748 22.9596 28.4748 19.6953H7.17188V21.0833H23.6414C23.6414 22.1371 23.5662 23.1028 23.0588 23.8628C22.792 24.2631 22.1418 24.9974 20.8977 24.9974H7.17188V31.9959H29.1964V30.608H11.806V26.3891Z" fill="#111111"/>
<path d="M28.4786 0.953125H24.6562V17.5168H28.4786V0.953125Z" fill="#111111"/>
<path d="M15.2518 9.94146H18.2285V17.432H21.9418V1.25391H18.2285V8.45069H15.2255C14.7594 4.7605 11.358 2.44358 7.64093 2.44358C3.63818 2.44358 0 5.13136 0 9.32826C0 13.5252 3.63818 16.2129 7.64093 16.2129C11.6437 16.2129 14.9173 13.7859 15.2518 9.94146ZM3.75093 9.32826C3.75093 5.57198 5.2919 3.31747 7.63717 3.31747C9.98245 3.31747 11.5197 5.56831 11.5197 9.32826C11.5197 13.0882 9.9862 15.339 7.63717 15.339C5.28814 15.339 3.75093 13.0882 3.75093 9.32826Z" fill="#111111"/>
<path d="M73.2303 10.514H84.4531L78.5636 15.9446C77.0564 15.8455 74.3278 15.1001 74.3278 15.1001L74.3052 17.9457C74.3052 17.9457 76.7821 18.7168 80.0519 18.7168C87.4523 18.7168 89.8878 13.5983 89.8878 13.5983V18.3129H93.2967V2.30742H89.8878V12.4784C89.8878 12.4784 89.1098 13.8994 86.2421 15.045C84.4643 15.7573 82.5212 15.9593 80.3376 15.9593H79.9767L85.8775 10.514L88.4333 8.16766H73.2266V2.28906H69.75V18.3093H73.2266V10.514H73.2303Z" fill="#111111"/>
<path d="M109.126 4C104.079 4 99.3203 7.90683 99.3203 14.5051C99.3466 21.0226 104.105 24.9147 109.126 24.9147C114.147 24.9147 118.932 21.052 118.932 14.4537C118.932 7.85542 114.177 4 109.126 4ZM109.126 23.6663C106.499 23.6663 103.849 21.6468 103.83 14.4978C103.83 7.28629 106.484 5.24108 109.126 5.24108C111.768 5.24108 114.422 7.24223 114.422 14.4537C114.422 21.6652 111.768 23.6663 109.126 23.6663Z" fill="#111111"/>
<path d="M127.406 0.953125H123.625V30.8859H127.406V0.953125Z" fill="#111111"/>
<path d="M163.999 25.1016H131.492V26.5923H163.999V25.1016Z" fill="#111111"/>
<path d="M83.3215 20.1445H79.736V25.1015H65.2734V26.6033H79.736H83.3215H97.784V25.1015H83.3215V20.1445Z" fill="#111111"/>
<path d="M140.307 14.4411C142.097 10.6003 144.814 8.43396 148.681 8.43396C152.019 8.43396 153.966 10.358 155.244 13.5929C156.435 16.255 156.803 19.846 156.803 19.846H160.671C160.671 19.846 160.269 16.2256 158.468 12.5427C157.247 10.0422 155.743 7.48663 152.556 5.96649C152.62 5.96649 154.24 5.07791 154.24 3.07676C154.24 1.44647 152.91 -0.00390625 150.373 -0.00390625C145.847 -0.00390625 142.762 2.78668 140.533 6.00321C135.756 12.9099 134.816 19.8423 134.816 19.8423H138.695C138.695 19.8423 139.225 16.7507 140.304 14.4374L140.307 14.4411ZM141.755 8.937C141.755 8.937 142.288 6.11703 145.411 3.28605C147.046 1.80263 148.595 1.10866 150.485 1.10866C151.812 1.10866 153.466 1.43545 153.466 3.13184C153.466 4.97877 151.158 5.59931 151.158 5.59931C151.158 5.59931 149.373 5.38634 147.279 5.90774C143.668 6.80367 141.627 9.15731 141.758 8.94067L141.755 8.937Z" fill="#111111"/>
</g>
<defs>
<clipPath id="clip0_13638_4170">
<rect width="164" height="32" fill="white"/>
</clipPath>
</defs>
</svg>
