<svg width="100" height="34" viewBox="0 0 100 34" fill="none" xmlns="http://www.w3.org/2000/svg">
<g id="Layer_1" clip-path="url(#clip0_3395_21131)">
<path id="Vector" d="M7.74663 0.824097H3.36328V13.0745H7.76382V8.78572H10.3881V13.0774H14.7514V0.824097H10.3766V4.85791H7.74663V0.824097Z" fill="#1C1C1B"/>
<path id="Vector_2" d="M57.3998 0.812012H57.1133V13.0796H61.4107V9.24062C61.4801 9.28191 61.5359 9.34267 61.5711 9.41538C62.1756 10.5613 62.7858 11.7073 63.3846 12.8791C63.4101 12.9481 63.4576 13.0067 63.5197 13.0461C63.5818 13.0854 63.6552 13.1033 63.7284 13.0968H68.1777C68.2563 13.0931 68.3347 13.0855 68.4126 13.0739C67.3296 11.4065 66.2667 9.7735 65.1981 8.1233C65.252 8.09921 65.3075 8.07911 65.3643 8.06314C65.7832 7.98017 66.1742 7.79239 66.5009 7.51734C66.8275 7.24229 67.0791 6.88894 67.2322 6.49029C67.4331 6.01387 67.5308 5.50027 67.5187 4.98335C67.5187 4.83437 67.5187 4.68253 67.5015 4.53069C67.3898 2.98363 66.6621 1.85771 65.2096 1.25608C64.4255 0.948169 63.588 0.799171 62.7457 0.817747H57.3998M62.061 4.01214C62.177 4.01111 62.2929 4.01877 62.4077 4.03505H62.4249C63.0523 4.13532 63.3531 4.53642 63.3502 5.19822C63.3502 5.24119 63.3502 5.28129 63.3502 5.32427C63.3407 5.59693 63.2263 5.8554 63.031 6.0459C62.8357 6.2364 62.5745 6.34427 62.3017 6.34705C62.1957 6.34705 62.0925 6.34705 61.9865 6.34705H61.4307V4.02073C61.5453 4.02073 61.6571 4.02073 61.7659 4.02073H62.0524L62.061 4.01214Z" fill="#1C1C1B"/>
<path id="Vector_3" d="M41.7071 0.806229C41.6308 0.796839 41.5537 0.816751 41.4915 0.861948C41.4293 0.907145 41.3865 0.974262 41.3719 1.04975C40.1858 4.42081 38.9959 7.79187 37.8022 11.1629C37.5787 11.7961 37.3581 12.4292 37.1289 13.0824H39.1716C39.9738 13.0824 40.7731 13.0824 41.5696 13.0824H41.6756C41.836 13.0824 41.8646 12.9965 41.8933 12.879C41.985 12.498 42.0881 12.1198 42.1626 11.7331C42.164 11.7284 42.164 11.7234 42.1626 11.7187C42.1941 11.5841 42.2571 11.5497 42.3918 11.5497H45.2825C45.4258 11.5497 45.4917 11.5898 45.526 11.7302C45.5273 11.7368 45.5273 11.7436 45.526 11.7502C45.6234 12.1914 45.7466 12.6298 45.8612 13.0767H50.5626C50.5523 13.0159 50.5389 12.9557 50.5225 12.8962C49.153 8.94262 47.7846 4.98807 46.417 1.03256C46.4 0.963186 46.3576 0.902687 46.2982 0.862936C46.2389 0.823185 46.1668 0.80705 46.0962 0.817691C45.357 0.817691 44.6178 0.817691 43.8787 0.817691C43.1911 0.817691 42.5035 0.817691 41.8159 0.817691H41.7071M43.002 8.59596C43.3028 7.27523 43.6037 5.96022 43.8443 4.89447L44.6866 8.59596H43.002Z" fill="#1C1C1B"/>
<path id="Vector_4" d="M79.6809 0.53141C79.2266 0.5282 78.7733 0.573338 78.3286 0.666062C76.3404 1.09294 74.779 2.58556 74.6758 4.73998C74.6758 4.81161 74.6758 4.88323 74.6758 4.95485C74.6477 5.63565 74.8383 6.30757 75.2198 6.87213C75.6014 7.43668 76.1537 7.86417 76.7959 8.09194C77.2629 8.26956 77.7642 8.34978 78.2427 8.49589C78.5597 8.57578 78.8664 8.69211 79.1566 8.84255C79.2334 8.88 79.2985 8.93767 79.3449 9.00935C79.3913 9.08103 79.4174 9.16401 79.4202 9.24937C79.4159 9.34283 79.3871 9.43354 79.3369 9.51245C79.2866 9.59136 79.2166 9.65574 79.1337 9.69917C79.0442 9.74968 78.9476 9.78638 78.8472 9.80803C78.6922 9.84433 78.5336 9.86259 78.3745 9.86247C77.9999 9.85485 77.631 9.76897 77.2915 9.61035C76.6612 9.32386 76.0596 8.98293 75.415 8.64774C75.415 8.66492 75.3835 8.71077 75.3634 8.75947C74.9996 9.65333 74.6329 10.5472 74.2719 11.441C74.194 11.5969 74.1418 11.7642 74.1172 11.9367C74.1172 12.1057 74.2604 12.1802 74.63 12.3635C75.9072 13.0353 77.3241 13.3984 78.767 13.4236C79.2807 13.4233 79.7931 13.3724 80.2968 13.2717H80.3284C82.139 12.9022 84.0528 11.441 84.0757 8.90272V8.84542C84.1057 8.114 83.8869 7.39401 83.455 6.80293C83.0232 6.21186 82.4037 5.7846 81.6978 5.59087C81.4915 5.52784 81.2738 5.49346 81.0647 5.42756C80.5175 5.25853 79.9674 5.09809 79.4374 4.88609C79.3579 4.84058 79.2893 4.7783 79.2364 4.7036C79.1835 4.62889 79.1474 4.54354 79.1308 4.45349C79.1294 4.43633 79.1294 4.41908 79.1308 4.40192C79.1308 4.20137 79.3256 4.08678 79.5119 4.01229C79.6043 3.97909 79.7005 3.95791 79.7983 3.94926C79.8935 3.93896 79.9891 3.93418 80.0848 3.93494C80.7009 3.95109 81.3025 4.12467 81.8325 4.43916L81.864 4.45635C82.0903 4.58241 82.3052 4.74285 82.5401 4.87464L83.8637 1.66592C82.5933 0.922544 81.1471 0.532794 79.6752 0.537137L79.6809 0.53141Z" fill="#1C1C1B"/>
<path id="Vector_5" d="M31.0221 0.821045H22.9258V13.0715H31.1281V9.72809H27.2203V8.47898H30.6812V5.30465H27.226V4.14722H31.0221V0.821045Z" fill="#1C1C1B"/>
<path id="Vector_6" d="M90.5078 0.832275V4.84603H92.923V13.0856H97.3006V4.83171H99.7157V0.832275H90.5078Z" fill="#1C1C1B"/>
<path id="Vector_7" d="M59.2889 19.5549C59.17 19.5546 59.0519 19.5739 58.9393 19.6122C58.6493 19.7309 58.3678 19.8697 58.097 20.0276C57.6955 19.7212 57.204 19.5561 56.699 19.5578C56.4258 19.5591 56.1544 19.6016 55.8939 19.6838C55.299 19.8604 54.7556 20.1782 54.3101 20.6103C53.8647 21.0423 53.5303 21.5756 53.3355 22.1648C53.1554 22.6324 53.0585 23.1279 53.049 23.6288C53.0473 24.0435 53.1376 24.4534 53.3135 24.8289C53.4894 25.2045 53.7464 25.5363 54.0661 25.8004V25.8549C53.9286 25.9007 53.7796 25.9408 53.6507 25.9924C53.0383 26.1936 52.5096 26.5914 52.1466 27.124C51.988 27.364 51.9015 27.6443 51.8973 27.9319C51.8978 28.1234 51.9406 28.3124 52.0229 28.4852C52.1051 28.6581 52.2246 28.8107 52.3729 28.9318C52.5423 29.0791 52.7362 29.1954 52.9459 29.2756C53.4902 29.4589 54.046 29.6022 54.5932 29.7683C55.2363 29.9393 55.8703 30.143 56.4927 30.3786C56.6696 30.4345 56.8251 30.5434 56.9383 30.6904C57.0515 30.8374 57.1169 31.0155 57.1258 31.2008C57.1178 31.3432 57.0812 31.4826 57.0182 31.6105C56.9552 31.7385 56.8671 31.8525 56.7591 31.9457C56.5013 32.1867 56.1985 32.3745 55.8681 32.4986C55.4083 32.6615 54.9234 32.742 54.4357 32.7364C54.1617 32.7354 53.888 32.7172 53.6163 32.682C53.2272 32.6421 52.8481 32.5345 52.4961 32.364C51.9775 32.0975 51.7168 31.7222 51.7168 31.3068C51.7372 30.9568 51.8838 30.626 52.1294 30.3757L52.181 30.3155C52.278 30.208 52.3391 30.0727 52.3557 29.9288C52.3549 29.8514 52.3299 29.7763 52.2841 29.7139V29.6996C52.2388 29.6375 52.1792 29.5871 52.1105 29.5527C52.0417 29.5183 51.9656 29.5009 51.8887 29.5019C51.8257 29.5032 51.763 29.5129 51.7025 29.5306C51.4045 29.6089 51.131 29.761 50.9073 29.9727C50.6835 30.1845 50.5165 30.4492 50.4219 30.7424C50.3662 30.9097 50.3372 31.0847 50.3359 31.261C50.3453 31.6848 50.5189 32.0885 50.8201 32.3869C51.1696 32.7516 51.608 33.0191 52.0921 33.1633C52.8098 33.3928 53.559 33.5088 54.3125 33.5071C54.8492 33.5057 55.3845 33.453 55.9111 33.3495L56.0056 33.3323C56.8812 33.1857 57.6696 32.7153 58.2145 32.0144C58.4868 31.6414 58.6306 31.1899 58.6242 30.7281C58.6224 30.3908 58.5334 30.0596 58.3657 29.767C58.198 29.4743 57.9574 29.23 57.6673 29.0578C57.3993 28.8912 57.1103 28.7612 56.8078 28.6711C56.1603 28.4849 55.5014 28.3359 54.8482 28.1697C54.4156 28.058 53.9887 27.9692 53.559 27.8202C53.4626 27.7972 53.376 27.7438 53.3121 27.668C53.2482 27.5923 53.2102 27.498 53.2037 27.3991C53.2084 27.3174 53.2311 27.2378 53.2702 27.1659C53.3094 27.0941 53.364 27.0318 53.4301 26.9836C53.5819 26.8527 53.7595 26.7551 53.9515 26.6971C54.433 26.5612 54.9218 26.4522 55.4155 26.3706C56.8479 26.15 58.5268 25.1558 58.8878 23.2793C58.9587 22.9352 58.9961 22.585 58.9995 22.2336C59.0037 21.7345 58.9012 21.2402 58.6987 20.7839C58.6944 20.7632 58.6944 20.7417 58.6987 20.7209C58.6987 20.6722 58.6987 20.6178 58.713 20.5691C58.7874 20.5775 58.86 20.5978 58.9279 20.6292C59.0167 20.7037 59.0797 20.8097 59.1685 20.89V20.9043C59.2938 21.0265 59.4605 21.0971 59.6355 21.102C59.7199 21.1014 59.8033 21.0835 59.8805 21.0494C59.9577 21.0153 60.0271 20.9656 60.0843 20.9036C60.1416 20.8415 60.1854 20.7683 60.2132 20.6886C60.2409 20.6089 60.252 20.5243 60.2457 20.4402C60.2457 20.4086 60.2457 20.3771 60.2457 20.3456V20.3313C60.2121 20.1074 60.097 19.9038 59.9225 19.7595C59.7481 19.6152 59.5265 19.5403 59.3003 19.5492L59.2889 19.5549ZM56.7792 20.2998C56.9725 20.3109 57.1552 20.3916 57.2937 20.5269C57.4322 20.6622 57.5171 20.8431 57.5327 21.0361C57.5327 21.0361 57.5327 21.0361 57.5327 21.0533C57.5659 21.226 57.5822 21.4016 57.5814 21.5775C57.5742 21.9403 57.5242 22.3009 57.4324 22.6519C57.2639 23.4181 56.982 24.1549 56.5958 24.8378C56.5035 25.012 56.3762 25.1653 56.2219 25.2881C56.0676 25.4108 55.8896 25.5004 55.6991 25.5512C55.6146 25.5712 55.5281 25.5818 55.4413 25.5827C55.2055 25.5848 54.9779 25.4971 54.8044 25.3375C54.631 25.1779 54.5247 24.9583 54.5073 24.7232C54.4901 24.5771 54.493 24.4367 54.4872 24.3307C54.5548 23.1805 54.9385 22.0712 55.596 21.1249C55.7751 20.8611 56.0074 20.6377 56.2778 20.4688C56.4263 20.3713 56.5988 20.3168 56.7763 20.3112" fill="#1C1C1B"/>
<path id="Vector_8" d="M98.1698 19.5536C98.0601 19.5531 97.9509 19.5696 97.8461 19.6023C97.5504 19.7219 97.2632 19.8616 96.9866 20.0206H96.9666C96.5667 19.7497 96.0996 19.595 95.6172 19.5736C95.472 19.5744 95.3271 19.5888 95.1846 19.6166H95.1645C93.5859 19.926 92.6233 20.9488 92.1563 22.4099C92.0211 22.8088 91.9496 23.2264 91.9443 23.6476C91.941 24.0564 92.0287 24.4608 92.2012 24.8315C92.3736 25.2021 92.6265 25.5297 92.9413 25.7905C92.4522 26.0256 91.9828 26.2996 91.5375 26.6099C91.3225 26.7614 91.1443 26.9593 91.0159 27.1888C90.8874 27.4184 90.8121 27.6738 90.7955 27.9363C90.7955 28.5093 91.2052 29.0422 91.9902 29.3344C92.5632 29.5493 93.1648 29.6582 93.7464 29.8387C94.3597 30.0072 94.96 30.2197 95.5427 30.4747C95.6881 30.5314 95.8134 30.63 95.9026 30.758C95.9919 30.8861 96.0411 31.0377 96.0441 31.1938C96.0344 31.4275 95.9489 31.6518 95.8005 31.8326C95.5108 32.1984 95.1077 32.4574 94.6546 32.5689H94.6345H94.6145C94.1817 32.6833 93.7357 32.7402 93.288 32.738C93.0765 32.7379 92.8651 32.7264 92.6548 32.7036H92.6262C92.2303 32.667 91.8431 32.5654 91.4802 32.4028C90.9273 32.1392 90.6494 31.7582 90.6494 31.3284C90.6682 30.9788 90.808 30.6466 91.0447 30.3887L91.0906 30.3228C91.2007 30.2245 91.2702 30.0886 91.2854 29.9418C91.2842 29.8676 91.2602 29.7956 91.2166 29.7355C91.1729 29.6694 91.1133 29.6153 91.0432 29.5783C90.9731 29.5412 90.8948 29.5224 90.8156 29.5235C90.7454 29.5242 90.6758 29.5358 90.6093 29.5579C90.2332 29.6605 89.8999 29.8807 89.6581 30.1864C89.4164 30.4922 89.2788 30.8672 89.2656 31.2568C89.268 31.6841 89.4341 32.0942 89.7297 32.4028C90.0791 32.7675 90.516 33.0367 90.9989 33.1849H91.0161H91.0304H91.0619C91.7544 33.4017 92.4764 33.51 93.202 33.5058C93.6498 33.5036 94.0969 33.4701 94.54 33.4055H94.6059C95.5043 33.3049 96.3378 32.8886 96.958 32.2309C97.3402 31.8394 97.5585 31.3168 97.5682 30.7698C97.5674 30.5613 97.5375 30.354 97.4794 30.1538C97.3763 29.8291 97.194 29.5352 96.9489 29.2986C96.7038 29.0621 96.4037 28.8902 96.0756 28.7987C95.5627 28.6153 95.027 28.4921 94.497 28.3518C93.8552 28.1827 93.2078 28.0338 92.566 27.8619C92.465 27.848 92.3713 27.8016 92.2989 27.7298C92.2266 27.658 92.1795 27.5645 92.1649 27.4636C92.1621 27.4389 92.1621 27.4139 92.1649 27.3891C92.1655 27.2948 92.1927 27.2026 92.2434 27.123C92.2941 27.0434 92.3662 26.9798 92.4514 26.9394C92.682 26.7945 92.9318 26.6826 93.1934 26.607C93.6776 26.4838 94.1818 26.4323 94.6689 26.3205C96.0813 25.9767 97.1814 25.2233 97.6857 23.8109C97.867 23.3327 97.9639 22.8267 97.9722 22.3154C97.9736 21.7907 97.8653 21.2715 97.6542 20.7912C97.6509 20.7742 97.6509 20.7567 97.6542 20.7397C97.6542 20.691 97.6742 20.6308 97.6799 20.5792C97.7535 20.59 97.8244 20.6143 97.8891 20.6508C97.9979 20.7425 98.081 20.8714 98.1928 20.9603C98.3043 21.0548 98.4448 21.1083 98.591 21.1121C98.6858 21.1107 98.779 21.0872 98.8632 21.0433C98.9715 20.9885 99.0612 20.9031 99.1214 20.7976C99.1815 20.6922 99.2092 20.5714 99.2012 20.4503V20.4131C99.1893 20.1711 99.0825 19.9437 98.9038 19.78C98.7252 19.6164 98.4892 19.5299 98.2472 19.5393L98.1698 19.5536ZM95.6945 20.3099C96.0727 20.3099 96.3477 20.5964 96.4251 21.0749C96.4251 21.0749 96.4251 21.0978 96.4251 21.1092C96.4503 21.28 96.4628 21.4523 96.4623 21.6249C96.4606 22.0281 96.3948 22.4284 96.2675 22.811C96.0625 23.4694 95.8117 24.1128 95.5169 24.7362C95.3536 25.0403 95.1072 25.2917 94.8064 25.4611C94.6595 25.5474 94.4926 25.5938 94.3222 25.5957C94.0961 25.5858 93.8805 25.497 93.713 25.3447C93.5455 25.1924 93.4367 24.9862 93.4055 24.762C93.3825 24.636 93.3739 24.5099 93.3625 24.4068C93.4192 23.1507 93.8569 21.9416 94.6173 20.9402C94.8249 20.6794 95.1005 20.4811 95.4138 20.3672C95.5005 20.3377 95.5914 20.3222 95.6831 20.3214" fill="#1C1C1B"/>
<path id="Vector_9" d="M41.3819 19.5543C41.2526 19.556 41.1243 19.5762 41.0008 19.6145H40.9779C40.6272 19.7394 40.3055 19.9344 40.0325 20.1875C39.4965 20.7122 39.0555 21.3258 38.7289 22.001C38.7008 22.0613 38.6768 22.1235 38.6573 22.1872H39.0068H39.1959H39.2589C39.3248 22.1872 39.3894 22.1694 39.4459 22.1356C39.5024 22.1018 39.5487 22.0533 39.5798 21.9952C39.8098 21.6352 40.0645 21.2916 40.3419 20.9667C40.4479 20.8435 40.6513 20.8091 40.8089 20.7318C40.8089 20.8435 40.8261 20.9581 40.8261 21.0699C40.8268 21.1278 40.8201 21.1856 40.806 21.2418C40.3419 22.8031 39.8663 24.3588 39.3907 25.9173C39.1042 26.8283 38.8177 27.7394 38.5312 28.682H39.3162C39.5025 28.682 39.6887 28.682 39.872 28.682H39.9007C39.9679 28.6879 40.0348 28.6681 40.0879 28.6266C40.1411 28.5852 40.1766 28.5251 40.1872 28.4585V28.4356C40.5568 27.2896 40.9149 26.1264 41.3332 24.9977C41.8148 23.6441 42.5422 22.3912 43.479 21.3019C43.7334 21.0158 44.0277 20.7678 44.3528 20.5656C44.442 20.5223 44.5401 20.5007 44.6393 20.5026C44.7327 20.4992 44.8255 20.5199 44.9086 20.5628C45.0289 20.6401 45.0404 20.9094 45.0662 21.0985C45.0662 21.0985 45.0662 21.1243 45.0662 21.1357C45.0578 21.2345 45.0336 21.3312 44.9945 21.4222C44.582 22.657 44.1551 23.8861 43.754 25.1237C43.5105 25.8772 43.2699 26.6335 43.0951 27.4157C43.076 27.5022 43.0663 27.5906 43.0664 27.6792C43.0742 27.9496 43.1752 28.2091 43.3521 28.4137C43.5291 28.6183 43.7712 28.7556 44.0377 28.8023C44.1541 28.8294 44.2733 28.8429 44.3929 28.8424C44.797 28.8302 45.187 28.6908 45.5074 28.4442C46.2522 27.9084 46.7106 27.1435 47.1461 26.3499H47.1948C46.9914 26.3241 46.8453 26.3098 46.7278 26.3069C46.4127 26.3069 46.3267 26.433 46.0288 26.8799C45.8881 27.094 45.729 27.2953 45.5532 27.4816C45.4136 27.6243 45.2509 27.7425 45.0719 27.8311C45.0269 27.8512 44.9779 27.861 44.9286 27.8597C44.8629 27.8595 44.7978 27.8469 44.7367 27.8225C44.7138 27.8225 44.7023 27.748 44.7023 27.6792C44.7024 27.628 44.7091 27.5769 44.7224 27.5274C45.0089 26.6221 45.2954 25.7225 45.5819 24.82C45.9142 23.7715 46.2809 22.7286 46.5617 21.6686C46.6059 21.4993 46.629 21.3251 46.6304 21.1501C46.6403 20.7838 46.5148 20.4268 46.2781 20.1472C46.0413 19.8676 45.7098 19.6851 45.3469 19.6345C45.2478 19.6153 45.1471 19.6057 45.0461 19.6059C44.6075 19.6228 44.1842 19.7716 43.8314 20.0328C43.2418 20.436 42.731 20.9438 42.3244 21.5311C42.27 21.6113 42.2098 21.6915 42.1181 21.8176C42.164 21.5483 42.2041 21.3535 42.227 21.1529C42.2513 20.983 42.2656 20.8117 42.27 20.6401C42.27 20.6115 42.27 20.5828 42.27 20.5542C42.2413 19.9325 41.8918 19.5486 41.3761 19.5486L41.3819 19.5543Z" fill="#1C1C1B"/>
<path id="Vector_10" d="M83.8836 19.5541C83.4732 19.5676 83.0754 19.6989 82.7376 19.9323C82.1799 20.3155 81.7005 20.8017 81.3252 21.3648C81.2335 21.4937 81.1419 21.6226 81.0817 21.7028C81.0817 21.3705 81.1247 21.0181 81.1247 20.6629C81.1247 20.5425 81.1247 20.4222 81.1103 20.3019C81.1017 20.1939 81.0717 20.0886 81.0221 19.9923C80.9726 19.896 80.9044 19.8104 80.8215 19.7406C80.7386 19.6708 80.6427 19.6181 80.5394 19.5856C80.436 19.5531 80.3273 19.5414 80.2193 19.5513H80.2022C79.8675 19.5546 79.5428 19.6661 79.2768 19.8693H79.2625C78.4717 20.4566 77.999 21.2845 77.5091 22.1612H77.7354H77.8701C77.9359 22.1568 78.002 22.1568 78.0678 22.1612H78.1337C78.2079 22.1595 78.2803 22.1375 78.3429 22.0976C78.4055 22.0577 78.456 22.0014 78.4889 21.9349C78.731 21.5715 78.9951 21.2232 79.2797 20.8921C79.4038 20.79 79.5442 20.7097 79.6951 20.6543L79.7781 20.7259C79.7561 20.937 79.7207 21.1466 79.6721 21.3533C79.0361 23.4409 78.3953 25.5285 77.7498 27.616L77.4375 28.6302H78.9645C79.4601 27.2321 79.9071 25.8541 80.4314 24.5076C80.8892 23.3181 81.5601 22.222 82.411 21.2731C82.6641 20.9866 82.961 20.7419 83.2906 20.5483C83.3832 20.4918 83.4887 20.4603 83.5971 20.4566C83.8492 20.4566 84.0154 20.6714 83.9925 21.0066V21.0296C83.9843 21.1384 83.9641 21.246 83.9323 21.3504C83.5713 22.4477 83.1932 23.5392 82.8408 24.6365C82.5543 25.5304 82.2535 26.4185 82.03 27.3267C82.0022 27.4324 81.9877 27.5411 81.987 27.6504C81.9945 27.9343 82.1035 28.2061 82.2944 28.4164C82.4852 28.6267 82.7452 28.7615 83.027 28.7964H83.0442C83.133 28.8133 83.2231 28.822 83.3135 28.8222C83.5824 28.8181 83.8465 28.7503 84.0841 28.6245H84.1099C85.0697 28.1288 85.5739 27.2407 86.1154 26.3039H85.9263H85.869C85.8299 26.3068 85.7906 26.3068 85.7515 26.3039C85.7004 26.2951 85.6487 26.2903 85.5968 26.2896C85.4681 26.2955 85.3434 26.3362 85.236 26.4073C85.1285 26.4785 85.0424 26.5774 84.9866 26.6935C84.7121 27.0759 84.3959 27.4266 84.044 27.7392C83.9717 27.7853 83.8856 27.8045 83.8005 27.7937H83.5771C83.5771 27.7048 83.557 27.6132 83.557 27.5243C83.5569 27.4846 83.5627 27.445 83.5742 27.4069C83.8607 26.4529 84.193 25.5074 84.4938 24.5563C84.8118 23.5507 85.1528 22.5508 85.4106 21.5281C85.4497 21.3803 85.47 21.2282 85.4708 21.0754C85.474 20.7124 85.3459 20.3605 85.11 20.0846C84.8741 19.8087 84.5464 19.6274 84.1873 19.5742C84.0929 19.5554 83.997 19.5458 83.9008 19.5455L83.8836 19.5541Z" fill="#1C1C1B"/>
<path id="Vector_11" d="M69.5395 19.5547C69.3166 19.5589 69.0956 19.5956 68.8834 19.6636C68.6371 19.7323 68.4011 19.8335 68.1815 19.9644C65.858 21.4255 64.4857 23.4969 64.2136 26.2443C64.2136 26.3418 64.1992 26.4363 64.1992 26.5308C64.1981 27.0411 64.3498 27.54 64.6347 27.9633L64.6662 28.0063C64.8208 28.2471 65.0324 28.446 65.2823 28.5854C65.5322 28.7249 65.8126 28.8005 66.0987 28.8056C66.3608 28.8033 66.6195 28.7457 66.8579 28.6366C67.2262 28.4552 67.5707 28.2291 67.8835 27.9633C68.1748 27.7091 68.453 27.4404 68.7172 27.1583C68.7172 27.2184 68.7172 27.2728 68.7172 27.3216C68.7172 27.3703 68.7172 27.3817 68.7172 27.4104V27.4304C68.7172 28.2641 69.2014 28.8113 69.8632 28.8113C70.0981 28.807 70.3283 28.745 70.5336 28.6308H70.5479C71.5592 28.075 72.1523 27.1525 72.6193 26.0753H72.2898C72.2421 26.0782 72.1943 26.0782 72.1466 26.0753H72.052C71.9756 26.0753 71.9007 26.0971 71.8362 26.1382C71.7718 26.1794 71.7204 26.238 71.6882 26.3074C71.5051 26.6233 71.2932 26.9216 71.055 27.1984C70.8984 27.3757 70.7086 27.5208 70.4964 27.6252C70.4386 27.6582 70.3737 27.6768 70.3073 27.6797C70.1669 27.6797 70.0953 27.5622 70.1153 27.3531C70.143 27.1464 70.191 26.943 70.2586 26.7457C70.9672 24.5206 71.6777 22.2946 72.3901 20.0676C72.4245 19.9587 72.4502 19.8498 72.4875 19.7152H71.3673H71.2269H71.1639C70.9547 19.7152 70.7857 19.8126 70.7914 20.2079C70.6523 20.0047 70.4654 19.8389 70.2471 19.7249C70.0287 19.611 69.7857 19.5526 69.5395 19.5547ZM69.5395 20.4142C69.9721 20.4142 70.27 20.7437 70.2385 21.2995V21.3167C70.1882 21.8322 70.0845 22.341 69.9291 22.8351C69.6513 23.9034 69.2464 24.9345 68.723 25.9063C68.3495 26.5902 67.823 27.1785 67.1845 27.6252H67.1702C66.9734 27.7868 66.7331 27.8865 66.4797 27.9117C66.3728 27.9113 66.2675 27.8848 66.1732 27.8344C65.8036 27.6367 65.8036 27.2356 65.7893 26.8689C65.7893 26.8488 65.7893 26.8288 65.7893 26.8116C65.7893 26.7944 65.7893 26.7514 65.7893 26.7371C65.7893 26.7228 65.7893 26.6684 65.7893 26.634C65.8046 26.0551 65.9199 25.4832 66.1302 24.9437C66.5048 23.8659 67.0212 22.8427 67.6658 21.9011C67.8828 21.577 68.1262 21.2713 68.3935 20.9872C68.5874 20.7947 68.812 20.6359 69.0582 20.5174H69.0725C69.2194 20.4514 69.3784 20.4163 69.5395 20.4142Z" fill="#1C1C1B"/>
<path id="Vector_12" d="M8.08463 19.5687C7.83881 19.5703 7.59772 19.6365 7.38558 19.7607H7.36839C7.06154 19.9556 6.78621 20.1961 6.55188 20.474C6.02629 21.087 5.64365 21.8092 5.43169 22.5884H5.77835C5.84513 22.584 5.91212 22.584 5.9789 22.5884H6.03333C6.1909 22.5884 6.26826 22.5053 6.33701 22.3563C6.48745 21.9952 6.66961 21.6481 6.88135 21.3192C7.07602 21.0672 7.29904 20.8384 7.54602 20.6373C7.6087 20.5947 7.68225 20.5709 7.75802 20.5686C7.77972 20.5638 7.80222 20.5638 7.82392 20.5686C7.88695 20.5972 7.92132 20.7405 7.92132 20.8379C7.91606 21.0002 7.88908 21.1611 7.84111 21.3163C6.99595 24.1182 6.15652 26.9201 5.29418 29.7163C5.10565 30.3244 4.87789 30.9196 4.61232 31.4983C4.50375 31.7514 4.34418 31.9795 4.14357 32.1683C3.94295 32.3571 3.70559 32.5025 3.4463 32.5955C3.30356 32.6507 3.15235 32.6807 2.99937 32.6843C2.63552 32.6843 2.392 32.4609 2.24302 32.0082C2.2433 32.0035 2.2433 31.9987 2.24302 31.9939C2.18273 31.7969 2.10607 31.6052 2.01383 31.4209C1.95321 31.3098 1.86309 31.2175 1.75339 31.1543C1.6437 31.0912 1.51869 31.0595 1.39214 31.0628C1.32856 31.0625 1.26514 31.0692 1.20305 31.0829H1.18299C1.02467 31.1275 0.884288 31.2205 0.78153 31.349C0.678771 31.4774 0.618792 31.6348 0.610008 31.7991C0.610008 31.8306 0.610008 31.8621 0.610008 31.8936C0.604738 32.0475 0.632435 32.2007 0.691235 32.3431C0.750035 32.4854 0.83858 32.6134 0.950936 32.7187C1.17926 32.9407 1.44252 33.1236 1.7302 33.2602C2.09898 33.4211 2.49675 33.5049 2.89909 33.5066C3.39458 33.4973 3.88259 33.384 4.33156 33.1743C4.81824 32.9595 5.25733 32.65 5.62326 32.2639C5.9892 31.8778 6.27468 31.4228 6.46307 30.9253C6.88995 29.8624 7.25952 28.7737 7.60905 27.6765C8.13046 25.9842 8.62323 24.2796 9.08735 22.5626C9.24064 22.0304 9.32348 21.4804 9.33374 20.9267V20.8121C9.33515 20.8026 9.33515 20.793 9.33374 20.7835C9.33336 20.6243 9.30164 20.4668 9.24039 20.3199C9.17914 20.173 9.08956 20.0396 8.97676 19.9274C8.86396 19.8151 8.73016 19.7262 8.58298 19.6656C8.43581 19.6051 8.27815 19.5741 8.119 19.5745L8.08463 19.5687Z" fill="#1C1C1B"/>
<path id="Vector_13" d="M18.9748 19.6119H18.8946C18.1836 19.6437 17.5067 19.9258 16.9836 20.4084C16.2188 21.0367 15.6044 21.8284 15.1855 22.7252C14.7666 23.622 14.5538 24.6012 14.5628 25.591C14.5648 26.0092 14.5974 26.4267 14.6602 26.8401C14.7146 27.3719 14.9663 27.864 15.3656 28.2193C15.765 28.5746 16.283 28.7674 16.8175 28.7596C17.1161 28.7578 17.4123 28.7065 17.6941 28.6078H17.7171C18.5209 28.3153 19.2192 27.7896 19.7225 27.098C20.6839 25.8344 21.2105 24.2937 21.2237 22.7061C21.2603 21.9517 21.0686 21.2039 20.6737 20.5602C20.4957 20.2703 20.2457 20.0314 19.9479 19.8667C19.6502 19.702 19.315 19.6172 18.9748 19.6205V19.6119ZM18.9748 20.3769C19.1746 20.3791 19.3668 20.4543 19.515 20.5883C19.6633 20.7224 19.7575 20.906 19.7798 21.1046V21.1217C19.7798 21.1217 19.7798 21.1217 19.7798 21.1389C19.8186 21.3458 19.8378 21.5559 19.8371 21.7664C19.8265 22.2519 19.7504 22.7337 19.6108 23.1988C19.3243 24.256 18.9862 25.3103 18.6167 26.3502C18.4485 26.7537 18.2174 27.128 17.9319 27.459C17.7481 27.6736 17.5152 27.8406 17.2529 27.946H17.2358C17.1133 27.9978 16.9819 28.025 16.849 28.0262C16.6461 28.0214 16.4512 27.9467 16.2971 27.8146C16.1431 27.6825 16.0395 27.5012 16.0038 27.3014C15.9657 27.1122 15.9389 26.9208 15.9236 26.7284C16.0404 24.9043 16.5516 23.1273 17.422 21.52C17.5807 21.2431 17.7828 20.9935 18.0207 20.7808C18.2034 20.6174 18.4209 20.4979 18.6568 20.4313C18.7623 20.397 18.8724 20.3787 18.9834 20.3769H18.9748Z" fill="#1C1C1B"/>
<path id="Vector_14" d="M31.1003 19.6119H30.9971C30.3658 19.6443 29.7623 19.8817 29.2782 20.2881C28.4654 20.9084 27.8089 21.7103 27.3612 22.6295C26.9135 23.5488 26.687 24.56 26.6997 25.5824C26.7007 26.0025 26.7323 26.4219 26.7943 26.8373C26.844 27.3691 27.0926 27.8625 27.4905 28.2189C27.8883 28.5753 28.406 28.7685 28.9401 28.7596C29.2905 28.7563 29.6372 28.6884 29.9629 28.5591C30.7891 28.2218 31.4949 27.6439 31.9884 26.9003C32.8579 25.6707 33.328 24.2034 33.3349 22.6975V22.6258C33.3688 21.8975 33.1778 21.1763 32.7877 20.5602C32.6106 20.269 32.361 20.0288 32.0631 19.8631C31.7653 19.6974 31.4296 19.6118 31.0888 19.6148L31.1003 19.6119ZM31.0544 20.3855H31.0716C31.2706 20.3719 31.4674 20.434 31.6226 20.5594C31.7777 20.6848 31.8797 20.8642 31.9082 21.0616C31.9432 21.251 31.9671 21.4424 31.9798 21.6346C31.8989 22.7629 31.6657 23.875 31.2865 24.9407C31.1047 25.5038 30.8924 26.0566 30.6505 26.5966C30.4995 26.9079 30.3067 27.197 30.0775 27.4561C29.9173 27.6401 29.7226 27.7909 29.5045 27.9002H29.4902C29.3363 27.9743 29.1682 28.0143 28.9974 28.0176C28.7811 28.0186 28.5727 27.936 28.4158 27.7871C28.2588 27.6382 28.1654 27.4344 28.1551 27.2183C28.1334 27.0281 28.1228 26.8368 28.1236 26.6453C28.1258 26.275 28.1555 25.9054 28.2124 25.5395C28.3969 24.3208 28.766 23.1374 29.3068 22.0299C29.5451 21.5877 29.8334 21.1743 30.1663 20.798C30.2774 20.6772 30.4132 20.5817 30.5645 20.518C30.7157 20.4542 30.8789 20.4237 31.043 20.4284L31.0544 20.3855Z" fill="#1C1C1B"/>
<path id="Vector_15" d="M9.59362 15.2312C9.31704 15.2312 9.05179 15.3411 8.85622 15.5366C8.66065 15.7322 8.55078 15.9975 8.55078 16.274C8.55078 16.5506 8.66065 16.8159 8.85622 17.0114C9.05179 17.207 9.31704 17.3169 9.59362 17.3169C9.73177 17.3211 9.86936 17.2974 9.99807 17.247C10.1268 17.1966 10.2439 17.1206 10.3425 17.0237C10.441 16.9268 10.5189 16.8109 10.5714 16.683C10.6239 16.5551 10.6499 16.418 10.6479 16.2798C10.6468 16.1417 10.6184 16.0052 10.5642 15.8782C10.5101 15.7512 10.4314 15.6362 10.3325 15.5398C10.2337 15.4434 10.1168 15.3675 9.98849 15.3165C9.86019 15.2655 9.72307 15.2404 9.58502 15.2427L9.59362 15.2312Z" fill="#1C1C1B"/>
</g>
<defs>
<clipPath id="clip0_3395_21131">
<rect width="100" height="34" fill="white"/>
</clipPath>
</defs>
</svg>
