<svg width="96" height="32" viewBox="0 0 96 32" fill="none" xmlns="http://www.w3.org/2000/svg">
<g clip-path="url(#clip0_3395_21285)">
<path d="M95.1008 23.4051C95.1008 30.6919 91.9895 31.4679 88.4298 31.4679V15.6724C91.785 15.6724 92.125 18.0052 92.125 21.4417H92.4132V9.49161H92.125C92.125 12.9404 91.7973 15.3866 88.4298 15.3866V0.529637C91.9895 0.529637 94.8545 1.10362 94.8545 8.55058H95.1402V0H82.3747V0.285759H84.6583V31.7118H82.3673V32H95.3792V23.4051H95.1008ZM60.9724 12.3566V0.285759H63.2634V0H54.9173V0.285759H57.2083V31.7118H54.9173V32H67.9292V23.4051H67.6409C67.6409 30.6919 64.5321 31.7118 60.9724 31.7118V12.3566ZM33.515 12.3566V0.285759H35.806V0H27.4574V0.285759H29.7484V31.7118H27.4574V32H40.4693V23.4051H40.1835C40.1835 30.6919 37.0747 31.7118 33.515 31.7118V12.3566ZM12.7261 23.4051C12.7261 30.6919 9.61724 31.4679 6.05758 31.4679V15.6724C9.41031 15.6724 9.74041 18.0052 9.74041 21.4417H10.0163V9.49161H9.73056C9.73056 12.9404 9.40046 15.3866 6.04773 15.3866V0.529637C9.60739 0.529637 12.4699 1.10362 12.4699 8.55058H12.7557V0H0V0.285759H2.29099V31.7118H0V32H13.0119V23.4051H12.7261Z" fill="black"/>
</g>
<defs>
<clipPath id="clip0_3395_21285">
<rect width="96" height="32" fill="white"/>
</clipPath>
</defs>
</svg>
