<svg width="142" height="29" viewBox="0 0 142 29" fill="none" xmlns="http://www.w3.org/2000/svg">
<g clip-path="url(#clip0_3395_21186)">
<path d="M8.69609 10.2914C8.69609 5.82668 8.17323 4.16102 7.06175 4.16102C6.12247 4.16102 5.18319 4.84356 5.18319 13.9984C5.18319 23.1533 5.67161 23.8359 7.06175 23.8359C8.55833 23.8359 8.90586 21.3374 8.97474 17.4425L12.8007 17.6303C12.8007 22.3236 12.1746 27.9969 6.88641 27.9969C2.04912 28 0.449219 22.8559 0.449219 14.0016C0.449219 3.70703 3.3015 0 6.88641 0C12.1057 0 12.7319 5.22241 12.7319 10.1411L8.69609 10.2914Z" fill="black"/>
<path d="M17.3508 16.8382C17.3508 22.6649 17.977 23.839 19.0196 23.839C20.0622 23.839 20.6883 22.6649 20.6883 16.8382V11.1618C20.6883 5.33512 20.0622 4.16102 19.0196 4.16102C17.977 4.16102 17.3508 5.33512 17.3508 11.1618V16.8382ZM19.0196 0C23.0209 0 25.6289 3.36889 25.6289 14.0016C25.6289 24.6342 23.0209 28.0031 19.0196 28.0031C15.0182 28.0031 12.4102 24.6342 12.4102 14.0016C12.4102 3.36889 15.0182 0 19.0196 0Z" fill="black"/>
<path d="M29.4135 19.6748C29.4135 21.1871 29.4135 23.8358 31.361 23.8358C32.8575 23.8358 33.3773 22.3236 33.3773 21.2246C33.3773 16.4186 25.168 15.3228 25.168 7.33892C25.1711 3.29375 27.1874 0 31.0134 0C35.0836 0 36.6491 3.36889 36.7555 8.21245H32.7198C32.7198 6.70021 32.7198 4.16415 30.9101 4.16415C29.8331 4.16415 29.2037 5.14727 29.2037 6.62507C29.2037 11.2025 37.413 12.7554 37.413 20.5859C37.413 24.7094 35.2558 28.0031 31.1856 28.0031C26.3483 28.0031 25.3746 23.3881 25.3746 19.678H29.4104L29.4135 19.6748Z" fill="black"/>
<path d="M36.8711 0.529907H42.8919L44.9082 14.3405H44.9771L47.0998 0.529907H52.9797V27.4716H48.944V7.71855H48.8751L45.813 27.4716H43.3083L40.2807 7.71855H40.2118V27.4716H36.8711V0.529907Z" fill="black"/>
<path d="M57.9219 16.8382C57.9219 22.6649 58.548 23.839 59.5906 23.839C60.6332 23.839 61.2594 22.6649 61.2594 16.8382V11.1618C61.2594 5.33512 60.6332 4.16102 59.5906 4.16102C58.548 4.16102 57.9219 5.33512 57.9219 11.1618V16.8382ZM59.5906 0C63.592 0 66.2032 3.36889 66.2032 14.0016C66.2032 24.6342 63.5951 28.0031 59.5938 28.0031C55.5924 28.0031 52.9844 24.6342 52.9844 14.0016C52.9844 3.36889 55.5893 0 59.5906 0Z" fill="black"/>
<path d="M70.7579 12.7531H71.1398C72.9839 12.7531 73.9921 11.9578 73.9921 8.70479C73.9921 4.80677 72.602 4.69406 71.1054 4.69406H70.7579V12.7531ZM66.1992 0.529907H70.7234C75.8362 0.529907 78.5163 2.76227 78.5163 8.58895C78.5163 13.4325 76.7755 16.6856 72.5331 16.6856H70.7234V27.4685H66.1992V0.529907Z" fill="black"/>
<path d="M83.1281 16.8382C83.1281 22.6649 83.7543 23.839 84.7969 23.839C85.8395 23.839 86.4657 22.6649 86.4657 16.8382V11.1618C86.4657 5.33512 85.8395 4.16102 84.7969 4.16102C83.7543 4.16102 83.1281 5.33512 83.1281 11.1618V16.8382ZM84.7969 0C88.7982 0 91.4063 3.36889 91.4063 14.0016C91.4063 24.6342 88.7982 28.0031 84.7969 28.0031C80.7956 28.0031 78.1875 24.6342 78.1875 14.0016C78.1875 3.36889 80.7987 0 84.7969 0Z" fill="black"/>
<path d="M91.4102 0.529907H95.9312V23.3106H101.708V27.4716H91.4102V0.529907Z" fill="black"/>
<path d="M106.43 0.529907H101.906V27.4716H106.43V0.529907Z" fill="black"/>
<path d="M110.55 4.69406H106.652V0.529907H118.969V4.69406H115.071V27.4716H110.55V4.69406Z" fill="black"/>
<path d="M122.518 4.69406H122.449L121.021 17.5591H123.839L122.518 4.69406ZM119.631 0.533038H126.171L129.233 27.4748H124.885L124.224 21.4947H120.57L119.944 27.4748H116.152L119.631 0.529907V0.533038Z" fill="black"/>
<path d="M137.84 0.529907V14.7569H137.771L133.632 0.529907H129.211V27.4716H133.04V11.1626H133.109L137.943 27.4716H141.422V0.529907H137.84Z" fill="black"/>
</g>
<defs>
<clipPath id="clip0_3395_21186">
<rect width="142" height="29" fill="white"/>
</clipPath>
</defs>
</svg>
