<svg width="156" height="26" viewBox="0 0 156 26" fill="none" xmlns="http://www.w3.org/2000/svg">
<g clip-path="url(#clip0_3395_21163)">
<path d="M69.8187 23.9679L69.814 8.86772H61.967C61.967 8.86772 62.2335 14.3164 61.8198 15.3753C61.1185 17.6777 55.4642 17.3505 55.4642 14.667C55.4642 11.5488 61.2237 12.0841 61.2237 12.0841L60.6487 8.86304C60.6487 8.86304 47.3391 7.62417 46.7009 14.7395C46.5583 19.6973 55.3917 21.766 61.925 19.3256V25.2138L69.8187 23.9702V23.9679Z" fill="black"/>
<path d="M98.0085 17.237C97.9314 17.1575 96.4939 17.5152 95.4513 17.2604C94.3013 16.9799 94.2265 16.1197 94.2265 14.9743V8.8501H85.6035V14.6307C85.6035 15.3132 85.6596 16.9729 83.2403 16.9729C82.1534 16.9729 80.9122 16.8817 80.9122 15.3132V8.8501H72.3359L72.3429 16.2155C72.3429 20.4136 79.3858 21.6969 86.6203 18.9574C86.6203 18.9574 90.0073 21.6338 98.476 19.6656C98.476 19.6656 98.1067 17.3445 98.0062 17.2393" fill="black"/>
<path d="M113.282 10.0327C113.338 9.12806 115.587 8.89431 115.725 9.94151C115.725 9.94151 113.223 11.0097 113.282 10.0327ZM132.412 16.5823C132.194 16.5098 130.61 16.8651 128.838 16.2527C126.002 15.271 125.568 11.4679 128.934 9.29402L125.783 6.62695C120.224 8.76809 119.081 8.92003 118.562 9.03924C118.303 8.28423 117.097 7.01498 114.539 7.16691C113.149 7.24872 111.08 8.03178 110.482 9.45297C110.08 10.4113 110.323 11.4889 111.258 12.2229C112.604 13.2841 115.175 13.02 115.175 13.02C114.366 16.4117 107.314 18.7328 107.314 15.0957V8.85925H98.9414V16.1031C98.9414 19.7215 103.383 20.6589 107.742 20.3714C113.843 19.9693 117.277 16.4678 118.527 12.6881L121.503 12.0008C121.503 12.0008 117.429 17.3116 122.513 19.7239C125.413 21.1007 130.745 20.0394 132.889 18.8964C132.889 18.8964 132.533 16.622 132.41 16.5823" fill="black"/>
<path d="M28.2485 16.3171C28.2485 16.3171 30.4107 14.9474 32.636 12.9979C32.636 12.9979 34.5504 14.1175 35.4269 15.4476C35.4269 15.4476 32.3742 14.8679 28.2485 16.3171ZM35.1721 17.5279C34.2535 18.6593 30.6561 18.6499 30.9086 17.9089C31.1797 17.1119 34.749 17.3106 35.1721 17.5279ZM44.293 16.5789C45.0831 15.7772 45.034 14.8024 44.3655 13.7389C43.3767 12.1704 40.6465 11.2518 39.992 10.0082C39.7045 9.46128 39.7162 8.81145 40.1416 8.01203L39.9944 7.3552L30.78 8.37434C30.2354 9.60386 30.7917 10.5622 30.8314 10.6744C24.1743 17.8038 13.3797 17.8669 13.0922 15.3541C12.8234 12.9979 20.2029 12.4766 20.2029 12.4766L20.0579 10.1275C20.0579 10.1275 15.0861 10.5178 15.0113 8.9891C14.9342 7.4113 19.5858 6.90173 22.2809 6.869L21.5937 3.08228C12.8632 2.98644 4.703 4.91019 3.95267 8.20838C3.72827 9.19714 4.38744 10.9386 7.9895 11.6632V11.7894C7.9895 11.7894 0.425399 12.9862 0.476824 16.268C0.523573 19.1876 7.0475 20.4849 11.657 20.5176C20.9953 20.583 25.9157 17.4882 25.9157 17.4882C24.6114 21.0575 34.8332 21.49 41.9321 18.9281C42.2711 18.8065 44.9966 19.9683 46.6539 20.6999C46.6539 20.6999 47.7127 18.1614 47.5725 17.8178C47.4439 17.5046 44.2953 16.5813 44.2953 16.5813" fill="black"/>
<path d="M144.211 15.9299C144.211 14.275 149.923 13.7186 149.923 13.7186L149.844 12.0614C149.012 12.038 145.76 12.1572 145.76 11.2877C145.76 10.1516 150.734 9.87581 152.478 9.8127L152.121 7.16199C149.115 7.17134 135.613 7.2064 135.062 10.8599C134.762 12.8327 138.65 13.2979 138.65 13.2979V13.3914C138.65 13.3914 133.559 14.3334 133.559 16.7971C133.559 21.825 151.115 20.4155 155.66 19.165C155.66 19.165 155.22 16.9327 155.019 16.8275C154.837 16.734 151.153 17.2786 148.226 17.1992C145.847 17.136 144.211 16.7574 144.211 15.9252" fill="black"/>
<path d="M103.196 7.58748C105.29 7.58748 106.99 5.88813 106.99 3.79374C106.99 1.69935 105.29 0 103.196 0C101.102 0 99.4023 1.69935 99.4023 3.79374C99.4023 5.88813 101.102 7.58748 103.196 7.58748Z" fill="black"/>
</g>
<defs>
<clipPath id="clip0_3395_21163">
<rect width="156" height="26" fill="white"/>
</clipPath>
</defs>
</svg>
