<svg width="125" height="32" viewBox="0 0 125 32" fill="none" xmlns="http://www.w3.org/2000/svg">
<g clip-path="url(#clip0_3395_21253)">
<path d="M76.8137 3.79245C76.8137 3.80298 76.8242 3.80824 76.8453 3.80824H77.2715V3.87665H75.8173V3.80824H76.1962C76.2173 3.80824 76.2278 3.80298 76.2278 3.79245V2.32068H74.8385V3.79245C74.8385 3.80298 74.8472 3.80824 74.8683 3.80824H75.2472V3.87665H73.793V3.80824H74.2192C74.2403 3.80824 74.2508 3.80298 74.2508 3.79245V0.903293C74.2508 0.892768 74.2403 0.887505 74.2192 0.887505H73.793V0.819092H75.2472V0.887505H74.8683C74.8472 0.887505 74.8385 0.892768 74.8385 0.903293V2.25227H76.2278V0.903293C76.2278 0.892768 76.2173 0.887505 76.1962 0.887505H75.8173V0.819092H77.2715V0.887505H76.8453C76.8242 0.887505 76.8137 0.892768 76.8137 0.903293V3.79245Z" fill="black"/>
<path d="M80.8518 2.5382C80.7184 2.5382 80.6272 2.47505 80.6272 2.37155C80.6272 2.27683 80.6851 2.28209 80.6851 2.21192C80.6851 2.14176 80.6395 2.10843 80.5676 2.10843C80.4957 2.10843 80.3606 2.13298 80.2606 2.43997V3.79245C80.2606 3.80298 80.2711 3.80824 80.2904 3.80824H80.55V3.87665H79.5273V3.80824H79.787C79.808 3.80824 79.8185 3.80298 79.8185 3.79245V2.12246C79.8185 2.11193 79.808 2.10667 79.787 2.10667H79.5273V2.04001H80.2466L80.2588 2.05229V2.33822C80.336 2.10141 80.5009 2.00317 80.6974 2.00317C80.9324 2.00317 81.0886 2.12772 81.0886 2.32068C81.0886 2.44172 80.9938 2.53996 80.8518 2.53996" fill="black"/>
<path d="M84.6904 3.91363C85.022 3.91363 85.2903 3.75224 85.4693 3.5049L85.4184 3.4628C85.2518 3.69961 85.0272 3.84521 84.6904 3.84521C84.5659 3.84521 84.4676 3.82241 84.3817 3.74522C84.2413 3.62068 84.1992 3.47332 84.1992 2.95584C84.1992 2.91724 84.1992 2.90672 84.1992 2.87164H85.5079L85.5219 2.85936C85.5219 2.51027 85.2816 1.99805 84.6904 1.99805C84.1431 1.99805 83.7344 2.42607 83.7344 2.95408C83.7344 3.48209 84.1449 3.91012 84.6904 3.91012M84.9325 2.1647C85.0325 2.27872 85.0658 2.45238 85.0728 2.80322H84.1992C84.2098 2.45414 84.2536 2.27872 84.3817 2.1647C84.4676 2.08926 84.5659 2.06471 84.6904 2.06471C84.7957 2.06471 84.8641 2.08751 84.9325 2.1647Z" fill="black"/>
<path d="M78.1755 3.82946C78.4089 3.82946 78.5615 3.66281 78.5615 3.50318V2.8664C78.4527 2.93131 78.2948 2.93131 78.1563 2.95587C78.0001 2.98394 77.8317 3.06638 77.8317 3.46283C77.8317 3.76455 78.0299 3.82946 78.1773 3.82946M77.6265 2.37523C77.6265 2.22262 77.8177 2.00159 78.1896 2.00159C78.7351 2.00159 79.0035 2.24016 79.0035 2.78045V3.65579C79.0035 3.75753 79.0544 3.80139 79.1246 3.80139C79.2088 3.80139 79.2772 3.73298 79.2947 3.68912L79.3403 3.73298C79.3123 3.81016 79.1719 3.9119 78.9965 3.9119C78.7948 3.9119 78.6176 3.79613 78.586 3.63299C78.5211 3.81718 78.3439 3.9119 78.0913 3.9119C77.6703 3.9119 77.3984 3.76455 77.3984 3.46108C77.3984 3.00849 77.8808 2.905 78.065 2.88921C78.3264 2.86816 78.5597 2.85062 78.5597 2.7594V2.50679C78.5597 2.19981 78.4246 2.06825 78.1878 2.06825C78.0685 2.06825 77.9949 2.12438 77.9949 2.25068C77.9949 2.3226 78.0335 2.34541 78.0335 2.41558C78.0335 2.49276 77.9703 2.56995 77.8212 2.56995C77.6721 2.56995 77.623 2.47171 77.623 2.37348" fill="black"/>
<path d="M82.747 2.16648C82.6681 2.09281 82.5611 2.06825 82.4453 2.06825C82.2874 2.06825 82.1418 2.1735 82.0418 2.29103V3.5751C82.1015 3.72771 82.2787 3.84524 82.4453 3.84524C82.5593 3.84524 82.6663 3.82244 82.747 3.74701C82.8786 3.62422 82.9663 3.40845 82.9663 2.96639C82.9663 2.52434 82.8786 2.28752 82.747 2.16473M83.4136 2.96639C83.4136 3.44353 83.0084 3.9119 82.4453 3.9119C82.2734 3.9119 82.1418 3.80314 82.0418 3.69965V5.12405C82.0418 5.13458 82.0524 5.13984 82.0717 5.13984H82.333V5.20825H81.3103V5.13984H81.57C81.591 5.13984 81.5998 5.13458 81.5998 5.12405V2.12263C81.5998 2.1121 81.591 2.10684 81.57 2.10684H81.3086V2.04018H82.0278L82.0401 2.05246V2.2156C82.1401 2.11035 82.2716 2.00159 82.4436 2.00159C83.0067 2.00159 83.4119 2.49101 83.4119 2.96815" fill="black"/>
<path d="M88.9997 2.05424C89.0488 2.05424 89.0751 2.03319 89.0804 2.01565H89.154V2.47174H89.0804C89.0804 2.20686 88.8436 2.07179 88.619 2.07179C88.3945 2.07179 88.2734 2.17528 88.2734 2.34193C88.2734 2.55419 88.4261 2.6612 88.7716 2.75943C89.133 2.86117 89.3716 3.03835 89.3716 3.31551C89.3716 3.66459 89.0891 3.9172 88.6383 3.9172C88.3699 3.9172 88.2541 3.79265 88.1138 3.79265C88.0261 3.79265 87.9787 3.85229 87.9682 3.88562H87.8945L87.9208 3.27867H87.9945C87.9822 3.59618 88.2787 3.84878 88.6383 3.84878C88.9102 3.84878 89.0646 3.72424 89.0646 3.49444C89.0646 3.26464 88.8821 3.17167 88.5506 3.06992C88.2261 2.97169 87.9998 2.83837 87.9998 2.55419C87.9998 2.21563 88.3278 2.00513 88.619 2.00513C88.8085 2.00513 88.826 2.056 88.9997 2.056" fill="black"/>
<path d="M87.6501 1.41558C87.6501 1.29103 87.7554 1.19104 87.8834 1.19104C88.022 1.19104 88.1273 1.29278 88.1273 1.44189C88.1273 1.66116 87.929 1.91903 87.6571 2.08217L87.6133 2.03481C87.8098 1.92078 87.9518 1.78045 88.036 1.58047C87.9992 1.62082 87.9501 1.63836 87.8852 1.63836C87.7554 1.63836 87.6519 1.53837 87.6519 1.41382" fill="black"/>
<path d="M87.057 2.5382C86.9237 2.5382 86.8325 2.47505 86.8325 2.37155C86.8325 2.27683 86.8904 2.28209 86.8904 2.21192C86.8904 2.14176 86.8448 2.10843 86.7729 2.10843C86.7009 2.10843 86.5659 2.13298 86.4659 2.43997V3.79245C86.4659 3.80298 86.4746 3.80824 86.4957 3.80824H86.7571V3.87665H85.7344V3.80824H85.9957C86.0168 3.80824 86.0256 3.80298 86.0256 3.79245V2.12246C86.0256 2.11193 86.015 2.10667 85.9957 2.10667H85.7344V2.04001H86.4536L86.4676 2.05229V2.33822C86.5448 2.10141 86.7097 2.00317 86.9062 2.00317C87.1412 2.00317 87.2974 2.12772 87.2974 2.32068C87.2974 2.44172 87.2026 2.53996 87.0605 2.53996" fill="black"/>
<path d="M22.2014 29.8651C21.9593 30.8685 21.926 30.9703 21.6787 30.9703H18.9141V31.1668H25.1765V30.9703H22.3102C22.1242 30.9703 22.1558 30.8352 22.3803 29.9178L24.3065 22.1888H31.9319L34.2597 30.9703H31.1618V31.1668H41.5835V30.9703H38.3435L29.7041 0H29.6515L22.2032 29.8651H22.2014ZM27.9955 7.38515L31.874 21.9923H24.3626L27.9955 7.38515Z" fill="black"/>
<path d="M8.20962 2.19786C12.1741 2.19786 13.788 5.31331 13.788 9.43391C13.788 13.2931 12.1741 16.377 8.20962 16.377H6.40631V2.19786H8.20962ZM0 1.99963V2.1961H2.50674C2.68918 2.1961 2.77338 2.24873 2.77338 2.35574V31.9648C2.77338 32.07 2.68918 32.1244 2.50674 32.1244H0V32.3209H9.34809C15.3702 32.3226 18.5822 29.7317 18.5822 24.4972C18.5822 20.8748 16.6824 17.1874 10.6901 16.4524C15.7825 15.9595 17.5384 12.6564 17.5384 9.43566C17.5384 4.72565 14.8001 2.00314 8.77974 2.00314H0V1.99963ZM8.20962 16.5735C12.6811 16.5735 14.4528 19.7223 14.4528 24.4972C14.4528 28.6178 12.8705 32.1262 9.15864 32.1262H6.6712C6.48876 32.1244 6.40456 32.0718 6.40456 31.9648V16.5717H8.20787L8.20962 16.5735Z" fill="black"/>
<path d="M109.508 15.7141H111.892C114.004 15.7141 117.12 16.6544 117.12 20.4732V27.3883C117.12 30.2178 118.632 32 121.298 32C124.1 32 124.056 29.0758 124.056 26.9673V24.7447H123.866V26.9673C123.866 29.367 123.591 31.4492 122.224 31.4492C121.014 31.4492 120.753 30.6739 120.753 27.4198V20.475C120.753 17.2613 118.232 16.0842 114.339 15.6176C119.188 15.0212 121.014 11.8216 121.014 8.28335C121.014 3.05059 118.676 0.85083 112.654 0.85083H103.105V1.04555H105.612C105.793 1.04555 105.879 1.09817 105.879 1.20518V30.8142C105.879 30.9195 105.795 30.9738 105.612 30.9738H103.105V31.1703H111.885V30.9738H109.777C109.596 30.9738 109.51 30.9212 109.51 30.8142V15.7176L109.508 15.7141ZM109.508 1.04555H112.082C116.046 1.04555 117.165 4.16099 117.165 8.28159C117.165 12.1408 116.046 15.5176 112.082 15.5176H109.508V1.04555Z" fill="black"/>
<path d="M64.0786 29.8615C63.8365 30.8649 63.8032 30.9649 63.5576 30.9649H60.793V31.1613H67.0537V30.9649H64.1873C64.0014 30.9649 64.033 30.8298 64.2593 29.9123L66.1854 22.1834H73.8091L76.1369 30.9631H73.039V31.1596H83.4589V30.9631H80.2189L71.5795 0.00158691H71.5269L64.0786 29.8615ZM69.8709 7.38674L73.7494 21.9904H66.238L69.8692 7.38674H69.8709Z" fill="black"/>
<path d="M47.5272 30.8125C47.4974 30.8826 47.5325 30.9668 47.6781 30.9668H54.5177C56.6227 30.9686 59.3417 27.7514 59.3417 17.3824V16.3035H59.5312V31.165H43.2031L55.5719 1.19816C55.6035 1.12799 55.5667 1.04379 55.4211 1.04379H48.1605C46.2554 1.04555 43.4873 4.64164 43.4873 14.6335V15.7124H43.2979V0.85083H59.9118L47.529 30.8125H47.5272Z" fill="black"/>
<path d="M84.6645 29.8651C84.4224 30.8685 84.3891 30.9703 84.1435 30.9703H81.3789V31.1668H87.6414V30.9703H84.775C84.5891 30.9703 84.6207 30.8352 84.8452 29.9178L86.7713 22.1888H94.3968L96.7246 30.9703H93.6267V31.1668H104.048V30.9703H100.808L92.1654 0H92.1128L84.6628 29.8651H84.6645ZM90.4586 7.38515L94.3389 21.9923H86.8257L90.4586 7.38515Z" fill="black"/>
</g>
<defs>
<clipPath id="clip0_3395_21253">
<rect width="125" height="32" fill="white"/>
</clipPath>
</defs>
</svg>
