<svg width="93" height="28" viewBox="0 0 93 28" fill="none" xmlns="http://www.w3.org/2000/svg">
<g clip-path="url(#clip0_3395_21235)">
<path d="M87.808 2.29693C85.7748 4.5058 78.8512 12.0848 75.3387 15.4218C67.1451 23.1967 64.2945 21.7444 64.2945 21.7444C65.5442 21.0486 69.0162 19.0357 72.63 15.0773C75.9398 11.4431 76.899 6.18778 75.4805 3.82355C74.0215 1.39177 70.5495 -1.10755 63.1868 3.8911C61.7547 4.86381 60.4308 6.11347 59.269 7.52526C57.2831 9.65982 54.6757 12.3483 51.4334 15.4218C43.2398 23.1967 40.3893 21.7444 40.3893 21.7444C41.6389 21.0486 45.1109 19.0357 48.7247 15.0773C52.0346 11.4431 52.9937 6.18778 51.5752 3.82355C50.1162 1.39177 46.6442 -1.10755 39.2815 3.8911C37.7346 4.94487 36.3094 6.31612 35.08 7.87651C33.1414 9.95028 30.6353 12.5172 27.5686 15.4218C19.3751 23.1967 16.5245 21.7444 16.5245 21.7444C17.7742 21.0486 21.2461 19.0357 24.86 15.0773C28.1698 11.4431 29.129 6.18778 27.7105 3.82355C26.2515 1.39177 22.7795 -1.10755 15.4167 3.8911C10.4182 7.28883 6.51391 14.2667 6.62874 19.7922C5.62903 20.1367 3.60258 20.6636 0.468353 20.7312L0.191406 26.9862C2.06924 26.939 5.43314 26.939 9.08074 25.5677C9.30364 25.7636 9.54006 25.946 9.79674 26.1149C16.3489 30.438 22.5025 27.4658 30.6894 20.2786C30.8785 22.6023 31.7972 24.676 33.6547 26.1149C38.8965 30.1813 46.3132 27.4456 54.5879 20.2381C54.7703 22.582 55.6889 24.6625 57.56 26.1149C62.9436 30.2894 70.617 27.297 79.1551 19.6571C82.8838 16.3202 90.0101 8.65333 92.1919 6.35665L87.808 2.29693ZM13.6065 16.3945C13.6065 16.3945 17.3689 8.20751 21.746 7.14023C24.2183 6.53904 19.7871 13.6858 13.6065 16.3945ZM37.4712 16.3945C37.4712 16.3945 41.2336 8.20751 45.6107 7.14023C48.083 6.53904 43.6518 13.6858 37.4712 16.3945ZM61.3765 16.3945C61.3765 16.3945 65.1389 8.20751 69.516 7.14023C71.9883 6.53904 67.5571 13.6858 61.3765 16.3945Z" fill="black"/>
</g>
<defs>
<clipPath id="clip0_3395_21235">
<rect width="93" height="28" fill="white"/>
</clipPath>
</defs>
</svg>
