<svg width="158" height="89" viewBox="0 0 158 89" fill="none" xmlns="http://www.w3.org/2000/svg">
<g filter="url(#filter0_d_3258_18164)">
<path fill-rule="evenodd" clip-rule="evenodd" d="M149 5.00195L56.9997 5.00195C56.9615 8.83511 53.8423 11.9307 50.0001 11.9307C46.1579 11.9307 43.0387 8.83511 43.0005 5.00195L7 5.00195L6.99988 77.002L43.0004 77.002C43.0002 76.9789 43.0001 76.9558 43.0001 76.9326C43.0001 73.0666 46.1341 69.9326 50.0001 69.9326C53.8661 69.9326 57.0001 73.0666 57.0001 76.9326C57.0001 76.9558 57 76.9789 56.9998 77.002L149 77.002L149 5.00195Z" fill="white"/>
<rect width="3" height="72" transform="matrix(-1 0 0 1 10 5)" fill="#410C86"/>
<g clip-path="url(#clip0_3258_18164)">
<path d="M23.6836 56.1632L23.6836 57.6848L28.0214 57.6848L28.0214 56.1572L26.5028 56.1572L26.5028 55.2463L28.0224 55.2463L28.0224 53.7326L23.6836 53.7326L23.6836 55.2502L25.112 55.2502L25.112 56.1632L23.6836 56.1632Z" fill="#111111"/>
<path d="M23.6758 38.9367L23.6758 39.0361L28.0197 39.0361L28.0197 37.5434L26.6593 37.5434C26.6786 37.5125 26.6989 37.4996 26.7212 37.4877C27.13 37.2768 27.5378 37.066 27.9477 36.8581C27.9477 36.8581 27.9477 36.8581 27.9487 36.8581C28.0035 36.8303 28.0258 36.8005 28.0258 36.7378L28.0258 36.7358C28.0258 36.6941 28.0258 36.6523 28.0258 36.6115C28.0248 36.3609 28.0248 36.1093 28.0248 35.8587L28.0248 35.1943C28.0248 35.1714 28.0207 35.1486 28.0167 35.1128C27.4262 35.4887 26.847 35.8577 26.2637 36.2286C26.2545 36.2057 26.2454 36.1888 26.2424 36.1709C26.1774 35.8557 25.9776 35.6498 25.6854 35.5225C25.514 35.4479 25.3344 35.4221 25.1518 35.4221C25.0981 35.4221 25.0443 35.424 24.9915 35.428C24.4437 35.4668 24.045 35.7194 23.832 36.2266C23.7174 36.5001 23.6778 36.7875 23.6778 37.0819C23.6778 37.2549 23.6778 37.429 23.6778 37.602C23.6778 37.7751 23.6778 37.9481 23.6778 38.1212L23.6778 38.9377M24.8089 37.3196C24.8089 37.2788 24.811 37.239 24.817 37.2003C24.817 37.1983 24.817 37.1953 24.8181 37.1933C24.8546 36.9765 24.9966 36.8721 25.2309 36.8721C25.2451 36.8721 25.2604 36.8721 25.2756 36.8731C25.4775 36.884 25.6215 37.0252 25.6367 37.2371C25.6398 37.2739 25.6398 37.3097 25.6398 37.3465L25.6398 37.3474C25.6398 37.3763 25.6398 37.4051 25.6388 37.435C25.6388 37.4688 25.6377 37.5026 25.6377 37.5384L24.814 37.5384C24.814 37.4996 24.812 37.4608 24.811 37.422C24.8099 37.3882 24.8079 37.3534 24.8079 37.3206L24.8089 37.3196Z" fill="#111111"/>
<path d="M23.6797 44.3844C23.6797 44.452 23.704 44.4789 23.7669 44.5007L23.769 44.5007C24.964 44.9125 26.157 45.3272 27.351 45.7409C27.5752 45.8185 27.7994 45.8951 28.0307 45.9746C28.0307 45.8533 28.0307 45.733 28.0307 45.6126C28.0307 45.4923 28.0307 45.3799 28.0307 45.2635C28.0307 44.9851 28.0307 44.7076 28.0317 44.4301C28.0317 44.4182 28.0317 44.4063 28.0317 44.3943C28.0317 44.3386 28.0013 44.3287 27.9607 44.3187C27.9607 44.3187 27.9597 44.3187 27.9587 44.3187C27.8238 44.2879 27.6898 44.2521 27.5539 44.2253L27.5529 44.2253C27.5509 44.2253 27.5498 44.2253 27.5478 44.2243C27.5001 44.2133 27.488 44.1914 27.488 44.1457L27.488 44.1437C27.488 44.1298 27.488 44.1149 27.488 44.1009C27.488 43.9488 27.489 43.7966 27.489 43.6445C27.489 43.4973 27.489 43.3491 27.488 43.2019C27.488 43.183 27.488 43.1641 27.488 43.1462L27.488 43.1442C27.488 43.0945 27.5012 43.0716 27.5519 43.0587C27.5539 43.0587 27.5559 43.0577 27.558 43.0567C27.7142 43.0229 27.8694 42.9801 28.0277 42.9403L28.0277 41.3083C28.0003 41.3143 27.981 41.3163 27.9637 41.3223C26.5638 41.7976 25.1638 42.273 23.7629 42.7474C23.7619 42.7474 23.7598 42.7474 23.7588 42.7484C23.7 42.7693 23.6827 42.7991 23.6827 42.8598L23.6827 42.8618C23.6837 43.1184 23.6848 43.3749 23.6848 43.6315C23.6848 43.8702 23.6848 44.1089 23.6827 44.3486C23.6827 44.3605 23.6827 44.3724 23.6827 44.3834L23.6827 44.3854M26.437 43.9359C25.9693 43.8314 25.5027 43.728 25.1263 43.6435C25.5017 43.5599 25.9683 43.4555 26.437 43.3511L26.437 43.9359Z" fill="#111111"/>
<path d="M23.5781 31.1994C23.5781 31.3635 23.5933 31.5226 23.6258 31.6678C23.777 32.359 24.3055 32.9 25.0684 32.9368C25.0937 32.9378 25.1191 32.9388 25.1444 32.9388C25.6568 32.9388 26.0686 32.6832 26.2553 32.2029C26.3182 32.0417 26.3466 31.8677 26.3973 31.7006C26.4308 31.5922 26.4643 31.4808 26.5201 31.3834C26.5556 31.3217 26.6093 31.2919 26.6641 31.2919C26.7229 31.2919 26.7828 31.3267 26.8234 31.3943C26.8416 31.4241 26.8538 31.457 26.8619 31.4908C26.8751 31.5465 26.8812 31.6012 26.8812 31.6549C26.8812 31.7852 26.8457 31.9115 26.7919 32.0308C26.7919 32.0308 26.7919 32.0318 26.7919 32.0328C26.7919 32.0328 26.7919 32.0328 26.7919 32.0338C26.7919 32.0338 26.7919 32.0358 26.7909 32.0358C26.6905 32.2546 26.5688 32.4634 26.4501 32.6862C26.4551 32.6882 26.4724 32.6971 26.4896 32.7041C26.8061 32.8304 27.1226 32.9577 27.4392 33.083C27.5244 33.1168 27.5771 33.1377 27.6147 33.1377C27.6745 33.1377 27.7009 33.088 27.7658 32.9597C28.0002 32.4982 28.1412 32.0219 28.1412 31.5236C28.1412 31.3496 28.1239 31.1715 28.0874 30.9915C28.0874 30.9895 28.0874 30.9876 28.0864 30.9866C28.0864 30.9846 28.0864 30.9836 28.0854 30.9816C27.9545 30.3521 27.4371 29.6927 26.5383 29.6808C26.5312 29.6808 26.5251 29.6808 26.518 29.6808C25.9611 29.6808 25.5299 29.9801 25.3656 30.5062C25.3433 30.5788 25.3311 30.6544 25.3078 30.727C25.2469 30.9159 25.1911 31.1079 25.116 31.2919C25.0958 31.3406 25.0197 31.3893 24.9629 31.3983C24.9568 31.3993 24.9497 31.3993 24.9436 31.3993C24.8726 31.3993 24.833 31.3307 24.8056 31.267C24.7924 31.2352 24.7863 31.1994 24.7833 31.1656C24.7833 31.1646 24.7833 31.1636 24.7833 31.1626C24.7803 31.1288 24.7782 31.0959 24.7782 31.0631C24.7782 30.8463 24.8503 30.6474 24.9578 30.4565C24.9598 30.4525 24.9618 30.4495 24.9639 30.4455L24.9659 30.4416C25.0105 30.363 25.0623 30.2884 25.114 30.2069C24.7295 30.0517 24.3532 29.8995 23.9778 29.7474C23.7232 30.1432 23.5781 30.6981 23.5781 31.2014L23.5781 31.1994Z" fill="#111111"/>
<path d="M23.6836 48.0869L23.6836 50.8975L28.0224 50.8975L28.0224 48.0502L26.8375 48.0502L26.8375 49.4067L26.3952 49.4067L26.3952 48.2053L25.2712 48.2053L25.2712 49.4047L24.8614 49.4047L24.8614 48.087L23.6836 48.0869Z" fill="#111111"/>
<path d="M23.6836 27.4326L25.1049 27.4326L25.1049 26.5942L28.0224 26.5942L28.0224 25.0746L25.0998 25.0746L25.0998 24.2362L23.6836 24.2362L23.6836 27.4326Z" fill="#111111"/>
<path d="M30.3086 38.2786C30.3086 38.3184 30.3147 38.3582 30.3289 38.3989C30.3289 38.3999 30.3289 38.4019 30.3299 38.4029C30.3644 38.5034 30.4253 38.5949 30.477 38.6953C30.3553 38.8564 30.3106 39.0235 30.3106 39.1806C30.3106 39.2791 30.3279 39.3736 30.3553 39.4601C30.3553 39.4601 30.3553 39.4611 30.3553 39.4621C30.4922 39.9036 30.8047 40.196 31.2338 40.3502C31.4103 40.4138 31.5848 40.4506 31.7522 40.4496C32.0311 40.4496 32.2929 40.3472 32.5211 40.0966L32.5404 40.0926C32.5566 40.1403 32.5708 40.1891 32.5891 40.2368C32.6713 40.4486 32.791 40.6346 32.9898 40.7599C33.0821 40.8176 33.1805 40.8465 33.2759 40.8465C33.4088 40.8465 33.5356 40.7908 33.6299 40.6814C33.6807 40.6217 33.7263 40.5511 33.7517 40.4785C33.8166 40.2905 33.8673 40.0966 33.9262 39.9066C33.9951 39.6858 34.0509 39.4601 34.1412 39.2483C34.2031 39.1031 34.3127 39.0285 34.4324 39.0285C34.5206 39.0285 34.614 39.0702 34.6961 39.1548C34.7803 39.2413 34.8493 39.3527 34.8929 39.4651C34.8929 39.4661 34.8929 39.4671 34.894 39.469C34.9548 39.6312 34.9792 39.7992 34.9792 39.9693C34.9792 40.0638 34.9721 40.1592 34.9599 40.2537C34.9426 40.387 34.9092 40.5252 34.8473 40.6426C34.7519 40.8236 34.619 40.9131 34.4729 40.9131C34.3674 40.9131 34.2538 40.8654 34.1433 40.7699L34.1209 40.751C34.0783 40.7192 34.0327 40.6913 33.984 40.6913C33.9596 40.6913 33.9343 40.6983 33.9089 40.7162C33.9089 40.7162 33.9069 40.7172 33.9059 40.7182C33.9049 40.7182 33.9028 40.7201 33.9018 40.7211C33.8541 40.7569 33.8318 40.8047 33.8318 40.8584C33.8318 40.8793 33.8349 40.9012 33.842 40.923C33.842 40.923 33.842 40.924 33.842 40.925C33.842 40.925 33.842 40.926 33.842 40.927C33.9099 41.1438 34.0509 41.3009 34.2711 41.3706C34.334 41.3905 34.3948 41.4004 34.4547 41.4004C34.6008 41.4004 34.7347 41.3407 34.8534 41.2323C34.9863 41.111 35.0735 40.9588 35.1283 40.7908C35.1283 40.7898 35.1283 40.7878 35.1293 40.7868C35.2125 40.5322 35.25 40.2756 35.251 40.017C35.251 39.833 35.2318 39.6471 35.1952 39.4621C35.1932 39.4511 35.1912 39.4402 35.1892 39.4303C35.1263 39.122 34.9822 38.8564 34.7225 38.6635C34.5805 38.5581 34.4212 38.5073 34.267 38.5073C34.0357 38.5073 33.8146 38.6217 33.6766 38.8385C33.6178 38.931 33.5711 39.0354 33.5396 39.1409C33.4727 39.3656 33.421 39.5944 33.3621 39.8211C33.3226 39.9713 33.2911 40.1234 33.2384 40.2696C33.2089 40.3512 33.1511 40.392 33.0892 40.3929C33.0395 40.3929 32.9878 40.3671 32.9431 40.3144C32.8985 40.2617 32.8579 40.199 32.8397 40.1334C32.793 39.9663 32.7514 39.7962 32.724 39.6252C32.6459 39.1279 32.2939 38.5451 31.6294 38.4188C31.5057 38.395 31.3819 38.381 31.2591 38.381C31.0857 38.381 30.9132 38.4109 30.7458 38.4855C30.7387 38.4884 30.7316 38.4894 30.7235 38.4894C30.7063 38.4894 30.687 38.4845 30.6697 38.4845C30.6768 38.4596 30.6768 38.4288 30.6921 38.4099C30.7184 38.378 30.756 38.3562 30.7844 38.3263C30.7854 38.3243 30.7874 38.3233 30.7884 38.3214C30.8351 38.2706 30.8584 38.2149 30.8584 38.1593C30.8584 38.1274 30.8503 38.0956 30.8361 38.0648C30.7996 37.9892 30.7215 37.9464 30.6251 37.9464C30.6139 37.9464 30.6028 37.9464 30.5916 37.9484C30.5896 37.9484 30.5876 37.9484 30.5855 37.9484C30.4232 37.9673 30.3096 38.1105 30.3086 38.2766L30.3086 38.2786ZM30.5724 39.1488C30.5724 39.0215 30.6697 38.9191 30.8331 38.8872C30.8331 38.8872 30.8371 38.8872 30.8392 38.8862C30.9021 38.8743 30.9639 38.8693 31.0248 38.8693C31.1526 38.8693 31.2794 38.8912 31.4052 38.9211C31.6761 38.9857 31.9388 39.0702 32.1793 39.2115C32.302 39.2831 32.3984 39.3795 32.4319 39.5217C32.439 39.5526 32.443 39.5824 32.443 39.6113C32.443 39.7793 32.3243 39.9126 32.1397 39.9355C32.1397 39.9355 32.1397 39.9355 32.1387 39.9355C32.1377 39.9355 32.1366 39.9355 32.1346 39.9355C32.0839 39.9414 32.0322 39.9414 31.9956 39.9424C31.5696 39.9176 31.1973 39.7813 30.8605 39.5575C30.7692 39.4969 30.686 39.4123 30.6281 39.3209C30.5906 39.2612 30.5734 39.2025 30.5724 39.1478" fill="#111111"/>
<path d="M30.3086 24.7816C30.3086 24.8184 30.3147 24.8562 30.3258 24.8939C30.3258 24.8939 30.3258 24.8939 30.3258 24.8949C30.3258 24.8959 30.3258 24.8969 30.3269 24.8989C30.3603 24.9994 30.4212 25.0919 30.476 25.2003C30.475 25.2022 30.4729 25.2052 30.4719 25.2072C30.4719 25.2082 30.4709 25.2092 30.4699 25.2102C30.4699 25.2102 30.4699 25.2112 30.4689 25.2122C30.3603 25.3932 30.3106 25.5304 30.3106 25.6806C30.3106 25.7283 30.3157 25.7781 30.3258 25.8308C30.3258 25.8308 30.3258 25.8358 30.3269 25.8387C30.4364 26.3867 30.7986 26.7209 31.316 26.883C31.4651 26.9297 31.6122 26.9566 31.7552 26.9556C32.0342 26.9556 32.2939 26.8541 32.513 26.6095C32.6114 26.7776 32.6855 26.9546 32.8042 27.0968C32.9492 27.2708 33.1166 27.3554 33.2739 27.3544C33.4778 27.3544 33.6654 27.2122 33.7689 26.9397C33.844 26.7418 33.8825 26.5309 33.9475 26.329C34.0144 26.1182 34.0753 25.9024 34.1727 25.7055C34.2305 25.5881 34.3238 25.5314 34.4273 25.5314C34.5003 25.5314 34.5785 25.5603 34.6535 25.617C34.7895 25.7194 34.8696 25.8586 34.9142 26.0188C34.9142 26.0207 34.9153 26.0237 34.9163 26.0257C34.9163 26.0277 34.9173 26.0307 34.9183 26.0327C34.9183 26.0327 34.9183 26.0337 34.9183 26.0347C34.9599 26.1868 34.9782 26.341 34.9782 26.4951C34.9782 26.5677 34.9741 26.6413 34.967 26.7149C34.967 26.7159 34.967 26.7179 34.967 26.7189C34.967 26.7209 34.967 26.7229 34.967 26.7249C34.9518 26.8611 34.9203 27.0023 34.8605 27.1257C34.7671 27.3176 34.6322 27.4141 34.4801 27.4141C34.3756 27.4141 34.2619 27.3683 34.1473 27.2768L34.124 27.2599C34.0824 27.2231 34.0377 27.1933 33.9891 27.1933C33.9657 27.1933 33.9414 27.2002 33.916 27.2162C33.915 27.2162 33.914 27.2181 33.913 27.2181C33.913 27.2181 33.913 27.2181 33.912 27.2181C33.912 27.2181 33.9099 27.2191 33.9099 27.2201C33.8582 27.2559 33.8349 27.3047 33.8349 27.3604C33.8349 27.3832 33.8389 27.4071 33.847 27.432C33.847 27.432 33.847 27.433 33.847 27.434C33.9434 27.7283 34.1909 27.9004 34.4476 27.9014C34.5876 27.9014 34.7306 27.8507 34.8534 27.7403C34.9873 27.6189 35.0735 27.4668 35.1303 27.2997C35.1303 27.2977 35.1313 27.2957 35.1323 27.2927C35.1323 27.2927 35.1323 27.2907 35.1334 27.2898C35.1334 27.2878 35.1344 27.2868 35.1354 27.2848C35.1364 27.2808 35.1374 27.2778 35.1394 27.2738C35.1394 27.2738 35.1394 27.2738 35.1394 27.2728C35.2196 27.0282 35.2531 26.7796 35.2531 26.5299C35.2531 26.3758 35.2399 26.2206 35.2176 26.0645C35.2176 26.0625 35.2176 26.0595 35.2165 26.0575C35.2165 26.0556 35.2165 26.0526 35.2155 26.0506C35.2155 26.0506 35.2155 26.0486 35.2155 26.0476C35.2155 26.0456 35.2155 26.0446 35.2155 26.0426C35.1679 25.7274 35.0441 25.4459 34.7996 25.2261C34.6454 25.0889 34.4719 25.0143 34.2822 25.0143C34.2112 25.0143 34.1382 25.0242 34.0631 25.0451C33.8125 25.1157 33.6665 25.3017 33.5833 25.5324C33.5183 25.7105 33.4747 25.8964 33.426 26.0804C33.3662 26.3032 33.3134 26.5289 33.2526 26.7517C33.2343 26.8203 33.1947 26.88 33.1115 26.8909C33.1024 26.8919 33.0943 26.8929 33.0852 26.8929C33.0131 26.8929 32.9594 26.8532 32.9259 26.7945C32.8782 26.7129 32.8305 26.6264 32.8082 26.5359C32.7656 26.3678 32.7474 26.1928 32.7058 26.0237C32.584 25.5334 32.3172 25.1515 31.8171 24.9755C31.6416 24.9138 31.4651 24.88 31.2875 24.88C31.107 24.88 30.9264 24.9148 30.7479 24.9904C30.7428 24.9924 30.7367 24.9934 30.7296 24.9934C30.7113 24.9934 30.691 24.9864 30.6728 24.9844C30.6809 24.9596 30.6819 24.9297 30.6981 24.9118C30.7316 24.8731 30.7763 24.8452 30.8087 24.8064C30.8087 24.8064 30.8087 24.8064 30.8097 24.8054C30.8097 24.8054 30.8108 24.8034 30.8118 24.8034C30.8463 24.7607 30.8655 24.7139 30.8655 24.6652C30.8655 24.6344 30.8574 24.6026 30.8412 24.5707C30.8412 24.5707 30.8412 24.5707 30.8412 24.5697C30.8412 24.5697 30.8412 24.5697 30.8412 24.5687C30.7976 24.4862 30.7245 24.4514 30.6312 24.4514C30.6292 24.4514 30.6271 24.4514 30.6251 24.4514C30.4476 24.4544 30.3157 24.6035 30.3147 24.7816L30.3086 24.7816ZM30.5764 25.6408C30.5764 25.5096 30.6819 25.4141 30.8473 25.3872C30.8513 25.3872 30.8554 25.3862 30.8594 25.3852C30.9203 25.3763 30.9812 25.3723 31.042 25.3723C31.1851 25.3723 31.3261 25.3962 31.462 25.4399C31.6943 25.5145 31.9256 25.5961 32.1448 25.7005C32.2472 25.7502 32.3426 25.8487 32.4004 25.9481C32.4004 25.9481 32.4004 25.9491 32.4014 25.9501C32.4339 26.0068 32.4491 26.0635 32.4491 26.1192C32.4491 26.2704 32.3345 26.4026 32.1539 26.4374C32.1103 26.4464 32.0646 26.4484 32.0281 26.4534C31.5696 26.4235 31.1587 26.2863 30.8016 26.0177C30.7123 25.9501 30.6322 25.8447 30.5947 25.7413L30.5947 25.7393L30.5947 25.7373C30.5835 25.7045 30.5784 25.6727 30.5784 25.6438M32.5242 26.6045C32.5242 26.6045 32.5272 26.6025 32.5272 26.6035C32.5272 26.6035 32.5262 26.6035 32.5242 26.6045Z" fill="#111111"/>
<path d="M30.3166 44.4979C30.3166 44.5386 30.3237 44.5834 30.3389 44.6301L30.3389 44.6311C30.3389 44.6321 30.3389 44.6341 30.3399 44.6351L30.3399 44.6371C30.3795 44.7554 30.4566 44.8708 30.5428 44.9653C30.7203 45.1622 30.9526 45.2925 31.1849 45.4178C31.2022 45.4277 31.2235 45.4317 31.2509 45.4417C31.2509 45.4178 31.2509 45.3939 31.2509 45.3721C31.2509 45.3551 31.2509 45.3382 31.2509 45.3223L31.2509 45.3213C31.2509 45.2995 31.2509 45.2776 31.2529 45.2557C31.2529 45.2547 31.2529 45.2527 31.2529 45.2517C31.2529 45.2457 31.2529 45.2398 31.2529 45.2338C31.2529 45.1831 31.2306 45.1533 31.1849 45.1224C31.1839 45.1224 31.1829 45.1204 31.1809 45.1204C31.1788 45.1204 31.1778 45.1184 31.1758 45.1175C31.049 45.0369 30.9252 44.9494 30.8116 44.8519C30.769 44.8151 30.7558 44.7455 30.7294 44.6908C30.769 44.6908 30.8096 44.6838 30.8481 44.6838C30.8694 44.6838 30.8897 44.6858 30.909 44.6918C31.4619 44.8529 32.0127 45.018 32.5646 45.1831C32.8882 45.2796 33.2098 45.38 33.5436 45.4815C33.5436 45.4327 33.5436 45.385 33.5436 45.3382C33.5436 45.2955 33.5436 45.2527 33.5436 45.2109C33.5436 45.1463 33.5436 45.0817 33.5466 45.017C33.5466 45.014 33.5466 45.011 33.5466 45.0081C33.5466 44.9514 33.5253 44.9255 33.4675 44.9066C33.4675 44.9066 33.4675 44.9066 33.4665 44.9066C33.4665 44.9066 33.4644 44.9066 33.4634 44.9066C33.0556 44.7773 32.6447 44.654 32.243 44.5078C31.7652 44.3338 31.3199 44.0951 30.9344 43.7629C30.8339 43.6764 30.7447 43.571 30.6736 43.4606C30.6736 43.4606 30.6736 43.4596 30.6726 43.4586C30.6726 43.4586 30.6716 43.4566 30.6706 43.4556C30.6554 43.4298 30.6483 43.392 30.6483 43.3542C30.6483 43.3184 30.6554 43.2836 30.6696 43.2607C30.697 43.2189 30.7923 43.2149 30.8583 43.206C30.8623 43.206 30.8674 43.206 30.8715 43.206C30.9039 43.206 30.9384 43.2199 30.9709 43.2308C31.4081 43.3741 31.8433 43.5222 32.2816 43.6615C32.5484 43.746 32.8162 43.8296 33.0881 43.8902C33.1195 43.8972 33.151 43.9002 33.1804 43.9002C33.3741 43.9002 33.5314 43.7619 33.578 43.563C33.578 43.562 33.578 43.561 33.578 43.56C33.5872 43.5183 33.5922 43.4775 33.5922 43.4367C33.5922 43.2965 33.5365 43.1682 33.4523 43.0508C33.4523 43.0508 33.4523 43.0499 33.4512 43.0489C33.4512 43.0489 33.4492 43.0459 33.4482 43.0449C33.2585 42.7853 32.9876 42.6272 32.7056 42.476C32.7056 42.477 32.7056 42.479 32.7056 42.48C32.7056 42.483 32.7056 42.485 32.7056 42.487C32.7056 42.487 32.7056 42.4879 32.7056 42.4889C32.6975 42.5586 32.6914 42.6103 32.6914 42.651L32.6914 42.652C32.6914 42.7614 32.735 42.7913 32.8892 42.8947C32.8902 42.8947 32.8913 42.8957 32.8923 42.8967C32.9663 42.9464 33.0404 43.0001 33.1043 43.0618C33.154 43.1095 33.1976 43.1682 33.2281 43.2289C33.2281 43.2289 33.2281 43.2289 33.2281 43.2299C33.2352 43.2438 33.2382 43.2617 33.2382 43.2796L33.2382 43.2806C33.2382 43.3035 33.2331 43.3273 33.225 43.3462C33.225 43.3472 33.224 43.3492 33.223 43.3502C33.2189 43.3582 33.1976 43.3621 33.1733 43.3621C33.154 43.3621 33.1337 43.3601 33.1185 43.3552C32.7989 43.2577 32.4804 43.1553 32.1608 43.0558C31.7885 42.9405 31.4203 42.8132 31.0429 42.7157C30.979 42.6988 30.9171 42.6908 30.8593 42.6908C30.5844 42.6908 30.3754 42.8629 30.3237 43.1364C30.3237 43.1364 30.3237 43.1374 30.3237 43.1384C30.3166 43.1742 30.3135 43.209 30.3135 43.2428C30.3135 43.3949 30.3754 43.5342 30.4647 43.6645C30.6087 43.8733 30.8065 44.0265 31.0135 44.1687C31.0419 44.1886 31.0703 44.2085 31.116 44.2413C31.0206 44.2254 30.9516 44.2114 30.8816 44.2035C30.8207 44.1965 30.7599 44.1886 30.699 44.1886C30.6889 44.1886 30.6797 44.1886 30.6696 44.1886C30.4484 44.1985 30.3125 44.3198 30.3125 44.4999L30.3166 44.4979Z" fill="#111111"/>
<path d="M30.3125 29.7389C30.3125 29.8801 30.3663 30.0114 30.4464 30.1347C30.4464 30.1347 30.4464 30.1357 30.4474 30.1367C30.5783 30.3386 30.7619 30.4878 30.9567 30.627C31.0023 30.6588 31.048 30.6917 31.0764 30.7116C30.9587 30.7086 30.8339 30.6966 30.7081 30.6966C30.6655 30.6966 30.6229 30.6976 30.5803 30.7016C30.4109 30.7155 30.3166 30.8428 30.3145 31.0099L30.3145 31.0159C30.3145 31.1362 30.3571 31.2426 30.4271 31.3371C30.4271 31.3371 30.4271 31.3381 30.4281 31.3391C30.4281 31.3391 30.4281 31.3391 30.4292 31.3401C30.4292 31.3401 30.4292 31.3401 30.4292 31.3411C30.4292 31.3421 30.4312 31.3431 30.4312 31.3441C30.6392 31.6186 30.9333 31.7827 31.2458 31.9527C31.2458 31.9249 31.2458 31.899 31.2448 31.8741C31.2448 31.8582 31.2448 31.8423 31.2448 31.8274C31.2448 31.8035 31.2448 31.7817 31.2478 31.7588C31.2478 31.7508 31.2488 31.7439 31.2488 31.7359C31.2488 31.6792 31.2184 31.6464 31.1677 31.6126C31.1677 31.6126 31.1657 31.6116 31.1657 31.6106C31.1657 31.6106 31.1646 31.6106 31.1636 31.6096C31.1636 31.6096 31.1636 31.6096 31.1626 31.6096C31.0338 31.5261 30.911 31.4336 30.7934 31.3361C30.7528 31.3023 30.7365 31.2406 30.7092 31.1919C30.7173 31.182 30.7264 31.172 30.7345 31.1631C30.8086 31.175 30.8857 31.179 30.9567 31.1999C31.6962 31.4206 32.4347 31.6444 33.1743 31.8672C33.293 31.903 33.4107 31.9388 33.5334 31.9756L33.5334 31.4455C33.0373 31.2745 32.5504 31.1183 32.0726 30.9363C31.6496 30.7752 31.258 30.5494 30.9181 30.2491C30.8187 30.1616 30.7284 30.0562 30.6615 29.9438C30.6615 29.9438 30.6615 29.9428 30.6615 29.9418C30.6392 29.903 30.629 29.8672 30.629 29.8354C30.629 29.7479 30.7051 29.6912 30.8248 29.6981C30.8248 29.6981 30.8299 29.6981 30.8319 29.6981C30.8319 29.6981 30.8329 29.6981 30.8339 29.6981C30.8725 29.7011 30.911 29.7071 30.9476 29.719C31.3361 29.8453 31.7226 29.9756 32.1111 30.0989C32.4266 30.1984 32.7421 30.3028 33.0637 30.3804C33.1033 30.3903 33.1418 30.3943 33.1783 30.3943C33.3823 30.3943 33.5375 30.2511 33.5831 30.0333C33.5831 30.0323 33.5831 30.0313 33.5831 30.0303L33.5831 30.0283C33.5892 29.9965 33.5922 29.9657 33.5922 29.9348C33.5922 29.8414 33.5659 29.7519 33.5222 29.6673C33.5202 29.6643 33.5192 29.6613 33.5172 29.6574C33.3417 29.3242 33.0272 29.1492 32.6955 28.9632C32.6955 28.9881 32.6965 29.0099 32.6975 29.0288C32.6975 29.0368 32.6975 29.0447 32.6975 29.0527L32.6975 29.0547C32.6975 29.0696 32.6975 29.0825 32.6944 29.0965C32.6914 29.1154 32.6894 29.1333 32.6894 29.1502C32.6894 29.2436 32.7411 29.3033 32.8324 29.362C32.8324 29.362 32.8324 29.362 32.8334 29.362C32.8334 29.362 32.8355 29.363 32.8365 29.364C32.8365 29.364 32.8365 29.364 32.8375 29.364C32.8375 29.364 32.8395 29.365 32.8405 29.366C32.9785 29.4535 33.0962 29.5758 33.2108 29.6932C33.2281 29.7111 33.2301 29.7439 33.2301 29.7787L33.2301 29.8075C33.2301 29.8175 33.2301 29.8274 33.2311 29.8364C33.2311 29.8384 33.2311 29.8414 33.2311 29.8433C33.1997 29.8433 33.1672 29.8503 33.1368 29.8503C33.1226 29.8503 33.1083 29.8483 33.0952 29.8453C32.7573 29.7409 32.4226 29.6295 32.0858 29.5261C31.7297 29.4157 31.3757 29.2973 31.0145 29.2078C30.9587 29.1939 30.9049 29.187 30.8532 29.187C30.5854 29.187 30.3744 29.362 30.3226 29.6325C30.3226 29.6335 30.3226 29.6355 30.3226 29.6375C30.3166 29.6723 30.3135 29.7061 30.3135 29.7399L30.3125 29.7389Z" fill="#111111"/>
<path d="M30.3125 34.7213C30.3125 34.7949 30.3267 34.8705 30.351 34.9491C30.351 34.9501 30.3521 34.9521 30.3521 34.954C30.3784 35.0386 30.4109 35.1241 30.4586 35.1977C30.976 36.0043 31.7094 36.4796 32.6833 36.5751C32.7168 36.5781 32.7502 36.5801 32.7837 36.5801C32.9633 36.5801 33.1378 36.5323 33.293 36.4289C33.2981 36.4259 33.3031 36.422 33.3082 36.419C33.4908 36.2927 33.5912 36.1156 33.5912 35.9227C33.5912 35.8372 33.572 35.7487 33.5314 35.6592C33.5314 35.6592 33.5314 35.6582 33.5304 35.6572C33.4715 35.5289 33.3823 35.4125 33.293 35.3021C33.2098 35.1997 33.1073 35.1112 33.0079 35.0117C33.0292 35.0117 33.0475 35.0117 33.0657 35.0117C33.0759 35.0117 33.087 35.0117 33.0972 35.0117C33.0992 35.0117 33.1023 35.0117 33.1043 35.0117C33.3995 35.0157 33.5933 34.8437 33.5933 34.6179C33.5933 34.5443 33.573 34.4657 33.5283 34.3852C33.5273 34.3832 33.5263 34.3822 33.5253 34.3802C33.3285 34.0291 33.0018 33.8233 32.6204 33.6612C32.6204 33.685 32.6204 33.7079 32.6214 33.7288C32.6214 33.7427 32.6214 33.7557 32.6214 33.7676C32.6214 33.7845 32.6214 33.8004 32.6194 33.8163C32.6194 33.8193 32.6194 33.8213 32.6194 33.8243C32.6194 33.8243 32.6194 33.8263 32.6194 33.8273C32.6194 33.8352 32.6184 33.8422 32.6184 33.8491C32.6184 33.9068 32.6458 33.9426 32.7005 33.9764C32.7016 33.9764 32.7036 33.9784 32.7056 33.9794C32.7056 33.9794 32.7076 33.9804 32.7087 33.9814C32.8192 34.0451 32.9268 34.1187 33.0241 34.2012C33.086 34.2539 33.1388 34.3235 33.1753 34.3951C33.1875 34.42 33.1946 34.4419 33.1946 34.4608C33.1946 34.5095 33.153 34.5344 33.0789 34.5274C33.0789 34.5274 33.0789 34.5274 33.0779 34.5274C33.0049 34.5204 32.9328 34.4996 32.8628 34.4777C32.0746 34.232 31.2864 33.9844 30.4971 33.7377C30.4596 33.7258 30.42 33.7169 30.3734 33.7039C30.3734 33.7437 30.3734 33.7815 30.3734 33.8183C30.3734 33.8491 30.3734 33.879 30.3734 33.9078L30.3734 33.9088C30.3734 33.9317 30.3734 33.9545 30.3734 33.9774C30.3734 33.9993 30.3734 34.0202 30.3734 34.0411L30.3734 34.045C30.3734 34.052 30.3734 34.059 30.3734 34.0659C30.3734 34.0749 30.3734 34.0838 30.3724 34.0928C30.3724 34.1087 30.3703 34.1256 30.3703 34.1415C30.3703 34.1485 30.3703 34.1564 30.3703 34.1634C30.3744 34.236 30.4048 34.2947 30.5448 34.2927L30.5468 34.2927C30.5468 34.2927 30.5448 34.2937 30.5448 34.2947C30.5428 34.2957 30.5418 34.2967 30.5397 34.2977C30.3774 34.424 30.3135 34.5672 30.3135 34.7233L30.3125 34.7213ZM30.6128 34.7183C30.6128 34.5682 30.7305 34.4647 30.9262 34.4757C30.9283 34.4757 30.9303 34.4757 30.9323 34.4757C31.1129 34.4876 31.2945 34.5354 31.47 34.5841C31.8453 34.6885 32.2146 34.8118 32.5565 35.0018C32.8 35.137 33.0069 35.3101 33.1641 35.5368C33.1641 35.5368 33.1641 35.5368 33.1641 35.5378C33.1641 35.5388 33.1652 35.5398 33.1662 35.5408C33.1672 35.5428 33.1682 35.5438 33.1692 35.5458C33.221 35.6204 33.2696 35.6999 33.2696 35.7855C33.2696 35.8203 33.2615 35.8561 33.2423 35.8919C33.2423 35.8919 33.2423 35.8939 33.2412 35.8939C33.1712 36.0212 33.0292 36.0222 32.8994 36.0271C32.8923 36.0271 32.8852 36.0271 32.8791 36.0271C32.8679 36.0271 32.8578 36.0271 32.8537 36.0271C32.8415 36.0271 32.8284 36.0271 32.8162 36.0271C32.6021 36.0271 32.4084 35.9754 32.2177 35.9088C31.8362 35.7765 31.4741 35.6015 31.1413 35.3747C31.0277 35.2972 30.9202 35.2096 30.8218 35.1142C30.7538 35.0485 30.695 34.968 30.6544 34.8834C30.6544 34.8834 30.6544 34.8824 30.6544 34.8814C30.6544 34.8795 30.6523 34.8775 30.6513 34.8765C30.6239 34.8188 30.6118 34.7631 30.6118 34.7134L30.6128 34.7183Z" fill="#111111"/>
<path d="M30.3203 56.0556C30.3203 56.1351 30.3416 56.2177 30.3893 56.2982C30.3893 56.3002 30.3913 56.3022 30.3923 56.3032C30.4563 56.4096 30.5496 56.5041 30.6449 56.5867C30.858 56.7716 31.1075 56.894 31.3936 56.9755C31.3936 56.9516 31.3936 56.9288 31.3936 56.9069C31.3936 56.89 31.3936 56.8731 31.3936 56.8562C31.3936 56.8323 31.3936 56.8094 31.3967 56.7866C31.3967 56.7796 31.3977 56.7736 31.3977 56.7677C31.3977 56.714 31.3682 56.6871 31.3155 56.6622C31.3145 56.6622 31.3125 56.6612 31.3114 56.6603C31.1856 56.6046 31.0568 56.5479 30.9442 56.4713C30.8529 56.4096 30.7788 56.3221 30.7038 56.2406C30.7038 56.2406 30.7028 56.2386 30.7017 56.2376C30.7017 56.2376 30.7007 56.2366 30.6997 56.2356C30.6855 56.2167 30.6754 56.1859 30.6754 56.162C30.6754 56.153 30.6764 56.1451 30.6794 56.1391C30.6896 56.1172 30.7403 56.1053 30.7748 56.1053L30.7788 56.1053C30.8357 56.1073 30.8935 56.1172 30.9483 56.1342C31.9404 56.4275 32.9325 56.7189 33.9227 57.0183C34.1377 57.0829 34.3487 57.1645 34.5537 57.255C34.7352 57.3355 34.8732 57.4698 34.9422 57.6598C34.9422 57.6607 34.9422 57.6617 34.9432 57.6627C34.9432 57.6627 34.9432 57.6637 34.9432 57.6647C34.9635 57.7224 34.9747 57.7741 34.9747 57.8199C34.9747 57.9462 34.8955 58.0307 34.7352 58.0824C34.7332 58.0824 34.7322 58.0834 34.7302 58.0844C34.6602 58.1063 34.5881 58.1302 34.5242 58.164C34.5242 58.164 34.5232 58.164 34.5222 58.164C34.5212 58.164 34.5202 58.165 34.5192 58.166C34.435 58.2127 34.3913 58.2913 34.3913 58.3818C34.3913 58.4027 34.3934 58.4245 34.3984 58.4474C34.3984 58.4474 34.3984 58.4484 34.3984 58.4494C34.3984 58.4494 34.3984 58.4494 34.3984 58.4504C34.3984 58.4514 34.3984 58.4524 34.3984 58.4534C34.4238 58.5628 34.5323 58.6483 34.6521 58.6553C34.6632 58.6553 34.6744 58.6563 34.6855 58.6563C34.7992 58.6563 34.9006 58.6195 34.9777 58.5369C35.0528 58.4564 35.1258 58.3659 35.1694 58.2664C35.2293 58.1312 35.2567 57.9959 35.2567 57.8606C35.2567 57.6946 35.2151 57.5285 35.14 57.3644C34.9777 57.0103 34.7018 56.7647 34.3426 56.6235C33.9663 56.4753 33.5808 56.347 33.1933 56.2306C32.5927 56.0496 31.9891 55.8786 31.3825 55.7174C31.1948 55.6677 30.9959 55.6309 30.8022 55.6309C30.789 55.6309 30.7768 55.6309 30.7636 55.6309C30.7636 55.6309 30.7626 55.6309 30.7616 55.6309C30.7586 55.6309 30.7545 55.6309 30.7515 55.6309C30.4907 55.6429 30.3234 55.8328 30.3234 56.0526L30.3203 56.0556Z" fill="#111111"/>
<path d="M30.3398 52.2783C30.3398 52.2872 30.3398 52.2972 30.3398 52.3061C30.348 52.5617 30.4555 52.7815 30.6219 52.9685C31.125 53.5353 31.7449 53.8098 32.457 53.8088C32.6011 53.8088 32.7482 53.7979 32.8993 53.775C33.3254 53.7124 33.579 53.4031 33.579 53.0262C33.579 52.9277 33.5618 52.8253 33.5263 52.7218C33.5252 52.7189 33.5242 52.7159 33.5232 52.7139C33.4218 52.4265 33.2321 52.1997 32.9886 52.0177C32.529 51.6736 32.0046 51.5115 31.4314 51.4986C31.1605 51.5016 30.9008 51.5374 30.6726 51.6895C30.4595 51.8317 30.3398 52.0247 30.3398 52.2783ZM30.6107 52.2753C30.6107 52.1331 30.7071 52.0296 30.8684 51.9958C30.8684 51.9958 30.8704 51.9958 30.8714 51.9958C30.8714 51.9958 30.8734 51.9958 30.8745 51.9958C30.8765 51.9958 30.8785 51.9958 30.8806 51.9948C30.9556 51.9809 31.0297 51.9749 31.1027 51.9749C31.2742 51.9749 31.4436 52.0078 31.6079 52.0525C31.9833 52.155 32.3556 52.2693 32.7228 52.3976C32.8648 52.4473 32.9957 52.5418 33.1154 52.6353C33.1895 52.694 33.2503 52.7835 33.2879 52.871L33.2879 52.873L33.2889 52.873C33.2889 52.874 33.2889 52.875 33.2899 52.876C33.3092 52.9227 33.3183 52.9675 33.3183 53.0102C33.3183 53.1495 33.2229 53.2619 33.0616 53.3036C32.9906 53.3215 32.9156 53.3235 32.8577 53.3315C32.1943 53.2827 31.5836 53.1167 31.0145 52.8113C30.9171 52.7586 30.8278 52.684 30.7517 52.6035C30.6949 52.5438 30.6513 52.4623 30.628 52.3827C30.6168 52.3449 30.6107 52.3091 30.6107 52.2753Z" fill="#111111"/>
<path d="M30.333 48.0605C30.333 48.0725 30.333 48.0844 30.333 48.0963C30.3432 48.3231 30.4304 48.525 30.5725 48.697C31.0756 49.3027 31.7117 49.5901 32.4472 49.5901C32.5912 49.5901 32.7393 49.5792 32.8915 49.5573C33.3227 49.4946 33.5722 49.1873 33.5722 48.8124C33.5722 48.699 33.5489 48.5787 33.5012 48.4573C33.5012 48.4573 33.5012 48.4573 33.5012 48.4563C33.5012 48.4544 33.5002 48.4534 33.4992 48.4514C33.3805 48.156 33.1745 47.9273 32.9128 47.7473C32.4665 47.4419 31.9694 47.2858 31.4236 47.2808C31.4155 47.2808 31.4063 47.2808 31.3982 47.2808C31.1375 47.2808 30.888 47.3226 30.6658 47.4708C30.4517 47.614 30.332 47.8069 30.332 48.0605L30.333 48.0605ZM30.6059 48.0764L30.6059 48.0705C30.608 47.9143 30.6891 47.8119 30.8453 47.7801C30.9204 47.7651 30.9985 47.7612 31.0472 47.7552C31.4703 47.7761 31.8466 47.8775 32.2189 47.9969C32.4178 48.0605 32.6146 48.1331 32.8043 48.2177C32.9138 48.2664 33.0163 48.339 33.1096 48.4166C33.1745 48.4703 33.2303 48.5429 33.2669 48.6175C33.2669 48.6194 33.2689 48.6214 33.2699 48.6224C33.2983 48.6811 33.3115 48.7388 33.3115 48.7925C33.3115 48.9417 33.209 49.063 33.0295 49.0849C33.0275 49.0849 33.0264 49.0849 33.0244 49.0849C32.9575 49.0928 32.8885 49.0958 32.8205 49.0958C32.6896 49.0958 32.5567 49.0839 32.4279 49.065C31.9957 49.0013 31.5778 48.874 31.1852 48.6851C31.028 48.6095 30.8849 48.5011 30.749 48.3907C30.749 48.3907 30.748 48.3907 30.7469 48.3897C30.7469 48.3897 30.7449 48.3877 30.7439 48.3867C30.7439 48.3867 30.7419 48.3857 30.7419 48.3847C30.7419 48.3847 30.7419 48.3847 30.7409 48.3837C30.7398 48.3837 30.7388 48.3817 30.7378 48.3808C30.6506 48.3052 30.607 48.1968 30.607 48.0764L30.6059 48.0764Z" fill="#111111"/>
<path d="M28.7862 55.5217L28.7862 55.5247C28.7882 55.7246 28.9525 55.8857 29.1554 55.8857C29.3624 55.8857 29.5247 55.7256 29.5247 55.5208L29.5247 55.5178C29.5237 55.3089 29.3664 55.1528 29.1575 55.1518L29.1534 55.1518C28.9475 55.1538 28.7862 55.3159 28.7852 55.5208L28.7862 55.5217Z" fill="#111111"/>
</g>
<path d="M50 14L49.9999 67" stroke="#CCCCCC" stroke-linecap="square" stroke-dasharray="0.58 4.05"/>
<path d="M73.738 41.2522C72.604 41.2522 71.596 41.0492 70.714 40.6432C69.832 40.2232 69.041 39.6772 68.341 39.0052L69.937 37.1362C70.525 37.6822 71.127 38.1162 71.743 38.4382C72.373 38.7462 73.031 38.9002 73.717 38.9002C74.599 38.9002 75.306 38.6692 75.838 38.2072C76.37 37.7452 76.636 37.1292 76.636 36.3592L76.636 36.3172C76.636 35.5612 76.349 34.9662 75.775 34.5322C75.215 34.0982 74.487 33.8812 73.591 33.8812C73.059 33.8812 72.569 33.9442 72.121 34.0702C71.673 34.1962 71.26 34.3502 70.882 34.5322L69.328 33.5032L69.748 26.3002L78.526 26.3002L78.526 28.5892L71.974 28.5892L71.743 32.0332C72.093 31.9072 72.443 31.8092 72.793 31.7392C73.157 31.6552 73.584 31.6132 74.074 31.6132C74.788 31.6132 75.453 31.7112 76.069 31.9072C76.699 32.0892 77.238 32.3762 77.686 32.7682C78.148 33.1462 78.512 33.6292 78.778 34.2172C79.044 34.7912 79.177 35.4632 79.177 36.2332L79.177 36.2752C79.177 37.0312 79.044 37.7172 78.778 38.3332C78.526 38.9352 78.162 39.4532 77.686 39.8872C77.21 40.3212 76.636 40.6572 75.964 40.8952C75.292 41.1332 74.55 41.2522 73.738 41.2522ZM81.1315 42.9742C82.4195 42.7222 83.0145 42.0642 82.9165 41.0002L81.8455 41.0002L81.8455 38.1232L84.6385 38.1232L84.6385 40.5592C84.6385 41.7352 84.3655 42.5892 83.8195 43.1212C83.2735 43.6532 82.4685 43.9612 81.4045 44.0452L81.1315 42.9742ZM93.6801 38.9212C94.2541 38.9212 94.7651 38.7882 95.2131 38.5222C95.6751 38.2422 96.0671 37.8712 96.3891 37.4092C96.7111 36.9332 96.9561 36.3802 97.1241 35.7502C97.3061 35.1062 97.3971 34.4202 97.3971 33.6922L97.3971 33.6502C97.3971 32.9222 97.3061 32.2432 97.1241 31.6132C96.9421 30.9692 96.6901 30.4092 96.3681 29.9332C96.0461 29.4572 95.6471 29.0792 95.1711 28.7992C94.7091 28.5192 94.1981 28.3792 93.6381 28.3792C93.0641 28.3792 92.5461 28.5192 92.0841 28.7992C91.6361 29.0652 91.2511 29.4362 90.9291 29.9122C90.6071 30.3742 90.3551 30.9272 90.1731 31.5712C90.0051 32.2012 89.9211 32.8802 89.9211 33.6082L89.9211 33.6502C89.9211 34.3782 90.0051 35.0642 90.1731 35.7082C90.3551 36.3382 90.6071 36.8912 90.9291 37.3672C91.2651 37.8432 91.6641 38.2212 92.1261 38.5012C92.5881 38.7812 93.1061 38.9212 93.6801 38.9212ZM93.6381 41.2522C92.6721 41.2522 91.7971 41.0562 91.0131 40.6642C90.2291 40.2722 89.5571 39.7332 88.9971 39.0472C88.4371 38.3612 88.0031 37.5632 87.6951 36.6532C87.4011 35.7292 87.2541 34.7422 87.2541 33.6922L87.2541 33.6502C87.2541 32.6002 87.4081 31.6132 87.7161 30.6892C88.0241 29.7652 88.4581 28.9602 89.0181 28.2742C89.5781 27.5882 90.2501 27.0492 91.0341 26.6572C91.8321 26.2512 92.7141 26.0482 93.6801 26.0482C94.6461 26.0482 95.5211 26.2442 96.3051 26.6362C97.0891 27.0282 97.7541 27.5672 98.3001 28.2532C98.8601 28.9392 99.2941 29.7442 99.6021 30.6682C99.9101 31.5782 100.064 32.5582 100.064 33.6082L100.064 33.6502C100.064 34.7002 99.9101 35.6872 99.6021 36.6112C99.2941 37.5352 98.8601 38.3402 98.3001 39.0262C97.7401 39.7122 97.0611 40.2582 96.2631 40.6642C95.4791 41.0562 94.6041 41.2522 93.6381 41.2522ZM108.876 38.9212C109.45 38.9212 109.961 38.7882 110.409 38.5222C110.871 38.2422 111.263 37.8712 111.585 37.4092C111.907 36.9332 112.152 36.3802 112.32 35.7502C112.502 35.1062 112.593 34.4202 112.593 33.6922L112.593 33.6502C112.593 32.9222 112.502 32.2432 112.32 31.6132C112.138 30.9692 111.886 30.4092 111.564 29.9332C111.242 29.4572 110.843 29.0792 110.367 28.7992C109.905 28.5192 109.394 28.3792 108.834 28.3792C108.26 28.3792 107.742 28.5192 107.28 28.7992C106.832 29.0652 106.447 29.4362 106.125 29.9122C105.803 30.3742 105.551 30.9272 105.369 31.5712C105.201 32.2012 105.117 32.8802 105.117 33.6082L105.117 33.6502C105.117 34.3782 105.201 35.0642 105.369 35.7082C105.551 36.3382 105.803 36.8912 106.125 37.3672C106.461 37.8432 106.86 38.2212 107.322 38.5012C107.784 38.7812 108.302 38.9212 108.876 38.9212ZM108.834 41.2522C107.868 41.2522 106.993 41.0562 106.209 40.6642C105.425 40.2722 104.753 39.7332 104.193 39.0472C103.633 38.3612 103.199 37.5632 102.891 36.6532C102.597 35.7292 102.45 34.7422 102.45 33.6922L102.45 33.6502C102.45 32.6002 102.604 31.6132 102.912 30.6892C103.22 29.7652 103.654 28.9602 104.214 28.2742C104.774 27.5882 105.446 27.0492 106.23 26.6572C107.028 26.2512 107.91 26.0482 108.876 26.0482C109.842 26.0482 110.717 26.2442 111.501 26.6362C112.285 27.0282 112.95 27.5672 113.496 28.2532C114.056 28.9392 114.49 29.7442 114.798 30.6682C115.106 31.5782 115.26 32.5582 115.26 33.6082L115.26 33.6502C115.26 34.7002 115.106 35.6872 114.798 36.6112C114.49 37.5352 114.056 38.3402 113.496 39.0262C112.936 39.7122 112.257 40.2582 111.459 40.6642C110.675 41.0562 109.8 41.2522 108.834 41.2522ZM124.073 38.9212C124.647 38.9212 125.158 38.7882 125.606 38.5222C126.068 38.2422 126.46 37.8712 126.782 37.4092C127.104 36.9332 127.349 36.3802 127.517 35.7502C127.699 35.1062 127.79 34.4202 127.79 33.6922L127.79 33.6502C127.79 32.9222 127.699 32.2432 127.517 31.6132C127.335 30.9692 127.083 30.4092 126.761 29.9332C126.439 29.4572 126.04 29.0792 125.564 28.7992C125.102 28.5192 124.591 28.3792 124.031 28.3792C123.457 28.3792 122.939 28.5192 122.477 28.7992C122.029 29.0652 121.644 29.4362 121.322 29.9122C121 30.3742 120.748 30.9272 120.566 31.5712C120.398 32.2012 120.314 32.8802 120.314 33.6082L120.314 33.6502C120.314 34.3782 120.398 35.0642 120.566 35.7082C120.748 36.3382 121 36.8912 121.322 37.3672C121.658 37.8432 122.057 38.2212 122.519 38.5012C122.981 38.7812 123.499 38.9212 124.073 38.9212ZM124.031 41.2522C123.065 41.2522 122.19 41.0562 121.406 40.6642C120.622 40.2722 119.95 39.7332 119.39 39.0472C118.83 38.3612 118.396 37.5632 118.088 36.6532C117.794 35.7292 117.647 34.7422 117.647 33.6922L117.647 33.6502C117.647 32.6002 117.801 31.6132 118.109 30.6892C118.417 29.7652 118.851 28.9602 119.411 28.2742C119.971 27.5882 120.643 27.0492 121.427 26.6572C122.225 26.2512 123.107 26.0482 124.073 26.0482C125.039 26.0482 125.914 26.2442 126.698 26.6362C127.482 27.0282 128.147 27.5672 128.693 28.2532C129.253 28.9392 129.687 29.7442 129.995 30.6682C130.303 31.5782 130.457 32.5582 130.457 33.6082L130.457 33.6502C130.457 34.7002 130.303 35.6872 129.995 36.6112C129.687 37.5352 129.253 38.3402 128.693 39.0262C128.133 39.7122 127.454 40.2582 126.656 40.6642C125.872 41.0562 124.997 41.2522 124.031 41.2522Z" fill="#111111"/>
<path d="M81.7895 50.0422L81.7896 52.5442L83.6616 52.5442L83.6615 50.0422L81.7895 50.0422ZM83.1847 54.9652L86.4337 54.9652L86.4337 55.7302L79.0537 55.7302L79.0537 54.9652L82.2577 54.9652L82.2576 53.2912L79.6926 53.2912L79.6926 52.5442L80.8626 52.5442L80.8625 50.0422L79.6655 50.0422L79.6655 49.2952L85.7765 49.2952L85.7765 50.0422L84.5795 50.0422L84.5796 52.5442L85.7586 52.5442L85.7586 53.2912L83.1846 53.2912L83.1847 54.9652ZM94.0378 48.5662L94.0379 54.4702L93.1109 54.4702L93.1108 48.5662L94.0378 48.5662ZM88.4039 51.1402C88.4039 51.8782 88.9349 52.3732 89.6549 52.3732C90.3659 52.3732 90.9059 51.8782 90.9059 51.1402C90.9058 50.3932 90.3658 49.9072 89.6548 49.9072C88.9348 49.9072 88.4038 50.3932 88.4039 51.1402ZM91.8059 51.1402C91.8059 52.3192 90.8789 53.1742 89.6549 53.1742C88.4309 53.1742 87.4949 52.3192 87.4949 51.1402C87.4948 49.9522 88.4308 49.1062 89.6548 49.1062C90.8788 49.1062 91.8058 49.9522 91.8059 51.1402ZM89.664 55.7842L94.272 55.7842L94.272 56.5402L88.728 56.5402L88.7279 53.8762L89.6639 53.8762L89.664 55.7842ZM102.164 52.8592L102.164 53.6062L96.5302 53.6062L96.5301 49.2232L102.101 49.2232L102.101 49.9702L97.4751 49.9702L97.4752 51.0142L101.921 51.0142L101.921 51.7432L97.4752 51.7432L97.4752 52.8592L102.164 52.8592ZM95.6213 54.9382L102.992 54.9382L102.992 55.6942L95.6213 55.6942L95.6213 54.9382ZM109.552 50.1772L109.552 50.0782L104.629 50.0782L104.629 49.3222L110.479 49.3222L110.479 50.1772C110.479 51.1942 110.479 52.2832 110.192 53.8582L109.265 53.7502C109.552 52.2652 109.552 51.1672 109.552 50.1772ZM108.518 54.8662L111.245 54.8662L111.245 55.6312L103.901 55.6312L103.901 54.8662L105.593 54.8662L105.592 52.2382L106.51 52.2382L106.511 54.8662L107.6 54.8662L107.599 52.2382L108.517 52.2382L108.518 54.8662ZM116.959 49.2952L116.959 49.9792L112.315 49.9792L112.315 49.2952L114.178 49.2952L114.178 48.5302L115.114 48.5302L115.114 49.2952L116.959 49.2952ZM113.575 51.5182C113.575 51.8962 113.989 52.1212 114.637 52.1212C115.285 52.1212 115.699 51.8962 115.699 51.5182C115.699 51.1312 115.285 50.8972 114.637 50.8972C113.989 50.8972 113.575 51.1312 113.575 51.5182ZM117.184 53.0482L117.256 53.6872C115.555 54.0112 113.62 54.0472 112.216 54.0562L112.108 53.3182C112.711 53.3182 113.431 53.3092 114.178 53.2912L114.178 52.7332C113.269 52.6252 112.702 52.1842 112.702 51.5182C112.702 50.7442 113.467 50.2672 114.637 50.2672C115.807 50.2672 116.572 50.7442 116.572 51.5182C116.572 52.1752 116.014 52.6252 115.114 52.7332L115.114 53.2462C115.816 53.2012 116.527 53.1472 117.184 53.0482ZM114.214 54.5152L114.214 55.7842L118.813 55.7842L118.813 56.5402L113.287 56.5402L113.287 54.5152L114.214 54.5152ZM118.543 51.3202L119.659 51.3202L119.659 52.0852L118.543 52.0852L118.543 54.9202L117.616 54.9202L117.616 48.5572L118.543 48.5572L118.543 51.3202Z" fill="#666666"/>
</g>
<defs>
<filter id="filter0_d_3258_18164" x="0" y="0" width="158" height="88.002" filterUnits="userSpaceOnUse" color-interpolation-filters="sRGB">
<feFlood flood-opacity="0" result="BackgroundImageFix"/>
<feColorMatrix in="SourceAlpha" type="matrix" values="0 0 0 0 0 0 0 0 0 0 0 0 0 0 0 0 0 0 127 0" result="hardAlpha"/>
<feOffset dx="1" dy="3"/>
<feGaussianBlur stdDeviation="4"/>
<feColorMatrix type="matrix" values="0 0 0 0 0 0 0 0 0 0 0 0 0 0 0 0 0 0 0.12 0"/>
<feBlend mode="normal" in2="BackgroundImageFix" result="effect1_dropShadow_3258_18164"/>
<feBlend mode="normal" in="SourceGraphic" in2="effect1_dropShadow_3258_18164" result="shape"/>
</filter>
<clipPath id="clip0_3258_18164">
<rect width="35" height="13" fill="white" transform="matrix(1.19249e-08 -1 1 2.76127e-06 23 59)"/>
</clipPath>
</defs>
</svg>
