<svg width="97" height="33" viewBox="0 0 97 33" fill="none" xmlns="http://www.w3.org/2000/svg">
<g clip-path="url(#clip0_3428_4025)">
<path d="M6.97709 0.283691H2.72266V12.1739H6.99377V8.01119H9.54087V12.1766H13.7758V0.283691H9.52974V4.19888H6.97709V0.283691Z" fill="#1C1C1B"/>
<path d="M55.1687 0.272461H54.8906V12.1793H59.0616V8.45321C59.129 8.49328 59.1832 8.55226 59.2174 8.62283C59.8041 9.7351 60.3964 10.8474 60.9775 11.9847C61.0022 12.0516 61.0483 12.1086 61.1086 12.1468C61.1689 12.1849 61.2401 12.2022 61.3112 12.196H65.6296C65.7059 12.1924 65.782 12.185 65.8576 12.1738C64.8065 10.5554 63.7749 8.97042 62.7377 7.36875C62.7899 7.34537 62.8438 7.32585 62.899 7.31036C63.3055 7.22982 63.6851 7.04756 64.0021 6.7806C64.3191 6.51364 64.5634 6.17068 64.712 5.78376C64.907 5.32134 65.0017 4.82285 64.99 4.32113C64.99 4.17654 64.99 4.02916 64.9733 3.88178C64.8649 2.38022 64.1586 1.28741 62.7488 0.703471C61.9877 0.404614 61.1749 0.259998 60.3574 0.278028H55.1687M59.6928 3.37848C59.8054 3.37749 59.9179 3.38492 60.0293 3.40072H60.046C60.655 3.49804 60.9469 3.88735 60.9441 4.52968C60.9441 4.57139 60.9441 4.61031 60.9441 4.65202C60.9349 4.91666 60.8239 5.16754 60.6343 5.35244C60.4448 5.53734 60.1912 5.64203 59.9264 5.64473C59.8235 5.64473 59.7234 5.64473 59.6206 5.64473H59.0811V3.38682C59.1923 3.38682 59.3008 3.38682 59.4064 3.38682H59.6845L59.6928 3.37848Z" fill="#1C1C1B"/>
<path d="M39.9357 0.266855C39.8616 0.257741 39.7868 0.277068 39.7265 0.320936C39.6661 0.364804 39.6246 0.429947 39.6104 0.503214C38.4592 3.77514 37.3043 7.04706 36.1456 10.319C35.9288 10.9335 35.7146 11.5481 35.4922 12.182H37.4748C38.2534 12.182 39.0292 12.182 39.8022 12.182H39.9051C40.0608 12.182 40.0886 12.0986 40.1164 11.9846C40.2054 11.6148 40.3055 11.2477 40.3778 10.8724C40.3791 10.8678 40.3791 10.863 40.3778 10.8584C40.4084 10.7278 40.4696 10.6944 40.6003 10.6944H43.406C43.545 10.6944 43.609 10.7333 43.6423 10.8696C43.6435 10.876 43.6435 10.8826 43.6423 10.889C43.7369 11.3173 43.8565 11.7427 43.9677 12.1765H48.5308C48.5208 12.1175 48.5078 12.059 48.4918 12.0013C47.1627 8.16397 45.8344 4.32572 44.5071 0.486531C44.4906 0.419197 44.4494 0.360477 44.3918 0.321895C44.3342 0.283313 44.2643 0.267652 44.1957 0.27798C43.4783 0.27798 42.7609 0.27798 42.0435 0.27798C41.3761 0.27798 40.7087 0.27798 40.0414 0.27798H39.9357M41.1926 7.82751C41.4845 6.54562 41.7765 5.26929 42.0101 4.23487L42.8276 7.82751H41.1926Z" fill="#1C1C1B"/>
<path d="M76.7907 0.000155152C76.3498 -0.00296028 75.9098 0.0408506 75.4782 0.130847C73.5484 0.545168 72.033 1.9939 71.9329 4.08497C71.9329 4.15448 71.9329 4.224 71.9329 4.29352C71.9055 4.9543 72.0905 5.60646 72.4609 6.15441C72.8312 6.70236 73.3672 7.11728 73.9905 7.33835C74.4438 7.51075 74.9304 7.58861 75.3948 7.73043C75.7025 7.80796 76.0001 7.92087 76.2818 8.06689C76.3563 8.10324 76.4195 8.15921 76.4646 8.22878C76.5097 8.29835 76.5349 8.37889 76.5376 8.46175C76.5335 8.55246 76.5056 8.64049 76.4568 8.71709C76.408 8.79368 76.34 8.85616 76.2596 8.89831C76.1727 8.94734 76.079 8.98296 75.9815 9.00398C75.8311 9.03921 75.6772 9.05694 75.5227 9.05681C75.1591 9.04942 74.8011 8.96606 74.4716 8.81211C73.8599 8.53405 73.2759 8.20314 72.6503 7.8778C72.6503 7.89449 72.6197 7.93898 72.6002 7.98625C72.2471 8.85382 71.8911 9.72139 71.5408 10.589C71.4652 10.7402 71.4145 10.9026 71.3906 11.07C71.3906 11.2341 71.5297 11.3064 71.8884 11.4843C73.128 12.1363 74.5032 12.4887 75.9037 12.5132C76.4022 12.5129 76.8996 12.4636 77.3885 12.3658H77.4191C79.1765 12.0071 81.034 10.589 81.0562 8.12529V8.06967C81.0853 7.35976 80.873 6.66094 80.4538 6.08725C80.0347 5.51356 79.4335 5.09886 78.7483 4.91083C78.5481 4.84965 78.3367 4.81628 78.1338 4.75233C77.6026 4.58827 77.0688 4.43255 76.5543 4.22678C76.4772 4.1826 76.4107 4.12216 76.3593 4.04965C76.3079 3.97714 76.2729 3.8943 76.2568 3.8069C76.2554 3.79024 76.2554 3.7735 76.2568 3.75684C76.2568 3.56219 76.4459 3.45097 76.6266 3.37867C76.7163 3.34645 76.8098 3.32589 76.9047 3.3175C76.997 3.3075 77.0899 3.30286 77.1828 3.3036C77.7807 3.31927 78.3646 3.48775 78.879 3.79299L78.9096 3.80967C79.1292 3.93202 79.3378 4.08775 79.5658 4.21566L80.8505 1.1013C79.6174 0.379787 78.2137 0.00149888 76.7851 0.00571345L76.7907 0.000155152Z" fill="#1C1C1B"/>
<path d="M29.5652 0.280762H21.707V12.1709H29.6681V8.92588H25.8753V7.7135H29.2343V4.63252H25.8808V3.50912H29.5652V0.280762Z" fill="#1C1C1B"/>
<path d="M87.3008 0.291992V4.18772H89.6449V12.1849H93.8938V4.17381H96.2379V0.291992H87.3008Z" fill="#1C1C1B"/>
<path d="M56.9982 18.4638C56.8828 18.4635 56.7682 18.4823 56.659 18.5194C56.3774 18.6346 56.1042 18.7693 55.8414 18.9226C55.4517 18.6252 54.9747 18.4649 54.4845 18.4665C54.2193 18.4679 53.9559 18.5091 53.7031 18.5889C53.1257 18.7603 52.5983 19.0688 52.1659 19.4881C51.7335 19.9074 51.409 20.4251 51.22 20.997C51.0451 21.4508 50.951 21.9317 50.9419 22.4179C50.9402 22.8204 51.0279 23.2182 51.1986 23.5827C51.3693 23.9472 51.6188 24.2692 51.929 24.5256V24.5785C51.7956 24.623 51.651 24.6619 51.5258 24.7119C50.9315 24.9072 50.4183 25.2933 50.066 25.8103C49.912 26.0432 49.8281 26.3153 49.8241 26.5945C49.8245 26.7803 49.8661 26.9637 49.9459 27.1315C50.0257 27.2993 50.1418 27.4473 50.2856 27.5649C50.4501 27.7078 50.6383 27.8208 50.8418 27.8986C51.3701 28.0766 51.9096 28.2156 52.4407 28.3769C53.0649 28.5428 53.6802 28.7405 54.2843 28.9691C54.4559 29.0235 54.6069 29.1291 54.7167 29.2718C54.8266 29.4144 54.8901 29.5873 54.8988 29.7672C54.891 29.9054 54.8555 30.0407 54.7943 30.1649C54.7332 30.2891 54.6477 30.3997 54.5429 30.4902C54.2926 30.7241 53.9987 30.9064 53.6781 31.0268C53.2318 31.185 52.7611 31.2631 52.2877 31.2576C52.0218 31.2567 51.7562 31.239 51.4925 31.2048C51.1148 31.1661 50.7469 31.0616 50.4052 30.8962C49.9019 30.6376 49.6489 30.2733 49.6489 29.8701C49.6687 29.5303 49.8109 29.2093 50.0493 28.9664L50.0993 28.908C50.1936 28.8035 50.2529 28.6723 50.269 28.5326C50.2682 28.4575 50.2439 28.3846 50.1994 28.324V28.3101C50.1555 28.2498 50.0977 28.2009 50.0309 28.1675C49.9642 28.1342 49.8904 28.1173 49.8157 28.1183C49.7545 28.1195 49.6937 28.1289 49.635 28.1461C49.3458 28.2221 49.0803 28.3697 48.8631 28.5753C48.6459 28.7808 48.4839 29.0377 48.392 29.3223C48.338 29.4846 48.3098 29.6545 48.3086 29.8256C48.3177 30.237 48.4862 30.6288 48.7785 30.9184C49.1178 31.2724 49.5432 31.5321 50.0131 31.672C50.7097 31.8947 51.4368 32.0073 52.1682 32.0056C52.6891 32.0044 53.2086 31.9531 53.7198 31.8527L53.8115 31.836C54.6613 31.6937 55.4266 31.2371 55.9554 30.5569C56.2198 30.1948 56.3593 29.7567 56.3531 29.3084C56.3514 28.981 56.265 28.6596 56.1022 28.3755C55.9394 28.0914 55.7059 27.8543 55.4243 27.6873C55.1642 27.5255 54.8837 27.3993 54.5901 27.3119C53.9617 27.1311 53.3221 26.9865 52.6882 26.8253C52.2683 26.7168 51.854 26.6306 51.4369 26.486C51.3433 26.4636 51.2593 26.4119 51.1972 26.3383C51.1352 26.2648 51.0983 26.1733 51.092 26.0773C51.0966 25.998 51.1186 25.9207 51.1566 25.851C51.1946 25.7812 51.2476 25.7208 51.3117 25.674C51.4591 25.547 51.6315 25.4522 51.8178 25.396C52.2852 25.2641 52.7596 25.1582 53.2387 25.079C54.6291 24.8649 56.2585 23.9 56.6089 22.0786C56.6777 21.7446 56.714 21.4047 56.7173 21.0637C56.7214 20.5792 56.6219 20.0995 56.4254 19.6567C56.4212 19.6365 56.4212 19.6157 56.4254 19.5955C56.4254 19.5482 56.4254 19.4954 56.4393 19.4481C56.5115 19.4562 56.5819 19.476 56.6478 19.5065C56.734 19.5788 56.7952 19.6817 56.8814 19.7596V19.7735C57.003 19.8921 57.1648 19.9606 57.3347 19.9653C57.4166 19.9648 57.4975 19.9474 57.5725 19.9143C57.6474 19.8812 57.7147 19.833 57.7703 19.7728C57.8258 19.7125 57.8684 19.6415 57.8953 19.5642C57.9223 19.4868 57.933 19.4047 57.9269 19.323C57.9269 19.2924 57.9269 19.2618 57.9269 19.2312V19.2173C57.8942 19 57.7826 18.8024 57.6132 18.6624C57.4439 18.5223 57.2289 18.4496 57.0093 18.4582L56.9982 18.4638ZM54.5623 19.1867C54.7499 19.1975 54.9273 19.2758 55.0617 19.4072C55.1961 19.5385 55.2785 19.7141 55.2936 19.9014C55.2936 19.9014 55.2936 19.9014 55.2936 19.9181C55.3259 20.0857 55.3417 20.2562 55.3409 20.4269C55.334 20.779 55.2855 21.129 55.1963 21.4697C55.0328 22.2134 54.7591 22.9285 54.3844 23.5913C54.2948 23.7604 54.1712 23.9092 54.0214 24.0283C53.8717 24.1475 53.6989 24.2344 53.514 24.2837C53.432 24.3031 53.348 24.3134 53.2638 24.3143C53.035 24.3163 52.814 24.2313 52.6456 24.0763C52.4773 23.9214 52.3742 23.7083 52.3573 23.4801C52.3406 23.3383 52.3433 23.202 52.3378 23.0992C52.4034 21.9827 52.7758 20.906 53.4139 19.9876C53.5878 19.7316 53.8132 19.5147 54.0757 19.3508C54.2198 19.2562 54.3872 19.2032 54.5595 19.1979" fill="#1C1C1B"/>
<path d="M94.7361 18.4638C94.6295 18.4634 94.5236 18.4793 94.4219 18.5111C94.1348 18.6271 93.8561 18.7628 93.5877 18.917H93.5682C93.1801 18.6542 92.7268 18.504 92.2585 18.4833C92.1175 18.484 91.977 18.498 91.8386 18.525H91.8192C90.287 18.8253 89.3527 19.818 88.8994 21.2361C88.7682 21.6232 88.6988 22.0286 88.6937 22.4374C88.6904 22.8342 88.7756 23.2267 88.943 23.5865C89.1103 23.9462 89.3557 24.2642 89.6613 24.5173C89.1866 24.7455 88.731 25.0114 88.2988 25.3126C88.0902 25.4597 87.9171 25.6517 87.7925 25.8745C87.6679 26.0973 87.5948 26.3452 87.5786 26.6C87.5786 27.1562 87.9763 27.6734 88.7382 27.957C89.2943 28.1656 89.8782 28.2712 90.4427 28.4464C91.038 28.6099 91.6207 28.8163 92.1862 29.0637C92.3273 29.1188 92.4489 29.2145 92.5355 29.3388C92.6222 29.463 92.67 29.6102 92.6728 29.7617C92.6635 29.9885 92.5805 30.2062 92.4365 30.3817C92.1553 30.7368 91.764 30.9882 91.3242 31.0964H91.3047H91.2853C90.8652 31.2074 90.4323 31.2626 89.9978 31.2604C89.7925 31.2603 89.5874 31.2492 89.3833 31.2271H89.3555C88.9712 31.1916 88.5954 31.0929 88.2432 30.9351C87.7065 30.6793 87.4368 30.3095 87.4368 29.8924C87.4551 29.553 87.5908 29.2306 87.8205 28.9803L87.865 28.9163C87.9719 28.8209 88.0393 28.689 88.0541 28.5465C88.053 28.4745 88.0297 28.4046 87.9874 28.3463C87.945 28.2821 87.8871 28.2296 87.819 28.1937C87.751 28.1577 87.675 28.1394 87.5981 28.1405C87.53 28.1412 87.4625 28.1525 87.3979 28.1739C87.0329 28.2735 86.7094 28.4872 86.4747 28.784C86.2401 29.0807 86.1065 29.4447 86.0938 29.8228C86.0961 30.2376 86.2573 30.6356 86.5442 30.9351C86.8833 31.2891 87.3074 31.5504 87.7761 31.6942H87.7927H87.8066H87.8372C88.5094 31.9047 89.2101 32.0098 89.9144 32.0057C90.349 32.0036 90.7829 31.9711 91.213 31.9083H91.2769C92.1489 31.8107 92.9579 31.4067 93.5599 30.7683C93.9309 30.3883 94.1427 29.8811 94.1521 29.3501C94.1514 29.1478 94.1224 28.9466 94.0659 28.7523C93.9659 28.4371 93.7889 28.1519 93.5511 27.9223C93.3132 27.6926 93.0219 27.5259 92.7034 27.437C92.2057 27.2591 91.6857 27.1395 91.1713 27.0032C90.5484 26.8392 89.92 26.6946 89.2971 26.5277C89.199 26.5143 89.108 26.4693 89.0378 26.3996C88.9676 26.3298 88.922 26.2392 88.9078 26.1412C88.905 26.1172 88.905 26.0929 88.9078 26.0689C88.9084 25.9774 88.9348 25.8878 88.984 25.8106C89.0332 25.7334 89.1031 25.6716 89.1859 25.6324C89.4097 25.4917 89.6521 25.3832 89.906 25.3098C90.376 25.1902 90.8654 25.1402 91.3381 25.0317C92.709 24.6981 93.7767 23.9667 94.2661 22.5959C94.4421 22.1318 94.5362 21.6406 94.5442 21.1444C94.5456 20.6351 94.4405 20.1312 94.2356 19.665C94.2324 19.6485 94.2324 19.6315 94.2356 19.615C94.2356 19.5677 94.255 19.5093 94.2606 19.4593C94.332 19.4697 94.4008 19.4933 94.4636 19.5288C94.5692 19.6178 94.6499 19.7429 94.7583 19.8291C94.8666 19.9208 95.003 19.9728 95.1448 19.9765C95.2369 19.9752 95.3274 19.9523 95.409 19.9097C95.5141 19.8565 95.6013 19.7736 95.6596 19.6713C95.718 19.5689 95.7449 19.4517 95.7371 19.3341V19.298C95.7256 19.0632 95.6219 18.8424 95.4485 18.6836C95.2751 18.5248 95.0461 18.4408 94.8112 18.4499L94.7361 18.4638ZM92.3336 19.1979C92.7006 19.1979 92.9676 19.4759 93.0426 19.9403C93.0426 19.9403 93.0426 19.9626 93.0426 19.9737C93.0671 20.1394 93.0792 20.3067 93.0788 20.4742C93.0771 20.8655 93.0133 21.2541 92.8897 21.6254C92.6907 22.2645 92.4473 22.8889 92.1612 23.494C92.0027 23.7892 91.7635 24.0332 91.4716 24.1975C91.329 24.2813 91.167 24.3264 91.0016 24.3282C90.7821 24.3186 90.5729 24.2324 90.4104 24.0846C90.2478 23.9368 90.1422 23.7367 90.1118 23.519C90.0896 23.3967 90.0812 23.2744 90.0701 23.1742C90.1252 21.9551 90.55 20.7815 91.288 19.8096C91.4895 19.5565 91.7571 19.3641 92.0611 19.2535C92.1453 19.2248 92.2335 19.2098 92.3225 19.209" fill="#1C1C1B"/>
<path d="M39.6183 18.4641C39.4929 18.4657 39.3683 18.4853 39.2485 18.5224H39.2263C38.8859 18.6437 38.5737 18.8329 38.3086 19.0786C37.7885 19.5879 37.3604 20.1834 37.0434 20.8388C37.0161 20.8973 36.9929 20.9577 36.9739 21.0195H37.3132H37.4967H37.5578C37.6218 21.0195 37.6845 21.0022 37.7393 20.9694C37.7942 20.9366 37.8391 20.8895 37.8693 20.8332C38.0925 20.4838 38.3397 20.1502 38.6089 19.8349C38.7118 19.7154 38.9093 19.682 39.0622 19.6069C39.0622 19.7154 39.0789 19.8266 39.0789 19.935C39.0796 19.9913 39.0731 20.0473 39.0594 20.1019C38.6089 21.6173 38.1474 23.1272 37.6858 24.6399C37.4077 25.5242 37.1296 26.4084 36.8516 27.3233H37.6135C37.7942 27.3233 37.975 27.3233 38.1529 27.3233H38.1807C38.2459 27.329 38.3109 27.3098 38.3625 27.2696C38.4141 27.2293 38.4485 27.171 38.4588 27.1064V27.0841C38.8175 25.9719 39.1651 24.8429 39.5711 23.7473C40.0385 22.4336 40.7446 21.2175 41.6538 20.1603C41.9007 19.8826 42.1863 19.6419 42.5019 19.4456C42.5884 19.4036 42.6837 19.3826 42.7799 19.3845C42.8706 19.3811 42.9607 19.4013 43.0413 19.4428C43.1581 19.5179 43.1692 19.7793 43.1943 19.9628C43.1943 19.9628 43.1943 19.9879 43.1943 19.999C43.1862 20.0948 43.1627 20.1887 43.1248 20.2771C42.7243 21.4755 42.31 22.6684 41.9207 23.8697C41.6844 24.601 41.4508 25.3351 41.2812 26.0942C41.2626 26.1782 41.2533 26.264 41.2534 26.35C41.2609 26.6125 41.3589 26.8643 41.5306 27.0629C41.7024 27.2615 41.9374 27.3947 42.196 27.4401C42.309 27.4664 42.4248 27.4795 42.5408 27.479C42.9331 27.4671 43.3115 27.3319 43.6225 27.0925C44.3455 26.5725 44.7904 25.8301 45.213 25.0598H45.2603C45.0629 25.0348 44.9211 25.0209 44.8071 25.0181C44.5012 25.0181 44.4178 25.1405 44.1286 25.5742C43.992 25.782 43.8376 25.9774 43.667 26.1582C43.5315 26.2968 43.3735 26.4115 43.1998 26.4974C43.1562 26.517 43.1086 26.5265 43.0608 26.5252C42.997 26.525 42.9338 26.5128 42.8745 26.4891C42.8523 26.4891 42.8411 26.4168 42.8411 26.35C42.8412 26.3003 42.8477 26.2507 42.8606 26.2027C43.1387 25.324 43.4167 24.4508 43.6948 23.5749C44.0174 22.5572 44.3733 21.545 44.6458 20.5162C44.6888 20.3518 44.7112 20.1828 44.7125 20.0129C44.7221 19.6574 44.6003 19.3109 44.3705 19.0395C44.1407 18.7682 43.819 18.591 43.4668 18.5419C43.3706 18.5233 43.2728 18.514 43.1748 18.5141C42.7491 18.5305 42.3382 18.6749 41.9958 18.9284C41.4235 19.3198 40.9278 19.8127 40.5332 20.3827C40.4803 20.4606 40.4219 20.5384 40.333 20.6608C40.3775 20.3994 40.4164 20.2103 40.4386 20.0157C40.4622 19.8507 40.4761 19.6845 40.4803 19.5179C40.4803 19.4901 40.4803 19.4623 40.4803 19.4345C40.4525 18.8311 40.1133 18.4585 39.6128 18.4585L39.6183 18.4641Z" fill="#1C1C1B"/>
<path d="M80.8698 18.4639C80.4715 18.477 80.0854 18.6044 79.7575 18.831C79.2162 19.2029 78.7509 19.6748 78.3867 20.2213C78.2977 20.3464 78.2087 20.4716 78.1503 20.5494C78.1503 20.2269 78.192 19.8848 78.192 19.54C78.192 19.4232 78.192 19.3064 78.1781 19.1897C78.1697 19.0848 78.1406 18.9827 78.0925 18.8892C78.0444 18.7957 77.9782 18.7127 77.8977 18.6449C77.8173 18.5772 77.7243 18.526 77.6239 18.4945C77.5236 18.4629 77.418 18.4516 77.3133 18.4611H77.2966C76.9718 18.4643 76.6567 18.5726 76.3985 18.7698H76.3846C75.6171 19.3398 75.1583 20.1434 74.6828 20.9943H74.9025H75.0332C75.097 20.99 75.1611 20.99 75.225 20.9943H75.289C75.361 20.9927 75.4312 20.9713 75.492 20.9326C75.5528 20.8939 75.6018 20.8392 75.6338 20.7746C75.8688 20.4219 76.1251 20.0839 76.4013 19.7625C76.5218 19.6635 76.6581 19.5855 76.8045 19.5317L76.8851 19.6012C76.8637 19.8062 76.8293 20.0096 76.7822 20.2102C76.1649 22.2364 75.543 24.2625 74.9164 26.2887L74.6133 27.2731H76.0954C76.5764 25.9161 77.0102 24.5786 77.5191 23.2717C77.9635 22.1172 78.6146 21.0533 79.4405 20.1323C79.6862 19.8542 79.9743 19.6168 80.2942 19.4288C80.3841 19.374 80.4865 19.3434 80.5917 19.3398C80.8364 19.3398 80.9977 19.5484 80.9755 19.8737V19.896C80.9676 20.0016 80.948 20.1061 80.9171 20.2074C80.5667 21.2724 80.1996 22.3318 79.8576 23.3968C79.5796 24.2644 79.2876 25.1264 79.0707 26.0079C79.0437 26.1105 79.0297 26.216 79.029 26.3221C79.0362 26.5976 79.1421 26.8614 79.3273 27.0655C79.5125 27.2696 79.7648 27.4005 80.0384 27.4344H80.0551C80.1412 27.4508 80.2287 27.4592 80.3164 27.4594C80.5774 27.4554 80.8338 27.3897 81.0644 27.2675H81.0895C82.021 26.7865 82.5104 25.9245 83.0359 25.0152H82.8524H82.7968C82.7588 25.018 82.7207 25.018 82.6828 25.0152C82.6332 25.0067 82.583 25.002 82.5326 25.0013C82.4077 25.007 82.2867 25.0465 82.1824 25.1156C82.0781 25.1846 81.9945 25.2806 81.9404 25.3934C81.6739 25.7645 81.3671 26.1049 81.0255 26.4083C80.9553 26.453 80.8717 26.4717 80.7892 26.4611H80.5723C80.5723 26.3749 80.5528 26.2859 80.5528 26.1997C80.5527 26.1611 80.5583 26.1227 80.5695 26.0857C80.8475 25.1598 81.1701 24.2421 81.4621 23.319C81.7707 22.3429 82.1016 21.3725 82.3519 20.3798C82.3899 20.2364 82.4095 20.0888 82.4103 19.9404C82.4134 19.5881 82.289 19.2466 82.0601 18.9788C81.8311 18.711 81.5131 18.535 81.1645 18.4834C81.073 18.4652 80.9798 18.4559 80.8865 18.4556L80.8698 18.4639Z" fill="#1C1C1B"/>
<path d="M66.9488 18.4639C66.7325 18.468 66.518 18.5036 66.312 18.5696C66.073 18.6363 65.8439 18.7344 65.6308 18.8616C63.3756 20.2797 62.0437 22.2901 61.7795 24.9568C61.7795 25.0513 61.7656 25.1431 61.7656 25.2349C61.7646 25.7301 61.9118 26.2143 62.1883 26.6252L62.2189 26.6669C62.3689 26.9006 62.5743 27.0937 62.8168 27.229C63.0594 27.3644 63.3315 27.4378 63.6092 27.4427C63.8637 27.4405 64.1148 27.3846 64.3461 27.2787C64.7036 27.1026 65.0379 26.8832 65.3416 26.6252C65.6243 26.3785 65.8943 26.1177 66.1508 25.8438C66.1508 25.9022 66.1508 25.9551 66.1508 26.0023C66.1508 26.0496 66.1508 26.0607 66.1508 26.0885V26.108C66.1508 26.9172 66.6207 27.4483 67.263 27.4483C67.491 27.4441 67.7145 27.384 67.9137 27.2731H67.9276C68.9092 26.7336 69.4848 25.8383 69.938 24.7927H69.6183C69.572 24.7956 69.5255 24.7956 69.4792 24.7927H69.3875C69.3132 24.7927 69.2406 24.8139 69.178 24.8538C69.1154 24.8937 69.0656 24.9507 69.0343 25.018C68.8566 25.3246 68.6509 25.6141 68.4198 25.8828C68.2678 26.0549 68.0836 26.1957 67.8776 26.2971C67.8214 26.329 67.7585 26.3471 67.694 26.3499C67.5578 26.3499 67.4883 26.2359 67.5077 26.0329C67.5346 25.8323 67.5811 25.6349 67.6468 25.4434C68.3345 23.2838 69.0241 21.1232 69.7156 18.9617C69.7489 18.856 69.774 18.7503 69.8101 18.6196H68.7229H68.5866H68.5255C68.3225 18.6196 68.1584 18.7142 68.164 19.0979C68.029 18.9007 67.8475 18.7397 67.6356 18.6291C67.4237 18.5186 67.1878 18.4618 66.9488 18.4639ZM66.9488 19.2981C67.3687 19.2981 67.6579 19.6179 67.6273 20.1574V20.174C67.5785 20.6744 67.4778 21.1683 67.327 21.6478C67.0574 22.6847 66.6643 23.6854 66.1563 24.6287C65.7939 25.2925 65.2828 25.8635 64.6631 26.2971H64.6492C64.4582 26.4539 64.225 26.5507 63.9791 26.5752C63.8752 26.5748 63.7731 26.549 63.6815 26.5001C63.3228 26.3082 63.3228 25.9189 63.3089 25.563C63.3089 25.5435 63.3089 25.5241 63.3089 25.5074C63.3089 25.4907 63.3089 25.449 63.3089 25.4351C63.3089 25.4212 63.3089 25.3683 63.3089 25.335C63.3237 24.7731 63.4357 24.2181 63.6398 23.6944C64.0034 22.6483 64.5046 21.6552 65.1302 20.7413C65.3409 20.4267 65.5771 20.13 65.8365 19.8543C66.0247 19.6674 66.2427 19.5133 66.4817 19.3982H66.4956C66.6382 19.3342 66.7925 19.3001 66.9488 19.2981Z" fill="#1C1C1B"/>
<path d="M7.30227 18.4775C7.06368 18.479 6.82968 18.5433 6.62378 18.6638H6.6071C6.30927 18.853 6.04204 19.0865 5.81461 19.3562C5.30447 19.9512 4.93309 20.6522 4.72736 21.4084H5.06382C5.12864 21.4042 5.19366 21.4042 5.25847 21.4084H5.3113C5.46424 21.4084 5.53932 21.3277 5.60605 21.1831C5.75207 20.8326 5.92887 20.4958 6.13438 20.1765C6.32332 19.9319 6.53979 19.7099 6.7795 19.5147C6.84034 19.4734 6.91173 19.4502 6.98527 19.448C7.00633 19.4433 7.02816 19.4433 7.04922 19.448C7.1104 19.4758 7.14377 19.6148 7.14377 19.7094C7.13866 19.867 7.11248 20.0231 7.06591 20.1738C6.24561 22.8933 5.43087 25.6128 4.59389 28.3267C4.41091 28.9169 4.18985 29.4947 3.93209 30.0563C3.82671 30.302 3.67183 30.5234 3.47712 30.7066C3.28241 30.8898 3.05203 31.031 2.80036 31.1213C2.66182 31.1748 2.51506 31.204 2.36657 31.2075C2.01343 31.2075 1.77707 30.9906 1.63248 30.5512C1.63275 30.5466 1.63275 30.542 1.63248 30.5373C1.57396 30.3461 1.49955 30.16 1.41002 29.9812C1.35119 29.8733 1.26372 29.7838 1.15725 29.7225C1.05078 29.6611 0.929444 29.6304 0.806616 29.6336C0.744909 29.6333 0.683357 29.6398 0.62309 29.6531H0.603624C0.449956 29.6964 0.313702 29.7867 0.213966 29.9114C0.11423 30.0361 0.0560153 30.1888 0.0474891 30.3482C0.0474891 30.3788 0.0474891 30.4094 0.0474891 30.44C0.0423746 30.5894 0.0692571 30.7381 0.126328 30.8762C0.183398 31.0143 0.269338 31.1387 0.37839 31.2408C0.599995 31.4563 0.855518 31.6338 1.13473 31.7664C1.49267 31.9225 1.87874 32.0039 2.26925 32.0055C2.75016 31.9965 3.22382 31.8866 3.65958 31.683C4.13195 31.4745 4.55812 31.1741 4.9133 30.7994C5.26847 30.4246 5.54555 29.983 5.7284 29.5001C6.14272 28.4685 6.50143 27.4118 6.84067 26.3469C7.34676 24.7044 7.82503 23.0499 8.2755 21.3833C8.42428 20.8668 8.50468 20.333 8.51464 19.7956V19.6844C8.51601 19.6751 8.51601 19.6658 8.51464 19.6566C8.51427 19.5021 8.48349 19.3492 8.42404 19.2066C8.36459 19.0641 8.27764 18.9346 8.16816 18.8256C8.05868 18.7167 7.92881 18.6303 7.78596 18.5716C7.64312 18.5128 7.4901 18.4827 7.33563 18.4831L7.30227 18.4775Z" fill="#1C1C1B"/>
<path d="M17.8684 18.5195H17.7906C17.1005 18.5504 16.4436 18.8242 15.9359 19.2926C15.1935 19.9024 14.5972 20.6708 14.1906 21.5412C13.784 22.4117 13.5775 23.3621 13.5862 24.3228C13.5882 24.7287 13.6198 25.1339 13.6807 25.5352C13.7335 26.0513 13.9778 26.5289 14.3654 26.8738C14.753 27.2187 15.2558 27.4058 15.7746 27.3982C16.0644 27.3965 16.3519 27.3467 16.6255 27.2508H16.6477C17.4279 26.967 18.1057 26.4567 18.5942 25.7854C19.5273 24.559 20.0384 23.0636 20.0513 21.5227C20.0867 20.7905 19.9007 20.0647 19.5174 19.4399C19.3446 19.1585 19.1019 18.9266 18.813 18.7668C18.524 18.607 18.1986 18.5247 17.8684 18.5279V18.5195ZM17.8684 19.262C18.0624 19.2641 18.2489 19.3371 18.3928 19.4672C18.5367 19.5973 18.6281 19.7755 18.6498 19.9683V19.9849C18.6498 19.9849 18.6498 19.9849 18.6498 20.0016C18.6875 20.2024 18.7061 20.4063 18.7054 20.6106C18.6951 21.0818 18.6212 21.5495 18.4857 22.0009C18.2077 23.027 17.8796 24.0503 17.5209 25.0597C17.3577 25.4513 17.1334 25.8145 16.8563 26.1358C16.6778 26.3441 16.4518 26.5063 16.1973 26.6085H16.1806C16.0617 26.6587 15.9342 26.6852 15.8052 26.6864C15.6083 26.6817 15.419 26.6092 15.2695 26.4809C15.12 26.3527 15.0195 26.1768 14.9849 25.9829C14.9479 25.7992 14.9219 25.6135 14.907 25.4267C15.0204 23.6563 15.5166 21.9315 16.3613 20.3715C16.5153 20.1027 16.7115 19.8605 16.9425 19.654C17.1197 19.4955 17.3309 19.3794 17.5598 19.3148C17.6622 19.2815 17.7691 19.2637 17.8768 19.262H17.8684Z" fill="#1C1C1B"/>
<path d="M29.6388 18.5195H29.5387C28.926 18.5509 28.3402 18.7813 27.8703 19.1758C27.0814 19.7779 26.4443 20.5562 26.0097 21.4484C25.5752 22.3406 25.3553 23.3221 25.3677 24.3145C25.3686 24.7221 25.3993 25.1292 25.4594 25.5324C25.5077 26.0486 25.749 26.5275 26.1352 26.8734C26.5213 27.2194 27.0238 27.4068 27.5422 27.3982C27.8822 27.395 28.2188 27.329 28.5349 27.2036C29.3368 26.8762 30.0218 26.3153 30.5008 25.5936C31.3448 24.4002 31.801 22.976 31.8077 21.5143V21.4448C31.8406 20.7378 31.6552 20.0379 31.2766 19.4399C31.1047 19.1573 30.8624 18.9242 30.5734 18.7633C30.2843 18.6024 29.9584 18.5194 29.6277 18.5223L29.6388 18.5195ZM29.5943 19.2703H29.611C29.8041 19.2571 29.9952 19.3174 30.1457 19.4391C30.2963 19.5608 30.3953 19.7349 30.4229 19.9266C30.4569 20.1104 30.4801 20.2961 30.4925 20.4827C30.414 21.5778 30.1876 22.6572 29.8195 23.6916C29.6431 24.2381 29.437 24.7747 29.2022 25.2988C29.0557 25.6009 28.8686 25.8816 28.6461 26.133C28.4906 26.3116 28.3017 26.458 28.09 26.564H28.0761C27.9267 26.6359 27.7635 26.6748 27.5978 26.678C27.3878 26.679 27.1856 26.5988 27.0332 26.4543C26.8809 26.3097 26.7903 26.112 26.7803 25.9022C26.7591 25.7176 26.7489 25.5319 26.7497 25.3461C26.7518 24.9867 26.7806 24.6279 26.8359 24.2727C27.015 23.09 27.3731 21.9414 27.8981 20.8664C28.1293 20.4371 28.4092 20.0359 28.7323 19.6707C28.8402 19.5535 28.972 19.4608 29.1188 19.3989C29.2656 19.337 29.4239 19.3074 29.5832 19.312L29.5943 19.2703Z" fill="#1C1C1B"/>
<path d="M8.76998 14.2676C8.50153 14.2676 8.24409 14.3742 8.05427 14.564C7.86445 14.7539 7.75781 15.0113 7.75781 15.2797C7.75781 15.5482 7.86445 15.8056 8.05427 15.9955C8.24409 16.1853 8.50153 16.2919 8.76998 16.2919C8.90407 16.2961 9.03761 16.273 9.16254 16.2241C9.28746 16.1752 9.40118 16.1015 9.49682 16.0074C9.59246 15.9133 9.66804 15.8008 9.71899 15.6767C9.76994 15.5526 9.79521 15.4194 9.79326 15.2853C9.79218 15.1513 9.76457 15.0189 9.71204 14.8956C9.6595 14.7723 9.58307 14.6607 9.48716 14.5671C9.39125 14.4735 9.27776 14.3998 9.15324 14.3503C9.02871 14.3008 8.89562 14.2765 8.76164 14.2787L8.76998 14.2676Z" fill="#1C1C1B"/>
</g>
<defs>
<clipPath id="clip0_3428_4025">
<rect width="97" height="33.0002" fill="white"/>
</clipPath>
</defs>
</svg>
