<svg xmlns="http://www.w3.org/2000/svg" width="14" height="12" fill="none"><g clip-path="url(#a)"><mask id="b" width="114" height="79" x="-49" y="-48" maskUnits="userSpaceOnUse" style="mask-type:luminance"><path fill="#fff" d="M-48.154-47.038H64.528v77.522H-48.154v-77.522Z"/></mask><g mask="url(#b)"><path fill="#333" d="M7 .13C3.391.13.466 2.379.466 5.152c0 1.782 1.211 3.346 3.03 4.24l-.615 2.235a.181.181 0 0 0 .047.19.188.188 0 0 0 .134.054.19.19 0 0 0 .113-.042l2.647-1.74c.385.054.777.084 1.176.084 3.608 0 6.533-2.247 6.533-5.02C13.532 2.377 10.607.13 7 .13Z"/></g></g><defs><clipPath id="a"><path fill="#fff" d="M.332 0h13.333v12H.332z"/></clipPath></defs></svg>