<svg width="26" height="24" viewBox="0 0 26 24" fill="none" xmlns="http://www.w3.org/2000/svg">
<path d="M24.4937 6.62272C24.3571 6.11535 24.0897 5.65275 23.7181 5.28122C23.3466 4.90969 22.884 4.64225 22.3766 4.50569C20.5082 4 13 4 13 4C13 4 5.49183 4 3.62336 4.50569C3.11599 4.64225 2.6534 4.90969 2.28186 5.28122C1.91033 5.65275 1.6429 6.11535 1.50633 6.62272C1.15745 8.52827 0.988143 10.4624 1.00064 12.3995C0.988143 14.3367 1.15745 16.2708 1.50633 18.1764C1.6429 18.6837 1.91033 19.1463 2.28186 19.5179C2.6534 19.8894 3.11599 20.1568 3.62336 20.2934C5.49183 20.7991 13 20.7991 13 20.7991C13 20.7991 20.5082 20.7991 22.3766 20.2934C22.884 20.1568 23.3466 19.8894 23.7181 19.5179C24.0897 19.1463 24.3571 18.6837 24.4937 18.1764C24.8426 16.2708 25.0119 14.3367 24.9994 12.3995C25.0119 10.4624 24.8426 8.52827 24.4937 6.62272ZM10.6001 15.9994V8.79974L16.8312 12.3995L10.6001 15.9994Z" fill="#111111"/>
</svg>
