<svg width="48" height="48" viewBox="0 0 48 48" fill="none" xmlns="http://www.w3.org/2000/svg">
<rect width="48" height="48" rx="24" fill="#F9E000"/>
<path d="M23.9989 13C30.6274 13 36 17.1874 36 22.3543C36 27.52 30.6274 31.7074 24 31.7074C23.3401 31.7077 22.6808 31.6658 22.0263 31.5817L16.9886 34.8766C16.416 35.1794 16.2137 35.1463 16.4491 34.4046L17.4686 30.2011C14.1771 28.5326 12 25.6411 12 22.3543C12 17.1886 17.3714 13 24 13H23.9989ZM30.7509 22.2114L32.4309 20.584C32.5278 20.4833 32.5819 20.349 32.5817 20.2092C32.5815 20.0694 32.5271 19.9352 32.43 19.8348C32.3328 19.7343 32.2004 19.6755 32.0607 19.6707C31.921 19.666 31.785 19.7156 31.6811 19.8091L29.4777 21.9417V20.1794C29.4777 20.0364 29.4209 19.8992 29.3197 19.798C29.2186 19.6968 29.0814 19.64 28.9383 19.64C28.7952 19.64 28.658 19.6968 28.5569 19.798C28.4557 19.8992 28.3989 20.0364 28.3989 20.1794V23.1017C28.3787 23.1851 28.3787 23.2721 28.3989 23.3554V25C28.3989 25.1431 28.4557 25.2803 28.5569 25.3814C28.658 25.4826 28.7952 25.5394 28.9383 25.5394C29.0814 25.5394 29.2186 25.4826 29.3197 25.3814C29.4209 25.2803 29.4777 25.1431 29.4777 25V23.4423L29.9657 22.9703L31.5977 25.2937C31.6385 25.3517 31.6902 25.4011 31.7501 25.4391C31.8099 25.4771 31.8767 25.503 31.9465 25.5152C32.0163 25.5274 32.0879 25.5257 32.1571 25.5103C32.2262 25.4948 32.2917 25.4659 32.3497 25.4251C32.4077 25.3844 32.4571 25.3326 32.4951 25.2728C32.5331 25.2129 32.559 25.1462 32.5712 25.0764C32.5834 25.0065 32.5817 24.935 32.5663 24.8658C32.5508 24.7966 32.5219 24.7311 32.4811 24.6731L30.7509 22.2103V22.2114ZM27.3703 24.4103H25.7017V20.1966C25.6953 20.0579 25.6358 19.9271 25.5354 19.8313C25.4351 19.7354 25.3016 19.682 25.1629 19.682C25.0241 19.682 24.8907 19.7354 24.7903 19.8313C24.6899 19.9271 24.6304 20.0579 24.624 20.1966V24.9497C24.624 25.2469 24.864 25.4891 25.1623 25.4891H27.3703C27.5134 25.4891 27.6506 25.4323 27.7517 25.3311C27.8529 25.23 27.9097 25.0928 27.9097 24.9497C27.9097 24.8066 27.8529 24.6694 27.7517 24.5683C27.6506 24.4671 27.5134 24.4103 27.3703 24.4103ZM20.6766 23.1634L21.472 21.2114L22.2011 23.1623L20.6766 23.1634ZM23.56 23.72L23.5623 23.7017C23.562 23.5658 23.5101 23.4351 23.4171 23.336L22.2217 20.136C22.1716 19.9835 22.0761 19.8499 21.9481 19.7531C21.8201 19.6563 21.6655 19.6009 21.5051 19.5943C21.3436 19.5936 21.1856 19.6421 21.0523 19.7333C20.919 19.8246 20.8167 19.9543 20.7589 20.1051L18.8594 24.7623C18.8053 24.8947 18.8061 25.0433 18.8615 25.1752C18.9169 25.3071 19.0224 25.4116 19.1549 25.4657C19.2873 25.5198 19.4358 25.5191 19.5678 25.4637C19.6997 25.4083 19.8042 25.3027 19.8583 25.1703L20.2377 24.2411H22.6034L22.944 25.1554C22.9672 25.2238 23.0039 25.2868 23.052 25.3406C23.1 25.3945 23.1583 25.4383 23.2235 25.4692C23.2888 25.5001 23.3595 25.5177 23.4316 25.5207C23.5038 25.5238 23.5758 25.5124 23.6434 25.4872C23.711 25.4619 23.7729 25.4234 23.8253 25.3738C23.8778 25.3242 23.9197 25.2646 23.9487 25.1985C23.9777 25.1324 23.9931 25.0611 23.9941 24.9889C23.9951 24.9168 23.9815 24.8451 23.9543 24.7783L23.56 23.72ZM19.7634 20.2023C19.7634 20.0594 19.7068 19.9224 19.6058 19.8213C19.5049 19.7201 19.368 19.6632 19.2251 19.6629H15.5166C15.3735 19.6629 15.2363 19.7197 15.1351 19.8209C15.034 19.922 14.9771 20.0592 14.9771 20.2023C14.9771 20.3454 15.034 20.4826 15.1351 20.5837C15.2363 20.6849 15.3735 20.7417 15.5166 20.7417H16.8423V25.0114C16.8423 25.1545 16.8991 25.2917 17.0003 25.3929C17.1014 25.494 17.2386 25.5509 17.3817 25.5509C17.5248 25.5509 17.662 25.494 17.7631 25.3929C17.8643 25.2917 17.9211 25.1545 17.9211 25.0114V20.7417H19.224C19.3671 20.7417 19.5043 20.6849 19.6054 20.5837C19.7066 20.4826 19.7634 20.3454 19.7634 20.2023Z" fill="#371C1D"/>
</svg>
