<svg width="26" height="24" viewBox="0 0 26 24" fill="none" xmlns="http://www.w3.org/2000/svg">
<path d="M13.0117 22.4393L12.308 23.1498L13.0117 23.8468L13.7154 23.1498L13.0117 22.4393ZM3.08627 12.6092L3.78998 11.8986L3.78367 11.8925L3.08627 12.6092ZM13.0117 3.915L12.2091 4.51152L13.8109 4.51598L13.0117 3.915ZM22.2334 11.8987L12.308 21.7288L13.7154 23.1498L23.6408 13.3197L22.2334 11.8987ZM13.7154 21.7288L3.78995 11.8987L2.38258 13.3197L12.308 23.1498L13.7154 21.7288ZM3.78367 11.8925C3.22793 11.3517 2.79019 10.7017 2.498 9.98345L0.64542 10.7371C1.04165 11.7111 1.63525 12.5925 2.38886 13.3259L3.78367 11.8925ZM2.498 9.98345C2.20582 9.26518 2.06551 8.49419 2.08593 7.71904L0.0866257 7.66637C0.0589368 8.71754 0.249195 9.76305 0.64542 10.7371L2.498 9.98345ZM2.08593 7.71904C2.10635 6.94388 2.28705 6.18135 2.61664 5.47945L0.806305 4.62935C0.359351 5.58116 0.114315 6.61521 0.0866257 7.66637L2.08593 7.71904ZM2.61664 5.47945C2.94624 4.77756 3.41759 4.15152 4.00103 3.64074L2.68362 2.13594C1.89245 2.82858 1.25326 3.67754 0.806305 4.62935L2.61664 5.47945ZM4.00103 3.64074C4.58446 3.12996 5.26733 2.74552 6.00664 2.51162L5.40336 0.604779C4.40081 0.921961 3.47479 1.44329 2.68362 2.13594L4.00103 3.64074ZM6.00664 2.51162C6.74595 2.27773 7.52568 2.19944 8.29673 2.28169L8.50888 0.292973C7.46328 0.181434 6.40591 0.287597 5.40336 0.604779L6.00664 2.51162ZM8.29673 2.28169C9.06778 2.36394 9.81345 2.60495 10.4868 2.98954L11.4787 1.25287C10.5657 0.731336 9.55447 0.404511 8.50888 0.292973L8.29673 2.28169ZM10.4868 2.98954C11.1625 3.37548 11.7481 3.89132 12.2091 4.51152L13.8143 3.31848C13.1854 2.47237 12.3895 1.77305 11.4787 1.25287L10.4868 2.98954ZM13.8109 4.51598C14.2739 3.90031 14.8602 3.389 15.5355 3.00714L14.551 1.26623C13.6409 1.78088 12.844 2.47403 12.2124 3.31402L13.8109 4.51598ZM15.5355 3.00714C16.2083 2.62663 16.9525 2.3891 17.7214 2.30942L17.5152 0.320077C16.4726 0.42813 15.4634 0.750234 14.551 1.26623L15.5355 3.00714ZM17.7214 2.30942C18.4903 2.22974 19.2673 2.30962 20.0039 2.54407L20.6105 0.63827C19.6116 0.320348 18.5579 0.212023 17.5152 0.320077L17.7214 2.30942ZM20.0039 2.54407C20.7405 2.77851 21.4208 3.16247 22.0022 3.67192L23.3203 2.16771C22.5319 1.47687 21.6094 0.956191 20.6105 0.63827L20.0039 2.54407ZM22.0022 3.67192C22.5836 4.18136 23.0535 4.80533 23.3827 5.50476L25.1923 4.65316C24.746 3.70469 24.1087 2.85855 23.3203 2.16771L22.0022 3.67192ZM23.3827 5.50476C23.7118 6.20419 23.8931 6.96403 23.915 7.73672L25.9142 7.67985C25.8844 6.63203 25.6387 5.60163 25.1923 4.65316L23.3827 5.50476ZM23.915 7.73672C23.937 8.50942 23.7993 9.27833 23.5104 9.99534L25.3656 10.7427C25.7573 9.77038 25.944 8.72768 25.9142 7.67985L23.915 7.73672ZM23.5104 9.99534C23.2216 10.7124 22.7878 11.362 22.2364 11.9037L23.6378 13.3305C24.3857 12.596 24.9739 11.715 25.3656 10.7427L23.5104 9.99534Z" fill="#111111"/>
<path d="M13.7192 4.61726C14.1097 4.22674 14.1097 3.59357 13.7192 3.20305C13.3287 2.81253 12.6955 2.81253 12.305 3.20305L13.7192 4.61726ZM11.9206 13.4058L11.2135 14.1129L11.9206 14.82L12.6277 14.1129L11.9206 13.4058ZM12.6277 14.1129L18.5832 8.15743L17.169 6.74322L11.2135 12.6987L12.6277 14.1129ZM12.305 3.20305C11.0119 4.49619 9.71863 5.78935 8.4255 7.08257L9.83976 8.49674C11.1329 7.20355 12.426 5.91045 13.7192 4.61726L12.305 3.20305ZM8.42561 11.325C9.33455 12.2339 10.1772 13.0766 11.2135 14.1129L12.6277 12.6987C11.5914 11.6624 10.7488 10.8197 9.83987 9.91078L8.42561 11.325ZM8.4255 7.08257C7.25401 8.25414 7.25426 10.1535 8.42561 11.325L9.83987 9.91078C9.44937 9.52025 9.4494 8.88713 9.83976 8.49674L8.4255 7.08257Z" fill="#111111"/>
</svg>
