<svg width="24" height="24" viewBox="0 0 24 24" fill="none" xmlns="http://www.w3.org/2000/svg">
<path d="M11.9989 1C18.6274 1 24 5.18743 24 10.3543C24 15.52 18.6274 19.7074 12 19.7074C11.3401 19.7077 10.6808 19.6658 10.0263 19.5817L4.98857 22.8766C4.416 23.1794 4.21371 23.1463 4.44914 22.4046L5.46857 18.2011C2.17714 16.5326 0 13.6411 0 10.3543C0 5.18857 5.37143 1 12 1H11.9989ZM18.7509 10.2114L20.4309 8.584C20.5278 8.48332 20.5819 8.34895 20.5817 8.20919C20.5815 8.06943 20.5271 7.93519 20.43 7.83475C20.3328 7.73431 20.2004 7.67551 20.0607 7.67073C19.921 7.66595 19.785 7.71558 19.6811 7.80914L17.4777 9.94171V8.17943C17.4777 8.03636 17.4209 7.89916 17.3197 7.798C17.2186 7.69683 17.0814 7.64 16.9383 7.64C16.7952 7.64 16.658 7.69683 16.5569 7.798C16.4557 7.89916 16.3989 8.03636 16.3989 8.17943V11.1017C16.3787 11.1851 16.3787 11.2721 16.3989 11.3554V13C16.3989 13.1431 16.4557 13.2803 16.5569 13.3814C16.658 13.4826 16.7952 13.5394 16.9383 13.5394C17.0814 13.5394 17.2186 13.4826 17.3197 13.3814C17.4209 13.2803 17.4777 13.1431 17.4777 13V11.4423L17.9657 10.9703L19.5977 13.2937C19.6385 13.3517 19.6902 13.4011 19.7501 13.4391C19.8099 13.4771 19.8767 13.503 19.9465 13.5152C20.0163 13.5274 20.0879 13.5257 20.1571 13.5103C20.2262 13.4948 20.2917 13.4659 20.3497 13.4251C20.4077 13.3844 20.4571 13.3326 20.4951 13.2728C20.5331 13.2129 20.559 13.1462 20.5712 13.0764C20.5834 13.0065 20.5817 12.935 20.5663 12.8658C20.5508 12.7966 20.5219 12.7311 20.4811 12.6731L18.7509 10.2103V10.2114ZM15.3703 12.4103H13.7017V8.19657C13.6953 8.05795 13.6358 7.92712 13.5354 7.83128C13.4351 7.73544 13.3016 7.68196 13.1629 7.68196C13.0241 7.68196 12.8907 7.73544 12.7903 7.83128C12.6899 7.92712 12.6304 8.05795 12.624 8.19657V12.9497C12.624 13.2469 12.864 13.4891 13.1623 13.4891H15.3703C15.5134 13.4891 15.6506 13.4323 15.7517 13.3311C15.8529 13.23 15.9097 13.0928 15.9097 12.9497C15.9097 12.8066 15.8529 12.6694 15.7517 12.5683C15.6506 12.4671 15.5134 12.4103 15.3703 12.4103ZM8.67657 11.1634L9.472 9.21143L10.2011 11.1623L8.67657 11.1634ZM11.56 11.72L11.5623 11.7017C11.562 11.5658 11.5101 11.4351 11.4171 11.336L10.2217 8.136C10.1716 7.98351 10.0761 7.84994 9.9481 7.75314C9.82006 7.65634 9.66552 7.60092 9.50514 7.59429C9.34359 7.59358 9.18565 7.64207 9.05233 7.73333C8.91902 7.82459 8.81665 7.95428 8.75886 8.10514L6.85943 12.7623C6.80532 12.8947 6.80606 13.0433 6.86146 13.1752C6.91686 13.3071 7.0224 13.4116 7.15486 13.4657C7.28731 13.5198 7.43584 13.5191 7.56776 13.4637C7.69968 13.4083 7.80418 13.3027 7.85829 13.1703L8.23771 12.2411H10.6034L10.944 13.1554C10.9672 13.2238 11.0039 13.2868 11.052 13.3406C11.1 13.3945 11.1583 13.4383 11.2235 13.4692C11.2888 13.5001 11.3595 13.5177 11.4316 13.5207C11.5038 13.5238 11.5758 13.5124 11.6434 13.4872C11.711 13.4619 11.7729 13.4234 11.8253 13.3738C11.8778 13.3242 11.9197 13.2646 11.9487 13.1985C11.9777 13.1324 11.9931 13.0611 11.9941 12.9889C11.9951 12.9168 11.9815 12.8451 11.9543 12.7783L11.56 11.72ZM7.76343 8.20229C7.76343 8.05942 7.70675 7.92238 7.60584 7.82126C7.50492 7.72013 7.36801 7.66316 7.22514 7.66286H3.51657C3.37351 7.66286 3.2363 7.71969 3.13514 7.82085C3.03398 7.92201 2.97714 8.05922 2.97714 8.20229C2.97714 8.34535 3.03398 8.48256 3.13514 8.58372C3.2363 8.68488 3.37351 8.74171 3.51657 8.74171H4.84229V13.0114C4.84229 13.1545 4.89912 13.2917 5.00028 13.3929C5.10144 13.494 5.23865 13.5509 5.38171 13.5509C5.52478 13.5509 5.66199 13.494 5.76315 13.3929C5.86431 13.2917 5.92114 13.1545 5.92114 13.0114V8.74171H7.224C7.36707 8.74171 7.50427 8.68488 7.60543 8.58372C7.7066 8.48256 7.76343 8.34535 7.76343 8.20229Z" fill="#111111"/>
</svg>
