<svg width="48" height="48" viewBox="0 0 48 48" fill="none" xmlns="http://www.w3.org/2000/svg">
<rect width="48" height="48" rx="24" fill="#F7F7F7"/>
<path d="M35.953 16.5696C35.0545 16.9652 34.1026 17.2263 33.128 17.3446C34.1541 16.7278 34.9224 15.7606 35.291 14.6216C34.34 15.1766 33.286 15.5806 32.164 15.8056C31.4238 15.014 30.4429 14.489 29.3736 14.3121C28.3044 14.1352 27.2067 14.3162 26.2509 14.8272C25.2952 15.3381 24.5349 16.1503 24.0881 17.1377C23.6412 18.1251 23.533 19.2324 23.78 20.2876C19.69 20.0946 16.067 18.1296 13.64 15.1616C13.1988 15.9114 12.9687 16.7666 12.974 17.6366C12.974 19.3466 13.844 20.8496 15.162 21.7326C14.3809 21.7077 13.617 21.4965 12.934 21.1166V21.1766C12.9336 22.313 13.3263 23.4145 14.0455 24.2944C14.7647 25.1742 15.7662 25.7781 16.88 26.0036C16.1583 26.197 15.4024 26.226 14.668 26.0886C14.9841 27.0666 15.5977 27.9215 16.423 28.5341C17.2484 29.1467 18.2444 29.4863 19.272 29.5056C17.5315 30.8715 15.3825 31.6129 13.17 31.6106C12.78 31.6106 12.391 31.5876 12 31.5436C14.2557 32.9879 16.8785 33.7546 19.557 33.7526C28.61 33.7526 33.555 26.2566 33.555 19.7676C33.555 19.5576 33.555 19.3476 33.54 19.1376C34.506 18.4425 35.3392 17.5794 36 16.5896L35.953 16.5696Z" fill="#111111"/>
<path d="M35.953 16.5696C35.0545 16.9652 34.1026 17.2263 33.128 17.3446C34.1541 16.7278 34.9224 15.7606 35.291 14.6216C34.34 15.1766 33.286 15.5806 32.164 15.8056C31.4238 15.014 30.4429 14.489 29.3736 14.3121C28.3044 14.1352 27.2067 14.3162 26.2509 14.8272C25.2952 15.3381 24.5349 16.1503 24.0881 17.1377C23.6412 18.1251 23.533 19.2324 23.78 20.2876C19.69 20.0946 16.067 18.1296 13.64 15.1616C13.1988 15.9114 12.9687 16.7666 12.974 17.6366C12.974 19.3466 13.844 20.8496 15.162 21.7326C14.3809 21.7077 13.617 21.4965 12.934 21.1166V21.1766C12.9336 22.313 13.3263 23.4145 14.0455 24.2944C14.7647 25.1742 15.7662 25.7781 16.88 26.0036C16.1583 26.197 15.4024 26.226 14.668 26.0886C14.9841 27.0666 15.5977 27.9215 16.423 28.5341C17.2484 29.1467 18.2444 29.4863 19.272 29.5056C17.5315 30.8715 15.3825 31.6129 13.17 31.6106C12.78 31.6106 12.391 31.5876 12 31.5436C14.2557 32.9879 16.8785 33.7546 19.557 33.7526C28.61 33.7526 33.555 26.2566 33.555 19.7676C33.555 19.5576 33.555 19.3476 33.54 19.1376C34.506 18.4425 35.3392 17.5794 36 16.5896L35.953 16.5696Z" fill="#111111"/>
</svg>
