<svg width="20" height="20" viewBox="0 0 20 20" fill="none" xmlns="http://www.w3.org/2000/svg">
<path d="M3.42782 13.6663L2.7031 12.9773L2.4868 13.1829L2.42444 13.4677L3.42782 13.6663ZM14.1824 3.44117L14.9071 2.75213L14.1824 2.06308L13.4577 2.75213L14.1824 3.44117ZM17.3644 6.46651L18.0891 7.15555L18.8138 6.46651L18.0891 5.77746L17.3644 6.46651ZM6.6098 16.6916L6.81874 17.6456L7.11822 17.5863L7.33452 17.3807L6.6098 16.6916ZM2.59099 17.4873L1.5876 17.2886L2.79992 18.4413L2.59099 17.4873ZM13.4577 4.13021L16.6396 7.15555L18.0891 5.77746L14.9071 2.75213L13.4577 4.13021ZM6.40087 15.7376L2.38206 16.5333L2.79992 18.4413L6.81874 17.6456L6.40087 15.7376ZM3.59438 17.6859L4.43121 13.865L2.42444 13.4677L1.5876 17.2886L3.59438 17.6859ZM4.15254 14.3553L12.0662 6.8313L10.6167 5.45322L2.7031 12.9773L4.15254 14.3553ZM13.7987 8.47855L5.88508 16.0026L7.33452 17.3807L15.2481 9.85664L13.7987 8.47855ZM12.0662 6.8313L14.9071 4.13021L13.4577 2.75213L10.6167 5.45322L12.0662 6.8313ZM16.6396 5.77746L13.7987 8.47855L15.2481 9.85664L18.0891 7.15555L16.6396 5.77746ZM10.6167 6.8313L12.2077 8.34397L13.6571 6.96589L12.0662 5.45322L10.6167 6.8313ZM12.2077 8.34397L13.7987 9.85664L15.2481 8.47855L13.6571 6.96589L12.2077 8.34397Z" fill="white"/>
</svg>
