<svg width="97" height="33" viewBox="0 0 97 33" fill="none" xmlns="http://www.w3.org/2000/svg">
<g id="Layer_1" clip-path="url(#clip0_1171_12923)">
<path id="Vector" d="M6.97513 0.283203H2.7207V12.1734H6.99182V8.0107H9.53891V12.1761H13.7739V0.283203H9.52779V4.19839H6.97513V0.283203Z" fill="white"/>
<path id="Vector_2" d="M55.1667 0.273438H54.8887V12.1803H59.0597V8.45419C59.1271 8.49426 59.1812 8.55324 59.2154 8.6238C59.8021 9.73607 60.3944 10.8484 60.9756 11.9856C61.0003 12.0526 61.0464 12.1095 61.1067 12.1477C61.167 12.1859 61.2381 12.2032 61.3092 12.197H65.6276C65.704 12.1934 65.7801 12.186 65.8556 12.1747C64.8045 10.5564 63.7729 8.97139 62.7357 7.36972C62.788 7.34634 62.8419 7.32683 62.897 7.31133C63.3036 7.2308 63.6831 7.04854 64.0002 6.78158C64.3172 6.51462 64.5614 6.17166 64.71 5.78474C64.905 5.32232 64.9998 4.82382 64.9881 4.32211C64.9881 4.17751 64.9881 4.03013 64.9714 3.88276C64.8629 2.38119 64.1567 1.28839 62.7469 0.704447C61.9858 0.40559 61.1729 0.260975 60.3555 0.279004H55.1667M59.6909 3.37945C59.8034 3.37846 59.9159 3.3859 60.0273 3.4017H60.044C60.653 3.49902 60.945 3.88832 60.9422 4.53066C60.9422 4.57237 60.9422 4.61129 60.9422 4.653C60.9329 4.91764 60.8219 5.16851 60.6324 5.35341C60.4428 5.53831 60.1893 5.643 59.9245 5.6457C59.8216 5.6457 59.7215 5.6457 59.6186 5.6457H59.0791V3.3878C59.1904 3.3878 59.2988 3.3878 59.4045 3.3878H59.6825L59.6909 3.37945Z" fill="white"/>
<path id="Vector_3" d="M39.9338 0.267832C39.8597 0.258718 39.7849 0.278045 39.7245 0.321913C39.6641 0.36578 39.6226 0.430924 39.6084 0.504191C38.4572 3.77612 37.3023 7.04804 36.1437 10.32C35.9268 10.9345 35.7127 11.549 35.4902 12.183H37.4729C38.2514 12.183 39.0272 12.183 39.8003 12.183H39.9032C40.0589 12.183 40.0867 12.0996 40.1145 11.9856C40.2035 11.6158 40.3036 11.2487 40.3759 10.8733C40.3772 10.8688 40.3772 10.864 40.3759 10.8594C40.4065 10.7287 40.4676 10.6954 40.5983 10.6954H43.404C43.5431 10.6954 43.607 10.7343 43.6404 10.8705C43.6416 10.877 43.6416 10.8836 43.6404 10.89C43.7349 11.3182 43.8545 11.7437 43.9657 12.1775H48.5288C48.5188 12.1184 48.5058 12.06 48.4899 12.0023C47.1607 8.16495 45.8325 4.32669 44.5052 0.487507C44.4886 0.420173 44.4475 0.361454 44.3899 0.322872C44.3323 0.284289 44.2623 0.268629 44.1937 0.278957C43.4763 0.278957 42.7589 0.278957 42.0415 0.278957C41.3741 0.278957 40.7068 0.278957 40.0394 0.278957H39.9338M41.1906 7.82849C41.4826 6.5466 41.7746 5.27026 42.0081 4.23585L42.8256 7.82849H41.1906Z" fill="white"/>
<path id="Vector_4" d="M76.7926 0.000155152C76.3517 -0.00296028 75.9118 0.0408506 75.4802 0.130847C73.5504 0.545168 72.0349 1.9939 71.9348 4.08497C71.9348 4.15448 71.9348 4.224 71.9348 4.29352C71.9075 4.9543 72.0925 5.60646 72.4628 6.15441C72.8331 6.70236 73.3692 7.11728 73.9925 7.33835C74.4457 7.51075 74.9324 7.58861 75.3967 7.73043C75.7044 7.80796 76.0021 7.92087 76.2838 8.06689C76.3583 8.10324 76.4215 8.15921 76.4665 8.22878C76.5116 8.29835 76.5369 8.37889 76.5396 8.46175C76.5354 8.55246 76.5075 8.64049 76.4587 8.71709C76.41 8.79368 76.342 8.85616 76.2615 8.89831C76.1747 8.94734 76.0809 8.98296 75.9835 9.00398C75.8331 9.03921 75.6791 9.05694 75.5247 9.05681C75.1611 9.04942 74.803 8.96606 74.4736 8.81211C73.8618 8.53405 73.2779 8.20314 72.6522 7.8778C72.6522 7.89449 72.6216 7.93898 72.6022 7.98625C72.249 8.85382 71.8931 9.72139 71.5427 10.589C71.4672 10.7402 71.4165 10.9026 71.3926 11.07C71.3926 11.2341 71.5316 11.3064 71.8903 11.4843C73.13 12.1363 74.5052 12.4887 75.9056 12.5132C76.4042 12.5129 76.9016 12.4636 77.3905 12.3658H77.4211C79.1785 12.0071 81.0359 10.589 81.0582 8.12529V8.06967C81.0873 7.35976 80.8749 6.66094 80.4558 6.08725C80.0366 5.51356 79.4354 5.09886 78.7502 4.91083C78.55 4.84965 78.3387 4.81628 78.1357 4.75233C77.6046 4.58827 77.0707 4.43255 76.5563 4.22678C76.4792 4.1826 76.4126 4.12216 76.3612 4.04965C76.3098 3.97714 76.2749 3.8943 76.2588 3.8069C76.2574 3.79024 76.2574 3.7735 76.2588 3.75684C76.2588 3.56219 76.4478 3.45097 76.6286 3.37867C76.7183 3.34645 76.8117 3.32589 76.9066 3.3175C76.999 3.3075 77.0918 3.30286 77.1847 3.3036C77.7826 3.31927 78.3666 3.48775 78.8809 3.79299L78.9115 3.80967C79.1312 3.93202 79.3397 4.08775 79.5678 4.21566L80.8524 1.1013C79.6194 0.379787 78.2157 0.00149888 76.7871 0.00571345L76.7926 0.000155152Z" fill="white"/>
<path id="Vector_5" d="M29.5652 0.28125H21.707V12.1714H29.6681V8.92636H25.8753V7.71399H29.2343V4.633H25.8808V3.50961H29.5652V0.28125Z" fill="white"/>
<path id="Vector_6" d="M87.3008 0.292969V4.18869H89.6449V12.1859H93.8938V4.17479H96.2379V0.292969H87.3008Z" fill="white"/>
<path id="Vector_7" d="M57.0001 18.4633C56.8848 18.463 56.7701 18.4818 56.6609 18.5189C56.3794 18.6341 56.1062 18.7688 55.8434 18.9221C55.4537 18.6247 54.9766 18.4644 54.4864 18.4661C54.2213 18.4674 53.9579 18.5086 53.705 18.5884C53.1276 18.7598 52.6002 19.0683 52.1679 19.4876C51.7355 19.9069 51.4109 20.4246 51.2219 20.9965C51.0471 21.4503 50.953 21.9312 50.9438 22.4174C50.9422 22.8199 51.0298 23.2177 51.2005 23.5822C51.3712 23.9467 51.6207 24.2688 51.931 24.5251V24.578C51.7975 24.6225 51.6529 24.6614 51.5278 24.7114C50.9334 24.9067 50.4202 25.2929 50.0679 25.8098C49.914 26.0427 49.83 26.3148 49.826 26.594C49.8264 26.7798 49.868 26.9632 49.9479 27.131C50.0277 27.2988 50.1437 27.4468 50.2876 27.5644C50.452 27.7074 50.6402 27.8203 50.8437 27.8981C51.3721 28.0761 51.9115 28.2151 52.4426 28.3764C53.0668 28.5423 53.6822 28.74 54.2862 28.9687C54.4579 29.023 54.6088 29.1286 54.7187 29.2713C54.8286 29.4139 54.8921 29.5868 54.9007 29.7667C54.893 29.9049 54.8574 30.0402 54.7963 30.1644C54.7351 30.2886 54.6496 30.3992 54.5448 30.4897C54.2945 30.7236 54.0007 30.9059 53.68 31.0264C53.2338 31.1845 52.7631 31.2626 52.2897 31.2572C52.0238 31.2562 51.7581 31.2385 51.4944 31.2043C51.1168 31.1656 50.7488 31.0611 50.4072 30.8957C49.9039 30.6371 49.6508 30.2728 49.6508 29.8696C49.6706 29.5298 49.8129 29.2088 50.0513 28.9659L50.1013 28.9075C50.1955 28.8031 50.2548 28.6718 50.2709 28.5321C50.2701 28.457 50.2458 28.3841 50.2014 28.3235V28.3096C50.1574 28.2493 50.0996 28.2004 50.0329 28.1671C49.9661 28.1337 49.8923 28.1168 49.8177 28.1178C49.7565 28.119 49.6957 28.1284 49.6369 28.1456C49.3477 28.2216 49.0823 28.3692 48.8651 28.5748C48.6478 28.7803 48.4858 29.0372 48.394 29.3218C48.3399 29.4842 48.3118 29.654 48.3105 29.8251C48.3197 30.2365 48.4881 30.6283 48.7805 30.9179C49.1197 31.2719 49.5452 31.5316 50.0151 31.6715C50.7117 31.8942 51.4388 32.0068 52.1701 32.0052C52.691 32.0039 53.2106 31.9526 53.7217 31.8522L53.8135 31.8355C54.6633 31.6932 55.4285 31.2366 55.9574 30.5564C56.2217 30.1943 56.3613 29.7562 56.355 29.3079C56.3533 28.9805 56.2669 28.6591 56.1042 28.375C55.9414 28.0909 55.7079 27.8538 55.4263 27.6868C55.1662 27.5251 54.8856 27.3988 54.5921 27.3114C53.9637 27.1306 53.3241 26.986 52.6901 26.8248C52.2702 26.7163 51.8559 26.6301 51.4388 26.4855C51.3452 26.4632 51.2612 26.4114 51.1992 26.3378C51.1371 26.2643 51.1003 26.1728 51.094 26.0768C51.0985 25.9975 51.1206 25.9202 51.1585 25.8505C51.1965 25.7808 51.2495 25.7203 51.3137 25.6736C51.461 25.5465 51.6335 25.4517 51.8198 25.3955C52.2872 25.2636 52.7615 25.1577 53.2407 25.0785C54.631 24.8644 56.2605 23.8995 56.6109 22.0782C56.6797 21.7441 56.716 21.4042 56.7193 21.0632C56.7234 20.5787 56.6238 20.099 56.4273 19.6562C56.4231 19.636 56.4231 19.6152 56.4273 19.595C56.4273 19.5477 56.4273 19.4949 56.4412 19.4476C56.5134 19.4558 56.5839 19.4755 56.6498 19.506C56.736 19.5783 56.7972 19.6812 56.8834 19.7591V19.773C57.0049 19.8916 57.1668 19.9601 57.3366 19.9648C57.4185 19.9643 57.4995 19.9469 57.5744 19.9138C57.6494 19.8807 57.7167 19.8325 57.7722 19.7723C57.8278 19.712 57.8703 19.641 57.8973 19.5637C57.9242 19.4863 57.935 19.4042 57.9289 19.3225C57.9289 19.2919 57.9289 19.2613 57.9289 19.2307V19.2168C57.8962 18.9995 57.7845 18.8019 57.6152 18.6619C57.4459 18.5218 57.2308 18.4491 57.0113 18.4577L57.0001 18.4633ZM54.5643 19.1863C54.7519 19.1971 54.9293 19.2753 55.0637 19.4067C55.1981 19.538 55.2805 19.7136 55.2956 19.9009C55.2956 19.9009 55.2956 19.9009 55.2956 19.9176C55.3278 20.0853 55.3437 20.2557 55.3429 20.4264C55.336 20.7785 55.2874 21.1285 55.1983 21.4692C55.0348 22.2129 54.7611 22.928 54.3863 23.5908C54.2967 23.7599 54.1732 23.9087 54.0234 24.0278C53.8736 24.147 53.7009 24.2339 53.516 24.2832C53.4339 24.3026 53.35 24.3129 53.2657 24.3138C53.0369 24.3159 52.8159 24.2308 52.6476 24.0759C52.4793 23.9209 52.3761 23.7078 52.3592 23.4796C52.3425 23.3378 52.3453 23.2015 52.3397 23.0987C52.4054 21.9822 52.7777 20.9055 53.4159 19.9871C53.5898 19.7311 53.8152 19.5142 54.0777 19.3503C54.2217 19.2557 54.3892 19.2027 54.5615 19.1974" fill="white"/>
<path id="Vector_8" d="M94.7361 18.4638C94.6295 18.4634 94.5236 18.4793 94.4219 18.5111C94.1348 18.6271 93.8561 18.7628 93.5877 18.917H93.5682C93.1801 18.6542 92.7268 18.504 92.2585 18.4833C92.1175 18.484 91.977 18.498 91.8386 18.525H91.8192C90.287 18.8253 89.3527 19.818 88.8994 21.2361C88.7682 21.6232 88.6988 22.0286 88.6937 22.4374C88.6904 22.8342 88.7756 23.2267 88.943 23.5865C89.1103 23.9462 89.3557 24.2642 89.6613 24.5173C89.1866 24.7455 88.731 25.0114 88.2988 25.3126C88.0902 25.4597 87.9171 25.6517 87.7925 25.8745C87.6679 26.0973 87.5948 26.3452 87.5786 26.6C87.5786 27.1562 87.9763 27.6734 88.7382 27.957C89.2943 28.1656 89.8782 28.2712 90.4427 28.4464C91.038 28.6099 91.6207 28.8163 92.1862 29.0637C92.3273 29.1188 92.4489 29.2145 92.5355 29.3388C92.6222 29.463 92.67 29.6102 92.6728 29.7617C92.6635 29.9885 92.5805 30.2062 92.4365 30.3817C92.1553 30.7368 91.764 30.9882 91.3242 31.0964H91.3047H91.2853C90.8652 31.2074 90.4323 31.2626 89.9978 31.2604C89.7925 31.2603 89.5874 31.2492 89.3833 31.2271H89.3555C88.9712 31.1916 88.5954 31.0929 88.2432 30.9351C87.7065 30.6793 87.4368 30.3095 87.4368 29.8924C87.4551 29.553 87.5908 29.2306 87.8205 28.9803L87.865 28.9163C87.9719 28.8209 88.0393 28.689 88.0541 28.5465C88.053 28.4745 88.0297 28.4046 87.9874 28.3463C87.945 28.2821 87.8871 28.2296 87.819 28.1937C87.751 28.1577 87.675 28.1394 87.5981 28.1405C87.53 28.1412 87.4625 28.1525 87.3979 28.1739C87.0329 28.2735 86.7094 28.4872 86.4747 28.784C86.2401 29.0807 86.1065 29.4447 86.0938 29.8228C86.0961 30.2376 86.2573 30.6356 86.5442 30.9351C86.8833 31.2891 87.3074 31.5504 87.7761 31.6942H87.7927H87.8066H87.8372C88.5094 31.9047 89.2101 32.0098 89.9144 32.0057C90.349 32.0036 90.7829 31.9711 91.213 31.9083H91.2769C92.1489 31.8107 92.9579 31.4067 93.5599 30.7683C93.9309 30.3883 94.1427 29.8811 94.1521 29.3501C94.1514 29.1478 94.1224 28.9466 94.0659 28.7523C93.9659 28.4371 93.7889 28.1519 93.5511 27.9223C93.3132 27.6926 93.0219 27.5259 92.7034 27.437C92.2057 27.2591 91.6857 27.1395 91.1713 27.0032C90.5484 26.8392 89.92 26.6946 89.2971 26.5277C89.199 26.5143 89.108 26.4693 89.0378 26.3996C88.9676 26.3298 88.922 26.2392 88.9078 26.1412C88.905 26.1172 88.905 26.0929 88.9078 26.0689C88.9084 25.9774 88.9348 25.8878 88.984 25.8106C89.0332 25.7334 89.1031 25.6716 89.1859 25.6324C89.4097 25.4917 89.6521 25.3832 89.906 25.3098C90.376 25.1902 90.8654 25.1402 91.3381 25.0317C92.709 24.6981 93.7767 23.9667 94.2661 22.5959C94.4421 22.1318 94.5362 21.6406 94.5442 21.1444C94.5456 20.6351 94.4405 20.1312 94.2356 19.665C94.2324 19.6485 94.2324 19.6315 94.2356 19.615C94.2356 19.5677 94.255 19.5093 94.2606 19.4593C94.332 19.4697 94.4008 19.4933 94.4636 19.5288C94.5692 19.6178 94.6499 19.7429 94.7583 19.8291C94.8666 19.9208 95.003 19.9728 95.1448 19.9765C95.2369 19.9752 95.3274 19.9523 95.409 19.9097C95.5141 19.8565 95.6013 19.7736 95.6596 19.6713C95.718 19.5689 95.7449 19.4517 95.7371 19.3341V19.298C95.7256 19.0632 95.6219 18.8424 95.4485 18.6836C95.2751 18.5248 95.0461 18.4408 94.8112 18.4499L94.7361 18.4638ZM92.3336 19.1979C92.7006 19.1979 92.9676 19.4759 93.0426 19.9403C93.0426 19.9403 93.0426 19.9626 93.0426 19.9737C93.0671 20.1394 93.0792 20.3067 93.0788 20.4742C93.0771 20.8655 93.0133 21.2541 92.8897 21.6254C92.6907 22.2645 92.4473 22.8889 92.1612 23.494C92.0027 23.7892 91.7635 24.0332 91.4716 24.1975C91.329 24.2813 91.167 24.3264 91.0016 24.3282C90.7821 24.3186 90.5729 24.2324 90.4104 24.0846C90.2478 23.9368 90.1422 23.7367 90.1118 23.519C90.0896 23.3967 90.0812 23.2744 90.0701 23.1742C90.1252 21.9551 90.55 20.7815 91.288 19.8096C91.4895 19.5565 91.7571 19.3641 92.0611 19.2535C92.1453 19.2248 92.2335 19.2098 92.3225 19.209" fill="white"/>
<path id="Vector_9" d="M39.6183 18.4645C39.4929 18.4662 39.3683 18.4858 39.2485 18.5229H39.2263C38.8859 18.6442 38.5737 18.8334 38.3086 19.0791C37.7885 19.5884 37.3604 20.1839 37.0434 20.8392C37.0161 20.8978 36.9929 20.9582 36.9739 21.02H37.3132H37.4967H37.5578C37.6218 21.02 37.6845 21.0027 37.7393 20.9699C37.7942 20.9371 37.8391 20.89 37.8693 20.8337C38.0925 20.4843 38.3397 20.1507 38.6089 19.8354C38.7118 19.7158 38.9093 19.6825 39.0622 19.6074C39.0622 19.7158 39.0789 19.8271 39.0789 19.9355C39.0796 19.9917 39.0731 20.0478 39.0594 20.1024C38.6089 21.6178 38.1474 23.1277 37.6858 24.6404C37.4077 25.5247 37.1296 26.4089 36.8516 27.3238H37.6135C37.7942 27.3238 37.975 27.3238 38.1529 27.3238H38.1807C38.2459 27.3295 38.3109 27.3103 38.3625 27.2701C38.4141 27.2298 38.4485 27.1715 38.4588 27.1069V27.0846C38.8175 25.9724 39.1651 24.8434 39.5711 23.7478C40.0385 22.4341 40.7446 21.218 41.6538 20.1608C41.9007 19.8831 42.1863 19.6424 42.5019 19.4461C42.5884 19.404 42.6837 19.3831 42.7799 19.3849C42.8706 19.3816 42.9607 19.4017 43.0413 19.4433C43.1581 19.5184 43.1692 19.7798 43.1943 19.9633C43.1943 19.9633 43.1943 19.9883 43.1943 19.9995C43.1862 20.0953 43.1627 20.1892 43.1248 20.2775C42.7243 21.476 42.31 22.6689 41.9207 23.8702C41.6844 24.6015 41.4508 25.3356 41.2812 26.0947C41.2626 26.1787 41.2533 26.2645 41.2534 26.3505C41.2609 26.613 41.3589 26.8648 41.5306 27.0634C41.7024 27.262 41.9374 27.3952 42.196 27.4406C42.309 27.4669 42.4248 27.48 42.5408 27.4795C42.9331 27.4676 43.3115 27.3324 43.6225 27.093C44.3455 26.573 44.7904 25.8306 45.213 25.0603H45.2603C45.0629 25.0353 44.9211 25.0214 44.8071 25.0186C44.5012 25.0186 44.4178 25.1409 44.1286 25.5747C43.992 25.7825 43.8376 25.9779 43.667 26.1587C43.5315 26.2972 43.3735 26.4119 43.1998 26.4979C43.1562 26.5175 43.1086 26.527 43.0608 26.5257C42.997 26.5255 42.9338 26.5133 42.8745 26.4896C42.8523 26.4896 42.8411 26.4173 42.8411 26.3505C42.8412 26.3008 42.8477 26.2512 42.8606 26.2032C43.1387 25.3245 43.4167 24.4513 43.6948 23.5754C44.0174 22.5577 44.3733 21.5455 44.6458 20.5167C44.6888 20.3523 44.7112 20.1833 44.7125 20.0134C44.7221 19.6579 44.6003 19.3114 44.3705 19.04C44.1407 18.7687 43.819 18.5915 43.4668 18.5424C43.3706 18.5238 43.2728 18.5145 43.1748 18.5146C42.7491 18.531 42.3382 18.6754 41.9958 18.9289C41.4235 19.3203 40.9278 19.8132 40.5332 20.3832C40.4803 20.4611 40.4219 20.5389 40.333 20.6613C40.3775 20.3999 40.4164 20.2108 40.4386 20.0162C40.4622 19.8512 40.4761 19.685 40.4803 19.5184C40.4803 19.4906 40.4803 19.4628 40.4803 19.435C40.4525 18.8316 40.1133 18.459 39.6128 18.459L39.6183 18.4645Z" fill="white"/>
<path id="Vector_10" d="M80.8717 18.4634C80.4735 18.4765 80.0873 18.604 79.7595 18.8305C79.2181 19.2024 78.7528 19.6743 78.3886 20.2208C78.2996 20.3459 78.2106 20.4711 78.1522 20.5489C78.1522 20.2264 78.194 19.8843 78.194 19.5395C78.194 19.4228 78.194 19.306 78.1801 19.1892C78.1717 19.0843 78.1426 18.9822 78.0944 18.8887C78.0463 18.7952 77.9801 18.7122 77.8997 18.6444C77.8193 18.5767 77.7262 18.5255 77.6259 18.494C77.5256 18.4624 77.42 18.4511 77.3153 18.4606H77.2986C76.9737 18.4638 76.6586 18.5721 76.4004 18.7693H76.3865C75.6191 19.3393 75.1602 20.1429 74.6848 20.9938H74.9044H75.0351C75.099 20.9896 75.1631 20.9896 75.227 20.9938H75.2909C75.363 20.9922 75.4332 20.9708 75.494 20.9321C75.5548 20.8934 75.6038 20.8388 75.6357 20.7742C75.8707 20.4215 76.127 20.0834 76.4032 19.762C76.5237 19.663 76.66 19.585 76.8064 19.5312L76.887 19.6007C76.8656 19.8057 76.8313 20.0091 76.7842 20.2097C76.1668 22.2359 75.5449 24.2621 74.9183 26.2882L74.6152 27.2726H76.0973C76.5784 25.9156 77.0122 24.5781 77.521 23.2712C77.9654 22.1167 78.6166 21.0528 79.4425 20.1318C79.6881 19.8537 79.9762 19.6163 80.2961 19.4283C80.386 19.3736 80.4885 19.3429 80.5937 19.3393C80.8384 19.3393 80.9997 19.5479 80.9774 19.8732V19.8955C80.9695 20.0011 80.9499 20.1056 80.919 20.2069C80.5686 21.2719 80.2016 22.3313 79.8596 23.3963C79.5815 24.2639 79.2895 25.1259 79.0727 26.0074C79.0457 26.11 79.0316 26.2155 79.0309 26.3216C79.0382 26.5971 79.144 26.8609 79.3292 27.065C79.5145 27.2691 79.7668 27.4 80.0403 27.4339H80.057C80.1432 27.4503 80.2307 27.4587 80.3184 27.4589C80.5794 27.455 80.8357 27.3892 81.0664 27.267H81.0914C82.0229 26.786 82.5123 25.924 83.0379 25.0147H82.8544H82.7988C82.7608 25.0175 82.7227 25.0175 82.6847 25.0147C82.6351 25.0062 82.5849 25.0015 82.5346 25.0008C82.4097 25.0066 82.2886 25.0461 82.1843 25.1151C82.0801 25.1841 81.9964 25.2801 81.9423 25.3929C81.6758 25.764 81.369 26.1044 81.0275 26.4078C80.9573 26.4525 80.8736 26.4712 80.7911 26.4606H80.5742C80.5742 26.3744 80.5547 26.2855 80.5547 26.1993C80.5546 26.1606 80.5602 26.1222 80.5714 26.0853C80.8495 25.1593 81.1721 24.2417 81.464 23.3185C81.7727 22.3425 82.1036 21.372 82.3538 20.3793C82.3918 20.2359 82.4114 20.0883 82.4122 19.94C82.4154 19.5876 82.291 19.2461 82.062 18.9783C81.8331 18.7105 81.515 18.5345 81.1665 18.4829C81.0749 18.4647 80.9818 18.4554 80.8884 18.4551L80.8717 18.4634Z" fill="white"/>
<path id="Vector_11" d="M66.9488 18.4629C66.7325 18.467 66.518 18.5026 66.312 18.5686C66.073 18.6353 65.8439 18.7335 65.6308 18.8606C63.3756 20.2787 62.0437 22.2892 61.7795 24.9558C61.7795 25.0504 61.7656 25.1421 61.7656 25.2339C61.7646 25.7291 61.9118 26.2134 62.1883 26.6242L62.2189 26.6659C62.3689 26.8997 62.5743 27.0927 62.8168 27.2281C63.0594 27.3634 63.3315 27.4368 63.6092 27.4417C63.8637 27.4395 64.1148 27.3836 64.3461 27.2777C64.7036 27.1017 65.0379 26.8822 65.3416 26.6242C65.6243 26.3775 65.8943 26.1168 66.1508 25.8429C66.1508 25.9013 66.1508 25.9541 66.1508 26.0014C66.1508 26.0486 66.1508 26.0598 66.1508 26.0876V26.107C66.1508 26.9162 66.6207 27.4473 67.263 27.4473C67.491 27.4432 67.7145 27.383 67.9137 27.2721H67.9276C68.9092 26.7327 69.4848 25.8373 69.938 24.7918H69.6183C69.572 24.7946 69.5255 24.7946 69.4792 24.7918H69.3875C69.3132 24.7917 69.2406 24.8129 69.178 24.8528C69.1154 24.8927 69.0656 24.9497 69.0343 25.017C68.8566 25.3236 68.6509 25.6131 68.4198 25.8818C68.2678 26.0539 68.0836 26.1947 67.8776 26.2961C67.8214 26.3281 67.7585 26.3462 67.694 26.3489C67.5578 26.3489 67.4883 26.2349 67.5077 26.0319C67.5346 25.8314 67.5811 25.6339 67.6468 25.4424C68.3345 23.2828 69.0241 21.1222 69.7156 18.9607C69.7489 18.855 69.774 18.7494 69.8101 18.6187H68.7229H68.5866H68.5255C68.3225 18.6187 68.1584 18.7132 68.164 19.0969C68.029 18.8997 67.8475 18.7387 67.6356 18.6281C67.4237 18.5176 67.1878 18.4608 66.9488 18.4629ZM66.9488 19.2971C67.3687 19.2971 67.6579 19.6169 67.6273 20.1564V20.1731C67.5785 20.6734 67.4778 21.1673 67.327 21.6468C67.0574 22.6837 66.6643 23.6845 66.1563 24.6277C65.7939 25.2915 65.2828 25.8625 64.6631 26.2961H64.6492C64.4582 26.453 64.225 26.5497 63.9791 26.5742C63.8752 26.5738 63.7731 26.548 63.6815 26.4991C63.3228 26.3072 63.3228 25.9179 63.3089 25.562C63.3089 25.5425 63.3089 25.5231 63.3089 25.5064C63.3089 25.4897 63.3089 25.448 63.3089 25.4341C63.3089 25.4202 63.3089 25.3674 63.3089 25.334C63.3237 24.7721 63.4357 24.2171 63.6398 23.6934C64.0034 22.6473 64.5046 21.6542 65.1302 20.7403C65.3409 20.4257 65.5771 20.129 65.8365 19.8533C66.0247 19.6664 66.2427 19.5123 66.4817 19.3972H66.4956C66.6382 19.3332 66.7925 19.2992 66.9488 19.2971Z" fill="white"/>
<path id="Vector_12" d="M7.30031 18.4785C7.06172 18.48 6.82773 18.5443 6.62183 18.6648H6.60515C6.30732 18.854 6.04008 19.0875 5.81265 19.3572C5.30252 19.9522 4.93113 20.6531 4.72541 21.4093H5.06187C5.12669 21.4051 5.1917 21.4051 5.25652 21.4093H5.30935C5.46229 21.4093 5.53737 21.3287 5.6041 21.1841C5.75011 20.8336 5.92691 20.4968 6.13243 20.1775C6.32137 19.9329 6.53783 19.7108 6.77755 19.5157C6.83839 19.4743 6.90977 19.4512 6.98332 19.449C7.00438 19.4443 7.02621 19.4443 7.04727 19.449C7.10845 19.4768 7.14181 19.6158 7.14181 19.7104C7.13671 19.8679 7.11052 20.0241 7.06395 20.1747C6.24366 22.8942 5.42892 25.6137 4.59194 28.3277C4.40896 28.9179 4.18789 29.4956 3.93014 30.0572C3.82475 30.303 3.66988 30.5244 3.47517 30.7076C3.28045 30.8908 3.05008 31.032 2.7984 31.1222C2.65986 31.1758 2.5131 31.2049 2.36462 31.2084C2.01147 31.2084 1.77512 30.9916 1.63052 30.5522C1.63079 30.5476 1.63079 30.5429 1.63052 30.5383C1.57201 30.3471 1.49759 30.161 1.40807 29.9822C1.34923 29.8743 1.26176 29.7848 1.15529 29.7234C1.04882 29.6621 0.927491 29.6314 0.804663 29.6346C0.742956 29.6343 0.681404 29.6408 0.621137 29.654H0.60167C0.448003 29.6974 0.311749 29.7877 0.212013 29.9124C0.112277 30.037 0.0540621 30.1898 0.0455359 30.3492C0.0455359 30.3798 0.0455359 30.4104 0.0455359 30.441C0.0404215 30.5903 0.067304 30.7391 0.124375 30.8772C0.181445 31.0153 0.267385 31.1396 0.376437 31.2418C0.598042 31.4573 0.853565 31.6348 1.13278 31.7674C1.49072 31.9235 1.87678 32.0049 2.26729 32.0065C2.74821 31.9975 3.22186 31.8876 3.65763 31.6839C4.12999 31.4755 4.55617 31.1751 4.91134 30.8004C5.26652 30.4256 5.5436 29.984 5.72645 29.5011C6.14077 28.4695 6.49948 27.4128 6.83872 26.3478C7.3448 24.7054 7.82308 23.0509 8.27355 21.3843C8.42233 20.8678 8.50273 20.334 8.51269 19.7966V19.6853C8.51406 19.6761 8.51406 19.6667 8.51269 19.6575C8.51232 19.5031 8.48153 19.3502 8.42209 19.2076C8.36264 19.065 8.27569 18.9356 8.16621 18.8266C8.05673 18.7177 7.92686 18.6313 7.78401 18.5725C7.64117 18.5138 7.48814 18.4837 7.33368 18.4841L7.30031 18.4785Z" fill="white"/>
<path id="Vector_13" d="M17.8704 18.5195H17.7925C17.1025 18.5504 16.4455 18.8242 15.9378 19.2926C15.1955 19.9024 14.5991 20.6708 14.1925 21.5412C13.7859 22.4117 13.5794 23.3621 13.5882 24.3228C13.5901 24.7287 13.6217 25.1339 13.6827 25.5352C13.7355 26.0513 13.9798 26.5289 14.3674 26.8738C14.755 27.2187 15.2578 27.4058 15.7765 27.3982C16.0664 27.3965 16.3539 27.3467 16.6274 27.2508H16.6497C17.4299 26.967 18.1076 26.4567 18.5961 25.7854C19.5292 24.559 20.0404 23.0636 20.0532 21.5227C20.0887 20.7905 19.9026 20.0647 19.5193 19.4399C19.3466 19.1585 19.1039 18.9266 18.8149 18.7668C18.526 18.607 18.2006 18.5247 17.8704 18.5279V18.5195ZM17.8704 19.262C18.0644 19.2641 18.2508 19.3371 18.3948 19.4672C18.5387 19.5973 18.6301 19.7755 18.6518 19.9683V19.9849C18.6518 19.9849 18.6518 19.9849 18.6518 20.0016C18.6894 20.2024 18.7081 20.4063 18.7074 20.6106C18.6971 21.0818 18.6232 21.5495 18.4877 22.0009C18.2096 23.027 17.8815 24.0503 17.5228 25.0597C17.3596 25.4513 17.1353 25.8145 16.8582 26.1358C16.6798 26.3441 16.4537 26.5063 16.1992 26.6085H16.1825C16.0637 26.6587 15.9361 26.6852 15.8071 26.6864C15.6102 26.6817 15.421 26.6092 15.2715 26.4809C15.122 26.3527 15.0214 26.1768 14.9868 25.9829C14.9498 25.7992 14.9238 25.6135 14.909 25.4267C15.0224 23.6563 15.5185 21.9315 16.3633 20.3715C16.5173 20.1027 16.7135 19.8605 16.9444 19.654C17.1217 19.4955 17.3328 19.3794 17.5617 19.3148C17.6642 19.2815 17.771 19.2637 17.8787 19.262H17.8704Z" fill="white"/>
<path id="Vector_14" d="M29.6407 18.5195H29.5406C28.9279 18.5509 28.3422 18.7813 27.8722 19.1758C27.0834 19.7779 26.4462 20.5562 26.0117 21.4484C25.5772 22.3406 25.3573 23.3221 25.3696 24.3145C25.3706 24.7221 25.4013 25.1292 25.4614 25.5324C25.5097 26.0486 25.751 26.5275 26.1371 26.8734C26.5233 27.2194 27.0258 27.4068 27.5441 27.3982C27.8842 27.395 28.2207 27.329 28.5368 27.2036C29.3388 26.8762 30.0237 26.3153 30.5028 25.5936C31.3467 24.4002 31.803 22.976 31.8097 21.5143V21.4448C31.8426 20.7378 31.6572 20.0379 31.2786 19.4399C31.1067 19.1573 30.8644 18.9242 30.5753 18.7633C30.2863 18.6024 29.9604 18.5194 29.6296 18.5223L29.6407 18.5195ZM29.5963 19.2703H29.6129C29.8061 19.2571 29.9971 19.3174 30.1477 19.4391C30.2983 19.5608 30.3973 19.7349 30.4249 19.9266C30.4588 20.1104 30.4821 20.2961 30.4944 20.4827C30.4159 21.5778 30.1896 22.6572 29.8215 23.6916C29.645 24.2381 29.439 24.7747 29.2042 25.2988C29.0577 25.6009 28.8706 25.8816 28.648 26.133C28.4925 26.3116 28.3036 26.458 28.0919 26.564H28.078C27.9286 26.6359 27.7655 26.6748 27.5997 26.678C27.3898 26.679 27.1875 26.5988 27.0352 26.4543C26.8829 26.3097 26.7922 26.112 26.7822 25.9022C26.7611 25.7176 26.7509 25.5319 26.7516 25.3461C26.7537 24.9867 26.7826 24.6279 26.8378 24.2727C27.0169 23.09 27.3751 21.9414 27.9 20.8664C28.1313 20.4371 28.4112 20.0359 28.7342 19.6707C28.8421 19.5535 28.9739 19.4608 29.1207 19.3989C29.2675 19.337 29.4259 19.3074 29.5851 19.312L29.5963 19.2703Z" fill="white"/>
<path id="Vector_15" d="M8.76802 14.2676C8.49958 14.2676 8.24213 14.3742 8.05232 14.564C7.8625 14.7539 7.75586 15.0113 7.75586 15.2797C7.75586 15.5482 7.8625 15.8056 8.05232 15.9955C8.24213 16.1853 8.49958 16.2919 8.76802 16.2919C8.90212 16.2961 9.03566 16.273 9.16058 16.2241C9.28551 16.1752 9.39923 16.1015 9.49487 16.0074C9.59051 15.9133 9.66609 15.8008 9.71704 15.6767C9.76799 15.5526 9.79325 15.4194 9.79131 15.2853C9.79023 15.1513 9.76262 15.0189 9.71008 14.8956C9.65754 14.7723 9.58112 14.6607 9.48521 14.5671C9.3893 14.4735 9.27581 14.3998 9.15128 14.3503C9.02676 14.3008 8.89367 14.2765 8.75968 14.2787L8.76802 14.2676Z" fill="white"/>
</g>
<defs>
<clipPath id="clip0_1171_12923">
<rect width="97" height="33.0002" fill="white"/>
</clipPath>
</defs>
</svg>
