<svg width="97" height="33" viewBox="0 0 97 33" fill="none" xmlns="http://www.w3.org/2000/svg">
    <path d="M6.97538 0.283813H2.72095V12.174H6.99206V8.01131H9.53916V12.1768H13.7741V0.283813H9.52803V4.199H6.97538V0.283813Z" fill="#1C1C1B"/>
    <path d="M55.1672 0.272705H54.8891V12.1796H59.0601V8.45345C59.1275 8.49353 59.1816 8.5525 59.2158 8.62307C59.8025 9.73534 60.3948 10.8476 60.976 11.9849C61.0007 12.0519 61.0468 12.1088 61.1071 12.147C61.1674 12.1852 61.2386 12.2025 61.3097 12.1962H65.6281C65.7044 12.1926 65.7805 12.1852 65.8561 12.174C64.805 10.5556 63.7733 8.97066 62.7362 7.36899C62.7884 7.34561 62.8423 7.3261 62.8974 7.3106C63.304 7.23007 63.6835 7.04781 64.0006 6.78085C64.3176 6.51389 64.5618 6.17093 64.7104 5.784C64.9054 5.32159 65.0002 4.82309 64.9885 4.32138C64.9885 4.17678 64.9885 4.0294 64.9718 3.88202C64.8634 2.38046 64.1571 1.28766 62.7473 0.703715C61.9862 0.404858 61.1733 0.260242 60.3559 0.278272H55.1672M59.6913 3.37872C59.8039 3.37773 59.9163 3.38516 60.0278 3.40096H60.0445C60.6534 3.49829 60.9454 3.88759 60.9426 4.52993C60.9426 4.57164 60.9426 4.61056 60.9426 4.65227C60.9333 4.91691 60.8224 5.16778 60.6328 5.35268C60.4432 5.53758 60.1897 5.64227 59.9249 5.64497C59.822 5.64497 59.7219 5.64497 59.619 5.64497H59.0796V3.38706C59.1908 3.38706 59.2992 3.38706 59.4049 3.38706H59.683L59.6913 3.37872Z" fill="#1C1C1B"/>
    <path d="M39.9347 0.267099C39.8606 0.257985 39.7858 0.277312 39.7254 0.32118C39.665 0.365048 39.6236 0.430192 39.6093 0.503458C38.4581 3.77539 37.3032 7.04731 36.1446 10.3192C35.9277 10.9338 35.7136 11.5483 35.4911 12.1823H37.4738C38.2524 12.1823 39.0282 12.1823 39.8012 12.1823H39.9041C40.0598 12.1823 40.0876 12.0989 40.1154 11.9849C40.2044 11.615 40.3045 11.248 40.3768 10.8726C40.3781 10.8681 40.3781 10.8632 40.3768 10.8587C40.4074 10.728 40.4686 10.6946 40.5992 10.6946H43.4049C43.544 10.6946 43.6079 10.7336 43.6413 10.8698C43.6425 10.8762 43.6425 10.8828 43.6413 10.8893C43.7358 11.3175 43.8554 11.7429 43.9666 12.1767H48.5297C48.5197 12.1177 48.5067 12.0592 48.4908 12.0015C47.1616 8.16422 45.8334 4.32596 44.5061 0.486775C44.4895 0.419441 44.4484 0.360721 44.3908 0.322139C44.3332 0.283557 44.2632 0.267897 44.1947 0.278224C43.4772 0.278224 42.7598 0.278224 42.0424 0.278224C41.3751 0.278224 40.7077 0.278224 40.0403 0.278224H39.9347M41.1915 7.82775C41.4835 6.54586 41.7755 5.26953 42.009 4.23512L42.8266 7.82775H41.1915Z" fill="#1C1C1B"/>
    <path d="M76.7925 0.000155152C76.3516 -0.00296028 75.9117 0.0408506 75.48 0.130847C73.5503 0.545168 72.0348 1.9939 71.9347 4.08497C71.9347 4.15448 71.9347 4.224 71.9347 4.29352C71.9073 4.9543 72.0924 5.60646 72.4627 6.15441C72.833 6.70236 73.3691 7.11728 73.9924 7.33835C74.4456 7.51075 74.9323 7.58861 75.3966 7.73043C75.7043 7.80796 76.002 7.92087 76.2837 8.06689C76.3582 8.10324 76.4213 8.15921 76.4664 8.22878C76.5115 8.29835 76.5367 8.37889 76.5395 8.46175C76.5353 8.55246 76.5074 8.64049 76.4586 8.71709C76.4098 8.79368 76.3418 8.85616 76.2614 8.89831C76.1746 8.94734 76.0808 8.98296 75.9833 9.00398C75.8329 9.03921 75.679 9.05694 75.5245 9.05681C75.1609 9.04942 74.8029 8.96606 74.4734 8.81211C73.8617 8.53405 73.2778 8.20314 72.6521 7.8778C72.6521 7.89449 72.6215 7.93898 72.602 7.98625C72.2489 8.85382 71.893 9.72139 71.5426 10.589C71.467 10.7402 71.4163 10.9026 71.3925 11.07C71.3925 11.2341 71.5315 11.3064 71.8902 11.4843C73.1298 12.1363 74.505 12.4887 75.9055 12.5132C76.4041 12.5129 76.9014 12.4636 77.3904 12.3658H77.421C79.1783 12.0071 81.0358 10.589 81.0581 8.12529V8.06967C81.0872 7.35976 80.8748 6.66094 80.4557 6.08725C80.0365 5.51356 79.4353 5.09886 78.7501 4.91083C78.5499 4.84965 78.3386 4.81628 78.1356 4.75233C77.6045 4.58827 77.0706 4.43255 76.5562 4.22678C76.479 4.1826 76.4125 4.12216 76.3611 4.04965C76.3097 3.97714 76.2748 3.8943 76.2586 3.8069C76.2573 3.79024 76.2573 3.7735 76.2586 3.75684C76.2586 3.56219 76.4477 3.45097 76.6285 3.37867C76.7181 3.34645 76.8116 3.32589 76.9065 3.3175C76.9989 3.3075 77.0917 3.30286 77.1846 3.3036C77.7825 3.31927 78.3664 3.48775 78.8808 3.79299L78.9114 3.80967C79.1311 3.93202 79.3396 4.08775 79.5676 4.21566L80.8523 1.1013C79.6193 0.379787 78.2156 0.00149888 76.787 0.00571345L76.7925 0.000155152Z" fill="#1C1C1B"/>
    <path d="M29.5655 0.281006H21.7073V12.1712H29.6684V8.92612H25.8756V7.71375H29.2346V4.63276H25.8811V3.50937H29.5655V0.281006Z" fill="#1C1C1B"/>
    <path d="M87.3007 0.292114V4.18784H89.6448V12.1851H93.8936V4.17394H96.2377V0.292114H87.3007Z" fill="#1C1C1B"/>
    <path d="M56.9997 18.4639C56.8843 18.4636 56.7697 18.4824 56.6604 18.5195C56.3789 18.6347 56.1057 18.7694 55.8429 18.9227C55.4532 18.6253 54.9761 18.465 54.4859 18.4667C54.2208 18.468 53.9574 18.5093 53.7046 18.589C53.1272 18.7604 52.5998 19.0689 52.1674 19.4882C51.735 19.9075 51.4104 20.4252 51.2214 20.9971C51.0466 21.4509 50.9525 21.9318 50.9434 22.418C50.9417 22.8205 51.0293 23.2183 51.2 23.5828C51.3708 23.9473 51.6202 24.2694 51.9305 24.5258V24.5786C51.797 24.6231 51.6524 24.662 51.5273 24.7121C50.933 24.9073 50.4198 25.2935 50.0674 25.8104C49.9135 26.0433 49.8295 26.3154 49.8255 26.5946C49.8259 26.7804 49.8676 26.9638 49.9474 27.1316C50.0272 27.2994 50.1432 27.4475 50.2871 27.565C50.4515 27.708 50.6398 27.8209 50.8432 27.8987C51.3716 28.0767 51.911 28.2157 52.4421 28.377C53.0663 28.5429 53.6817 28.7406 54.2857 28.9693C54.4574 29.0236 54.6083 29.1292 54.7182 29.2719C54.8281 29.4146 54.8916 29.5875 54.9003 29.7673C54.8925 29.9055 54.857 30.0408 54.7958 30.165C54.7347 30.2892 54.6491 30.3998 54.5443 30.4903C54.2941 30.7242 54.0002 30.9065 53.6795 31.027C53.2333 31.1851 52.7626 31.2632 52.2892 31.2578C52.0233 31.2568 51.7577 31.2391 51.4939 31.2049C51.1163 31.1662 50.7483 31.0618 50.4067 30.8963C49.9034 30.6377 49.6503 30.2734 49.6503 29.8702C49.6701 29.5305 49.8124 29.2094 50.0508 28.9665L50.1008 28.9081C50.195 28.8037 50.2543 28.6724 50.2704 28.5327C50.2697 28.4576 50.2453 28.3847 50.2009 28.3242V28.3103C50.1569 28.2499 50.0991 28.201 50.0324 28.1677C49.9656 28.1343 49.8918 28.1174 49.8172 28.1184C49.756 28.1197 49.6952 28.129 49.6364 28.1462C49.3472 28.2222 49.0818 28.3698 48.8646 28.5754C48.6474 28.7809 48.4854 29.0378 48.3935 29.3224C48.3394 29.4848 48.3113 29.6546 48.3101 29.8257C48.3192 30.2371 48.4877 30.6289 48.78 30.9185C49.1192 31.2725 49.5447 31.5322 50.0146 31.6721C50.7112 31.8948 51.4383 32.0074 52.1696 32.0058C52.6905 32.0045 53.2101 31.9533 53.7212 31.8528L53.813 31.8361C54.6628 31.6938 55.428 31.2373 55.9569 30.557C56.2212 30.1949 56.3608 29.7568 56.3545 29.3085C56.3528 28.9811 56.2664 28.6597 56.1037 28.3756C55.9409 28.0915 55.7074 27.8544 55.4258 27.6874C55.1657 27.5257 54.8851 27.3994 54.5916 27.312C53.9632 27.1312 53.3236 26.9867 52.6896 26.8254C52.2697 26.7169 51.8554 26.6307 51.4383 26.4861C51.3447 26.4638 51.2607 26.412 51.1987 26.3385C51.1366 26.2649 51.0998 26.1734 51.0935 26.0774C51.098 25.9981 51.1201 25.9208 51.158 25.8511C51.196 25.7814 51.249 25.7209 51.3132 25.6742C51.4606 25.5471 51.633 25.4524 51.8193 25.3961C52.2867 25.2642 52.761 25.1583 53.2402 25.0791C54.6305 24.865 56.26 23.9001 56.6104 22.0788C56.6792 21.7447 56.7155 21.4048 56.7188 21.0638C56.7229 20.5794 56.6234 20.0996 56.4268 19.6568C56.4226 19.6366 56.4226 19.6158 56.4268 19.5956C56.4268 19.5484 56.4268 19.4955 56.4407 19.4482C56.5129 19.4564 56.5834 19.4761 56.6493 19.5066C56.7355 19.5789 56.7967 19.6818 56.8829 19.7597V19.7736C57.0045 19.8922 57.1663 19.9607 57.3361 19.9654C57.418 19.9649 57.499 19.9475 57.5739 19.9144C57.6489 19.8813 57.7162 19.8331 57.7717 19.7729C57.8273 19.7127 57.8698 19.6416 57.8968 19.5643C57.9237 19.4869 57.9345 19.4048 57.9284 19.3231C57.9284 19.2925 57.9284 19.2619 57.9284 19.2314V19.2174C57.8957 19.0001 57.784 18.8026 57.6147 18.6625C57.4454 18.5224 57.2304 18.4497 57.0108 18.4583L56.9997 18.4639ZM54.5638 19.1869C54.7514 19.1977 54.9288 19.276 55.0632 19.4073C55.1976 19.5386 55.28 19.7142 55.2951 19.9015C55.2951 19.9015 55.2951 19.9015 55.2951 19.9182C55.3274 20.0859 55.3432 20.2563 55.3424 20.427C55.3355 20.7791 55.2869 21.1291 55.1978 21.4698C55.0343 22.2135 54.7606 22.9286 54.3858 23.5914C54.2962 23.7605 54.1727 23.9093 54.0229 24.0285C53.8731 24.1476 53.7004 24.2345 53.5155 24.2838C53.4334 24.3033 53.3495 24.3135 53.2652 24.3144C53.0364 24.3165 52.8155 24.2314 52.6471 24.0765C52.4788 23.9215 52.3757 23.7084 52.3587 23.4802C52.342 23.3384 52.3448 23.2022 52.3393 23.0993C52.4049 21.9828 52.7773 20.9061 53.4154 19.9877C53.5893 19.7317 53.8147 19.5148 54.0772 19.3509C54.2213 19.2563 54.3887 19.2034 54.561 19.198" fill="#1C1C1B"/>
    <path d="M94.7361 18.4638C94.6296 18.4634 94.5236 18.4793 94.4219 18.5111C94.1349 18.6271 93.8562 18.7628 93.5877 18.917H93.5683C93.1802 18.6542 92.7268 18.504 92.2586 18.4833C92.1176 18.484 91.977 18.498 91.8387 18.525H91.8192C90.2871 18.8253 89.3528 19.818 88.8995 21.2361C88.7683 21.6232 88.6988 22.0286 88.6937 22.4374C88.6905 22.8342 88.7756 23.2267 88.943 23.5865C89.1104 23.9462 89.3558 24.2642 89.6614 24.5173C89.1867 24.7455 88.731 25.0114 88.2989 25.3126C88.0902 25.4597 87.9172 25.6517 87.7926 25.8745C87.6679 26.0973 87.5948 26.3452 87.5787 26.6C87.5787 27.1562 87.9763 27.6734 88.7382 27.957C89.2944 28.1656 89.8783 28.2712 90.4428 28.4464C91.038 28.6099 91.6207 28.8163 92.1863 29.0637C92.3274 29.1188 92.449 29.2145 92.5356 29.3388C92.6222 29.463 92.67 29.6102 92.6729 29.7617C92.6635 29.9885 92.5806 30.2062 92.4365 30.3817C92.1553 30.7368 91.764 30.9882 91.3243 31.0964H91.3048H91.2853C90.8653 31.2074 90.4324 31.2626 89.9979 31.2604C89.7926 31.2603 89.5874 31.2492 89.3833 31.2271H89.3555C88.9712 31.1916 88.5954 31.0929 88.2433 30.9351C87.7066 30.6793 87.4369 30.3095 87.4369 29.8924C87.4552 29.553 87.5908 29.2306 87.8206 28.9803L87.8651 28.9163C87.972 28.8209 88.0394 28.689 88.0542 28.5465C88.053 28.4745 88.0297 28.4046 87.9874 28.3463C87.945 28.2821 87.8871 28.2296 87.8191 28.1937C87.7511 28.1577 87.6751 28.1394 87.5982 28.1405C87.5301 28.1412 87.4625 28.1525 87.3979 28.1739C87.033 28.2735 86.7095 28.4872 86.4748 28.784C86.2401 29.0807 86.1066 29.4447 86.0938 29.8228C86.0962 30.2376 86.2574 30.6356 86.5443 30.9351C86.8834 31.2891 87.3075 31.5504 87.7761 31.6942H87.7928H87.8067H87.8373C88.5094 31.9047 89.2101 32.0098 89.9145 32.0057C90.3491 32.0036 90.783 31.9711 91.213 31.9083H91.277C92.149 31.8107 92.958 31.4067 93.5599 30.7683C93.9309 30.3883 94.1428 29.8811 94.1522 29.3501C94.1514 29.1478 94.1224 28.9466 94.066 28.7523C93.9659 28.4371 93.789 28.1519 93.5511 27.9223C93.3132 27.6926 93.0219 27.5259 92.7035 27.437C92.2057 27.2591 91.6857 27.1395 91.1713 27.0032C90.5484 26.8392 89.92 26.6946 89.2971 26.5277C89.1991 26.5143 89.1081 26.4693 89.0379 26.3996C88.9677 26.3298 88.922 26.2392 88.9079 26.1412C88.9051 26.1172 88.9051 26.0929 88.9079 26.0689C88.9084 25.9774 88.9348 25.8878 88.984 25.8106C89.0332 25.7334 89.1032 25.6716 89.1859 25.6324C89.4097 25.4917 89.6522 25.3832 89.9061 25.3098C90.376 25.1902 90.8654 25.1402 91.3382 25.0317C92.709 24.6981 93.7768 23.9667 94.2662 22.5959C94.4422 22.1318 94.5363 21.6406 94.5443 21.1444C94.5457 20.6351 94.4405 20.1312 94.2356 19.665C94.2325 19.6485 94.2325 19.6315 94.2356 19.615C94.2356 19.5677 94.2551 19.5093 94.2606 19.4593C94.332 19.4697 94.4008 19.4933 94.4636 19.5288C94.5693 19.6178 94.6499 19.7429 94.7584 19.8291C94.8667 19.9208 95.003 19.9728 95.1449 19.9765C95.237 19.9752 95.3274 19.9523 95.4091 19.9097C95.5142 19.8565 95.6013 19.7736 95.6597 19.6713C95.718 19.5689 95.745 19.4517 95.7372 19.3341V19.298C95.7256 19.0632 95.6219 18.8424 95.4485 18.6836C95.2752 18.5248 95.0462 18.4408 94.8112 18.4499L94.7361 18.4638ZM92.3336 19.1979C92.7007 19.1979 92.9676 19.4759 93.0427 19.9403C93.0427 19.9403 93.0427 19.9626 93.0427 19.9737C93.0672 20.1394 93.0793 20.3067 93.0789 20.4742C93.0771 20.8655 93.0133 21.2541 92.8898 21.6254C92.6908 22.2645 92.4473 22.8889 92.1612 23.494C92.0028 23.7892 91.7636 24.0332 91.4716 24.1975C91.3291 24.2813 91.1671 24.3264 91.0017 24.3282C90.7822 24.3186 90.573 24.2324 90.4104 24.0846C90.2479 23.9368 90.1422 23.7367 90.1119 23.519C90.0896 23.3967 90.0813 23.2744 90.0702 23.1742C90.1252 21.9551 90.55 20.7815 91.2881 19.8096C91.4896 19.5565 91.7571 19.3641 92.0611 19.2535C92.1453 19.2248 92.2336 19.2098 92.3225 19.209" fill="#1C1C1B"/>
    <path d="M39.6177 18.4638C39.4922 18.4654 39.3677 18.4851 39.2478 18.5222H39.2256C38.8852 18.6435 38.573 18.8327 38.308 19.0783C37.7878 19.5876 37.3597 20.1832 37.0428 20.8385C37.0154 20.8971 36.9922 20.9575 36.9732 21.0193H37.3125H37.496H37.5572C37.6211 21.0193 37.6838 21.002 37.7387 20.9692C37.7935 20.9364 37.8384 20.8893 37.8686 20.8329C38.0919 20.4835 38.339 20.15 38.6083 19.8347C38.7112 19.7151 38.9086 19.6817 39.0615 19.6067C39.0615 19.7151 39.0782 19.8263 39.0782 19.9348C39.0789 19.991 39.0724 20.0471 39.0587 20.1016C38.6083 21.6171 38.1467 23.127 37.6851 24.6397C37.407 25.5239 37.129 26.4082 36.8509 27.323H37.6128C37.7935 27.323 37.9743 27.323 38.1522 27.323H38.1801C38.2452 27.3288 38.3102 27.3096 38.3618 27.2693C38.4134 27.2291 38.4478 27.1708 38.4581 27.1061V27.0839C38.8168 25.9716 39.1644 24.8427 39.5704 23.7471C40.0378 22.4334 40.7439 21.2173 41.6531 20.16C41.9 19.8823 42.1857 19.6417 42.5012 19.4454C42.5878 19.4033 42.6831 19.3823 42.7793 19.3842C42.87 19.3809 42.96 19.401 43.0407 19.4426C43.1575 19.5177 43.1686 19.7791 43.1936 19.9626C43.1936 19.9626 43.1936 19.9876 43.1936 19.9987C43.1855 20.0946 43.162 20.1885 43.1241 20.2768C42.7237 21.4753 42.3093 22.6682 41.9201 23.8694C41.6837 24.6008 41.4501 25.3349 41.2805 26.094C41.2619 26.178 41.2526 26.2638 41.2527 26.3498C41.2603 26.6123 41.3582 26.864 41.53 27.0626C41.7017 27.2612 41.9367 27.3945 42.1953 27.4398C42.3084 27.4662 42.4241 27.4793 42.5401 27.4788C42.9324 27.4669 43.3109 27.3316 43.6218 27.0922C44.3448 26.5723 44.7897 25.8298 45.2124 25.0596H45.2596C45.0622 25.0345 44.9204 25.0206 44.8064 25.0179C44.5005 25.0179 44.4171 25.1402 44.1279 25.574C43.9914 25.7817 43.8369 25.9771 43.6663 26.1579C43.5308 26.2965 43.3729 26.4112 43.1992 26.4972C43.1555 26.5167 43.108 26.5262 43.0601 26.525C42.9963 26.5248 42.9331 26.5125 42.8738 26.4888C42.8516 26.4888 42.8405 26.4165 42.8405 26.3498C42.8405 26.3 42.8471 26.2505 42.8599 26.2024C43.138 25.3237 43.4161 24.4506 43.6941 23.5747C44.0167 22.557 44.3726 21.5448 44.6451 20.5159C44.6881 20.3516 44.7105 20.1825 44.7118 20.0126C44.7214 19.6572 44.5997 19.3107 44.3698 19.0393C44.14 18.7679 43.8183 18.5908 43.4661 18.5417C43.3699 18.523 43.2721 18.5137 43.1741 18.5139C42.7484 18.5303 42.3375 18.6747 41.9951 18.9282C41.4229 19.3195 40.9271 19.8124 40.5325 20.3825C40.4797 20.4603 40.4213 20.5382 40.3323 20.6605C40.3768 20.3992 40.4157 20.2101 40.438 20.0154C40.4615 19.8505 40.4754 19.6843 40.4797 19.5177C40.4797 19.4899 40.4797 19.4621 40.4797 19.4343C40.4519 18.8309 40.1126 18.4583 39.6121 18.4583L39.6177 18.4638Z" fill="#1C1C1B"/>
    <path d="M80.8717 18.4638C80.4735 18.4769 80.0873 18.6043 79.7595 18.8308C79.2181 19.2027 78.7528 19.6746 78.3886 20.2212C78.2996 20.3463 78.2106 20.4714 78.1522 20.5493C78.1522 20.2267 78.194 19.8847 78.194 19.5399C78.194 19.4231 78.194 19.3063 78.1801 19.1895C78.1717 19.0847 78.1426 18.9826 78.0944 18.8891C78.0463 18.7956 77.9801 18.7126 77.8997 18.6448C77.8193 18.577 77.7262 18.5259 77.6259 18.4944C77.5256 18.4628 77.42 18.4515 77.3153 18.461H77.2986C76.9737 18.4642 76.6586 18.5725 76.4004 18.7697H76.3865C75.6191 19.3397 75.1602 20.1433 74.6848 20.9942H74.9044H75.0351C75.099 20.9899 75.1631 20.9899 75.227 20.9942H75.2909C75.363 20.9925 75.4332 20.9712 75.494 20.9325C75.5548 20.8937 75.6038 20.8391 75.6357 20.7745C75.8707 20.4218 76.127 20.0838 76.4032 19.7624C76.5237 19.6634 76.66 19.5853 76.8064 19.5316L76.887 19.6011C76.8656 19.806 76.8313 20.0094 76.7842 20.21C76.1668 22.2362 75.5449 24.2624 74.9183 26.2886L74.6152 27.273H76.0973C76.5784 25.916 77.0122 24.5785 77.521 23.2716C77.9654 22.1171 78.6166 21.0532 79.4425 20.1322C79.6881 19.8541 79.9762 19.6167 80.2961 19.4287C80.386 19.3739 80.4885 19.3433 80.5937 19.3397C80.8384 19.3397 80.9997 19.5483 80.9774 19.8736V19.8958C80.9695 20.0015 80.9499 20.1059 80.919 20.2073C80.5686 21.2723 80.2016 22.3317 79.8596 23.3967C79.5815 24.2643 79.2895 25.1263 79.0727 26.0078C79.0457 26.1103 79.0316 26.2159 79.0309 26.322C79.0382 26.5975 79.144 26.8613 79.3292 27.0654C79.5145 27.2695 79.7668 27.4004 80.0403 27.4342H80.057C80.1432 27.4507 80.2307 27.4591 80.3184 27.4593C80.5794 27.4553 80.8357 27.3896 81.0664 27.2674H81.0914C82.0229 26.7863 82.5123 25.9243 83.0379 25.0151H82.8544H82.7988C82.7608 25.0179 82.7227 25.0179 82.6847 25.0151C82.6351 25.0065 82.5849 25.0019 82.5346 25.0012C82.4097 25.0069 82.2886 25.0464 82.1843 25.1155C82.0801 25.1845 81.9964 25.2805 81.9423 25.3932C81.6758 25.7643 81.369 26.1047 81.0275 26.4082C80.9573 26.4529 80.8736 26.4716 80.7911 26.461H80.5742C80.5742 26.3748 80.5547 26.2858 80.5547 26.1996C80.5546 26.161 80.5602 26.1226 80.5714 26.0856C80.8495 25.1597 81.1721 24.242 81.464 23.3188C81.7727 22.3428 82.1036 21.3724 82.3538 20.3797C82.3918 20.2363 82.4114 20.0887 82.4122 19.9403C82.4154 19.588 82.291 19.2465 82.062 18.9787C81.8331 18.7109 81.515 18.5349 81.1665 18.4833C81.0749 18.465 80.9818 18.4557 80.8884 18.4554L80.8717 18.4638Z" fill="#1C1C1B"/>
    <path d="M66.9489 18.4638C66.7327 18.4679 66.5181 18.5035 66.3122 18.5695C66.0731 18.6361 65.844 18.7343 65.6309 18.8614C63.3758 20.2796 62.0438 22.29 61.7797 24.9567C61.7797 25.0512 61.7658 25.143 61.7658 25.2347C61.7647 25.73 61.9119 26.2142 62.1884 26.6251L62.219 26.6668C62.369 26.9005 62.5744 27.0936 62.8169 27.2289C63.0595 27.3643 63.3317 27.4377 63.6093 27.4426C63.8638 27.4404 64.1149 27.3845 64.3462 27.2785C64.7037 27.1025 65.038 26.883 65.3417 26.6251C65.6244 26.3784 65.8945 26.1176 66.1509 25.8437C66.1509 25.9021 66.1509 25.9549 66.1509 26.0022C66.1509 26.0495 66.1509 26.0606 66.1509 26.0884V26.1079C66.1509 26.9171 66.6208 27.4482 67.2631 27.4482C67.4911 27.444 67.7146 27.3838 67.9138 27.273H67.9277C68.9093 26.7335 69.4849 25.8382 69.9382 24.7926H69.6184C69.5721 24.7954 69.5256 24.7954 69.4793 24.7926H69.3876C69.3134 24.7926 69.2407 24.8138 69.1781 24.8537C69.1156 24.8936 69.0657 24.9506 69.0344 25.0179C68.8568 25.3245 68.651 25.614 68.4199 25.8826C68.2679 26.0548 68.0837 26.1956 67.8777 26.297C67.8216 26.3289 67.7587 26.347 67.6941 26.3498C67.5579 26.3498 67.4884 26.2358 67.5078 26.0328C67.5347 25.8322 67.5813 25.6347 67.6469 25.4433C68.3346 23.2836 69.0242 21.1231 69.7157 18.9615C69.7491 18.8559 69.7741 18.7502 69.8102 18.6195H68.723H68.5868H68.5256C68.3226 18.6195 68.1585 18.7141 68.1641 19.0978C68.0291 18.9006 67.8476 18.7396 67.6357 18.629C67.4238 18.5184 67.1879 18.4617 66.9489 18.4638ZM66.9489 19.298C67.3688 19.298 67.658 19.6178 67.6274 20.1572V20.1739C67.5786 20.6742 67.478 21.1681 67.3271 21.6477C67.0575 22.6845 66.6645 23.6853 66.1564 24.6286C65.794 25.2924 65.2829 25.8634 64.6632 26.297H64.6493C64.4583 26.4538 64.2251 26.5506 63.9792 26.575C63.8754 26.5746 63.7732 26.5489 63.6816 26.5C63.3229 26.3081 63.3229 25.9188 63.309 25.5629C63.309 25.5434 63.309 25.5239 63.309 25.5072C63.309 25.4906 63.309 25.4489 63.309 25.435C63.309 25.4211 63.309 25.3682 63.309 25.3348C63.3239 24.773 63.4358 24.2179 63.6399 23.6943C64.0035 22.6481 64.5047 21.6551 65.1304 20.7412C65.341 20.4266 65.5772 20.1299 65.8367 19.8541C66.0248 19.6673 66.2429 19.5132 66.4818 19.3981H66.4957C66.6383 19.3341 66.7926 19.3 66.9489 19.298Z" fill="#1C1C1B"/>
    <path d="M7.30068 18.4778C7.06209 18.4793 6.82809 18.5435 6.62219 18.6641H6.60551C6.30769 18.8533 6.04045 19.0867 5.81302 19.3565C5.30289 19.9514 4.9315 20.6524 4.72577 21.4086H5.06224C5.12705 21.4044 5.19207 21.4044 5.25688 21.4086H5.30972C5.46265 21.4086 5.53773 21.328 5.60447 21.1834C5.75048 20.8329 5.92728 20.496 6.13279 20.1768C6.32174 19.9322 6.5382 19.7101 6.77791 19.515C6.83875 19.4736 6.91014 19.4505 6.98368 19.4482C7.00474 19.4436 7.02658 19.4436 7.04764 19.4482C7.10881 19.4761 7.14218 19.6151 7.14218 19.7096C7.13707 19.8672 7.11089 20.0234 7.06432 20.174C6.24402 22.8935 5.42929 25.613 4.5923 28.3269C4.40932 28.9172 4.18826 29.4949 3.9305 30.0565C3.82512 30.3022 3.67025 30.5236 3.47553 30.7069C3.28082 30.8901 3.05044 31.0312 2.79877 31.1215C2.66023 31.175 2.51347 31.2042 2.36499 31.2077C2.01184 31.2077 1.77548 30.9908 1.63089 30.5515C1.63116 30.5468 1.63116 30.5422 1.63089 30.5376C1.57237 30.3463 1.49796 30.1603 1.40843 29.9814C1.3496 29.8736 1.26213 29.784 1.15566 29.7227C1.04919 29.6614 0.927857 29.6306 0.805029 29.6339C0.743322 29.6335 0.68177 29.6401 0.621503 29.6533H0.602037C0.448369 29.6966 0.312115 29.787 0.212379 29.9116C0.112643 30.0363 0.0544284 30.1891 0.0459021 30.3485C0.0459021 30.3791 0.0459021 30.4097 0.0459021 30.4402C0.0407877 30.5896 0.0676702 30.7383 0.124741 30.8765C0.181811 31.0146 0.267751 31.1389 0.376803 31.2411C0.598409 31.4565 0.853931 31.6341 1.13315 31.7666C1.49108 31.9228 1.87715 32.0042 2.26766 32.0058C2.74857 31.9967 3.22223 31.8868 3.658 31.6832C4.13036 31.4747 4.55653 31.1744 4.91171 30.7996C5.26688 30.4249 5.54396 29.9832 5.72682 29.5004C6.14114 28.4687 6.49985 27.4121 6.83909 26.3471C7.34517 24.7046 7.82345 23.0501 8.27392 21.3836C8.42269 20.8671 8.50309 20.3333 8.51305 19.7958V19.6846C8.51442 19.6754 8.51442 19.666 8.51305 19.6568C8.51269 19.5023 8.4819 19.3494 8.42245 19.2069C8.363 19.0643 8.27606 18.9348 8.16658 18.8259C8.0571 18.7169 7.92722 18.6306 7.78438 18.5718C7.64153 18.513 7.48851 18.483 7.33405 18.4833L7.30068 18.4778Z" fill="#1C1C1B"/>
    <path d="M17.87 18.5194H17.7922C17.1021 18.5502 16.4452 18.8241 15.9375 19.2924C15.1951 19.9023 14.5988 20.6706 14.1922 21.5411C13.7856 22.4115 13.5791 23.362 13.5878 24.3227C13.5898 24.7286 13.6214 25.1338 13.6823 25.535C13.7351 26.0512 13.9794 26.5288 14.367 26.8737C14.7546 27.2186 15.2574 27.4057 15.7762 27.3981C16.066 27.3963 16.3535 27.3465 16.6271 27.2507H16.6493C17.4295 26.9669 18.1073 26.4566 18.5958 25.7853C19.5289 24.5589 20.04 23.0635 20.0529 21.5225C20.0883 20.7904 19.9023 20.0646 19.519 19.4398C19.3462 19.1584 19.1035 18.9265 18.8146 18.7667C18.5256 18.6069 18.2002 18.5245 17.87 18.5278V18.5194ZM17.87 19.2618C18.064 19.264 18.2505 19.337 18.3944 19.4671C18.5383 19.5972 18.6297 19.7754 18.6514 19.9681V19.9848C18.6514 19.9848 18.6514 19.9848 18.6514 20.0015C18.6891 20.2023 18.7077 20.4062 18.707 20.6105C18.6967 21.0817 18.6228 21.5494 18.4873 22.0008C18.2093 23.0269 17.8811 24.0502 17.5224 25.0596C17.3593 25.4512 17.135 25.8144 16.8579 26.1357C16.6794 26.344 16.4533 26.5061 16.1988 26.6084H16.1822C16.0633 26.6586 15.9358 26.6851 15.8068 26.6862C15.6099 26.6816 15.4206 26.609 15.2711 26.4808C15.1216 26.3526 15.0211 26.1766 14.9865 25.9827C14.9494 25.7991 14.9234 25.6134 14.9086 25.4266C15.022 23.6562 15.5182 21.9314 16.3629 20.3713C16.5169 20.1026 16.7131 19.8604 16.9441 19.6539C17.1213 19.4953 17.3325 19.3793 17.5614 19.3147C17.6638 19.2814 17.7707 19.2636 17.8784 19.2618H17.87Z" fill="#1C1C1B"/>
    <path d="M29.6406 18.5194H29.5405C28.9278 18.5508 28.342 18.7812 27.8721 19.1756C27.0832 19.7778 26.4461 20.556 26.0116 21.4483C25.577 22.3405 25.3572 23.322 25.3695 24.3143C25.3705 24.722 25.4011 25.1291 25.4613 25.5323C25.5095 26.0484 25.7509 26.5274 26.137 26.8733C26.5232 27.2192 27.0256 27.4067 27.544 27.3981C27.8841 27.3949 28.2206 27.3289 28.5367 27.2035C29.3386 26.8761 30.0236 26.3151 30.5026 25.5934C31.3466 24.4 31.8029 22.9758 31.8095 21.5142V21.4447C31.8425 20.7377 31.657 20.0378 31.2784 19.4398C31.1066 19.1572 30.8642 18.924 30.5752 18.7632C30.2861 18.6023 29.9603 18.5193 29.6295 18.5222L29.6406 18.5194ZM29.5961 19.2702H29.6128C29.806 19.257 29.997 19.3173 30.1476 19.439C30.2981 19.5607 30.3972 19.7348 30.4248 19.9264C30.4587 20.1103 30.4819 20.296 30.4943 20.4826C30.4158 21.5777 30.1894 22.6571 29.8214 23.6915C29.6449 24.238 29.4388 24.7745 29.2041 25.2987C29.0576 25.6008 28.8704 25.8815 28.6479 26.1329C28.4924 26.3114 28.3035 26.4579 28.0918 26.5639H28.0779C27.9285 26.6358 27.7654 26.6747 27.5996 26.6779C27.3896 26.6789 27.1874 26.5987 27.0351 26.4542C26.8828 26.3096 26.7921 26.1118 26.7821 25.9021C26.761 25.7175 26.7508 25.5318 26.7515 25.346C26.7536 24.9865 26.7824 24.6278 26.8377 24.2726C27.0168 23.0898 27.375 21.9412 27.8999 20.8663C28.1312 20.437 28.4111 20.0358 28.7341 19.6706C28.842 19.5534 28.9738 19.4607 29.1206 19.3988C29.2674 19.3369 29.4258 19.3073 29.585 19.3119L29.5961 19.2702Z" fill="#1C1C1B"/>
    <path d="M8.76888 14.2678C8.50044 14.2678 8.24299 14.3745 8.05317 14.5643C7.86335 14.7541 7.75671 15.0115 7.75671 15.28C7.75671 15.5484 7.86335 15.8059 8.05317 15.9957C8.24299 16.1855 8.50044 16.2922 8.76888 16.2922C8.90297 16.2963 9.03651 16.2732 9.16144 16.2243C9.28636 16.1754 9.40008 16.1017 9.49572 16.0076C9.59136 15.9135 9.66694 15.801 9.71789 15.6769C9.76884 15.5528 9.79411 15.4197 9.79216 15.2856C9.79108 15.1516 9.76347 15.0191 9.71094 14.8958C9.6584 14.7726 9.58197 14.6609 9.48606 14.5673C9.39015 14.4737 9.27666 14.4001 9.15214 14.3506C9.02761 14.3011 8.89452 14.2767 8.76054 14.2789L8.76888 14.2678Z" fill="#1C1C1B"/>
</svg>
