<svg width="109" height="28" viewBox="0 0 109 28" fill="none" xmlns="http://www.w3.org/2000/svg">
<g clip-path="url(#clip0_647_5887)">
<path d="M67.5611 3.32044C67.5611 3.32965 67.5703 3.33425 67.5887 3.33425H67.9617V3.39412H66.6893V3.33425H67.0208C67.0392 3.33425 67.0484 3.32965 67.0484 3.32044V2.03264H65.8328V3.32044C65.8328 3.32965 65.8405 3.33425 65.8589 3.33425H66.1904V3.39412H64.918V3.33425H65.291C65.3094 3.33425 65.3186 3.32965 65.3186 3.32044V0.792426C65.3186 0.783217 65.3094 0.778612 65.291 0.778612H64.918V0.71875H66.1904V0.778612H65.8589C65.8405 0.778612 65.8328 0.783217 65.8328 0.792426V1.97278H67.0484V0.792426C67.0484 0.783217 67.0392 0.778612 67.0208 0.778612H66.6893V0.71875H67.9617V0.778612H67.5887C67.5703 0.778612 67.5611 0.783217 67.5611 0.792426V3.32044Z" fill="black"/>
<path d="M71.0964 2.22206C70.9797 2.22206 70.8999 2.1668 70.8999 2.07624C70.8999 1.99335 70.9505 1.99796 70.9505 1.93656C70.9505 1.87516 70.9106 1.846 70.8477 1.846C70.7848 1.846 70.6666 1.86749 70.5791 2.1361V3.31952C70.5791 3.32873 70.5883 3.33334 70.6052 3.33334H70.8324V3.3932H69.9375V3.33334H70.1647C70.1831 3.33334 70.1923 3.32873 70.1923 3.31952V1.85828C70.1923 1.84907 70.1831 1.84447 70.1647 1.84447H69.9375V1.78614H70.5668L70.5776 1.79688V2.04708C70.6451 1.83986 70.7894 1.75391 70.9613 1.75391C71.167 1.75391 71.3036 1.86289 71.3036 2.03173C71.3036 2.13764 71.2207 2.22359 71.0964 2.22359" fill="black"/>
<path d="M74.4537 3.42613C74.7438 3.42613 74.9787 3.28492 75.1352 3.0685L75.0907 3.03166C74.9449 3.23887 74.7484 3.36627 74.4537 3.36627C74.3447 3.36627 74.2588 3.34632 74.1836 3.27878C74.0608 3.1698 74.0239 3.04087 74.0239 2.58807C74.0239 2.5543 74.0239 2.54509 74.0239 2.51439H75.169L75.1813 2.50365C75.1813 2.1982 74.971 1.75 74.4537 1.75C73.9748 1.75 73.6172 2.12452 73.6172 2.58653C73.6172 3.04854 73.9764 3.42306 74.4537 3.42306M74.6655 1.89582C74.753 1.99559 74.7822 2.14754 74.7883 2.45453H74.0239C74.0332 2.14908 74.0715 1.99559 74.1836 1.89582C74.2588 1.82982 74.3447 1.80833 74.4537 1.80833C74.5458 1.80833 74.6057 1.82828 74.6655 1.89582Z" fill="black"/>
<path d="M68.7581 3.34939C68.9622 3.34939 69.0958 3.20357 69.0958 3.06389V2.50672C69.0006 2.56351 68.8625 2.56351 68.7412 2.585C68.6046 2.60956 68.4573 2.6817 68.4573 3.02859C68.4573 3.29259 68.6307 3.34939 68.7596 3.34939M68.2777 2.07694C68.2777 1.9434 68.445 1.75 68.7704 1.75C69.2477 1.75 69.4826 1.95875 69.4826 2.4315V3.19743C69.4826 3.28645 69.5271 3.32483 69.5885 3.32483C69.6622 3.32483 69.722 3.26497 69.7374 3.22659L69.7773 3.26497C69.7527 3.3325 69.6299 3.42153 69.4764 3.42153C69.2999 3.42153 69.1449 3.32022 69.1173 3.17748C69.0605 3.33864 68.9054 3.42153 68.6844 3.42153C68.316 3.42153 68.0781 3.29259 68.0781 3.02705C68.0781 2.63104 68.5002 2.54048 68.6614 2.52667C68.8901 2.50825 69.0942 2.4929 69.0942 2.41309V2.19206C69.0942 1.92345 68.9761 1.80833 68.7688 1.80833C68.6645 1.80833 68.6 1.85744 68.6 1.96796C68.6 2.03089 68.6338 2.05084 68.6338 2.11224C68.6338 2.17978 68.5785 2.24731 68.448 2.24731C68.3176 2.24731 68.2746 2.16136 68.2746 2.0754" fill="black"/>
<path d="M72.7547 1.89428C72.6857 1.82982 72.592 1.80833 72.4907 1.80833C72.3526 1.80833 72.2252 1.90042 72.1377 2.00326V3.12682C72.1899 3.26036 72.3449 3.3632 72.4907 3.3632C72.5905 3.3632 72.6841 3.34325 72.7547 3.27724C72.8698 3.1698 72.9466 2.98101 72.9466 2.59421C72.9466 2.20741 72.8698 2.00019 72.7547 1.89275M73.338 2.59421C73.338 3.0117 72.9834 3.42153 72.4907 3.42153C72.3403 3.42153 72.2252 3.32636 72.1377 3.2358V4.48216C72.1377 4.49137 72.1469 4.49597 72.1638 4.49597H72.3925V4.55583H71.4976V4.49597H71.7248C71.7432 4.49597 71.7509 4.49137 71.7509 4.48216V1.85591C71.7509 1.8467 71.7432 1.8421 71.7248 1.8421H71.4961V1.78377H72.1254L72.1362 1.79451V1.93726C72.2236 1.84517 72.3388 1.75 72.4892 1.75C72.9819 1.75 73.3365 2.17824 73.3365 2.59574" fill="black"/>
<path d="M78.2248 1.79688C78.2678 1.79688 78.2908 1.77846 78.2954 1.76312H78.3599V2.16219H78.2954C78.2954 1.93042 78.0882 1.81223 77.8917 1.81223C77.6953 1.81223 77.5894 1.90279 77.5894 2.04861C77.5894 2.23434 77.7229 2.32797 78.0253 2.41392C78.3415 2.50295 78.5502 2.65797 78.5502 2.90049C78.5502 3.20594 78.3031 3.42697 77.9086 3.42697C77.6738 3.42697 77.5725 3.31799 77.4497 3.31799C77.3729 3.31799 77.3315 3.37018 77.3223 3.39934H77.2578L77.2808 2.86826H77.3453C77.3346 3.14608 77.594 3.36711 77.9086 3.36711C78.1465 3.36711 78.2816 3.25813 78.2816 3.05705C78.2816 2.85598 78.122 2.77463 77.8319 2.6856C77.5479 2.59965 77.3499 2.48299 77.3499 2.23434C77.3499 1.9381 77.6369 1.75391 77.8917 1.75391C78.0575 1.75391 78.0729 1.79842 78.2248 1.79842" fill="black"/>
<path d="M77.044 1.23944C77.044 1.13046 77.136 1.04297 77.2481 1.04297C77.3694 1.04297 77.4614 1.13199 77.4614 1.26246C77.4614 1.45433 77.288 1.67996 77.0501 1.82271L77.0117 1.78126C77.1836 1.6815 77.308 1.5587 77.3816 1.38372C77.3494 1.41902 77.3064 1.43437 77.2496 1.43437C77.136 1.43437 77.0455 1.34688 77.0455 1.2379" fill="black"/>
<path d="M76.5284 2.22206C76.4118 2.22206 76.332 2.1668 76.332 2.07624C76.332 1.99335 76.3826 1.99796 76.3826 1.93656C76.3826 1.87516 76.3427 1.846 76.2798 1.846C76.2168 1.846 76.0986 1.86749 76.0112 2.1361V3.31952C76.0112 3.32873 76.0188 3.33334 76.0372 3.33334H76.266V3.3932H75.3711V3.33334H75.5998C75.6182 3.33334 75.6259 3.32873 75.6259 3.31952V1.85828C75.6259 1.84907 75.6167 1.84447 75.5998 1.84447H75.3711V1.78614H76.0004L76.0127 1.79688V2.04708C76.0802 1.83986 76.2245 1.75391 76.3964 1.75391C76.6021 1.75391 76.7387 1.86289 76.7387 2.03173C76.7387 2.13764 76.6558 2.22359 76.5315 2.22359" fill="black"/>
<path d="M19.7788 26.132C19.567 27.01 19.5378 27.099 19.3214 27.099H16.9023V27.2709H22.382V27.099H19.8739C19.7112 27.099 19.7389 26.9808 19.9353 26.1781L21.6207 19.4152H28.293L30.3298 27.099H27.6191V27.2709H36.7381V27.099H33.9031L26.3436 0H26.2976L19.7803 26.132H19.7788ZM24.8486 6.46201L28.2423 19.2433H21.6698L24.8486 6.46201Z" fill="black"/>
<path d="M7.53499 0.915633C11.0039 0.915633 12.416 3.64165 12.416 7.24718C12.416 10.624 11.0039 13.3224 7.53499 13.3224H5.95709V0.915633H7.53499ZM0.351562 0.742188V0.914098H2.54496C2.70459 0.914098 2.77827 0.960146 2.77827 1.05378V26.9617C2.77827 27.0538 2.70459 27.1014 2.54496 27.1014H0.351562V27.2733H8.53115C13.8005 27.2748 16.611 25.0077 16.611 20.4275C16.611 17.2579 14.9487 14.0315 9.70536 13.3884C14.1612 12.9571 15.6977 10.0668 15.6977 7.24871C15.6977 3.12745 13.3017 0.745257 8.03384 0.745257H0.351562V0.742188ZM7.53499 13.4943C11.4475 13.4943 12.9978 16.2495 12.9978 20.4275C12.9978 24.0331 11.6133 27.1029 8.36538 27.1029H6.18886C6.02923 27.1014 5.95555 27.0553 5.95555 26.9617V13.4928H7.53345L7.53499 13.4943Z" fill="black"/>
<path d="M96.1728 13.7515H98.2587C100.107 13.7515 102.833 14.5742 102.833 17.9157V23.9664C102.833 26.4422 104.156 28.0017 106.489 28.0017C108.94 28.0017 108.902 25.4429 108.902 23.598V21.6532H108.736V23.598C108.736 25.6977 108.495 27.5197 107.299 27.5197C106.24 27.5197 106.012 26.8413 106.012 23.994V17.9172C106.012 15.1053 103.806 14.0753 100.4 13.667C104.642 13.1452 106.24 10.3455 106.24 7.24955C106.24 2.67088 104.194 0.746094 98.9249 0.746094H90.5703V0.91647H92.7637C92.9218 0.91647 92.997 0.962517 92.997 1.05615V26.9641C92.997 27.0561 92.9233 27.1037 92.7637 27.1037H90.5703V27.2756H98.2526V27.1037H96.4076C96.2495 27.1037 96.1743 27.0577 96.1743 26.9641V13.7545L96.1728 13.7515ZM96.1728 0.91647H98.4245C101.893 0.91647 102.873 3.64249 102.873 7.24801C102.873 10.6248 101.893 13.5796 98.4245 13.5796H96.1728V0.91647Z" fill="black"/>
<path d="M56.4218 26.1274C56.21 27.0054 56.1808 27.0929 55.9659 27.0929H53.5469V27.2648H59.025V27.0929H56.5169C56.3542 27.0929 56.3819 26.9747 56.5799 26.1719L58.2652 19.4091H64.936L66.9728 27.0913H64.2621V27.2632H73.3796V27.0913H70.5446L62.9851 0H62.939L56.4218 26.1274ZM61.4901 6.46201L64.8838 19.2402H58.3113L61.4885 6.46201H61.4901Z" fill="black"/>
<path d="M41.9379 26.9625C41.9118 27.0239 41.9425 27.0976 42.0699 27.0976H48.0545C49.8964 27.0991 52.2756 24.2841 52.2756 15.2112V14.2672H52.4413V27.271H38.1543L48.977 1.05001C49.0046 0.988611 48.9724 0.914935 48.845 0.914935H42.492C40.8251 0.91647 38.403 4.06306 38.403 12.806V13.7499H38.2372V0.746094H52.7744L41.9394 26.9625H41.9379Z" fill="black"/>
<path d="M74.4335 26.132C74.2217 27.01 74.1925 27.099 73.9776 27.099H71.5586V27.2709H77.0383V27.099H74.5302C74.3675 27.099 74.3951 26.9808 74.5916 26.1781L76.2769 19.4152H82.9492L84.9861 27.099H82.2754V27.2709H91.3944V27.099H88.5594L80.9968 0H80.9508L74.432 26.132H74.4335ZM79.5033 6.46201L82.8986 19.2433H76.3245L79.5033 6.46201Z" fill="black"/>
</g>
<defs>
<clipPath id="clip0_647_5887">
<rect width="109" height="28" fill="white"/>
</clipPath>
</defs>
</svg>
