<svg width="144" height="44" viewBox="0 0 144 44" fill="none" xmlns="http://www.w3.org/2000/svg">
<path d="M23 13.5207C23 12.2126 24.033 11.1816 25.3339 11.1816H31.6701C36.7356 11.1816 39.7956 14.1878 39.7956 18.5366V18.5973C39.7956 23.5223 35.9749 26.0736 31.2163 26.0736H27.6678V30.4788C27.6678 31.7869 26.6349 32.8178 25.3339 32.8178C24.033 32.8178 23 31.7826 23 30.4788V13.5207ZM31.3675 21.9066C33.7015 21.9066 35.0673 20.5075 35.0673 18.6839V18.6233C35.0673 16.5268 33.6107 15.4006 31.2768 15.4006H27.6678V21.9023H31.3675V21.9066Z" fill="#E7231E"/>
<path d="M39.05 29.6261L46.4495 12.8803C46.9638 11.7237 47.906 11.0264 49.1767 11.0264H49.449C50.724 11.0264 51.6316 11.7237 52.146 12.8803L59.5454 29.6261C59.6966 29.9596 59.7874 30.2628 59.7874 30.566C59.7874 31.8135 58.8149 32.8141 57.5745 32.8141C56.481 32.8141 55.7549 32.1774 55.3313 31.2028L53.9051 27.8588H44.565L43.0782 31.3544C42.6849 32.264 41.894 32.8141 40.9258 32.8141C39.7113 32.8141 38.7734 31.8395 38.7734 30.6267C38.7734 30.2932 38.8945 29.9596 39.0457 29.6261H39.05ZM52.1805 23.7308L49.2415 16.7094L46.2982 23.7308H52.1805Z" fill="#E7231E"/>
<path d="M64.73 24.4319L57.8795 15.1018C57.5467 14.6469 57.3047 14.0968 57.3047 13.4298C57.3047 12.1823 58.3377 11.1817 59.6386 11.1817C60.7018 11.1817 61.3674 11.7578 61.9423 12.6111L67.0985 20.0571L72.3455 12.5505C72.9204 11.7015 73.6205 11.1514 74.5887 11.1514C76.015 11.1514 76.8621 12.152 76.8621 13.4298C76.8621 14.0665 76.5596 14.6469 76.257 15.0714L69.4065 24.341V30.4788C69.4065 31.7869 68.3735 32.8179 67.0726 32.8179C65.7717 32.8179 64.7387 31.7826 64.7387 30.4788V24.4319H64.73Z" fill="#E7231E"/>
<path d="M77 22.0628V22.0022C77 15.9553 81.5468 11 88.0688 11C91.2542 11 93.4066 11.849 95.1657 13.1571C95.6498 13.521 96.0734 14.188 96.0734 15.011C96.0734 16.2888 95.0447 17.2894 93.7697 17.2894C93.1343 17.2894 92.7108 17.0469 92.3737 16.8346C91.0684 15.86 89.7069 15.3142 88.0386 15.3142C84.4599 15.3142 81.8839 18.2944 81.8839 21.9372V21.9978C81.8839 25.645 84.3994 28.6814 88.0386 28.6814C90.0095 28.6814 91.3147 28.075 92.6459 27.0095C93.009 26.7062 93.4931 26.494 94.042 26.494C95.2262 26.494 96.2246 27.4686 96.2246 28.6511C96.2246 29.3788 95.8616 29.9592 95.438 30.3231C93.5276 31.9951 91.2845 32.9957 87.8873 32.9957C81.6419 32.9957 77.0043 28.166 77.0043 22.0585L77 22.0628Z" fill="#E7231E"/>
<path d="M97.4375 22.0628V22.0022C97.4375 15.9553 102.196 11 108.748 11C115.301 11 119.999 15.8903 119.999 21.9372V21.9978C119.999 28.0447 115.24 33 108.688 33C102.136 33 97.4375 28.1053 97.4375 22.0628ZM115.115 22.0628V22.0022C115.115 18.355 112.448 15.3186 108.688 15.3186C104.928 15.3186 102.321 18.2987 102.321 21.9415V22.0022C102.321 25.6493 104.988 28.6858 108.748 28.6858C112.509 28.6858 115.115 25.7056 115.115 22.0628Z" fill="#E7231E"/>
</svg>
