<svg width="97" height="22" viewBox="0 0 97 22" fill="none" xmlns="http://www.w3.org/2000/svg">
<path d="M0 2.52068C0 1.21255 1.03298 0.181641 2.33392 0.181641H8.6701C13.7356 0.181641 16.7956 3.18775 16.7956 7.53664V7.59727C16.7956 12.5223 12.9749 15.0736 8.21628 15.0736H4.66784V19.4788C4.66784 20.7869 3.63487 21.8178 2.33392 21.8178C1.03298 21.8178 0 20.7826 0 19.4788V2.52068ZM8.36755 10.9066C10.7015 10.9066 12.0673 9.5075 12.0673 7.68391V7.62326C12.0673 5.52679 10.6107 4.40059 8.27679 4.40059H4.66784V10.9023H8.36755V10.9066Z" fill="#E7231E"/>
<path d="M16.05 18.6261L23.4495 1.88028C23.9638 0.723748 24.906 0.0263672 26.1767 0.0263672H26.449C27.724 0.0263672 28.6316 0.723748 29.146 1.88028L36.5454 18.6261C36.6966 18.9596 36.7874 19.2628 36.7874 19.566C36.7874 20.8135 35.8149 21.8141 34.5745 21.8141C33.481 21.8141 32.7549 21.1774 32.3313 20.2028L30.9051 16.8588H21.565L20.0782 20.3544C19.6849 21.264 18.894 21.8141 17.9258 21.8141C16.7113 21.8141 15.7734 20.8395 15.7734 19.6267C15.7734 19.2932 15.8945 18.9596 16.0457 18.6261H16.05ZM29.1805 12.7308L26.2415 5.70938L23.2982 12.7308H29.1805Z" fill="#E7231E"/>
<path d="M41.73 13.4319L34.8795 4.10176C34.5467 3.64695 34.3047 3.09683 34.3047 2.42977C34.3047 1.18228 35.3377 0.181691 36.6386 0.181691C37.7018 0.181691 38.3674 0.757797 38.9423 1.61112L44.0985 9.05707L49.3455 1.55047C49.9204 0.70148 50.6205 0.151367 51.5887 0.151367C53.015 0.151367 53.8621 1.15196 53.8621 2.42977C53.8621 3.06651 53.5596 3.64695 53.257 4.07144L46.4065 13.341V19.4788C46.4065 20.7869 45.3735 21.8179 44.0726 21.8179C42.7717 21.8179 41.7387 20.7826 41.7387 19.4788V13.4319H41.73Z" fill="#E7231E"/>
<path d="M54 11.0628V11.0022C54 4.95531 58.5468 0 65.0688 0C68.2542 0 70.4066 0.848978 72.1657 2.15711C72.6498 2.52096 73.0734 3.18802 73.0734 4.01102C73.0734 5.28883 72.0447 6.28943 70.7697 6.28943C70.1343 6.28943 69.7108 6.04686 69.3737 5.83462C68.0684 4.86001 66.7069 4.31423 65.0386 4.31423C61.4599 4.31423 58.8839 7.29435 58.8839 10.9372V10.9978C58.8839 14.645 61.3994 17.6814 65.0386 17.6814C67.0095 17.6814 68.3147 17.075 69.6459 16.0095C70.009 15.7062 70.4931 15.494 71.042 15.494C72.2262 15.494 73.2246 16.4686 73.2246 17.6511C73.2246 18.3788 72.8616 18.9592 72.438 19.3231C70.5276 20.9951 68.2845 21.9957 64.8873 21.9957C58.6419 21.9957 54.0043 17.166 54.0043 11.0585L54 11.0628Z" fill="#E7231E"/>
<path d="M74.4375 11.0628V11.0022C74.4375 4.95531 79.1961 0 85.7484 0C92.3007 0 96.9988 4.89033 96.9988 10.9372V10.9978C96.9988 17.0447 92.2402 22 85.6879 22C79.1356 22 74.4375 17.1053 74.4375 11.0628ZM92.1148 11.0628V11.0022C92.1148 7.35499 89.4481 4.31857 85.6879 4.31857C81.9277 4.31857 79.3214 7.29868 79.3214 10.9415V11.0022C79.3214 14.6493 81.9882 17.6858 85.7484 17.6858C89.5086 17.6858 92.1148 14.7056 92.1148 11.0628Z" fill="#E7231E"/>
</svg>
