<svg width="29" height="28" viewBox="0 0 29 28" fill="none" xmlns="http://www.w3.org/2000/svg">
<g id="ic_heart_28" clip-path="url(#clip0_6156_2162)">
<g id="Union">
<mask id="path-1-inside-1_6156_2162" fill="white">
<path fill-rule="evenodd" clip-rule="evenodd" d="M3.57133 5.60689C0.83766 8.34056 0.837659 12.7727 3.57133 15.5064L4.27844 16.2135L14.1779 26.113L24.0774 16.2135L24.7845 15.5064C27.5182 12.7727 27.5182 8.34056 24.7845 5.60689C22.0509 2.87322 17.6187 2.87322 14.885 5.60689L14.1779 6.314L13.4708 5.60689C10.7372 2.87322 6.305 2.87322 3.57133 5.60689Z"/>
</mask>
<path fill-rule="evenodd" clip-rule="evenodd" d="M3.57133 5.60689C0.83766 8.34056 0.837659 12.7727 3.57133 15.5064L4.27844 16.2135L14.1779 26.113L24.0774 16.2135L24.7845 15.5064C27.5182 12.7727 27.5182 8.34056 24.7845 5.60689C22.0509 2.87322 17.6187 2.87322 14.885 5.60689L14.1779 6.314L13.4708 5.60689C10.7372 2.87322 6.305 2.87322 3.57133 5.60689Z" fill="#FF5081"/>
<path d="M14.1779 26.113L12.7637 27.5272L14.1779 28.9414L15.5921 27.5272L14.1779 26.113ZM14.885 5.60689L13.4708 4.19268L14.885 5.60689ZM14.1779 6.314L12.7637 7.72821L14.1779 9.14243L15.5921 7.72821L14.1779 6.314ZM13.4708 5.60689L12.0566 7.02111L13.4708 5.60689ZM4.98554 14.0922C3.03292 12.1396 3.03292 8.97373 4.98554 7.02111L2.15712 4.19268C-1.3576 7.7074 -1.3576 13.4059 2.15712 16.9206L4.98554 14.0922ZM5.69265 14.7993L4.98554 14.0922L2.15712 16.9206L2.86422 17.6277L5.69265 14.7993ZM15.5921 24.6988L5.69265 14.7993L2.86422 17.6277L12.7637 27.5272L15.5921 24.6988ZM22.6632 14.7993L12.7637 24.6988L15.5921 27.5272L25.4916 17.6277L22.6632 14.7993ZM23.3703 14.0922L22.6632 14.7993L25.4916 17.6277L26.1987 16.9206L23.3703 14.0922ZM23.3703 7.02111C25.3229 8.97373 25.3229 12.1396 23.3703 14.0922L26.1987 16.9206C29.7135 13.4059 29.7135 7.7074 26.1987 4.19268L23.3703 7.02111ZM16.2993 7.02111C18.2519 5.06849 21.4177 5.06849 23.3703 7.02111L26.1987 4.19268C22.684 0.677961 16.9855 0.67796 13.4708 4.19268L16.2993 7.02111ZM15.5921 7.72821L16.2993 7.02111L13.4708 4.19268L12.7637 4.89979L15.5921 7.72821ZM12.0566 7.02111L12.7637 7.72821L15.5921 4.89979L14.885 4.19268L12.0566 7.02111ZM4.98554 7.02111C6.93816 5.06849 10.104 5.06849 12.0566 7.02111L14.885 4.19268C11.3703 0.677961 5.67183 0.677961 2.15712 4.19268L4.98554 7.02111Z" fill="#111111" mask="url(#path-1-inside-1_6156_2162)"/>
</g>
</g>
<defs>
<clipPath id="clip0_6156_2162">
<rect width="28" height="28" fill="white" transform="translate(0.177734)"/>
</clipPath>
</defs>
</svg>
