<svg width="24" height="24" viewBox="0 0 24 24" fill="none" xmlns="http://www.w3.org/2000/svg">
<g clip-path="url(#clip0_6161_4247)">
<rect width="24" height="24" fill="white"/>
<mask id="path-1-inside-1_6161_4247" fill="white">
<path fill-rule="evenodd" clip-rule="evenodd" d="M2.90866 4.80591C0.56551 7.14906 0.565512 10.948 2.90866 13.2912L12 22.3826L12.0002 22.3824L12.0003 22.3825L21.0917 13.2912C23.4348 10.948 23.4348 7.14904 21.0917 4.8059C18.7485 2.46275 14.9496 2.46275 12.6064 4.8059L12.0002 5.41214L11.3939 4.80591C9.05079 2.46277 5.2518 2.46277 2.90866 4.80591Z"/>
</mask>
<path fill-rule="evenodd" clip-rule="evenodd" d="M2.90866 4.80591C0.56551 7.14906 0.565512 10.948 2.90866 13.2912L12 22.3826L12.0002 22.3824L12.0003 22.3825L21.0917 13.2912C23.4348 10.948 23.4348 7.14904 21.0917 4.8059C18.7485 2.46275 14.9496 2.46275 12.6064 4.8059L12.0002 5.41214L11.3939 4.80591C9.05079 2.46277 5.2518 2.46277 2.90866 4.80591Z" fill="white"/>
<path d="M12 22.3826L10.5858 23.7968L12 25.211L13.4142 23.7968L12 22.3826ZM12.0002 22.3824L13.4144 20.9682L12.0002 19.554L10.586 20.9682L12.0002 22.3824ZM12.0003 22.3825L10.5861 23.7968L12.0003 25.211L13.4145 23.7968L12.0003 22.3825ZM21.0917 13.2912L22.5059 14.7054L21.0917 13.2912ZM12.6064 4.8059L11.1922 3.39169L12.6064 4.8059ZM12.0002 5.41214L10.5859 6.82636L12.0002 8.24057L13.4144 6.82636L12.0002 5.41214ZM4.32287 11.877C2.76077 10.3149 2.76077 7.78222 4.32287 6.22013L1.49444 3.3917C-1.62975 6.5159 -1.62975 11.5812 1.49444 14.7054L4.32287 11.877ZM13.4142 20.9683L4.32287 11.877L1.49444 14.7054L10.5858 23.7968L13.4142 20.9683ZM10.586 20.9682L10.5858 20.9683L13.4142 23.7968L13.4144 23.7966L10.586 20.9682ZM13.4145 20.9683L13.4144 20.9682L10.586 23.7966L10.5861 23.7968L13.4145 20.9683ZM19.6775 11.877L10.5861 20.9683L13.4145 23.7968L22.5059 14.7054L19.6775 11.877ZM19.6775 6.22011C21.2396 7.78221 21.2396 10.3149 19.6775 11.877L22.5059 14.7054C25.6301 11.5812 25.6301 6.51588 22.5059 3.39168L19.6775 6.22011ZM14.0206 6.22011C15.5827 4.65802 18.1154 4.65802 19.6775 6.22011L22.5059 3.39168C19.3817 0.26749 14.3164 0.267492 11.1922 3.39169L14.0206 6.22011ZM13.4144 6.82636L14.0206 6.22011L11.1922 3.39169L10.5859 3.99793L13.4144 6.82636ZM9.97972 6.22013L10.5859 6.82636L13.4144 3.99793L12.8081 3.3917L9.97972 6.22013ZM4.32287 6.22013C5.88496 4.65803 8.41762 4.65803 9.97972 6.22013L12.8081 3.3917C9.68396 0.267508 4.61864 0.267506 1.49444 3.3917L4.32287 6.22013Z" fill="#111111" mask="url(#path-1-inside-1_6161_4247)"/>
</g>
<defs>
<clipPath id="clip0_6161_4247">
<rect width="24" height="24" fill="white"/>
</clipPath>
</defs>
</svg>
