<svg width="28" height="28" viewBox="0 0 28 28" fill="none" xmlns="http://www.w3.org/2000/svg">
<g clip-path="url(#clip0_6124_5581)">
<mask id="path-1-inside-1_6124_5581" fill="white">
<path fill-rule="evenodd" clip-rule="evenodd" d="M3.39311 5.60689C0.659437 8.34056 0.659437 12.7727 3.39311 15.5064L4.10021 16.2135L13.9997 26.113L23.8992 16.2135L24.6063 15.5064C27.34 12.7727 27.34 8.34056 24.6063 5.60689C21.8726 2.87322 17.4405 2.87322 14.7068 5.60689L13.9997 6.314L13.2926 5.60689C10.5589 2.87322 6.12678 2.87322 3.39311 5.60689Z"/>
</mask>
<path fill-rule="evenodd" clip-rule="evenodd" d="M3.39311 5.60689C0.659437 8.34056 0.659437 12.7727 3.39311 15.5064L4.10021 16.2135L13.9997 26.113L23.8992 16.2135L24.6063 15.5064C27.34 12.7727 27.34 8.34056 24.6063 5.60689C21.8726 2.87322 17.4405 2.87322 14.7068 5.60689L13.9997 6.314L13.2926 5.60689C10.5589 2.87322 6.12678 2.87322 3.39311 5.60689Z" fill="#FF5081"/>
<path d="M3.39311 15.5064L4.80732 14.0922L3.39311 15.5064ZM4.10021 16.2135L2.686 17.6277L4.10021 16.2135ZM13.9997 26.113L12.5855 27.5272L13.9997 28.9414L15.4139 27.5272L13.9997 26.113ZM23.8992 16.2135L25.3134 17.6277L23.8992 16.2135ZM24.6063 15.5064L23.1921 14.0922L24.6063 15.5064ZM14.7068 5.60689L13.2926 4.19268L14.7068 5.60689ZM13.9997 6.314L12.5855 7.72821L13.9997 9.14243L15.4139 7.72821L13.9997 6.314ZM4.80732 14.0922C2.8547 12.1396 2.8547 8.97373 4.80732 7.02111L1.97889 4.19268C-1.53583 7.7074 -1.53583 13.4059 1.97889 16.9206L4.80732 14.0922ZM5.51443 14.7993L4.80732 14.0922L1.97889 16.9206L2.686 17.6277L5.51443 14.7993ZM15.4139 24.6988L5.51443 14.7993L2.686 17.6277L12.5855 27.5272L15.4139 24.6988ZM22.485 14.7993L12.5855 24.6988L15.4139 27.5272L25.3134 17.6277L22.485 14.7993ZM23.1921 14.0922L22.485 14.7993L25.3134 17.6277L26.0205 16.9206L23.1921 14.0922ZM23.1921 7.02111C25.1447 8.97373 25.1447 12.1396 23.1921 14.0922L26.0205 16.9206C29.5352 13.4059 29.5352 7.7074 26.0205 4.19268L23.1921 7.02111ZM16.121 7.02111C18.0736 5.06849 21.2395 5.06849 23.1921 7.02111L26.0205 4.19268C22.5058 0.677961 16.8073 0.67796 13.2926 4.19268L16.121 7.02111ZM15.4139 7.72821L16.121 7.02111L13.2926 4.19268L12.5855 4.89979L15.4139 7.72821ZM11.8784 7.02111L12.5855 7.72821L15.4139 4.89979L14.7068 4.19268L11.8784 7.02111ZM4.80732 7.02111C6.75994 5.06849 9.92577 5.06849 11.8784 7.02111L14.7068 4.19268C11.1921 0.677961 5.49361 0.677961 1.97889 4.19268L4.80732 7.02111Z" fill="#111111" mask="url(#path-1-inside-1_6124_5581)"/>
</g>
<defs>
<clipPath id="clip0_6124_5581">
<rect width="28" height="28" fill="white"/>
</clipPath>
</defs>
</svg>
