<svg width="28" height="28" viewBox="0 0 28 28" fill="none" xmlns="http://www.w3.org/2000/svg">
<g clip-path="url(#clip0_6156_2191)">
<mask id="path-1-inside-1_6156_2191" fill="white">
<path fill-rule="evenodd" clip-rule="evenodd" d="M3.3936 5.60689C0.659925 8.34056 0.659925 12.7727 3.3936 15.5064L4.1007 16.2135L14.0002 26.113L23.8997 16.2135L24.6068 15.5064C27.3405 12.7727 27.3405 8.34056 24.6068 5.60689C21.8731 2.87322 17.441 2.87322 14.7073 5.60689L14.0002 6.314L13.2931 5.60689C10.5594 2.87322 6.12727 2.87322 3.3936 5.60689Z"/>
</mask>
<path fill-rule="evenodd" clip-rule="evenodd" d="M3.3936 5.60689C0.659925 8.34056 0.659925 12.7727 3.3936 15.5064L4.1007 16.2135L14.0002 26.113L23.8997 16.2135L24.6068 15.5064C27.3405 12.7727 27.3405 8.34056 24.6068 5.60689C21.8731 2.87322 17.441 2.87322 14.7073 5.60689L14.0002 6.314L13.2931 5.60689C10.5594 2.87322 6.12727 2.87322 3.3936 5.60689Z" fill="white"/>
<path d="M14.0002 26.113L12.586 27.5272L14.0002 28.9414L15.4144 27.5272L14.0002 26.113ZM14.7073 5.60689L13.2931 4.19268L14.7073 5.60689ZM14.0002 6.314L12.586 7.72821L14.0002 9.14243L15.4144 7.72821L14.0002 6.314ZM13.2931 5.60689L14.7073 4.19268L13.2931 5.60689ZM4.80781 14.0922C2.85519 12.1396 2.85519 8.97373 4.80781 7.02111L1.97938 4.19268C-1.53534 7.7074 -1.53534 13.4059 1.97938 16.9206L4.80781 14.0922ZM5.51491 14.7993L4.80781 14.0922L1.97938 16.9206L2.68649 17.6277L5.51491 14.7993ZM15.4144 24.6988L5.51491 14.7993L2.68649 17.6277L12.586 27.5272L15.4144 24.6988ZM22.4855 14.7993L12.586 24.6988L15.4144 27.5272L25.3139 17.6277L22.4855 14.7993ZM23.1926 14.0922L22.4855 14.7993L25.3139 17.6277L26.021 16.9206L23.1926 14.0922ZM23.1926 7.02111C25.1452 8.97373 25.1452 12.1396 23.1926 14.0922L26.021 16.9206C29.5357 13.4059 29.5357 7.7074 26.021 4.19268L23.1926 7.02111ZM16.1215 7.02111C18.0741 5.06849 21.24 5.06849 23.1926 7.02111L26.021 4.19268C22.5063 0.677961 16.8078 0.67796 13.2931 4.19268L16.1215 7.02111ZM15.4144 7.72821L16.1215 7.02111L13.2931 4.19268L12.586 4.89979L15.4144 7.72821ZM11.8789 7.02111L12.586 7.72821L15.4144 4.89979L14.7073 4.19268L11.8789 7.02111ZM4.80781 7.02111C6.76043 5.06849 9.92625 5.06849 11.8789 7.02111L14.7073 4.19268C11.1926 0.677961 5.4941 0.677961 1.97938 4.19268L4.80781 7.02111Z" fill="#111111" mask="url(#path-1-inside-1_6156_2191)"/>
</g>
<defs>
<clipPath id="clip0_6156_2191">
<rect width="28" height="28" fill="white"/>
</clipPath>
</defs>
</svg>
