<svg width="16" height="16" viewBox="0 0 16 16" fill="none" xmlns="http://www.w3.org/2000/svg">
<g clip-path="url(#clip0_7337_16623)">
<path fill-rule="evenodd" clip-rule="evenodd" d="M13.1315 6.45551L9.55013 2.87364L6.50669 5.40222L6.28883 5.18432L2.68534 6.05464L9.95343 13.3238L10.8236 9.71977L10.5994 9.49547L13.1315 6.45551Z" fill="#FF5081"/>
<rect width="1.46848" height="5.87525" transform="matrix(0.707056 0.707157 -0.707056 0.707157 5.80078 9.16797)" fill="#FF5081"/>
<path d="M9.77066 13.5024C10.1798 13.0932 10.4909 12.594 10.6863 12.0332C10.8817 11.4725 10.9575 10.8613 10.9093 10.2345C10.8612 9.6076 10.6901 8.9774 10.4057 8.37984C10.1214 7.78228 9.72944 7.22905 9.25221 6.75175C8.77498 6.27446 8.22184 5.88243 7.62436 5.59806C7.02688 5.31369 6.39678 5.14254 5.77001 5.0944C5.14325 5.04625 4.53211 5.12204 3.97148 5.31744C3.41085 5.51284 2.91171 5.82403 2.50257 6.23323L6.13661 9.8678L9.77066 13.5024Z" fill="#FF5081"/>
<path d="M10.2925 0.51184C9.95158 0.852843 9.6811 1.25766 9.49655 1.70317C9.312 2.14869 9.21698 2.62617 9.21693 3.10837C9.21687 3.59057 9.31178 4.06804 9.49623 4.51351C9.68069 4.95898 9.95107 5.36373 10.2919 5.70466C10.6328 6.04559 11.0375 6.31601 11.4829 6.50049C11.9283 6.68497 12.4057 6.77989 12.8879 6.77984C13.37 6.77978 13.8474 6.68476 14.2929 6.50018C14.7383 6.3156 15.1431 6.04508 15.484 5.70408L12.8883 3.10796L10.2925 0.51184Z" fill="#FF5081"/>
</g>
<defs>
<clipPath id="clip0_7337_16623">
<rect width="16.0005" height="16.0037" fill="white"/>
</clipPath>
</defs>
</svg>
