<svg width="203" height="20" viewBox="0 0 203 20" fill="none" xmlns="http://www.w3.org/2000/svg">
<path d="M184.1 12.5333H203V19.9778H198.851V15.2889H184.1V12.5333ZM183.849 1.46667H186.836V0.0444539H190.917V1.46667H193.858V4.2H191.076C191.281 4.91111 191.669 5.51113 192.216 5.95557C192.763 6.42224 193.356 6.84445 193.995 7.15556V10.5778C193.539 10.4667 193.06 10.2667 192.604 10.0222C192.125 9.80002 191.623 9.55556 191.19 9.24445C190.734 8.95556 190.301 8.62223 189.914 8.26667C189.503 7.93334 189.161 7.6 188.865 7.22222C188.568 7.6 188.226 7.93334 187.839 8.26667C187.428 8.62223 187.018 8.95556 186.562 9.24445C186.106 9.55556 185.627 9.82224 185.171 10.0222C184.693 10.2667 184.191 10.4445 183.758 10.5778V7.15556C184.373 6.84445 184.943 6.44446 185.536 5.95557C186.083 5.51113 186.471 4.91111 186.676 4.2H183.849V1.46667ZM194.724 0.0444539H198.303V3.73335H199.398V0.0444539H202.977V10.6H199.398V6.51113H198.303V10.6H194.724V0.0444539ZM136.268 0.0444539H140.417V4.91113H142.447V7.66669H140.417V12.9778H136.268V0.0444539ZM122.748 7.93335C123.136 7.80002 123.546 7.60003 124.002 7.35558C124.436 7.11114 124.846 6.82223 125.256 6.46668C125.621 6.13334 125.94 5.75558 126.214 5.33335C126.465 4.93335 126.579 4.46669 126.579 3.9778V0.0444539H130.66V3.9778C130.66 4.46669 130.774 4.93335 131.047 5.33335C131.298 5.75558 131.617 6.13334 132.005 6.46668C132.37 6.82223 132.78 7.11114 133.236 7.35558C133.669 7.60003 134.079 7.77779 134.49 7.93335V11.3556C134.034 11.2444 133.509 11.0444 132.985 10.8C132.415 10.5778 131.891 10.3334 131.344 10.0222C130.796 9.73336 130.295 9.40002 129.839 9.04446C129.36 8.71113 128.927 8.37779 128.653 8.00001C128.334 8.37779 127.947 8.71113 127.491 9.04446C127.012 9.40002 126.51 9.73336 125.986 10.0222C125.439 10.3334 124.891 10.6 124.344 10.8C123.774 11.0444 123.273 11.2222 122.84 11.3556V7.93335H122.748ZM141.17 20H122.748V12.6445H126.898V17.2445H141.17V20ZM70.6077 3.15559C69.4906 4.0667 68.1226 4.77779 66.5267 5.35556C64.908 5.95556 63.2893 6.33336 61.5794 6.48892V3.51112C62.3317 3.42223 63.0841 3.22225 63.8365 2.9778C64.5433 2.75558 65.2272 2.51112 65.8884 2.20001C66.5267 1.91112 67.1195 1.60001 67.6438 1.22223C68.191 0.866673 68.6242 0.48892 69.0118 0.0666979H73.184C73.5488 0.48892 74.0047 0.866673 74.5519 1.22223C75.099 1.60001 75.669 1.91112 76.3302 2.20001C76.9685 2.51112 77.6525 2.7778 78.3821 2.9778C79.0889 3.22225 79.8184 3.4 80.5936 3.51112V6.48892C78.8837 6.33336 77.2193 5.93334 75.6462 5.35556C74.0275 4.77779 72.6824 4.0667 71.5652 3.15559H70.6077ZM80.5936 20H61.5794V14.1778H76.4442V13.2667H61.5794V10.8445H69.0346V9.97779H61.5794V7.33334H80.5936V9.97779H73.1384V10.8445H80.5936V16.6222H65.7288V17.6H80.5936V20ZM9.16507 11.2889H10.647V8.06668H9.16507V11.2889ZM5.35772 3.60002C5.35772 3.24447 5.28928 2.97781 5.17529 2.84448C5.0385 2.73336 4.83329 2.64445 4.5825 2.64445C4.30892 2.64445 4.12653 2.71114 4.01253 2.84448C3.87574 2.97781 3.80735 3.24447 3.80735 3.60002V15.9334C3.80735 16.3111 3.85294 16.5556 4.01253 16.6667C4.10373 16.8 4.30892 16.8889 4.5825 16.8889C4.83329 16.8889 5.0157 16.8222 5.17529 16.6667C5.26649 16.5556 5.35772 16.3111 5.35772 15.9334V3.60002ZM15.3435 0.0444539H18.9229V20H15.3435V0.0444539ZM10.647 0.0444539H14.2264V20H10.647V15.2222H9.16507C9.16507 15.8445 9.09668 16.4222 8.95989 16.9334C8.8231 17.4667 8.5723 17.9333 8.23031 18.3111C7.88833 18.6889 7.43239 18.9778 6.83962 19.2222C6.24686 19.4222 5.49445 19.5334 4.5825 19.5334C3.67055 19.5334 2.91821 19.4222 2.32545 19.2222C1.73268 18.9778 1.27674 18.6889 0.934757 18.3111C0.592776 17.9333 0.341995 17.4445 0.228001 16.9334C0.0912089 16.4 0 15.8445 0 15.2222V4.31112C0 3.68889 0.0684102 3.11112 0.228001 2.57779C0.341995 2.04445 0.592776 1.60001 0.934757 1.22223C1.27674 0.844451 1.73268 0.555554 2.32545 0.31111C2.91821 0.11111 3.64775 0 4.5825 0C5.47165 0 6.20126 0.11111 6.77123 0.31111C7.364 0.533332 7.81994 0.800031 8.16192 1.17781C8.5039 1.55559 8.75471 1.9778 8.8915 2.48891C9.02829 3.02225 9.11945 3.55558 9.14225 4.15558H10.6242V0.0666979L10.647 0.0444539Z" fill="white"/>
</svg>
