<svg width="133" height="30" viewBox="0 0 133 30" fill="none" xmlns="http://www.w3.org/2000/svg">
<g id="_&#207;&#128;_&#195;&#131;&#195;&#166;&#195;&#147;_1" clip-path="url(#clip0_5991_1793)">
<path id="Vector" d="M8.17773 16C12.5978 16 16.1777 12.4217 16.1777 8.00365C16.1777 3.58558 12.5978 0 8.17773 0C3.75764 0 0.177734 3.57827 0.177734 7.99635C0.177734 12.4144 3.75764 15.9927 8.17773 15.9927" fill="#221E1F"/>
<path id="Vector_2" d="M55.1777 15L47.3274 1L39.1777 15H55.1777Z" fill="#221E1F"/>
<path id="Vector_3" d="M94.1777 15L86.3312 1L78.1777 15H94.1777Z" fill="#221E1F"/>
<path id="Vector_4" d="M132.178 16V2.84018H132.024H128.109V1H120.393V2.84018H116.331H116.178V16L124.178 8.46334L132.178 16Z" fill="#221E1F"/>
<path id="Vector_5" d="M93.0329 27.3867H99.1777V29.9922H97.8287V28.3511H93.0329V27.3867ZM92.9513 23.5133H93.9223V23.0156H95.2492V23.5133H96.2054V24.47H95.301C95.3678 24.7189 95.4938 24.9289 95.6717 25.0844C95.8496 25.2478 96.0423 25.3956 96.2498 25.5044V26.7022C96.1016 26.6633 95.9459 26.5933 95.7977 26.5078C95.642 26.43 95.4789 26.3444 95.3381 26.2356C95.1899 26.1344 95.049 26.0178 94.923 25.8933C94.7896 25.7767 94.6784 25.66 94.582 25.5278C94.4857 25.66 94.3745 25.7767 94.2485 25.8933C94.1151 26.0178 93.9816 26.1344 93.8334 26.2356C93.6851 26.3444 93.5295 26.4378 93.3812 26.5078C93.2256 26.5933 93.0625 26.6556 92.9217 26.7022V25.5044C93.1218 25.3956 93.3071 25.2556 93.4998 25.0844C93.6777 24.9289 93.8037 24.7189 93.8705 24.47H92.9513V23.5133ZM96.487 23.0156H97.6508V24.3067H98.0066V23.0156H99.1703V26.71H98.0066V25.2789H97.6508V26.71H96.487V23.0156ZM77.4816 23.0156H78.8307V24.7189H79.4904V25.6833H78.8307V27.5422H77.4816V23.0156ZM73.0861 25.7767C73.2121 25.73 73.3455 25.66 73.4938 25.5744C73.6346 25.4889 73.768 25.3878 73.9015 25.2633C74.0201 25.1467 74.1238 25.0144 74.2128 24.8667C74.2943 24.7267 74.3314 24.5633 74.3314 24.3922V23.0156H75.6582V24.3922C75.6582 24.5633 75.6953 24.7267 75.7842 24.8667C75.8657 25.0144 75.9695 25.1467 76.0955 25.2633C76.2141 25.3878 76.3475 25.4889 76.4958 25.5744C76.6366 25.66 76.7701 25.7222 76.9035 25.7767V26.9744C76.7552 26.9356 76.5847 26.8656 76.4143 26.78C76.2289 26.7022 76.0585 26.6167 75.8806 26.5078C75.7027 26.4067 75.5396 26.29 75.3913 26.1656C75.2357 26.0489 75.0948 25.9322 75.0059 25.8C74.9021 25.9322 74.7761 26.0489 74.6279 26.1656C74.4722 26.29 74.3091 26.4067 74.1386 26.5078C73.9608 26.6167 73.7829 26.71 73.605 26.78C73.4196 26.8656 73.2566 26.9278 73.1157 26.9744V25.7767H73.0861ZM79.0753 30H73.0861V27.4256H74.4351V29.0356H79.0753V30ZM56.1339 24.1044C55.7707 24.4233 55.326 24.6722 54.8071 24.8744C54.2808 25.0844 53.7546 25.2167 53.1986 25.2711V24.2289C53.4432 24.1978 53.6878 24.1278 53.9324 24.0422C54.1622 23.9644 54.3846 23.8789 54.5996 23.77C54.8071 23.6689 54.9998 23.56 55.1703 23.4278C55.3482 23.3033 55.4891 23.1711 55.6151 23.0233H56.9715C57.0901 23.1711 57.2384 23.3033 57.4163 23.4278C57.5942 23.56 57.7795 23.6689 57.9944 23.77C58.202 23.8789 58.4244 23.9722 58.6616 24.0422C58.8913 24.1278 59.1285 24.19 59.3806 24.2289V25.2711C58.8246 25.2167 58.2835 25.0767 57.7721 24.8744C57.2458 24.6722 56.8085 24.4233 56.4453 24.1044H56.1339ZM59.3806 30H53.1986V27.9622H58.0315V27.6433H53.1986V26.7956H55.6225V26.4922H53.1986V25.5667H59.3806V26.4922H56.9567V26.7956H59.3806V28.8178H54.5477V29.16H59.3806V30ZM36.1575 26.9511H36.6393V25.8233H36.1575V26.9511ZM34.9196 24.26C34.9196 24.1356 34.8974 24.0422 34.8603 23.9956C34.8159 23.9567 34.7492 23.9256 34.6676 23.9256C34.5787 23.9256 34.5194 23.9489 34.4823 23.9956C34.4378 24.0422 34.4156 24.1356 34.4156 24.26V28.5767C34.4156 28.7089 34.4304 28.7944 34.4823 28.8333C34.512 28.88 34.5787 28.9111 34.6676 28.9111C34.7492 28.9111 34.8085 28.8878 34.8603 28.8333C34.89 28.7944 34.9196 28.7089 34.9196 28.5767V24.26ZM38.1663 23.0156H39.33V30H38.1663V23.0156ZM36.6393 23.0156H37.8031V30H36.6393V28.3278H36.1575C36.1575 28.5456 36.1353 28.7478 36.0908 28.9267C36.0463 29.1133 35.9648 29.2767 35.8536 29.4089C35.7424 29.5411 35.5942 29.6422 35.4015 29.7278C35.2087 29.7978 34.9641 29.8367 34.6676 29.8367C34.3711 29.8367 34.1265 29.7978 33.9338 29.7278C33.7411 29.6422 33.5928 29.5411 33.4816 29.4089C33.3705 29.2767 33.2889 29.1056 33.2519 28.9267C33.2074 28.74 33.1777 28.5456 33.1777 28.3278V24.5089C33.1777 24.2911 33.2 24.0889 33.2519 23.9022C33.2889 23.7156 33.3705 23.56 33.4816 23.4278C33.5928 23.2956 33.7411 23.1944 33.9338 23.1089C34.1265 23.0389 34.3637 23 34.6676 23C34.9567 23 35.1939 23.0389 35.3792 23.1089C35.5719 23.1867 35.7202 23.28 35.8314 23.4122C35.9426 23.5444 36.0241 23.6922 36.0686 23.8711C36.113 24.0578 36.1427 24.2444 36.1501 24.4544H36.6319V23.0233L36.6393 23.0156Z" fill="#221E1F"/>
</g>
<defs>
<clipPath id="clip0_5991_1793">
<rect width="132" height="30" fill="white" transform="translate(0.177734)"/>
</clipPath>
</defs>
</svg>
