<svg width="28" height="28" viewBox="0 0 28 28" fill="none" xmlns="http://www.w3.org/2000/svg">
<path d="M14.0117 24.4393L13.308 25.1498L14.0117 25.8468L14.7154 25.1498L14.0117 24.4393ZM4.08627 14.6092L4.78998 13.8986L4.78367 13.8925L4.08627 14.6092ZM14.0117 5.915L13.2091 6.51152L14.8109 6.51598L14.0117 5.915ZM23.2334 13.8987L13.308 23.7288L14.7154 25.1498L24.6408 15.3197L23.2334 13.8987ZM14.7154 23.7288L4.78995 13.8987L3.38258 15.3197L13.308 25.1498L14.7154 23.7288ZM4.78367 13.8925C4.22793 13.3517 3.79019 12.7017 3.498 11.9835L1.64542 12.7371C2.04165 13.7111 2.63525 14.5925 3.38886 15.3259L4.78367 13.8925ZM3.498 11.9835C3.20582 11.2652 3.06551 10.4942 3.08593 9.71904L1.08663 9.66637C1.05894 10.7175 1.2492 11.763 1.64542 12.7371L3.498 11.9835ZM3.08593 9.71904C3.10635 8.94388 3.28705 8.18135 3.61664 7.47945L1.8063 6.62935C1.35935 7.58116 1.11431 8.61521 1.08663 9.66637L3.08593 9.71904ZM3.61664 7.47945C3.94624 6.77756 4.41759 6.15152 5.00103 5.64074L3.68362 4.13594C2.89245 4.82858 2.25326 5.67754 1.8063 6.62935L3.61664 7.47945ZM5.00103 5.64074C5.58446 5.12996 6.26733 4.74552 7.00664 4.51162L6.40336 2.60478C5.40081 2.92196 4.47479 3.44329 3.68362 4.13594L5.00103 5.64074ZM7.00664 4.51162C7.74595 4.27773 8.52568 4.19944 9.29673 4.28169L9.50888 2.29297C8.46328 2.18143 7.40591 2.2876 6.40336 2.60478L7.00664 4.51162ZM9.29673 4.28169C10.0678 4.36394 10.8135 4.60495 11.4868 4.98954L12.4787 3.25287C11.5657 2.73134 10.5545 2.40451 9.50888 2.29297L9.29673 4.28169ZM11.4868 4.98954C12.1625 5.37548 12.7481 5.89132 13.2091 6.51152L14.8143 5.31848C14.1854 4.47237 13.3895 3.77305 12.4787 3.25287L11.4868 4.98954ZM14.8109 6.51598C15.2739 5.90031 15.8602 5.389 16.5355 5.00714L15.551 3.26623C14.6409 3.78088 13.844 4.47403 13.2124 5.31402L14.8109 6.51598ZM16.5355 5.00714C17.2083 4.62663 17.9525 4.3891 18.7214 4.30942L18.5152 2.32008C17.4726 2.42813 16.4634 2.75023 15.551 3.26623L16.5355 5.00714ZM18.7214 4.30942C19.4903 4.22974 20.2673 4.30962 21.0039 4.54407L21.6105 2.63827C20.6116 2.32035 19.5579 2.21202 18.5152 2.32008L18.7214 4.30942ZM21.0039 4.54407C21.7405 4.77851 22.4208 5.16247 23.0022 5.67192L24.3203 4.16771C23.5319 3.47687 22.6094 2.95619 21.6105 2.63827L21.0039 4.54407ZM23.0022 5.67192C23.5836 6.18136 24.0535 6.80533 24.3827 7.50476L26.1923 6.65316C25.746 5.70469 25.1087 4.85855 24.3203 4.16771L23.0022 5.67192ZM24.3827 7.50476C24.7118 8.20419 24.8931 8.96403 24.915 9.73672L26.9142 9.67985C26.8844 8.63203 26.6387 7.60163 26.1923 6.65316L24.3827 7.50476ZM24.915 9.73672C24.937 10.5094 24.7993 11.2783 24.5104 11.9953L26.3656 12.7427C26.7573 11.7704 26.944 10.7277 26.9142 9.67985L24.915 9.73672ZM24.5104 11.9953C24.2216 12.7124 23.7878 13.362 23.2364 13.9037L24.6378 15.3305C25.3857 14.596 25.9739 13.715 26.3656 12.7427L24.5104 11.9953Z" fill="#111111"/>
<path d="M14.7192 6.61726C15.1097 6.22674 15.1097 5.59357 14.7192 5.20305C14.3287 4.81253 13.6955 4.81253 13.305 5.20305L14.7192 6.61726ZM12.9206 15.4058L12.2135 16.1129L12.9206 16.82L13.6277 16.1129L12.9206 15.4058ZM13.6277 16.1129L19.5832 10.1574L18.169 8.74322L12.2135 14.6987L13.6277 16.1129ZM13.305 5.20305C12.0119 6.49619 10.7186 7.78935 9.4255 9.08257L10.8398 10.4967C12.1329 9.20355 13.426 7.91045 14.7192 6.61726L13.305 5.20305ZM9.42561 13.325C10.3345 14.2339 11.1772 15.0766 12.2135 16.1129L13.6277 14.6987C12.5914 13.6624 11.7488 12.8197 10.8399 11.9108L9.42561 13.325ZM9.4255 9.08257C8.25401 10.2541 8.25426 12.1535 9.42561 13.325L10.8399 11.9108C10.4494 11.5203 10.4494 10.8871 10.8398 10.4967L9.4255 9.08257Z" fill="#111111"/>
</svg>
