<svg width="78" height="80" viewBox="0 0 78 80" fill="none" xmlns="http://www.w3.org/2000/svg">
<g opacity="0.16" clip-path="url(#clip0_9916_21814)">
<path d="M261.278 58.5189C261.278 76.7298 253.423 78.6698 244.423 78.6698V39.1809C252.9 39.1809 253.728 45.0193 253.728 53.6105H254.456V23.7352H253.728C253.728 32.3326 252.9 38.4727 244.423 38.4727V1.33025C253.417 1.33025 260.656 2.75905 260.656 21.3826H261.378V0H229.124V0.714396H234.912V79.2794H229.124V80H262V58.5127H261.278V58.5189ZM175.055 30.8976V0.714396H180.843V0H159.755V0.714396H165.544V79.2794H159.755V80H192.632V58.5127H191.91C191.91 76.7236 184.048 79.2794 175.061 79.2794V30.8915L175.055 30.8976ZM105.68 30.8976V0.714396H111.468V0H90.3809V0.714396H96.1693V79.2794H90.3809V80H123.257V58.5127H122.535C122.535 76.7236 114.68 79.2794 105.686 79.2794V30.8915L105.68 30.8976ZM53.1541 58.5189C53.1541 76.7298 45.2992 78.6698 36.3052 78.6698V39.1809C44.7763 39.1809 45.6104 45.0193 45.6104 53.6105H46.3324V23.7352H45.6104C45.6104 32.3326 44.7826 38.4727 36.3052 38.4727V1.33025C45.2992 1.33025 52.5317 2.75905 52.5317 21.3826H53.2537V0H21V0.714396H26.7885V79.2794H21V80H53.8761V58.5127H53.1541V58.5189Z" fill="#111111"/>
</g>
<g clip-path="url(#clip1_9916_21814)">
<path d="M77.2675 46.0186C77.2675 51.9372 74.7416 52.5677 71.8474 52.5677V39.7338C74.5734 39.7338 74.8397 41.6313 74.8397 44.4234H75.0738V34.7139H74.8397C74.8397 37.5081 74.5734 39.5036 71.8474 39.5036V27.4323C74.7396 27.4323 77.0674 27.8967 77.0674 33.9493H77.2996V27H66.9276V27.2322H68.789V52.7658H66.9276V53H77.4997V46.0166H77.2675V46.0186ZM49.5402 37.0417V27.2322H51.4016V27H44.6204V27.2322H46.4818V52.7658H44.6204V53H55.1925V46.0166H54.9603C54.9603 51.9352 52.4324 52.7658 49.5422 52.7658V37.0397L49.5402 37.0417ZM27.231 37.0417V27.2322H29.0924V27H22.3112V27.2322H24.1726V52.7658H22.3112V53H32.8833V46.0166H32.6512C32.6512 51.9352 30.1252 52.7658 27.233 52.7658V37.0397L27.231 37.0417ZM10.34 46.0186C10.34 51.9372 7.81402 52.5677 4.92179 52.5677V39.7338C7.64589 39.7338 7.9141 41.6313 7.9141 44.4234H8.14628V34.7139H7.9141C7.9141 37.5081 7.64789 39.5036 4.92179 39.5036V27.4323C7.81402 27.4323 10.1398 27.8967 10.1398 33.9493H10.372V27H0V27.2322H1.86143V52.7658H0V53H10.5721V46.0166H10.34V46.0186Z" fill="#111111"/>
</g>
<defs>
<clipPath id="clip0_9916_21814">
<rect width="49.6" height="80" fill="white" transform="translate(14)"/>
</clipPath>
<clipPath id="clip1_9916_21814">
<rect width="78" height="26" fill="white" transform="translate(0 27)"/>
</clipPath>
</defs>
</svg>
