<svg width="73" height="24" viewBox="0 0 73 24" fill="none" xmlns="http://www.w3.org/2000/svg">
<g clip-path="url(#clip0_9148_518)">
<path d="M72.3145 17.5557C72.3145 23.0189 69.9504 23.6009 67.2417 23.6009V11.7543C69.7931 11.7543 70.0422 13.5058 70.0422 16.0831H70.2614V7.12055H70.0422C70.0422 9.69977 69.7931 11.5418 67.2417 11.5418V0.399076C69.9486 0.399076 72.1272 0.827714 72.1272 6.41478H72.3445V0H62.6373V0.214319H64.3794V23.7838H62.6373V24H72.5318V17.5538H72.3145V17.5557ZM46.3645 9.26928V0.214319H48.1066V0H41.7601V0.214319H43.5022V23.7838H41.7601V24H51.6545V17.5538H51.4372C51.4372 23.0171 49.0713 23.7838 46.3664 23.7838V9.26744L46.3645 9.26928ZM25.4854 9.26928V0.214319H27.2275V0H20.881V0.214319H22.6231V23.7838H20.881V24H30.7754V17.5538H30.5581C30.5581 23.0171 28.1941 23.7838 25.4873 23.7838V9.26744L25.4854 9.26928ZM9.67715 17.5557C9.67715 23.0189 7.31312 23.6009 4.60629 23.6009V11.7543C7.15577 11.7543 7.40678 13.5058 7.40678 16.0831H7.62408V7.12055H7.40678C7.40678 9.69977 7.15764 11.5418 4.60629 11.5418V0.399076C7.31312 0.399076 9.48982 0.827714 9.48982 6.41478H9.70712V0H0V0.214319H1.74211V23.7838H0V24H9.89444V17.5538H9.67715V17.5557Z" fill="#111111"/>
</g>
<defs>
<clipPath id="clip0_9148_518">
<rect width="73" height="24" fill="white"/>
</clipPath>
</defs>
</svg>
