<svg width="16" height="16" viewBox="0 0 16 16" fill="none" xmlns="http://www.w3.org/2000/svg">
<circle cx="8" cy="8" r="7.5" stroke="#211955"/>
<path d="M7.136 10.356H8.744V12H7.136V10.356ZM7.244 7.404L7.304 7.344C8.072 7.312 8.632 7.18 8.984 6.948C9.344 6.716 9.524 6.4 9.524 6V5.976C9.524 5.64 9.4 5.368 9.152 5.16C8.912 4.944 8.576 4.836 8.144 4.836C7.76 4.836 7.408 4.92 7.088 5.088C6.776 5.248 6.476 5.48 6.188 5.784L5.288 4.824C5.64 4.424 6.048 4.104 6.512 3.864C6.976 3.616 7.532 3.492 8.18 3.492C8.596 3.492 8.976 3.548 9.32 3.66C9.672 3.772 9.968 3.936 10.208 4.152C10.456 4.36 10.648 4.616 10.784 4.92C10.92 5.216 10.988 5.552 10.988 5.928V5.952C10.988 6.328 10.924 6.656 10.796 6.936C10.668 7.216 10.496 7.452 10.28 7.644C10.064 7.836 9.808 7.992 9.512 8.112C9.224 8.232 8.912 8.32 8.576 8.376L8.456 9.348H7.484L7.244 7.404Z" fill="#211955"/>
</svg>
