<svg width="48" height="48" viewBox="0 0 48 48" fill="none" xmlns="http://www.w3.org/2000/svg">
<rect width="48" height="48" rx="24" fill="#F7F7F7"/>
<path d="M24 35C22.4783 35 21.0483 34.7113 19.71 34.1338C18.3717 33.5562 17.2075 32.7725 16.2175 31.7825C15.2275 30.7925 14.4438 29.6283 13.8663 28.29C13.2887 26.9517 13 25.5217 13 24C13 22.4783 13.2887 21.0483 13.8663 19.71C14.4438 18.3717 15.2275 17.2075 16.2175 16.2175C17.2075 15.2275 18.3717 14.4438 19.71 13.8663C21.0483 13.2887 22.4783 13 24 13C25.5217 13 26.9517 13.2887 28.29 13.8663C29.6283 14.4438 30.7925 15.2275 31.7825 16.2175C32.7725 17.2075 33.5562 18.3717 34.1338 19.71C34.7113 21.0483 35 22.4783 35 24C35 25.5217 34.7113 26.9517 34.1338 28.29C33.5562 29.6283 32.7725 30.7925 31.7825 31.7825C30.7925 32.7725 29.6283 33.5562 28.29 34.1338C26.9517 34.7113 25.5217 35 24 35ZM24 32.8C26.4567 32.8 28.5375 31.9475 30.2425 30.2425C31.9475 28.5375 32.8 26.4567 32.8 24C32.8 23.8717 32.7954 23.7388 32.7863 23.6012C32.7771 23.4637 32.7725 23.3492 32.7725 23.2575C32.6808 23.7892 32.4333 24.2292 32.03 24.5775C31.6267 24.9258 31.15 25.1 30.6 25.1H28.4C27.795 25.1 27.2771 24.8846 26.8463 24.4538C26.4154 24.0229 26.2 23.505 26.2 22.9V21.8H21.8V19.6C21.8 18.995 22.0154 18.4771 22.4463 18.0463C22.8771 17.6154 23.395 17.4 24 17.4H25.1C25.1 16.9783 25.2146 16.6071 25.4438 16.2863C25.6729 15.9654 25.9525 15.7042 26.2825 15.5025C25.9158 15.4108 25.5446 15.3375 25.1687 15.2825C24.7929 15.2275 24.4033 15.2 24 15.2C21.5433 15.2 19.4625 16.0525 17.7575 17.7575C16.0525 19.4625 15.2 21.5433 15.2 24H20.7C21.91 24 22.9458 24.4308 23.8075 25.2925C24.6692 26.1542 25.1 27.19 25.1 28.4V29.5H21.8V32.525C22.1667 32.6167 22.5288 32.6854 22.8863 32.7313C23.2438 32.7771 23.615 32.8 24 32.8Z" fill="black"/>
</svg>
