<svg width="48" height="48" viewBox="0 0 48 48" fill="none" xmlns="http://www.w3.org/2000/svg">
<rect width="48" height="48" rx="24" fill="#F7F7F7"/>
<path d="M35.4937 18.6227C35.3571 18.1153 35.0897 17.6528 34.7181 17.2812C34.3466 16.9097 33.884 16.6423 33.3766 16.5057C31.5082 16 24 16 24 16C24 16 16.4918 16 14.6234 16.5057C14.116 16.6423 13.6534 16.9097 13.2819 17.2812C12.9103 17.6528 12.6429 18.1153 12.5063 18.6227C12.1574 20.5283 11.9881 22.4624 12.0006 24.3995C11.9881 26.3367 12.1574 28.2708 12.5063 30.1764C12.6429 30.6837 12.9103 31.1463 13.2819 31.5179C13.6534 31.8894 14.116 32.1568 14.6234 32.2934C16.4918 32.7991 24 32.7991 24 32.7991C24 32.7991 31.5082 32.7991 33.3766 32.2934C33.884 32.1568 34.3466 31.8894 34.7181 31.5179C35.0897 31.1463 35.3571 30.6837 35.4937 30.1764C35.8426 28.2708 36.0119 26.3367 35.9994 24.3995C36.0119 22.4624 35.8426 20.5283 35.4937 18.6227ZM21.6001 27.9994V20.7997L27.8312 24.3995L21.6001 27.9994Z" fill="#111111"/>
</svg>
