<svg width="48" height="48" viewBox="0 0 48 48" fill="none" xmlns="http://www.w3.org/2000/svg">
<rect width="48" height="48" rx="24" fill="#F7F7F7"/>
<g clip-path="url(#clip0_8701_21467)">
<path d="M24.4011 12C18.1356 12 13.0547 16.6991 13.0547 22.4938C13.0547 26.7745 14.8486 28.8194 17.304 30.6812L17.3145 30.6864V35.7097C17.3145 35.9477 17.5865 36.0837 17.7747 35.9399L22.0764 32.7444L22.1705 32.7836C22.8923 32.917 23.6375 32.9876 24.4011 32.9876C30.6666 32.9876 35.7475 28.2885 35.7475 22.4912C35.7475 16.6938 30.6692 12 24.4011 12ZM20.5989 25.1532C21.7103 25.1532 22.6621 24.4864 22.9498 23.4587H24.5946C24.1919 25.4382 22.6517 26.7352 20.5989 26.7352C18.2141 26.7352 16.3234 24.9571 16.3234 22.4807C16.3234 20.0044 18.2141 18.2262 20.5989 18.2262C22.6726 18.2262 24.2233 19.5494 24.6051 21.5629H22.9655C22.7171 20.4672 21.7312 19.7847 20.5989 19.7847C18.9959 19.7847 17.929 20.9274 17.929 22.4781C17.929 24.0288 19.1424 25.1506 20.5989 25.1506M31.438 26.5705H29.9292V23.1684C29.9292 22.3866 29.4742 21.9656 28.7734 21.9656C27.9915 21.9656 27.4868 22.4441 27.4868 23.4143V26.5705H25.9779V18.2523H27.4868V21.3824C27.8476 20.8333 28.4334 20.564 29.2284 20.564C29.8716 20.564 30.3973 20.7732 30.8052 21.2072C31.2262 21.6387 31.438 22.2244 31.438 22.9828V26.5705Z" fill="#111111"/>
</g>
<defs>
<clipPath id="clip0_8701_21467">
<rect width="22.6928" height="24" fill="white" transform="translate(13.0547 12)"/>
</clipPath>
</defs>
</svg>
