<svg width="48" height="48" viewBox="0 0 48 48" fill="none" xmlns="http://www.w3.org/2000/svg">
<rect width="48" height="48" rx="24" fill="#F7F7F7"/>
<g clip-path="url(#clip0_8093_29511)">
<path d="M21.6442 22.0281V21.2206C21.364 21.1758 21.0806 21.1519 20.7965 21.148C18.0482 21.1419 15.6157 22.9228 14.7904 25.5445C13.9652 28.1662 14.9394 31.0195 17.1952 32.589C15.5053 30.7802 15.0359 28.1477 15.9971 25.8672C16.9582 23.5868 19.17 22.0829 21.6442 22.0289V22.0281Z" fill="#25F4EE"/>
<path d="M21.7953 31.1778C23.3315 31.1755 24.5945 29.965 24.6617 28.4302V14.732H27.1645C27.1135 14.4456 27.0888 14.1553 27.0919 13.8651H23.6689V27.5502C23.6118 29.0926 22.3457 30.3155 20.8025 30.3178C20.3408 30.3139 19.8877 30.2004 19.4785 29.9866C20.0158 30.7316 20.8774 31.1739 21.796 31.1785L21.7953 31.1778Z" fill="#25F4EE"/>
<path d="M31.8385 19.3802V18.619C30.9175 18.619 30.0166 18.3472 29.25 17.8377C29.9224 18.6197 30.831 19.1609 31.8385 19.3802Z" fill="#25F4EE"/>
<path d="M29.2512 17.8373C28.4954 16.9765 28.0793 15.871 28.0793 14.7254H27.166C27.4046 16.0046 28.1588 17.1302 29.2512 17.8373Z" fill="#FE2C55"/>
<path d="M20.7962 24.5703C19.4776 24.5772 18.3327 25.4805 18.0201 26.7612C17.7067 28.042 18.3057 29.3713 19.4722 29.9858C18.8399 29.1127 18.7504 27.9594 19.2414 26.9998C19.7316 26.0402 20.719 25.4365 21.7967 25.4372C22.0839 25.4411 22.3695 25.4851 22.6443 25.57V22.0876C22.3641 22.0459 22.0808 22.0235 21.7967 22.0212H21.6446V24.6691C21.3682 24.595 21.0826 24.5618 20.7969 24.5695L20.7962 24.5703Z" fill="#FE2C55"/>
<path d="M31.8381 19.38V22.0279C30.1328 22.0248 28.4722 21.4852 27.0911 20.4855V27.4435C27.0842 30.9159 24.2671 33.7267 20.7947 33.7267C19.5055 33.729 18.2471 33.3314 17.1934 32.588C18.952 34.4794 21.6887 35.1016 24.0927 34.1575C26.4967 33.2133 28.0769 30.8935 28.0777 28.3112V21.3725C29.4634 22.3653 31.1263 22.898 32.8317 22.8949V19.485C32.4982 19.4842 32.1654 19.4487 31.8389 19.3792L31.8381 19.38Z" fill="#FE2C55"/>
<path d="M27.0938 27.4432V20.4852C28.4795 21.4788 30.1424 22.0115 31.8477 22.0076V19.3597C30.8403 19.1466 29.9293 18.6124 29.2523 17.8373C28.1591 17.1302 27.4049 16.0054 27.1671 14.7254H24.6643V28.4298C24.6141 29.6527 23.795 30.7095 22.6239 31.0631C21.4528 31.4167 20.1852 30.9898 19.4672 29.9993C18.3008 29.3848 17.7017 28.0554 18.0151 26.7747C18.3285 25.4939 19.4726 24.5907 20.7912 24.5838C21.0784 24.5861 21.364 24.6308 21.6389 24.7165V22.0686C19.1507 22.1111 16.922 23.6188 15.9585 25.9139C14.9951 28.2083 15.4776 30.8554 17.1899 32.6619C18.2537 33.3806 19.5143 33.7527 20.7982 33.728C24.2706 33.728 27.0868 30.9172 27.0946 27.4448L27.0938 27.4432Z" fill="black"/>
</g>
<defs>
<clipPath id="clip0_8093_29511">
<rect width="19" height="22" fill="white" transform="translate(14 13)"/>
</clipPath>
</defs>
</svg>
